<svg width="37" height="36" viewBox="0 0 37 36" fill="none" xmlns="http://www.w3.org/2000/svg">
<g clip-path="url(#clip0)">
<path d="M21.5466 2.06827C22.2683 2.21945 22.9791 2.41971 23.6743 2.66769C23.8778 2.74783 24.1032 2.74941 24.3078 2.67213C24.5124 2.59485 24.6819 2.44409 24.7842 2.24844C24.8362 2.1388 24.8648 2.01929 24.8681 1.89769C24.8715 1.7761 24.8496 1.65514 24.8039 1.5427C24.7581 1.43025 24.6896 1.32885 24.6026 1.24508C24.5157 1.16132 24.4123 1.09707 24.2993 1.05652C20.2192 -0.424395 15.7458 -0.33794 11.7243 1.29956C7.70284 2.93705 4.41174 6.01218 2.47288 9.94392C2.46229 9.96785 2.44454 9.98778 2.42214 10.0009C2.39975 10.014 2.37385 10.0196 2.34813 10.0169C2.32241 10.0142 2.29818 10.0034 2.27889 9.98592C2.25959 9.96846 2.24621 9.94528 2.24065 9.91966L1.69422 7.84074C1.64043 7.6171 1.50429 7.42284 1.31376 7.29784C1.12323 7.17284 0.892764 7.12658 0.669671 7.16856C0.556124 7.19322 0.4487 7.24104 0.353919 7.3091C0.259138 7.37716 0.178975 7.46405 0.118295 7.5645C0.0576143 7.66494 0.0176823 7.77685 0.000920772 7.89343C-0.0158408 8.01 -0.00908223 8.12882 0.020787 8.24267L1.33221 13.194C1.35798 13.311 1.40741 13.4213 1.47736 13.5179C1.54732 13.6145 1.63628 13.6953 1.73862 13.7553C1.796 13.7892 1.85665 13.817 1.91962 13.8384C2.00056 13.8629 2.08448 13.8757 2.16893 13.8765C2.35208 13.8757 2.53014 13.8154 2.67702 13.7044C2.82391 13.5934 2.9319 13.4376 2.98516 13.2598C4.14496 9.38114 6.69217 6.08255 10.1265 4.01182C13.5609 1.94109 17.6342 1.24786 21.5466 2.06827Z" fill="#50B848"/>
<path d="M36.9693 26.3503L35.7808 21.3782C35.7507 21.251 35.6923 21.1325 35.61 21.0317C35.5177 20.8638 35.373 20.7318 35.1987 20.6566C35.0243 20.5813 34.8302 20.567 34.647 20.616C34.4914 20.6557 34.3506 20.7404 34.2415 20.8597C34.1324 20.979 34.0597 21.1278 34.0322 21.2881C33.6122 23.3817 32.7888 25.3705 31.6093 27.1405C30.4298 28.9104 28.9173 30.4265 27.1588 31.6019C25.4002 32.7773 23.4302 33.5887 21.3617 33.9897C19.2933 34.3906 17.1671 34.3732 15.1053 33.9384C14.8629 33.8899 14.6204 33.8344 14.3813 33.7721C14.2215 33.7261 14.0519 33.7292 13.8938 33.781C13.7358 33.8328 13.5964 33.931 13.4934 34.0631C13.4047 34.177 13.3455 34.3114 13.3209 34.4543C13.2963 34.5972 13.3073 34.7441 13.3527 34.8817C13.3981 35.0192 13.4766 35.1431 13.5811 35.2422C13.6855 35.3413 13.8127 35.4124 13.951 35.4491C14.2174 35.5184 14.4872 35.5807 14.7604 35.6362C18.7824 36.4828 22.9694 35.8834 26.6034 33.9407C30.2375 31.998 33.0921 28.833 34.6777 24.9886C34.6856 24.9666 34.7 24.9476 34.719 24.9341C34.7379 24.9207 34.7605 24.9135 34.7836 24.9135C34.8067 24.9135 34.8292 24.9207 34.8482 24.9341C34.8671 24.9476 34.8815 24.9666 34.8894 24.9886L35.3095 26.7453C35.3533 26.9344 35.4588 27.1029 35.6088 27.2237C35.7588 27.3444 35.9445 27.4103 36.136 27.4106C36.3536 27.4089 36.5634 27.3277 36.7268 27.1819C36.8375 27.0784 36.9184 26.9465 36.9611 26.8C37.0038 26.6536 37.0066 26.4982 36.9693 26.3503Z" fill="#50B848"/>
<path d="M10.511 22.8538V21.998C10.5086 21.9122 10.5245 21.827 10.5575 21.7481C10.5905 21.6692 10.6399 21.5984 10.7023 21.5406L14.5136 17.6391C15.323 16.8076 16.0061 15.8859 16.0061 14.9747C16.026 14.7365 15.9953 14.4968 15.916 14.2717C15.8368 14.0466 15.7108 13.8414 15.5467 13.6699C15.3825 13.4985 15.184 13.3647 14.9646 13.2778C14.7451 13.1909 14.5098 13.1527 14.2746 13.166C13.3081 13.166 12.567 13.6095 12.4338 14.6386C12.4339 14.6891 12.4238 14.739 12.4042 14.7854C12.3845 14.8318 12.3558 14.8736 12.3196 14.9084C12.2835 14.9431 12.2407 14.9699 12.194 14.9873C12.1473 15.0046 12.0976 15.0121 12.0479 15.0093H10.8833C10.8341 15.0098 10.7854 14.9995 10.7405 14.9792C10.6957 14.9588 10.6556 14.9288 10.6232 14.8913C10.5908 14.8538 10.5667 14.8097 10.5527 14.7618C10.5386 14.714 10.5349 14.6637 10.5418 14.6143C10.7228 12.331 12.4645 11.2915 14.2541 11.2915C16.0436 11.2915 17.9186 12.4869 17.9186 14.9747C17.9186 16.3606 17.0443 17.6634 15.989 18.7271L13.3252 21.3777H17.741C17.7899 21.3741 17.839 21.3812 17.8849 21.3986C17.9309 21.4159 17.9726 21.4431 18.0073 21.4783C18.0419 21.5135 18.0687 21.5558 18.0858 21.6024C18.103 21.6491 18.11 21.6989 18.1064 21.7485V22.8538C18.1112 22.9046 18.1048 22.9558 18.0878 23.0038C18.0707 23.0518 18.0435 23.0954 18.0079 23.1315C17.9723 23.1676 17.9294 23.1953 17.882 23.2125C17.8347 23.2298 17.7842 23.2363 17.7341 23.2314H10.8833C10.8332 23.2363 10.7827 23.2298 10.7354 23.2125C10.6881 23.1953 10.6451 23.1676 10.6095 23.1315C10.574 23.0954 10.5467 23.0518 10.5297 23.0038C10.5127 22.9558 10.5063 22.9046 10.511 22.8538Z" fill="#50B848"/>
<path d="M27.8157 19.7047V20.7441C27.8205 20.7949 27.8141 20.8461 27.7971 20.8942C27.78 20.9422 27.7528 20.9858 27.7172 21.0219C27.6816 21.0579 27.6387 21.0856 27.5913 21.1029C27.544 21.1202 27.4935 21.1266 27.4434 21.1218H26.494V22.8542C26.4987 22.9047 26.4924 22.9556 26.4756 23.0034C26.4587 23.0511 26.4318 23.0945 26.3966 23.1305C26.3614 23.1665 26.3189 23.1943 26.272 23.2118C26.2251 23.2293 26.175 23.2362 26.1252 23.2319H24.9538C24.9048 23.2346 24.8558 23.2266 24.8102 23.2083C24.7646 23.1901 24.7233 23.1621 24.6893 23.1263C24.6553 23.0905 24.6293 23.0476 24.613 23.0007C24.5968 22.9537 24.5907 22.9038 24.5952 22.8542V21.1218H19.1924C19.1423 21.1266 19.0918 21.1202 19.0445 21.1029C18.9972 21.0856 18.9542 21.0579 18.9186 21.0219C18.8831 20.9858 18.8558 20.9422 18.8388 20.8942C18.8217 20.8461 18.8154 20.7949 18.8201 20.7441V19.573C18.8195 19.4094 18.8569 19.2479 18.9294 19.1018L22.6656 11.777C22.703 11.6927 22.7649 11.6219 22.843 11.5742C22.9212 11.5265 23.0118 11.5042 23.1028 11.5102H24.3664C24.6464 11.5102 24.7625 11.6939 24.6293 11.9607L20.8727 19.3305H24.5952V16.659C24.5904 16.6082 24.5968 16.557 24.6138 16.509C24.6309 16.461 24.6581 16.4174 24.6937 16.3813C24.7293 16.3452 24.7722 16.3176 24.8196 16.3003C24.8669 16.283 24.9174 16.2765 24.9674 16.2814H26.1388C26.1886 16.2771 26.2388 16.2839 26.2857 16.3015C26.3326 16.319 26.3751 16.3467 26.4103 16.3827C26.4454 16.4188 26.4724 16.4622 26.4892 16.5099C26.5061 16.5577 26.5124 16.6086 26.5077 16.659V19.3305H27.4571C27.5058 19.3278 27.5544 19.3358 27.5998 19.3538C27.6452 19.3718 27.6862 19.3995 27.7202 19.4349C27.7541 19.4704 27.7802 19.5128 27.7967 19.5593C27.8132 19.6058 27.8197 19.6554 27.8157 19.7047Z" fill="#50B848"/>
<path d="M2.3018 20.3806L1.19187 20.5747C1.09732 20.5914 1.0004 20.5882 0.907086 20.5655C0.813771 20.5428 0.726027 20.5009 0.649252 20.4425C0.572477 20.384 0.508295 20.3103 0.460653 20.2258C0.413012 20.1413 0.382918 20.0478 0.372224 19.951V19.8055C0.358987 19.7069 0.366808 19.6067 0.395155 19.5115C0.423502 19.4163 0.471711 19.3284 0.536507 19.2538C0.601303 19.1792 0.681169 19.1196 0.770679 19.0791C0.860189 19.0385 0.957246 19.018 1.05526 19.0189L2.17885 18.9704C2.35687 18.9624 2.53122 19.0234 2.66638 19.1413C2.80154 19.2591 2.88734 19.4247 2.90628 19.6045C2.92473 19.7882 2.87194 19.972 2.75909 20.1169C2.64625 20.2618 2.48223 20.3564 2.3018 20.3806Z" fill="#50B848"/>
<path d="M5.19783 27.3617L4.32696 28.0859C4.25245 28.1489 4.16589 28.1957 4.07272 28.2232C3.97954 28.2507 3.88177 28.2583 3.78555 28.2456C3.68933 28.2329 3.59673 28.2002 3.51359 28.1494C3.43044 28.0987 3.35854 28.031 3.3024 27.9508L3.22044 27.8329C3.16217 27.7552 3.12075 27.6659 3.09889 27.5708C3.07704 27.4757 3.07524 27.377 3.09362 27.2811C3.112 27.1852 3.15015 27.0944 3.20555 27.0146C3.26095 26.9347 3.33236 26.8676 3.4151 26.8177L4.36794 26.2079C4.51918 26.1121 4.70062 26.0782 4.8756 26.1129C5.05057 26.1476 5.20602 26.2485 5.31053 26.395C5.41502 26.541 5.46146 26.7216 5.44057 26.9007C5.41968 27.0799 5.33301 27.2445 5.19783 27.3617Z" fill="#50B848"/>
<path d="M10.908 32.3791L10.3821 33.3874C10.3374 33.4736 10.2757 33.5495 10.2009 33.6104C10.1261 33.6713 10.0397 33.716 9.94716 33.7417C9.85461 33.7674 9.75784 33.7735 9.66287 33.7596C9.5679 33.7457 9.47675 33.7122 9.39508 33.6611L9.27214 33.5849C9.19097 33.5337 9.12095 33.4662 9.06633 33.3866C9.01172 33.3071 8.97366 33.217 8.95449 33.122C8.93531 33.027 8.93542 32.929 8.9548 32.8341C8.97419 32.7391 9.01244 32.6492 9.06722 32.5697L9.71611 31.6377C9.81568 31.4861 9.97003 31.3805 10.1458 31.3435C10.3215 31.3066 10.5046 31.3413 10.6553 31.4402C10.8067 31.5352 10.917 31.6849 10.9639 31.8592C11.0108 32.0334 10.9908 32.2192 10.908 32.3791Z" fill="#50B848"/>
<path d="M35.1081 16.2778L36.2316 16.1808C36.3276 16.1717 36.4244 16.1828 36.516 16.2133C36.6076 16.2438 36.6921 16.293 36.7641 16.358C36.8362 16.423 36.8943 16.5023 36.9349 16.591C36.9755 16.6798 36.9977 16.776 37.0001 16.8738V17.0158C37.0061 17.1139 36.9914 17.2121 36.9572 17.304C36.9229 17.3958 36.8698 17.4793 36.8013 17.5487C36.7328 17.6182 36.6506 17.6721 36.5601 17.7069C36.4695 17.7416 36.3727 17.7565 36.276 17.7504L35.1524 17.7157C34.9729 17.7105 34.8022 17.6358 34.6752 17.507C34.5482 17.3781 34.4746 17.2049 34.4694 17.0228C34.4616 16.8392 34.5235 16.6597 34.6423 16.5211C34.7611 16.3825 34.9278 16.2954 35.1081 16.2778Z" fill="#50B848"/>
<path d="M32.7309 9.10211L33.6496 8.44378C33.7279 8.38785 33.8168 8.34884 33.9106 8.32916C34.0044 8.30948 34.1013 8.30955 34.1951 8.32936C34.2889 8.34918 34.3777 8.38831 34.4559 8.44435C34.5342 8.50038 34.6004 8.57213 34.6502 8.65514L34.7253 8.77641C34.7757 8.85927 34.8087 8.95174 34.8224 9.04809C34.8361 9.14444 34.8301 9.24262 34.8048 9.33652C34.7795 9.43042 34.7354 9.51804 34.6753 9.59394C34.6153 9.66984 34.5405 9.73241 34.4555 9.77775L33.4617 10.3113C33.3052 10.4006 33.1203 10.4237 32.9471 10.3758C32.7739 10.3278 32.6263 10.2125 32.5362 10.0549C32.4388 9.90203 32.4045 9.71634 32.441 9.53803C32.4774 9.35972 32.5815 9.20312 32.7309 9.10211Z" fill="#50B848"/>
<path d="M27.4 3.66876L27.9977 2.70206C28.0468 2.61759 28.1131 2.54467 28.1921 2.48812C28.271 2.43156 28.361 2.39266 28.4559 2.374C28.5508 2.35533 28.6485 2.35731 28.7426 2.37982C28.8367 2.40233 28.925 2.44485 29.0017 2.50456L29.1178 2.58772C29.197 2.64467 29.2637 2.71762 29.3137 2.80198C29.3637 2.88633 29.396 2.98027 29.4085 3.0779C29.421 3.17552 29.4135 3.27471 29.3864 3.36924C29.3593 3.46377 29.3132 3.55159 29.251 3.62718L28.5373 4.50726C28.4266 4.65115 28.2645 4.74495 28.0861 4.76831C27.9077 4.79166 27.7274 4.74268 27.5844 4.63199C27.5099 4.58111 27.446 4.5158 27.3964 4.43982C27.3467 4.36384 27.3124 4.27867 27.2952 4.18919C27.2781 4.09972 27.2786 4.00769 27.2965 3.91839C27.3145 3.82908 27.3497 3.74425 27.4 3.66876Z" fill="#50B848"/>
</g>
<defs>
<clipPath id="clip0">
<rect width="37" height="36" fill="white"/>
</clipPath>
</defs>
</svg>
