<svg width="54" height="44" viewBox="0 0 54 44" fill="none" xmlns="http://www.w3.org/2000/svg">
<rect width="54" height="44" fill="white"/>
<path d="M7.68994 16.7393C7.15792 16.7393 6.63785 16.5815 6.19549 16.2859C5.75313 15.9903 5.40836 15.5702 5.20476 15.0787C5.00117 14.5872 4.9479 14.0463 5.05169 13.5245C5.15548 13.0027 5.41167 12.5234 5.78787 12.1472C6.16406 11.771 6.64336 11.5149 7.16516 11.4111C7.68696 11.3073 8.22782 11.3605 8.71934 11.5641C9.21086 11.7677 9.63097 12.1125 9.92655 12.5549C10.2221 12.9972 10.3799 13.5173 10.3799 14.0493C10.3799 14.7627 10.0965 15.4469 9.59202 15.9514C9.08756 16.4559 8.40336 16.7393 7.68994 16.7393ZM7.68994 12.39C7.36176 12.39 7.04095 12.4873 6.76808 12.6696C6.49521 12.852 6.28253 13.1111 6.15694 13.4143C6.03135 13.7175 5.99849 14.0512 6.06251 14.373C6.12654 14.6949 6.28457 14.9906 6.51663 15.2226C6.74869 15.4547 7.04435 15.6127 7.36623 15.6767C7.6881 15.7408 8.02173 15.7079 8.32493 15.5823C8.62813 15.4567 8.88728 15.2441 9.06961 14.9712C9.25194 14.6983 9.34925 14.3775 9.34925 14.0493C9.34925 13.6092 9.17444 13.1872 8.86325 12.876C8.55207 12.5648 8.13002 12.39 7.68994 12.39Z" fill="#668FFF"/>
<path d="M48.3173 4.12462C48.2495 4.12502 48.1823 4.11202 48.1195 4.08637C48.0567 4.06073 47.9996 4.02294 47.9514 3.97518L44.8596 0.883296C44.7625 0.786261 44.708 0.654652 44.708 0.517423C44.708 0.380194 44.7625 0.248585 44.8596 0.15155C44.9566 0.0545141 45.0882 3.54182e-09 45.2254 0C45.3627 -3.54182e-09 45.4943 0.0545141 45.5913 0.15155L48.6832 3.24344C48.7792 3.33999 48.833 3.47059 48.833 3.60673C48.833 3.74287 48.7792 3.87348 48.6832 3.97003C48.6355 4.01872 48.5786 4.05746 48.5157 4.08399C48.4529 4.11053 48.3855 4.12434 48.3173 4.12462Z" fill="#668FFF"/>
<path d="M35.2696 43.9994H30.9152C30.7785 43.9994 30.6475 43.9451 30.5508 43.8484C30.4542 43.7518 30.3999 43.6207 30.3999 43.4841C30.3999 43.3474 30.4542 43.2163 30.5508 43.1197C30.6475 43.023 30.7785 42.9688 30.9152 42.9688H35.2696C35.4063 42.9688 35.5374 43.023 35.634 43.1197C35.7306 43.2163 35.7849 43.3474 35.7849 43.4841C35.7849 43.6207 35.7306 43.7518 35.634 43.8484C35.5374 43.9451 35.4063 43.9994 35.2696 43.9994Z" fill="#668FFF"/>
<g opacity="0.24">
<path opacity="0.24" d="M28.8127 12.8945L39.9693 19.3669C40.021 19.3963 40.0665 19.4357 40.1031 19.4827C40.1396 19.5297 40.1666 19.5834 40.1824 19.6408C40.1982 19.6983 40.2025 19.7582 40.1951 19.8173C40.1877 19.8764 40.1688 19.9335 40.1393 19.9853C40.0992 20.0564 40.0404 20.1152 39.9693 20.1553L29.0961 26.4215C29.0274 26.4618 28.9491 26.4831 28.8694 26.4831C28.7897 26.4831 28.7114 26.4618 28.6427 26.4215L17.6922 20.1038C17.6405 20.0743 17.595 20.035 17.5584 19.988C17.5219 19.941 17.4949 19.8872 17.4791 19.8298C17.4633 19.7724 17.459 19.7124 17.4664 19.6533C17.4738 19.5942 17.4927 19.5372 17.5222 19.4854C17.5623 19.4143 17.6211 19.3555 17.6922 19.3153L28.8127 12.8945Z" fill="#9EBBFF"/>
</g>
<path d="M45.2358 4.12338C45.1358 4.12002 45.039 4.08763 44.9571 4.03016C44.8752 3.97269 44.8118 3.89262 44.7747 3.79974C44.7375 3.70685 44.7282 3.60516 44.7478 3.50707C44.7675 3.40898 44.8153 3.31873 44.8854 3.24734L47.9773 0.155456C48.0743 0.0584203 48.2059 0.00390625 48.3431 0.00390625C48.4804 0.00390625 48.612 0.0584203 48.709 0.155456C48.8061 0.252492 48.8606 0.3841 48.8606 0.521329C48.8606 0.658558 48.8061 0.790167 48.709 0.887202L45.6171 3.97909C45.5667 4.02781 45.5069 4.06574 45.4413 4.09055C45.3758 4.11536 45.3058 4.12653 45.2358 4.12338Z" fill="#668FFF"/>
<path d="M28.3389 25.0362C28.2486 25.0368 28.1598 25.0137 28.0812 24.9692L16.229 18.1258C16.1497 18.0809 16.0837 18.0157 16.0378 17.9369C15.992 17.8582 15.9678 17.7686 15.9678 17.6775C15.9678 17.5863 15.992 17.4968 16.0378 17.418C16.0837 17.3393 16.1497 17.2741 16.229 17.2292L28.0297 10.4167C28.108 10.3715 28.1969 10.3477 28.2874 10.3477C28.3778 10.3477 28.4667 10.3715 28.545 10.4167L40.3973 17.2704C40.4766 17.3153 40.5425 17.3805 40.5884 17.4593C40.6343 17.538 40.6585 17.6275 40.6585 17.7187C40.6585 17.8099 40.6343 17.8994 40.5884 17.9781C40.5425 18.0569 40.4766 18.1221 40.3973 18.167L28.5914 24.9846C28.513 25.0229 28.4261 25.0407 28.3389 25.0362ZM17.5173 17.6929L28.3389 23.9437L39.0832 17.7342L28.2616 11.4782L17.5173 17.6929Z" fill="#668FFF"/>
<path d="M28.339 40.611C28.2491 40.6088 28.1609 40.5859 28.0813 40.544L16.2291 33.7006C16.1549 33.6579 16.0924 33.5974 16.0474 33.5245C16.0024 33.4516 15.9763 33.3687 15.9715 33.2832L15.9199 27.1716C15.9199 27.0349 15.9742 26.9038 16.0709 26.8072C16.1675 26.7105 16.2986 26.6562 16.4352 26.6562C16.5719 26.6562 16.703 26.7105 16.7996 26.8072C16.8963 26.9038 16.9506 27.0349 16.9506 27.1716L17.0021 32.9534L27.8237 39.199L27.7722 29.6451C27.7722 29.5084 27.8264 29.3773 27.9231 29.2807C28.0197 29.1841 28.1508 29.1298 28.2875 29.1298C28.4241 29.1298 28.5552 29.1841 28.6518 29.2807C28.7485 29.3773 28.8028 29.5084 28.8028 29.6451L28.8543 40.0905C28.8547 40.1813 28.831 40.2706 28.7858 40.3493C28.7405 40.428 28.6753 40.4934 28.5967 40.5388C28.5186 40.5851 28.4297 40.61 28.339 40.611Z" fill="#668FFF"/>
<path d="M28.2765 40.4945C28.1865 40.4932 28.0982 40.4702 28.0189 40.4275C27.9403 40.3821 27.875 40.3168 27.8298 40.238C27.7845 40.1593 27.7609 40.07 27.7612 39.9792V29.3947C27.7612 29.258 27.8155 29.1269 27.9122 29.0303C28.0088 28.9336 28.1399 28.8793 28.2765 28.8793C28.4132 28.8793 28.5443 28.9336 28.6409 29.0303C28.7376 29.1269 28.7919 29.258 28.7919 29.3947V39.0723L39.6135 32.8163V27.0036C39.6135 26.8669 39.6678 26.7359 39.7644 26.6392C39.861 26.5426 39.9921 26.4883 40.1288 26.4883C40.2654 26.4883 40.3965 26.5426 40.4932 26.6392C40.5898 26.7359 40.6441 26.8669 40.6441 27.0036V33.1152C40.6445 33.206 40.6208 33.2953 40.5756 33.374C40.5303 33.4528 40.4651 33.5181 40.3864 33.5635L28.5342 40.4121C28.4563 40.4601 28.3679 40.4884 28.2765 40.4945Z" fill="#668FFF"/>
<path d="M28.2765 24.9175C28.1399 24.9175 28.0088 24.8632 27.9122 24.7665C27.8155 24.6699 27.7612 24.5388 27.7612 24.4022V17.363C27.7612 17.2263 27.8155 17.0952 27.9122 16.9986C28.0088 16.9019 28.1399 16.8477 28.2765 16.8477C28.4132 16.8477 28.5443 16.9019 28.6409 16.9986C28.7376 17.0952 28.7919 17.2263 28.7919 17.363V24.4022C28.7919 24.5388 28.7376 24.6699 28.6409 24.7665C28.5443 24.8632 28.4132 24.9175 28.2765 24.9175Z" fill="#668FFF"/>
<path d="M32.9455 30.2465C32.8724 30.2464 32.8001 30.2308 32.7334 30.2006C32.6668 30.1703 32.6073 30.1263 32.559 30.0713L27.947 24.877C27.8963 24.8197 27.8589 24.7519 27.8377 24.6784C27.8164 24.6049 27.8118 24.5276 27.8241 24.4521C27.8365 24.3767 27.8654 24.3049 27.909 24.242C27.9525 24.1791 28.0095 24.1267 28.0758 24.0885L39.8559 17.307C39.9614 17.2463 40.085 17.2248 40.2048 17.2465C40.3246 17.2682 40.4328 17.3316 40.5103 17.4255L44.2773 21.9448C44.3232 22.0002 44.357 22.0646 44.3765 22.1338C44.396 22.203 44.4009 22.2756 44.3907 22.3468C44.3807 22.4182 44.3558 22.4868 44.3176 22.5481C44.2795 22.6093 44.2288 22.6619 44.1691 22.7023L33.2341 30.1589C33.1488 30.2163 33.0483 30.2468 32.9455 30.2465ZM29.1374 24.6657L33.028 29.051L43.123 22.1458L39.995 18.3995L29.1374 24.6657Z" fill="#668FFF"/>
<path d="M23.7268 30.1527C23.6303 30.153 23.5357 30.1262 23.4536 30.0754L11.8127 22.7837C11.7474 22.7435 11.692 22.6892 11.6504 22.6248C11.6088 22.5604 11.582 22.4875 11.5722 22.4115C11.5623 22.3354 11.5695 22.2582 11.5933 22.1853C11.6171 22.1124 11.6568 22.0457 11.7096 21.9901L16.1001 17.3523C16.1808 17.2672 16.288 17.2121 16.4042 17.1962C16.5204 17.1803 16.6385 17.2044 16.7391 17.2647L28.4161 24.0926C28.4813 24.1309 28.5372 24.1831 28.58 24.2454C28.6227 24.3078 28.6512 24.3788 28.6635 24.4533C28.676 24.5282 28.6719 24.6048 28.6514 24.6779C28.631 24.7509 28.5946 24.8185 28.545 24.8759L24.1184 29.9724C24.07 30.0289 24.01 30.0743 23.9423 30.1055C23.8747 30.1366 23.8012 30.1527 23.7268 30.1527ZM12.8794 22.2426L23.6288 28.9675L27.3597 24.6646L16.569 18.3366L12.8794 22.2426Z" fill="#668FFF"/>
<path d="M46.6425 21.1045C46.5058 21.1045 46.3748 21.0502 46.2781 20.9535C46.1815 20.8569 46.1272 20.7258 46.1272 20.5892V12.7306L40.9431 9.41715L41.0256 9.75726C41.0448 9.82389 41.0504 9.89371 41.0421 9.96256C41.0337 10.0314 41.0115 10.0978 40.9768 10.1579C40.9422 10.218 40.8957 10.2704 40.8403 10.3121C40.7849 10.3538 40.7216 10.3839 40.6543 10.4005C40.587 10.4172 40.517 10.4201 40.4485 10.4091C40.3801 10.398 40.3145 10.3733 40.2558 10.3363C40.1972 10.2993 40.1465 10.2509 40.107 10.1939C40.0675 10.1369 40.0399 10.0725 40.0259 10.0046L39.6342 8.41229C39.6153 8.31617 39.6241 8.21665 39.6597 8.12538C39.6953 8.03411 39.7562 7.95488 39.8352 7.89697C39.9204 7.83937 40.0209 7.80859 40.1238 7.80859C40.2267 7.80859 40.3272 7.83937 40.4124 7.89697L46.9208 12.0556C46.9934 12.1021 47.0531 12.1661 47.0945 12.2418C47.1359 12.3174 47.1577 12.4022 47.1578 12.4884V20.6304C47.1474 20.7598 47.0886 20.8805 46.9931 20.9684C46.8975 21.0563 46.7723 21.1049 46.6425 21.1045Z" fill="#1FD157"/>
<path d="M40.1909 8.8051C40.0542 8.81945 39.9175 8.77892 39.8107 8.69243C39.7039 8.60594 39.6358 8.48056 39.6215 8.34389C39.6071 8.20722 39.6477 8.07045 39.7342 7.96366C39.8207 7.85688 39.946 7.78882 40.0827 7.77447L41.6853 7.42921C41.822 7.40051 41.9645 7.42728 42.0814 7.50362C42.1983 7.57997 42.2802 7.69964 42.3089 7.83631C42.3376 7.97298 42.3108 8.11545 42.2344 8.23239C42.1581 8.34932 42.0384 8.43114 41.9018 8.45984L40.2991 8.8051H40.1909Z" fill="#1FD157"/>
<path d="M46.6372 21.1025C46.5353 21.102 46.4358 21.0714 46.3513 21.0144C46.2668 20.9574 46.201 20.8767 46.1624 20.7824C46.1238 20.6881 46.1141 20.5844 46.1343 20.4845C46.1546 20.3847 46.2041 20.293 46.2765 20.2213L47.4411 19.067C47.5402 18.9832 47.6674 18.9399 47.7971 18.9458C47.9267 18.9518 48.0494 19.0064 48.1406 19.0988C48.2317 19.1913 48.2846 19.3147 48.2887 19.4445C48.2927 19.5742 48.2477 19.7007 48.1625 19.7987L46.9979 20.953C46.9019 21.0482 46.7724 21.1019 46.6372 21.1025Z" fill="#1FD157"/>
<path d="M46.5597 21.105C46.4919 21.1054 46.4246 21.0924 46.3619 21.0668C46.2991 21.0411 46.242 21.0033 46.1938 20.9556L45.0344 19.8013C44.9373 19.7042 44.8828 19.5726 44.8828 19.4354C44.8828 19.2982 44.9373 19.1666 45.0344 19.0695C45.1314 18.9725 45.263 18.918 45.4002 18.918C45.5375 18.918 45.6691 18.9725 45.7661 19.0695L46.9256 20.2238C46.9739 20.2717 47.0122 20.3287 47.0384 20.3915C47.0645 20.4543 47.078 20.5217 47.078 20.5897C47.078 20.6577 47.0645 20.7251 47.0384 20.7879C47.0122 20.8507 46.9739 20.9077 46.9256 20.9556C46.8774 21.0033 46.8203 21.0411 46.7575 21.0668C46.6947 21.0924 46.6275 21.1054 46.5597 21.105Z" fill="#1FD157"/>
<path d="M41.675 16.9818C41.5383 16.9818 41.4072 16.9276 41.3106 16.8309C41.214 16.7343 41.1597 16.6032 41.1597 16.4665C41.1597 16.3299 41.214 16.1988 41.3106 16.1021C41.4072 16.0055 41.5383 15.9512 41.675 15.9512L43.2828 15.8945C43.4194 15.8945 43.5505 15.9488 43.6471 16.0455C43.7438 16.1421 43.7981 16.2732 43.7981 16.4098C43.7981 16.5465 43.7438 16.6776 43.6471 16.7742C43.5505 16.8709 43.4194 16.9252 43.2828 16.9252L41.6492 16.9818H41.675Z" fill="#1FD157"/>
<path d="M41.6184 16.9286C41.4817 16.9286 41.3506 16.8743 41.254 16.7777C41.1573 16.6811 41.103 16.55 41.103 16.4133L41.0361 14.7746C41.0333 14.7069 41.044 14.6394 41.0674 14.5758C41.0908 14.5123 41.1265 14.454 41.1724 14.4042C41.2184 14.3544 41.2736 14.3142 41.3351 14.2858C41.3966 14.2574 41.4631 14.2414 41.5308 14.2387C41.5984 14.236 41.666 14.2466 41.7295 14.27C41.7931 14.2934 41.8514 14.3291 41.9012 14.3751C41.9509 14.421 41.9912 14.4763 42.0196 14.5378C42.048 14.5992 42.064 14.6657 42.0667 14.7334L42.1337 16.3721C42.1337 16.5088 42.0794 16.6398 41.9827 16.7365C41.8861 16.8331 41.755 16.8874 41.6184 16.8874V16.9286Z" fill="#1FD157"/>
<path d="M41.8143 16.5181C41.7338 16.5175 41.6546 16.4981 41.583 16.4614C41.5115 16.4247 41.4495 16.3718 41.402 16.3068C41.3222 16.1972 41.2887 16.0605 41.309 15.9265C41.3293 15.7924 41.4016 15.6717 41.5102 15.5905L46.3336 12.0349C46.3868 11.9858 46.4498 11.9485 46.5184 11.9254C46.5871 11.9023 46.6598 11.8939 46.7319 11.9008C46.804 11.9077 46.8738 11.9297 46.9368 11.9654C46.9998 12.001 47.0546 12.0496 47.0976 12.1079C47.1405 12.1662 47.1708 12.2329 47.1862 12.3036C47.2017 12.3743 47.2021 12.4475 47.1874 12.5185C47.1727 12.5894 47.1432 12.6564 47.1008 12.7151C47.0585 12.7738 47.0043 12.823 46.9416 12.8594L42.1183 16.415C42.032 16.4837 41.9245 16.5202 41.8143 16.5181Z" fill="#1FD157"/>
</svg>
