<svg width="54" height="44" viewBox="0 0 54 44" fill="none" xmlns="http://www.w3.org/2000/svg">
<rect width="54" height="44" fill="white"/>
<path d="M48.666 9.68587C48.1004 9.68349 47.5481 9.51438 47.0789 9.19991C46.6097 8.88543 46.2447 8.43968 46.0299 7.91892C45.8151 7.39816 45.7601 6.82575 45.8719 6.27393C45.9838 5.72211 46.2574 5.21563 46.6582 4.81842C47.059 4.42122 47.5691 4.15109 48.1241 4.04215C48.6791 3.9332 49.2541 3.99031 49.7765 4.20628C50.2989 4.42225 50.7453 4.7874 51.0593 5.25561C51.3733 5.72383 51.5409 6.27414 51.5409 6.83707C51.5409 7.21219 51.4665 7.58363 51.3218 7.93005C51.1772 8.27647 50.9653 8.59106 50.6982 8.85576C50.431 9.12045 50.114 9.33004 49.7653 9.4725C49.4166 9.61495 49.043 9.68746 48.666 9.68587ZM48.666 5.19538C48.3403 5.19776 48.0225 5.29607 47.7528 5.4779C47.4831 5.65974 47.2736 5.91696 47.1506 6.21714C47.0276 6.51732 46.9966 6.84702 47.0616 7.16468C47.1267 7.48233 47.2847 7.77373 47.5159 8.00211C47.7471 8.2305 48.0411 8.38566 48.3608 8.44803C48.6804 8.51041 49.0115 8.4772 49.3123 8.3526C49.613 8.228 49.8699 8.01758 50.0507 7.74787C50.2314 7.47816 50.3279 7.16124 50.3279 6.83707C50.3279 6.62046 50.2848 6.40599 50.2012 6.20602C50.1175 6.00605 49.9949 5.82453 49.8404 5.67193C49.6859 5.51933 49.5026 5.39865 49.3011 5.31686C49.0995 5.23507 48.8837 5.19379 48.666 5.19538Z" fill="#668FFF"/>
<path d="M4.76719 4.38376C4.6066 4.38153 4.45279 4.31902 4.33656 4.20872L1.14024 1.04606C1.02727 0.932979 0.963867 0.780005 0.963867 0.620553C0.963867 0.461101 1.02727 0.308127 1.14024 0.195042C1.25388 0.0826285 1.4076 0.0195313 1.56783 0.0195312C1.72806 0.0195312 1.88178 0.0826285 1.99542 0.195042L5.19174 3.37581C5.30471 3.48889 5.36812 3.64187 5.36812 3.80132C5.36812 3.96077 5.30471 4.11375 5.19174 4.22683C5.0759 4.33173 4.92376 4.38796 4.76719 4.38376Z" fill="#668FFF"/>
<path d="M25.1762 44.0001H20.6334C20.4725 44.0001 20.3182 43.9365 20.2045 43.8233C20.0908 43.7101 20.0269 43.5566 20.0269 43.3965C20.0269 43.2365 20.0908 43.0829 20.2045 42.9697C20.3182 42.8566 20.4725 42.793 20.6334 42.793H25.1762C25.337 42.793 25.4913 42.8566 25.605 42.9697C25.7188 43.0829 25.7827 43.2365 25.7827 43.3965C25.7827 43.5566 25.7188 43.7101 25.605 43.8233C25.4913 43.9365 25.337 44.0001 25.1762 44.0001Z" fill="#668FFF"/>
<path d="M1.57086 4.38233C1.41028 4.38011 1.25647 4.31759 1.14024 4.2073C1.02727 4.09421 0.963867 3.94124 0.963867 3.78179C0.963867 3.62234 1.02727 3.46936 1.14024 3.35628L4.33656 0.175512C4.4502 0.0630978 4.60392 0 4.76415 0C4.92439 0 5.07811 0.0630978 5.19174 0.175512C5.30471 0.288596 5.36812 0.44157 5.36812 0.601022C5.36812 0.760474 5.30471 0.913448 5.19174 1.02653L1.99542 4.2073C1.88245 4.3188 1.72997 4.38167 1.57086 4.38233Z" fill="#668FFF"/>
<path d="M40.4848 33.8539H24.1817C24.0337 33.8539 23.8918 33.7954 23.7871 33.6913C23.6825 33.5871 23.6237 33.4459 23.6237 33.2986C23.6237 33.1514 23.6825 33.0101 23.7871 32.906C23.8918 32.8019 24.0337 32.7434 24.1817 32.7434H40.4848C40.6852 32.7434 40.8837 32.704 41.0688 32.6275C41.2539 32.551 41.4219 32.4388 41.5634 32.2975C41.7048 32.1562 41.8168 31.9885 41.893 31.804C41.9691 31.6195 42.0079 31.4218 42.0071 31.2224V11.5403C42.0071 11.1385 41.8467 10.7531 41.5612 10.469C41.2757 10.1849 40.8885 10.0253 40.4848 10.0253H15.6177C15.214 10.0253 14.8268 10.1849 14.5413 10.469C14.2558 10.7531 14.0954 11.1385 14.0954 11.5403V31.2224C14.0946 31.4213 14.1332 31.6185 14.2089 31.8026C14.2847 31.9867 14.3962 32.1541 14.537 32.2954C14.6778 32.4366 14.8452 32.5489 15.0296 32.6257C15.2139 32.7026 15.4118 32.7426 15.6117 32.7434H17.5889C17.7369 32.7434 17.8788 32.8019 17.9835 32.906C18.0881 33.0101 18.1469 33.1514 18.1469 33.2986C18.1469 33.4459 18.0881 33.5871 17.9835 33.6913C17.8788 33.7954 17.7369 33.8539 17.5889 33.8539H15.5935C14.8937 33.8507 14.2236 33.5723 13.7293 33.0793C13.235 32.5863 12.9567 31.9188 12.9551 31.2224V11.5403C12.9527 11.1947 13.0188 10.852 13.1495 10.5318C13.2801 10.2116 13.4729 9.92021 13.7168 9.67417C13.9607 9.42812 14.2508 9.23229 14.5708 9.09785C14.8907 8.96341 15.2341 8.89299 15.5813 8.89062H40.4484C40.7949 8.89062 41.1379 8.95853 41.458 9.09048C41.7781 9.22242 42.069 9.41581 42.314 9.65961C42.559 9.90341 42.7533 10.1928 42.8859 10.5114C43.0185 10.8299 43.0867 11.1713 43.0867 11.5161V31.2224C43.0868 31.9131 42.814 32.5761 42.3273 33.0684C41.8405 33.5607 41.1787 33.8428 40.4848 33.8539Z" fill="#668FFF"/>
<path d="M51.3465 34.0822H49.9455C49.7993 34.0954 49.6539 34.0507 49.5406 33.958C49.4274 33.8652 49.3554 33.7318 49.3402 33.5866C49.3251 33.4413 49.368 33.296 49.4597 33.1821C49.5514 33.0681 49.6845 32.9947 49.8302 32.9777H51.3465C51.5445 32.9593 51.7273 32.8642 51.8555 32.7129C51.9837 32.5616 52.047 32.3663 52.0319 32.1689V27.1835C52.0406 26.9896 51.9745 26.7996 51.8471 26.6526C51.7197 26.5056 51.5406 26.4127 51.3465 26.3929H43.8197C43.619 26.4098 43.4331 26.5049 43.3025 26.6575C43.1719 26.8101 43.1071 27.0078 43.1222 27.2077V31.2817C43.1222 31.429 43.0634 31.5702 42.9587 31.6743C42.8541 31.7785 42.7122 31.837 42.5642 31.837C42.4162 31.837 42.2743 31.7785 42.1696 31.6743C42.065 31.5702 42.0062 31.429 42.0062 31.2817V27.1775C41.9915 26.6816 42.1746 26.2001 42.5155 25.8382C42.8565 25.4763 43.3275 25.2634 43.8257 25.2461H51.3526C51.5995 25.2539 51.8425 25.3101 52.0676 25.4114C52.2928 25.5127 52.4956 25.6571 52.6646 25.8365C52.8336 26.0159 52.9654 26.2266 53.0525 26.4567C53.1395 26.6868 53.1802 26.9317 53.1721 27.1775V32.1689C53.1836 32.6622 52.9988 33.1399 52.658 33.4982C52.3173 33.8566 51.8481 34.0664 51.3526 34.0822H51.3465Z" fill="#668FFF"/>
<g opacity="0.24">
<path opacity="0.24" d="M48.0778 39.1488C49.9 39.1488 51.3772 37.6788 51.3772 35.8654C51.3772 34.052 49.9 32.582 48.0778 32.582C46.2555 32.582 44.7783 34.052 44.7783 35.8654C44.7783 37.6788 46.2555 39.1488 48.0778 39.1488Z" fill="#9EBBFF"/>
</g>
<g opacity="0.24">
<path opacity="0.24" d="M22.5314 39.1488C24.3536 39.1488 25.8308 37.6788 25.8308 35.8654C25.8308 34.052 24.3536 32.582 22.5314 32.582C20.7091 32.582 19.2319 34.052 19.2319 35.8654C19.2319 37.6788 20.7091 39.1488 22.5314 39.1488Z" fill="#9EBBFF"/>
</g>
<path d="M50.4852 26.1899H42.6854C42.5394 26.1869 42.4002 26.1282 42.2964 26.026C42.1925 25.9238 42.1321 25.7859 42.1274 25.6406V18.1022C42.1274 17.9549 42.1862 17.8136 42.2909 17.7095C42.3955 17.6054 42.5374 17.5469 42.6854 17.5469H47.0827C47.3988 17.5502 47.7068 17.6473 47.9672 17.8258C48.2276 18.0043 48.4285 18.256 48.5444 18.5488L51.0068 25.4173C51.028 25.4938 51.0338 25.5737 51.0239 25.6524C51.014 25.7311 50.9886 25.8071 50.9492 25.8761C50.9098 25.945 50.857 26.0056 50.7941 26.0542C50.7311 26.1029 50.6591 26.1387 50.5822 26.1597H50.4852V26.1899ZM43.2434 25.0854H49.6967L47.4648 18.9834C47.4309 18.8969 47.3717 18.8225 47.295 18.7698C47.2182 18.7171 47.1274 18.6885 47.0341 18.6876H43.2192L43.2434 25.0854Z" fill="#668FFF"/>
<path d="M52.591 29.7494H51.002C50.8092 29.7613 50.616 29.7352 50.4334 29.6728C50.2507 29.6104 50.0822 29.5128 49.9375 29.3856C49.7927 29.2584 49.6746 29.104 49.5898 28.9313C49.505 28.7587 49.4552 28.5711 49.4432 28.3793C49.4313 28.1875 49.4574 27.9952 49.5202 27.8134C49.5829 27.6317 49.681 27.464 49.8088 27.3199C49.9367 27.1759 50.0918 27.0583 50.2653 26.974C50.4388 26.8896 50.6273 26.84 50.82 26.8281H52.591C52.739 26.8281 52.881 26.8866 52.9856 26.9908C53.0903 27.0949 53.149 27.2361 53.149 27.3834V29.1941C53.149 29.3414 53.0903 29.4826 52.9856 29.5867C52.881 29.6909 52.739 29.7494 52.591 29.7494ZM51.002 27.9387C50.9558 27.9327 50.9089 27.9359 50.8639 27.948C50.8189 27.9601 50.7768 27.9809 50.7399 28.0092C50.703 28.0375 50.6721 28.0728 50.6489 28.113C50.6257 28.1532 50.6107 28.1975 50.6047 28.2435C50.5987 28.2894 50.6019 28.3361 50.6141 28.3809C50.6262 28.4256 50.6471 28.4676 50.6756 28.5043C50.704 28.541 50.7395 28.5718 50.7799 28.5948C50.8202 28.6179 50.8648 28.6329 50.911 28.6388H52.0331V27.9387H51.002Z" fill="#1FD157"/>
<path d="M46.4045 37.482C45.6416 37.4832 44.8954 37.2592 44.2604 36.8384C43.6254 36.4176 43.13 35.8189 42.837 35.1179C42.5439 34.4169 42.4663 33.6452 42.614 32.9004C42.7616 32.1555 43.1279 31.471 43.6665 30.9333C44.2052 30.3956 44.8919 30.0289 45.6399 29.8796C46.388 29.7303 47.1637 29.8051 47.869 30.0946C48.5743 30.384 49.1775 30.8751 49.6024 31.5057C50.0272 32.1363 50.2547 32.8781 50.2559 33.6373C50.2575 34.1416 50.159 34.6413 49.9662 35.1077C49.7733 35.5741 49.4899 35.998 49.1321 36.3552C48.7743 36.7123 48.3492 36.9957 47.8812 37.1891C47.4131 37.3824 46.9113 37.482 46.4045 37.482ZM46.4045 30.9213C45.8618 30.9213 45.3313 31.0816 44.8802 31.3819C44.4291 31.6822 44.0777 32.109 43.8706 32.6082C43.6635 33.1074 43.6099 33.6565 43.7167 34.186C43.8234 34.7156 44.0857 35.2016 44.4703 35.5827C44.855 35.9637 45.3446 36.2226 45.8771 36.3265C46.4097 36.4304 46.9613 36.3747 47.462 36.1663C47.9627 35.958 48.3901 35.6064 48.6898 35.1562C48.9896 34.706 49.1483 34.1774 49.1459 33.6373C49.1427 32.9159 48.8525 32.225 48.3387 31.716C47.8249 31.207 47.1295 30.9213 46.4045 30.9213Z" fill="#668FFF"/>
<path d="M20.8336 37.5015C20.0715 37.5027 19.3261 37.2792 18.6915 36.8592C18.0568 36.4391 17.5615 35.8415 17.2679 35.1416C16.9743 34.4416 16.8957 33.6709 17.0419 32.9265C17.188 32.1822 17.5526 31.4976 18.0894 30.9592C18.6262 30.4208 19.3112 30.0527 20.058 29.9014C20.8049 29.7501 21.58 29.8223 22.2856 30.109C22.9912 30.3956 23.5957 30.8839 24.0227 31.5121C24.4497 32.1403 24.6802 32.8803 24.685 33.6387C24.6866 34.142 24.5885 34.6407 24.3965 35.1063C24.2044 35.5719 23.922 35.9953 23.5655 36.3523C23.209 36.7093 22.7854 36.993 22.3187 37.1871C21.852 37.3811 21.3515 37.4818 20.8458 37.4834L20.8336 37.5015ZM20.8336 30.9408C20.2914 30.9408 19.7614 31.1008 19.3106 31.4006C18.8597 31.7003 18.5084 32.1264 18.3009 32.6249C18.0934 33.1234 18.0391 33.6719 18.1449 34.2011C18.2506 34.7303 18.5117 35.2164 18.8951 35.598C19.2785 35.9795 19.767 36.2393 20.2988 36.3446C20.8306 36.4498 21.3818 36.3958 21.8827 36.1893C22.3837 35.9829 22.8118 35.6332 23.1131 35.1846C23.4143 34.7359 23.5751 34.2085 23.5751 33.6689C23.5751 33.3106 23.5042 32.9559 23.3664 32.6249C23.2286 32.2939 23.0267 31.9932 22.7721 31.7398C22.5176 31.4865 22.2153 31.2856 21.8827 31.1485C21.5501 31.0114 21.1936 30.9408 20.8336 30.9408Z" fill="#668FFF"/>
<path d="M20.8388 35.5904C20.4511 35.5928 20.0714 35.4806 19.7478 35.2681C19.4242 35.0556 19.1712 34.7524 19.0209 34.3967C18.8706 34.041 18.8297 33.649 18.9034 33.2702C18.9771 32.8914 19.1622 32.5429 19.435 32.2688C19.7079 31.9947 20.0564 31.8074 20.4363 31.7305C20.8163 31.6536 21.2106 31.6907 21.5694 31.8369C21.9281 31.9832 22.2352 32.2321 22.4518 32.5522C22.6683 32.8722 22.7845 33.249 22.7857 33.6348C22.7873 33.8901 22.7384 34.1431 22.6417 34.3795C22.5451 34.6159 22.4025 34.831 22.2223 35.0126C22.0421 35.1942 21.8277 35.3387 21.5914 35.4378C21.355 35.537 21.1014 35.5888 20.8449 35.5904H20.8388ZM20.8388 32.82C20.6721 32.8177 20.5084 32.8645 20.3685 32.9547C20.2286 33.0449 20.1186 33.1744 20.0526 33.3268C19.9866 33.4791 19.9675 33.6475 19.9977 33.8107C20.0278 33.9739 20.106 34.1245 20.2221 34.2435C20.3383 34.3625 20.4874 34.4446 20.6504 34.4793C20.8135 34.514 20.9832 34.4998 21.1381 34.4385C21.2931 34.3773 21.4263 34.2716 21.5209 34.135C21.6155 33.9984 21.6673 33.837 21.6698 33.671C21.6714 33.5609 21.6511 33.4515 21.6102 33.3491C21.5694 33.2467 21.5086 33.1533 21.4314 33.0743C21.3543 32.9952 21.2622 32.9321 21.1605 32.8885C21.0589 32.8449 20.9495 32.8216 20.8388 32.82Z" fill="#668FFF"/>
<path d="M46.4041 35.5904C46.0166 35.5916 45.6375 35.4784 45.3147 35.2652C44.9918 35.052 44.7398 34.7483 44.5904 34.3925C44.441 34.0368 44.401 33.6449 44.4754 33.2665C44.5498 32.8881 44.7353 32.5402 45.0085 32.2667C45.2816 31.9932 45.6301 31.8064 46.0099 31.7301C46.3896 31.6537 46.7837 31.6911 47.1421 31.8375C47.5005 31.9839 47.8072 32.2329 48.0235 32.5528C48.2398 32.8727 48.3558 33.2493 48.357 33.6349C48.3578 33.8909 48.3079 34.1445 48.2102 34.3814C48.1125 34.6182 47.9689 34.8335 47.7875 35.0151C47.6062 35.1967 47.3907 35.341 47.1533 35.4397C46.9159 35.5384 46.6613 35.5896 46.4041 35.5904ZM46.4041 32.8201C46.2363 32.8201 46.0724 32.87 45.9333 32.9633C45.7941 33.0566 45.6862 33.1891 45.6231 33.3438C45.5601 33.4985 45.5449 33.6684 45.5794 33.8318C45.614 33.9951 45.6967 34.1445 45.817 34.2608C45.9374 34.3771 46.0899 34.4551 46.255 34.4847C46.4201 34.5143 46.5903 34.4942 46.7438 34.4269C46.8974 34.3597 47.0273 34.2485 47.117 34.1074C47.2066 33.9662 47.2519 33.8017 47.2471 33.6349C47.2408 33.4166 47.1492 33.2093 46.9918 33.0572C46.8343 32.905 46.6235 32.82 46.4041 32.8201Z" fill="#668FFF"/>
<path d="M42.3761 29.3137H13.87C13.722 29.3137 13.5801 29.2552 13.4754 29.151C13.3708 29.0469 13.312 28.9057 13.312 28.7584C13.312 28.6111 13.3708 28.4699 13.4754 28.3658C13.5801 28.2616 13.722 28.2031 13.87 28.2031H42.3761C42.5241 28.2031 42.666 28.2616 42.7707 28.3658C42.8753 28.4699 42.9341 28.6111 42.9341 28.7584C42.9341 28.9057 42.8753 29.0469 42.7707 29.151C42.666 29.2552 42.5241 29.3137 42.3761 29.3137Z" fill="#668FFF"/>
<path d="M25.0246 22.3381C24.8857 22.337 24.752 22.2855 24.6485 22.1933L20.5728 18.5116C20.4683 18.4075 20.4097 18.2664 20.4097 18.1192C20.4097 17.9721 20.4683 17.831 20.5728 17.7269C20.6709 17.633 20.7999 17.5776 20.9359 17.571C21.0719 17.5643 21.2058 17.6069 21.3127 17.6907L25.3885 21.3724C25.4427 21.4216 25.4866 21.4808 25.5177 21.5469C25.5489 21.6129 25.5667 21.6844 25.57 21.7573C25.5734 21.8301 25.5623 21.9029 25.5374 21.9715C25.5125 22.0401 25.4743 22.1032 25.4249 22.1571C25.374 22.2143 25.3114 22.26 25.2413 22.2912C25.1713 22.3225 25.0953 22.3385 25.0185 22.3381H25.0246Z" fill="#668FFF"/>
<path d="M30.5924 22.3376C30.4554 22.3361 30.3237 22.2846 30.2224 22.1927L26.1406 18.511C26.0192 18.4269 25.9363 18.2983 25.9102 18.1534C25.884 18.0086 25.9167 17.8593 26.0011 17.7384C26.0413 17.6794 26.0928 17.6288 26.1527 17.5896C26.2126 17.5503 26.2796 17.5232 26.35 17.5097C26.4204 17.4963 26.4928 17.4968 26.563 17.5112C26.6332 17.5255 26.6999 17.5535 26.7592 17.5936L26.826 17.6419L26.8745 17.6841L30.9563 21.3658C31.0395 21.4413 31.0979 21.54 31.1236 21.6491C31.1494 21.7582 31.1414 21.8724 31.1008 21.9769C31.0601 22.0814 30.9886 22.1711 30.8957 22.2344C30.8028 22.2977 30.6929 22.3316 30.5803 22.3315L30.5924 22.3376Z" fill="#668FFF"/>
<path d="M36.1661 22.3383C36.0237 22.3318 35.8891 22.2713 35.7901 22.1693L31.7143 18.4876C31.5929 18.4035 31.5101 18.2749 31.4839 18.13C31.4577 17.9851 31.4904 17.8359 31.5748 17.715C31.6151 17.6559 31.6666 17.6054 31.7264 17.5661C31.7863 17.5269 31.8534 17.4998 31.9238 17.4863C31.9942 17.4729 32.0665 17.4733 32.1367 17.4877C32.207 17.5021 32.2736 17.5301 32.333 17.5701L32.3997 17.6184L32.4482 17.6607L36.524 21.3424C36.5782 21.3915 36.6221 21.4508 36.6532 21.5168C36.6844 21.5829 36.7021 21.6543 36.7055 21.7272C36.7089 21.8001 36.6978 21.8729 36.6729 21.9415C36.648 22.0101 36.6098 22.0731 36.5604 22.127C36.5095 22.1842 36.4469 22.23 36.3768 22.2612C36.3067 22.2924 36.2308 22.3084 36.154 22.3081L36.1661 22.3383Z" fill="#668FFF"/>
<path d="M10.4373 14.1407H4.48737C4.32652 14.1407 4.17225 14.0771 4.0585 13.9639C3.94476 13.8507 3.88086 13.6972 3.88086 13.5372C3.88086 13.3771 3.94476 13.2236 4.0585 13.1104C4.17225 12.9972 4.32652 12.9336 4.48737 12.9336H10.4373C10.5981 12.9336 10.7524 12.9972 10.8661 13.1104C10.9799 13.2236 11.0438 13.3771 11.0438 13.5372C11.0438 13.6972 10.9799 13.8507 10.8661 13.9639C10.7524 14.0771 10.5981 14.1407 10.4373 14.1407Z" fill="#668FFF"/>
<path d="M10.4373 29.2306H4.48737C4.32652 29.2306 4.17225 29.167 4.0585 29.0538C3.94476 28.9406 3.88086 28.7871 3.88086 28.627C3.88086 28.4669 3.94476 28.3134 4.0585 28.2002C4.17225 28.087 4.32652 28.0234 4.48737 28.0234H10.4373C10.5981 28.0234 10.7524 28.087 10.8661 28.2002C10.9799 28.3134 11.0438 28.4669 11.0438 28.627C11.0438 28.7871 10.9799 28.9406 10.8661 29.0538C10.7524 29.167 10.5981 29.2306 10.4373 29.2306Z" fill="#668FFF"/>
<path d="M6.55641 21.6876H0.606513C0.445656 21.6876 0.291388 21.624 0.177644 21.5108C0.063901 21.3976 0 21.2441 0 21.084C0 20.924 0.063901 20.7704 0.177644 20.6572C0.291388 20.5441 0.445656 20.4805 0.606513 20.4805H6.55641C6.71726 20.4805 6.87153 20.5441 6.98528 20.6572C7.09902 20.7704 7.16292 20.924 7.16292 21.084C7.16292 21.2441 7.09902 21.3976 6.98528 21.5108C6.87153 21.624 6.71726 21.6876 6.55641 21.6876Z" fill="#668FFF"/>
</svg>
