<svg width="520" height="324" viewBox="0 0 520 324" fill="none" xmlns="http://www.w3.org/2000/svg">
<g clip-path="url(#clip0)">
<path d="M259.623 323.047C403.148 323.047 519.498 306.379 519.498 285.818C519.498 265.258 403.148 248.59 259.623 248.59C116.099 248.59 -0.250977 265.258 -0.250977 285.818C-0.250977 306.379 116.099 323.047 259.623 323.047Z" fill="#EAF1FC"/>
<path d="M472.858 271.801C502.503 210.201 518.812 92.2981 454.572 53.1667C412.572 27.5495 368.795 60.5038 323.846 62.0124C288.572 63.1953 254.566 35.3381 222.743 27.3838C139.315 6.54383 8.15474 60.7381 65.8405 271.801C210.063 271.395 328.629 272.212 472.858 271.801Z" fill="#F8F8FF"/>
<path d="M401.262 125.844H303.845V291.169H401.262V125.844Z" fill="#CDE4F7"/>
<path d="M334.193 125.844H303.845V291.169H334.193V125.844Z" fill="#E9EDF4"/>
<path d="M395.005 133.707H390.52V138.444H395.005V133.707Z" fill="white"/>
<path d="M386.828 133.707H382.343V138.444H386.828V133.707Z" fill="white"/>
<path d="M378.651 133.707H374.165V138.444H378.651V133.707Z" fill="white"/>
<path d="M370.468 133.707H365.982V138.444H370.468V133.707Z" fill="white"/>
<path d="M362.29 133.707H357.805V138.444H362.29V133.707Z" fill="white"/>
<path d="M354.114 133.707H349.628V138.444H354.114V133.707Z" fill="white"/>
<path d="M345.931 133.707H341.445V138.444H345.931V133.707Z" fill="white"/>
<path d="M330.937 133.707H326.451V138.444H330.937V133.707Z" fill="white"/>
<path d="M322.759 133.707H318.273V138.444H322.759V133.707Z" fill="white"/>
<path d="M314.577 133.707H310.091V138.444H314.577V133.707Z" fill="white"/>
<path d="M395.005 143.68H390.52V148.417H395.005V143.68Z" fill="white"/>
<path d="M386.828 143.68H382.343V148.417H386.828V143.68Z" fill="white"/>
<path d="M378.651 143.68H374.165V148.417H378.651V143.68Z" fill="white"/>
<path d="M370.468 143.68H365.982V148.417H370.468V143.68Z" fill="white"/>
<path d="M362.29 143.68H357.805V148.417H362.29V143.68Z" fill="white"/>
<path d="M354.114 143.68H349.628V148.417H354.114V143.68Z" fill="white"/>
<path d="M345.931 143.68H341.445V148.417H345.931V143.68Z" fill="white"/>
<path d="M330.937 143.68H326.451V148.417H330.937V143.68Z" fill="white"/>
<path d="M322.759 143.68H318.273V148.417H322.759V143.68Z" fill="white"/>
<path d="M314.577 143.68H310.091V148.417H314.577V143.68Z" fill="white"/>
<path d="M395.005 153.645H390.52V158.382H395.005V153.645Z" fill="white"/>
<path d="M386.828 153.645H382.343V158.382H386.828V153.645Z" fill="white"/>
<path d="M378.651 153.645H374.165V158.382H378.651V153.645Z" fill="white"/>
<path d="M370.468 153.645H365.982V158.382H370.468V153.645Z" fill="white"/>
<path d="M362.29 153.645H357.805V158.382H362.29V153.645Z" fill="white"/>
<path d="M354.114 153.645H349.628V158.382H354.114V153.645Z" fill="white"/>
<path d="M345.931 153.645H341.445V158.382H345.931V153.645Z" fill="white"/>
<path d="M330.937 153.645H326.451V158.382H330.937V153.645Z" fill="white"/>
<path d="M322.759 153.645H318.273V158.382H322.759V153.645Z" fill="white"/>
<path d="M314.577 153.645H310.091V158.382H314.577V153.645Z" fill="white"/>
<path d="M395.005 163.615H390.52V168.352H395.005V163.615Z" fill="white"/>
<path d="M386.828 163.615H382.343V168.352H386.828V163.615Z" fill="white"/>
<path d="M378.651 163.615H374.165V168.352H378.651V163.615Z" fill="white"/>
<path d="M370.468 163.615H365.982V168.352H370.468V163.615Z" fill="white"/>
<path d="M362.29 163.615H357.805V168.352H362.29V163.615Z" fill="white"/>
<path d="M354.114 163.615H349.628V168.352H354.114V163.615Z" fill="white"/>
<path d="M345.931 163.615H341.445V168.352H345.931V163.615Z" fill="white"/>
<path d="M330.937 163.615H326.451V168.352H330.937V163.615Z" fill="white"/>
<path d="M322.759 163.615H318.273V168.352H322.759V163.615Z" fill="white"/>
<path d="M314.577 163.615H310.091V168.352H314.577V163.615Z" fill="white"/>
<path d="M395.005 173.582H390.52V178.319H395.005V173.582Z" fill="white"/>
<path d="M386.828 173.582H382.343V178.319H386.828V173.582Z" fill="white"/>
<path d="M378.651 173.582H374.165V178.319H378.651V173.582Z" fill="white"/>
<path d="M370.468 173.582H365.982V178.319H370.468V173.582Z" fill="white"/>
<path d="M362.29 173.582H357.805V178.319H362.29V173.582Z" fill="white"/>
<path d="M354.114 173.582H349.628V178.319H354.114V173.582Z" fill="white"/>
<path d="M345.931 173.582H341.445V178.319H345.931V173.582Z" fill="white"/>
<path d="M330.937 173.582H326.451V178.319H330.937V173.582Z" fill="white"/>
<path d="M322.759 173.582H318.273V178.319H322.759V173.582Z" fill="white"/>
<path d="M314.577 173.582H310.091V178.319H314.577V173.582Z" fill="white"/>
<path d="M395.005 183.547H390.52V188.284H395.005V183.547Z" fill="white"/>
<path d="M386.828 183.547H382.343V188.284H386.828V183.547Z" fill="white"/>
<path d="M378.651 183.547H374.165V188.284H378.651V183.547Z" fill="white"/>
<path d="M370.468 183.547H365.982V188.284H370.468V183.547Z" fill="white"/>
<path d="M362.29 183.547H357.805V188.284H362.29V183.547Z" fill="white"/>
<path d="M354.114 183.547H349.628V188.284H354.114V183.547Z" fill="white"/>
<path d="M345.931 183.547H341.445V188.284H345.931V183.547Z" fill="white"/>
<path d="M330.937 183.547H326.451V188.284H330.937V183.547Z" fill="white"/>
<path d="M322.759 183.547H318.273V188.284H322.759V183.547Z" fill="white"/>
<path d="M314.577 183.547H310.091V188.284H314.577V183.547Z" fill="white"/>
<path d="M395.005 193.52H390.52V198.257H395.005V193.52Z" fill="white"/>
<path d="M386.828 193.52H382.343V198.257H386.828V193.52Z" fill="white"/>
<path d="M378.651 193.52H374.165V198.257H378.651V193.52Z" fill="white"/>
<path d="M370.468 193.52H365.982V198.257H370.468V193.52Z" fill="white"/>
<path d="M362.29 193.52H357.805V198.257H362.29V193.52Z" fill="white"/>
<path d="M354.114 193.52H349.628V198.257H354.114V193.52Z" fill="white"/>
<path d="M345.931 193.52H341.445V198.257H345.931V193.52Z" fill="white"/>
<path d="M330.937 193.52H326.451V198.257H330.937V193.52Z" fill="white"/>
<path d="M322.759 193.52H318.273V198.257H322.759V193.52Z" fill="white"/>
<path d="M314.577 193.52H310.091V198.257H314.577V193.52Z" fill="white"/>
<path d="M395.005 203.484H390.52V208.221H395.005V203.484Z" fill="white"/>
<path d="M386.828 203.484H382.343V208.221H386.828V203.484Z" fill="white"/>
<path d="M378.651 203.484H374.165V208.221H378.651V203.484Z" fill="white"/>
<path d="M370.468 203.484H365.982V208.221H370.468V203.484Z" fill="white"/>
<path d="M362.29 203.484H357.805V208.221H362.29V203.484Z" fill="white"/>
<path d="M354.114 203.484H349.628V208.221H354.114V203.484Z" fill="white"/>
<path d="M345.931 203.484H341.445V208.221H345.931V203.484Z" fill="white"/>
<path d="M330.937 203.484H326.451V208.221H330.937V203.484Z" fill="white"/>
<path d="M322.759 203.484H318.273V208.221H322.759V203.484Z" fill="white"/>
<path d="M314.577 203.484H310.091V208.221H314.577V203.484Z" fill="white"/>
<path d="M395.005 213.449H390.52V218.186H395.005V213.449Z" fill="white"/>
<path d="M386.828 213.449H382.343V218.186H386.828V213.449Z" fill="white"/>
<path d="M378.651 213.449H374.165V218.186H378.651V213.449Z" fill="white"/>
<path d="M370.468 213.449H365.982V218.186H370.468V213.449Z" fill="white"/>
<path d="M362.29 213.449H357.805V218.186H362.29V213.449Z" fill="white"/>
<path d="M354.114 213.449H349.628V218.186H354.114V213.449Z" fill="white"/>
<path d="M345.931 213.449H341.445V218.186H345.931V213.449Z" fill="white"/>
<path d="M330.937 213.449H326.451V218.186H330.937V213.449Z" fill="white"/>
<path d="M322.759 213.449H318.273V218.186H322.759V213.449Z" fill="white"/>
<path d="M314.577 213.449H310.091V218.186H314.577V213.449Z" fill="white"/>
<path d="M395.005 223.422H390.52V228.159H395.005V223.422Z" fill="white"/>
<path d="M386.828 223.422H382.343V228.159H386.828V223.422Z" fill="white"/>
<path d="M378.651 223.422H374.165V228.159H378.651V223.422Z" fill="white"/>
<path d="M370.468 223.422H365.982V228.159H370.468V223.422Z" fill="white"/>
<path d="M362.29 223.422H357.805V228.159H362.29V223.422Z" fill="white"/>
<path d="M354.114 223.422H349.628V228.159H354.114V223.422Z" fill="white"/>
<path d="M345.931 223.422H341.445V228.159H345.931V223.422Z" fill="white"/>
<path d="M330.937 223.422H326.451V228.159H330.937V223.422Z" fill="white"/>
<path d="M322.759 223.422H318.273V228.159H322.759V223.422Z" fill="white"/>
<path d="M314.577 223.422H310.091V228.159H314.577V223.422Z" fill="white"/>
<path d="M395.005 233.387H390.52V238.124H395.005V233.387Z" fill="white"/>
<path d="M386.828 233.387H382.343V238.124H386.828V233.387Z" fill="white"/>
<path d="M378.651 233.387H374.165V238.124H378.651V233.387Z" fill="white"/>
<path d="M370.468 233.387H365.982V238.124H370.468V233.387Z" fill="white"/>
<path d="M362.29 233.387H357.805V238.124H362.29V233.387Z" fill="white"/>
<path d="M354.114 233.387H349.628V238.124H354.114V233.387Z" fill="white"/>
<path d="M345.931 233.387H341.445V238.124H345.931V233.387Z" fill="white"/>
<path d="M330.937 233.387H326.451V238.124H330.937V233.387Z" fill="white"/>
<path d="M322.759 233.387H318.273V238.124H322.759V233.387Z" fill="white"/>
<path d="M314.577 233.387H310.091V238.124H314.577V233.387Z" fill="white"/>
<path d="M395.005 243.359H390.52V248.097H395.005V243.359Z" fill="white"/>
<path d="M386.828 243.359H382.343V248.097H386.828V243.359Z" fill="white"/>
<path d="M378.651 243.359H374.165V248.097H378.651V243.359Z" fill="white"/>
<path d="M370.468 243.359H365.982V248.097H370.468V243.359Z" fill="white"/>
<path d="M362.29 243.359H357.805V248.097H362.29V243.359Z" fill="white"/>
<path d="M354.114 243.359H349.628V248.097H354.114V243.359Z" fill="white"/>
<path d="M345.931 243.359H341.445V248.097H345.931V243.359Z" fill="white"/>
<path d="M330.937 243.359H326.451V248.097H330.937V243.359Z" fill="white"/>
<path d="M322.759 243.359H318.273V248.097H322.759V243.359Z" fill="white"/>
<path d="M314.577 243.359H310.091V248.097H314.577V243.359Z" fill="white"/>
<path d="M395.005 253.324H390.52V258.061H395.005V253.324Z" fill="white"/>
<path d="M386.828 253.324H382.343V258.061H386.828V253.324Z" fill="white"/>
<path d="M378.651 253.324H374.165V258.061H378.651V253.324Z" fill="white"/>
<path d="M370.468 253.324H365.982V258.061H370.468V253.324Z" fill="white"/>
<path d="M362.29 253.324H357.805V258.061H362.29V253.324Z" fill="white"/>
<path d="M354.114 253.324H349.628V258.061H354.114V253.324Z" fill="white"/>
<path d="M345.931 253.324H341.445V258.061H345.931V253.324Z" fill="white"/>
<path d="M330.937 253.324H326.451V258.061H330.937V253.324Z" fill="white"/>
<path d="M322.759 253.324H318.273V258.061H322.759V253.324Z" fill="white"/>
<path d="M314.577 253.324H310.091V258.061H314.577V253.324Z" fill="white"/>
<path d="M395.005 263.291H390.52V268.028H395.005V263.291Z" fill="white"/>
<path d="M386.828 263.291H382.343V268.028H386.828V263.291Z" fill="white"/>
<path d="M378.651 263.291H374.165V268.028H378.651V263.291Z" fill="white"/>
<path d="M370.468 263.291H365.982V268.028H370.468V263.291Z" fill="white"/>
<path d="M362.29 263.291H357.805V268.028H362.29V263.291Z" fill="white"/>
<path d="M354.114 263.291H349.628V268.028H354.114V263.291Z" fill="white"/>
<path d="M345.931 263.291H341.445V268.028H345.931V263.291Z" fill="white"/>
<path d="M330.937 263.291H326.451V268.028H330.937V263.291Z" fill="white"/>
<path d="M322.759 263.291H318.273V268.028H322.759V263.291Z" fill="white"/>
<path d="M314.577 263.291H310.091V268.028H314.577V263.291Z" fill="white"/>
<path d="M395.005 273.262H390.52V277.999H395.005V273.262Z" fill="white"/>
<path d="M386.828 273.262H382.343V277.999H386.828V273.262Z" fill="white"/>
<path d="M378.651 273.262H374.165V277.999H378.651V273.262Z" fill="white"/>
<path d="M370.468 273.262H365.982V277.999H370.468V273.262Z" fill="white"/>
<path d="M362.29 273.262H357.805V277.999H362.29V273.262Z" fill="white"/>
<path d="M354.114 273.262H349.628V277.999H354.114V273.262Z" fill="white"/>
<path d="M345.931 273.262H341.445V277.999H345.931V273.262Z" fill="white"/>
<path d="M330.937 273.262H326.451V277.999H330.937V273.262Z" fill="white"/>
<path d="M322.759 273.262H318.273V277.999H322.759V273.262Z" fill="white"/>
<path d="M314.577 273.262H310.091V277.999H314.577V273.262Z" fill="white"/>
<path d="M317.519 154.256H227.085V291.17H317.519V154.256Z" fill="#CDE4F7"/>
<path d="M255.256 154.256H227.085V291.17H255.256V154.256Z" fill="#E9EDF4"/>
<path d="M311.719 161.154H307.554V181.6H311.719V161.154Z" fill="white"/>
<path d="M304.126 161.154H299.96V181.6H304.126V161.154Z" fill="white"/>
<path d="M296.531 161.154H292.365V181.6H296.531V161.154Z" fill="white"/>
<path d="M288.937 161.154H284.771V181.6H288.937V161.154Z" fill="white"/>
<path d="M281.343 161.154H277.177V181.6H281.343V161.154Z" fill="white"/>
<path d="M273.754 161.154H269.588V181.6H273.754V161.154Z" fill="white"/>
<path d="M266.16 161.154H261.994V181.6H266.16V161.154Z" fill="white"/>
<path d="M252.24 161.154H248.074V181.6H252.24V161.154Z" fill="white"/>
<path d="M244.645 161.154H240.479V181.6H244.645V161.154Z" fill="white"/>
<path d="M237.051 161.154H232.886V181.6H237.051V161.154Z" fill="white"/>
<path d="M311.719 184.268H307.554V204.713H311.719V184.268Z" fill="white"/>
<path d="M304.126 184.268H299.96V204.713H304.126V184.268Z" fill="white"/>
<path d="M296.531 184.268H292.365V204.713H296.531V184.268Z" fill="white"/>
<path d="M288.937 184.268H284.771V204.713H288.937V184.268Z" fill="white"/>
<path d="M281.343 184.268H277.177V204.713H281.343V184.268Z" fill="white"/>
<path d="M273.754 184.268H269.588V204.713H273.754V184.268Z" fill="white"/>
<path d="M266.16 184.268H261.994V204.713H266.16V184.268Z" fill="white"/>
<path d="M252.24 184.268H248.074V204.713H252.24V184.268Z" fill="white"/>
<path d="M244.645 184.268H240.479V204.713H244.645V184.268Z" fill="white"/>
<path d="M237.051 184.268H232.886V204.713H237.051V184.268Z" fill="white"/>
<path d="M311.719 207.383H307.554V227.829H311.719V207.383Z" fill="white"/>
<path d="M304.126 207.383H299.96V227.829H304.126V207.383Z" fill="white"/>
<path d="M296.531 207.383H292.365V227.829H296.531V207.383Z" fill="white"/>
<path d="M288.937 207.383H284.771V227.829H288.937V207.383Z" fill="white"/>
<path d="M281.343 207.383H277.177V227.829H281.343V207.383Z" fill="white"/>
<path d="M273.754 207.383H269.588V227.829H273.754V207.383Z" fill="white"/>
<path d="M266.16 207.383H261.994V227.829H266.16V207.383Z" fill="white"/>
<path d="M252.24 207.383H248.074V227.829H252.24V207.383Z" fill="white"/>
<path d="M244.645 207.383H240.479V227.829H244.645V207.383Z" fill="white"/>
<path d="M237.051 207.383H232.886V227.829H237.051V207.383Z" fill="white"/>
<path d="M311.719 230.49H307.554V250.936H311.719V230.49Z" fill="white"/>
<path d="M304.126 230.49H299.96V250.936H304.126V230.49Z" fill="white"/>
<path d="M296.531 230.49H292.365V250.936H296.531V230.49Z" fill="white"/>
<path d="M288.937 230.49H284.771V250.936H288.937V230.49Z" fill="white"/>
<path d="M281.343 230.49H277.177V250.936H281.343V230.49Z" fill="white"/>
<path d="M273.754 230.49H269.588V250.936H273.754V230.49Z" fill="white"/>
<path d="M266.16 230.49H261.994V250.936H266.16V230.49Z" fill="white"/>
<path d="M252.24 230.49H248.074V250.936H252.24V230.49Z" fill="white"/>
<path d="M244.645 230.49H240.479V250.936H244.645V230.49Z" fill="white"/>
<path d="M237.051 230.49H232.886V250.936H237.051V230.49Z" fill="white"/>
<path d="M311.719 253.605H307.554V274.051H311.719V253.605Z" fill="white"/>
<path d="M304.126 253.605H299.96V274.051H304.126V253.605Z" fill="white"/>
<path d="M296.531 253.605H292.365V274.051H296.531V253.605Z" fill="white"/>
<path d="M288.937 253.605H284.771V274.051H288.937V253.605Z" fill="white"/>
<path d="M281.343 253.605H277.177V274.051H281.343V253.605Z" fill="white"/>
<path d="M273.754 253.605H269.588V274.051H273.754V253.605Z" fill="white"/>
<path d="M266.16 253.605H261.994V274.051H266.16V253.605Z" fill="white"/>
<path d="M252.24 253.605H248.074V274.051H252.24V253.605Z" fill="white"/>
<path d="M244.645 253.605H240.479V274.051H244.645V253.605Z" fill="white"/>
<path d="M237.051 253.605H232.886V274.051H237.051V253.605Z" fill="white"/>
<path d="M106.148 106.125H15.7139V291.171H106.148V106.125Z" fill="#CDE4F7"/>
<path d="M43.8853 106.125H15.7139V291.171H43.8853V106.125Z" fill="#E9EDF4"/>
<path d="M100.342 114.93H96.1768V135.375H100.342V114.93Z" fill="white"/>
<path d="M92.7536 114.93H88.5879V135.375H92.7536V114.93Z" fill="white"/>
<path d="M85.1599 114.93H80.9941V135.375H85.1599V114.93Z" fill="white"/>
<path d="M77.5651 114.93H73.3994V135.375H77.5651V114.93Z" fill="white"/>
<path d="M69.9714 114.93H65.8057V135.375H69.9714V114.93Z" fill="white"/>
<path d="M62.3825 114.93H58.2168V135.375H62.3825V114.93Z" fill="white"/>
<path d="M54.7878 114.93H50.6221V135.375H54.7878V114.93Z" fill="white"/>
<path d="M40.8679 114.93H36.7021V135.375H40.8679V114.93Z" fill="white"/>
<path d="M33.2741 114.93H29.1084V135.375H33.2741V114.93Z" fill="white"/>
<path d="M25.6794 114.93H21.5137V135.375H25.6794V114.93Z" fill="white"/>
<path d="M100.342 138.039H96.1768V158.485H100.342V138.039Z" fill="white"/>
<path d="M92.7536 138.039H88.5879V158.485H92.7536V138.039Z" fill="white"/>
<path d="M85.1599 138.039H80.9941V158.485H85.1599V138.039Z" fill="white"/>
<path d="M77.5651 138.039H73.3994V158.485H77.5651V138.039Z" fill="white"/>
<path d="M69.9714 138.039H65.8057V158.485H69.9714V138.039Z" fill="white"/>
<path d="M62.3825 138.039H58.2168V158.485H62.3825V138.039Z" fill="white"/>
<path d="M54.7878 138.039H50.6221V158.485H54.7878V138.039Z" fill="white"/>
<path d="M40.8679 138.039H36.7021V158.485H40.8679V138.039Z" fill="white"/>
<path d="M33.2741 138.039H29.1084V158.485H33.2741V138.039Z" fill="white"/>
<path d="M25.6794 138.039H21.5137V158.485H25.6794V138.039Z" fill="white"/>
<path d="M100.342 161.154H96.1768V181.6H100.342V161.154Z" fill="white"/>
<path d="M92.7536 161.154H88.5879V181.6H92.7536V161.154Z" fill="white"/>
<path d="M85.1599 161.154H80.9941V181.6H85.1599V161.154Z" fill="white"/>
<path d="M77.5651 161.154H73.3994V181.6H77.5651V161.154Z" fill="white"/>
<path d="M69.9714 161.154H65.8057V181.6H69.9714V161.154Z" fill="white"/>
<path d="M62.3825 161.154H58.2168V181.6H62.3825V161.154Z" fill="white"/>
<path d="M54.7878 161.154H50.6221V181.6H54.7878V161.154Z" fill="white"/>
<path d="M40.8679 161.154H36.7021V181.6H40.8679V161.154Z" fill="white"/>
<path d="M33.2741 161.154H29.1084V181.6H33.2741V161.154Z" fill="white"/>
<path d="M25.6794 161.154H21.5137V181.6H25.6794V161.154Z" fill="white"/>
<path d="M100.342 184.268H96.1768V204.713H100.342V184.268Z" fill="white"/>
<path d="M92.7536 184.268H88.5879V204.713H92.7536V184.268Z" fill="white"/>
<path d="M85.1599 184.268H80.9941V204.713H85.1599V184.268Z" fill="white"/>
<path d="M77.5651 184.268H73.3994V204.713H77.5651V184.268Z" fill="white"/>
<path d="M69.9714 184.268H65.8057V204.713H69.9714V184.268Z" fill="white"/>
<path d="M62.3825 184.268H58.2168V204.713H62.3825V184.268Z" fill="white"/>
<path d="M54.7878 184.268H50.6221V204.713H54.7878V184.268Z" fill="white"/>
<path d="M40.8679 184.268H36.7021V204.713H40.8679V184.268Z" fill="white"/>
<path d="M33.2741 184.268H29.1084V204.713H33.2741V184.268Z" fill="white"/>
<path d="M25.6794 184.268H21.5137V204.713H25.6794V184.268Z" fill="white"/>
<path d="M100.342 207.383H96.1768V227.829H100.342V207.383Z" fill="white"/>
<path d="M92.7536 207.383H88.5879V227.829H92.7536V207.383Z" fill="white"/>
<path d="M85.1599 207.383H80.9941V227.829H85.1599V207.383Z" fill="white"/>
<path d="M77.5651 207.383H73.3994V227.829H77.5651V207.383Z" fill="white"/>
<path d="M69.9714 207.383H65.8057V227.829H69.9714V207.383Z" fill="white"/>
<path d="M62.3825 207.383H58.2168V227.829H62.3825V207.383Z" fill="white"/>
<path d="M54.7878 207.383H50.6221V227.829H54.7878V207.383Z" fill="white"/>
<path d="M40.8679 207.383H36.7021V227.829H40.8679V207.383Z" fill="white"/>
<path d="M33.2741 207.383H29.1084V227.829H33.2741V207.383Z" fill="white"/>
<path d="M25.6794 207.383H21.5137V227.829H25.6794V207.383Z" fill="white"/>
<path d="M100.342 230.49H96.1768V250.936H100.342V230.49Z" fill="white"/>
<path d="M92.7536 230.49H88.5879V250.936H92.7536V230.49Z" fill="white"/>
<path d="M85.1599 230.49H80.9941V250.936H85.1599V230.49Z" fill="white"/>
<path d="M77.5651 230.49H73.3994V250.936H77.5651V230.49Z" fill="white"/>
<path d="M69.9714 230.49H65.8057V250.936H69.9714V230.49Z" fill="white"/>
<path d="M62.3825 230.49H58.2168V250.936H62.3825V230.49Z" fill="white"/>
<path d="M54.7878 230.49H50.6221V250.936H54.7878V230.49Z" fill="white"/>
<path d="M40.8679 230.49H36.7021V250.936H40.8679V230.49Z" fill="white"/>
<path d="M33.2741 230.49H29.1084V250.936H33.2741V230.49Z" fill="white"/>
<path d="M25.6794 230.49H21.5137V250.936H25.6794V230.49Z" fill="white"/>
<path d="M100.342 253.605H96.1768V274.051H100.342V253.605Z" fill="white"/>
<path d="M92.7536 253.605H88.5879V274.051H92.7536V253.605Z" fill="white"/>
<path d="M85.1599 253.605H80.9941V274.051H85.1599V253.605Z" fill="white"/>
<path d="M77.5651 253.605H73.3994V274.051H77.5651V253.605Z" fill="white"/>
<path d="M69.9714 253.605H65.8057V274.051H69.9714V253.605Z" fill="white"/>
<path d="M62.3825 253.605H58.2168V274.051H62.3825V253.605Z" fill="white"/>
<path d="M54.7878 253.605H50.6221V274.051H54.7878V253.605Z" fill="white"/>
<path d="M40.8679 253.605H36.7021V274.051H40.8679V253.605Z" fill="white"/>
<path d="M33.2741 253.605H29.1084V274.051H33.2741V253.605Z" fill="white"/>
<path d="M25.6794 253.605H21.5137V274.051H25.6794V253.605Z" fill="white"/>
<path d="M244.993 121.467H182.273V291.164H244.993V121.467Z" fill="#CDE4F7"/>
<path d="M201.816 121.467H182.273V291.164H201.816V121.467Z" fill="#ECF7FE"/>
<path d="M244.993 130.748H182.273V132.165H244.993V130.748Z" fill="white"/>
<path d="M244.993 141.953H182.273V143.37H244.993V141.953Z" fill="white"/>
<path d="M244.993 153.154H182.273V154.571H244.993V153.154Z" fill="white"/>
<path d="M244.993 164.354H182.273V165.771H244.993V164.354Z" fill="white"/>
<path d="M244.993 175.553H182.273V176.97H244.993V175.553Z" fill="white"/>
<path d="M244.993 186.76H182.273V188.177H244.993V186.76Z" fill="white"/>
<path d="M244.993 197.959H182.273V199.376H244.993V197.959Z" fill="white"/>
<path d="M244.993 209.16H182.273V210.577H244.993V209.16Z" fill="white"/>
<path d="M244.993 220.359H182.273V221.777H244.993V220.359Z" fill="white"/>
<path d="M244.993 231.559H182.273V232.976H244.993V231.559Z" fill="white"/>
<path d="M244.993 242.766H182.273V244.183H244.993V242.766Z" fill="white"/>
<path d="M244.993 253.965H182.273V255.382H244.993V253.965Z" fill="white"/>
<path d="M244.993 265.164H182.273V266.581H244.993V265.164Z" fill="white"/>
<path d="M244.993 276.365H182.273V277.782H244.993V276.365Z" fill="white"/>
<path d="M498.966 155.229H400.457V291.166H498.966V155.229Z" fill="#CDE4F7"/>
<path d="M431.143 155.229H400.457V291.166H431.143V155.229Z" fill="#E9EDF4"/>
<path d="M498.966 162.662H400.457V163.799H498.966V162.662Z" fill="white"/>
<path d="M498.966 171.633H400.457V172.77H498.966V171.633Z" fill="white"/>
<path d="M498.966 180.609H400.457V181.747H498.966V180.609Z" fill="white"/>
<path d="M498.966 189.582H400.457V190.719H498.966V189.582Z" fill="white"/>
<path d="M498.966 198.553H400.457V199.69H498.966V198.553Z" fill="white"/>
<path d="M498.966 207.525H400.457V208.663H498.966V207.525Z" fill="white"/>
<path d="M498.966 216.502H400.457V217.639H498.966V216.502Z" fill="white"/>
<path d="M498.966 225.473H400.457V226.61H498.966V225.473Z" fill="white"/>
<path d="M498.966 234.445H400.457V235.582H498.966V234.445Z" fill="white"/>
<path d="M498.966 243.416H400.457V244.553H498.966V243.416Z" fill="white"/>
<path d="M498.966 252.393H400.457V253.53H498.966V252.393Z" fill="white"/>
<path d="M498.966 261.365H400.457V262.502H498.966V261.365Z" fill="white"/>
<path d="M498.966 270.336H400.457V271.473H498.966V270.336Z" fill="white"/>
<path d="M498.966 279.312H400.457V280.45H498.966V279.312Z" fill="white"/>
<path d="M194.953 55.8906H79.9648V291.171H194.953V55.8906Z" fill="#CDE4F7"/>
<path d="M115.788 55.8906H79.9648V291.171H115.788V55.8906Z" fill="#ECF7FE"/>
<path d="M187.571 67.084H182.273V73.8269H187.571V67.084Z" fill="white"/>
<path d="M177.919 67.084H172.622V73.8269H177.919V67.084Z" fill="white"/>
<path d="M168.262 67.084H162.965V73.8269H168.262V67.084Z" fill="white"/>
<path d="M158.612 67.084H153.314V73.8269H158.612V67.084Z" fill="white"/>
<path d="M148.953 67.084H143.656V73.8269H148.953V67.084Z" fill="white"/>
<path d="M139.302 67.084H134.005V73.8269H139.302V67.084Z" fill="white"/>
<path d="M129.645 67.084H124.348V73.8269H129.645V67.084Z" fill="white"/>
<path d="M111.949 67.084H106.651V73.8269H111.949V67.084Z" fill="white"/>
<path d="M102.291 67.084H96.9941V73.8269H102.291V67.084Z" fill="white"/>
<path d="M92.6399 67.084H87.3428V73.8269H92.6399V67.084Z" fill="white"/>
<path d="M187.571 81.2676H182.273V88.0104H187.571V81.2676Z" fill="white"/>
<path d="M177.919 81.2676H172.622V88.0104H177.919V81.2676Z" fill="white"/>
<path d="M168.262 81.2676H162.965V88.0104H168.262V81.2676Z" fill="white"/>
<path d="M158.612 81.2676H153.314V88.0104H158.612V81.2676Z" fill="white"/>
<path d="M148.953 81.2676H143.656V88.0104H148.953V81.2676Z" fill="white"/>
<path d="M139.302 81.2676H134.005V88.0104H139.302V81.2676Z" fill="white"/>
<path d="M129.645 81.2676H124.348V88.0104H129.645V81.2676Z" fill="white"/>
<path d="M111.949 81.2676H106.651V88.0104H111.949V81.2676Z" fill="white"/>
<path d="M102.291 81.2676H96.9941V88.0104H102.291V81.2676Z" fill="white"/>
<path d="M92.6399 81.2676H87.3428V88.0104H92.6399V81.2676Z" fill="white"/>
<path d="M187.571 95.4551H182.273V102.198H187.571V95.4551Z" fill="white"/>
<path d="M177.919 95.4551H172.622V102.198H177.919V95.4551Z" fill="white"/>
<path d="M168.262 95.4551H162.965V102.198H168.262V95.4551Z" fill="white"/>
<path d="M158.612 95.4551H153.314V102.198H158.612V95.4551Z" fill="white"/>
<path d="M148.953 95.4551H143.656V102.198H148.953V95.4551Z" fill="white"/>
<path d="M139.302 95.4551H134.005V102.198H139.302V95.4551Z" fill="white"/>
<path d="M129.645 95.4551H124.348V102.198H129.645V95.4551Z" fill="white"/>
<path d="M111.949 95.4551H106.651V102.198H111.949V95.4551Z" fill="white"/>
<path d="M102.291 95.4551H96.9941V102.198H102.291V95.4551Z" fill="white"/>
<path d="M92.6399 95.4551H87.3428V102.198H92.6399V95.4551Z" fill="white"/>
<path d="M187.571 109.639H182.273V116.382H187.571V109.639Z" fill="white"/>
<path d="M177.919 109.639H172.622V116.382H177.919V109.639Z" fill="white"/>
<path d="M168.262 109.639H162.965V116.382H168.262V109.639Z" fill="white"/>
<path d="M158.612 109.639H153.314V116.382H158.612V109.639Z" fill="white"/>
<path d="M148.953 109.639H143.656V116.382H148.953V109.639Z" fill="white"/>
<path d="M139.302 109.639H134.005V116.382H139.302V109.639Z" fill="white"/>
<path d="M129.645 109.639H124.348V116.382H129.645V109.639Z" fill="white"/>
<path d="M111.949 109.639H106.651V116.382H111.949V109.639Z" fill="white"/>
<path d="M102.291 109.639H96.9941V116.382H102.291V109.639Z" fill="white"/>
<path d="M92.6399 109.639H87.3428V116.382H92.6399V109.639Z" fill="white"/>
<path d="M187.571 123.828H182.273V130.571H187.571V123.828Z" fill="white"/>
<path d="M177.919 123.828H172.622V130.571H177.919V123.828Z" fill="white"/>
<path d="M168.262 123.828H162.965V130.571H168.262V123.828Z" fill="white"/>
<path d="M158.612 123.828H153.314V130.571H158.612V123.828Z" fill="white"/>
<path d="M148.953 123.828H143.656V130.571H148.953V123.828Z" fill="white"/>
<path d="M139.302 123.828H134.005V130.571H139.302V123.828Z" fill="white"/>
<path d="M129.645 123.828H124.348V130.571H129.645V123.828Z" fill="white"/>
<path d="M111.949 123.828H106.651V130.571H111.949V123.828Z" fill="white"/>
<path d="M102.291 123.828H96.9941V130.571H102.291V123.828Z" fill="white"/>
<path d="M92.6399 123.828H87.3428V130.571H92.6399V123.828Z" fill="white"/>
<path d="M187.571 138.01H182.273V144.753H187.571V138.01Z" fill="white"/>
<path d="M177.919 138.01H172.622V144.753H177.919V138.01Z" fill="white"/>
<path d="M168.262 138.01H162.965V144.753H168.262V138.01Z" fill="white"/>
<path d="M158.612 138.01H153.314V144.753H158.612V138.01Z" fill="white"/>
<path d="M148.953 138.01H143.656V144.753H148.953V138.01Z" fill="white"/>
<path d="M139.302 138.01H134.005V144.753H139.302V138.01Z" fill="white"/>
<path d="M129.645 138.01H124.348V144.753H129.645V138.01Z" fill="white"/>
<path d="M111.949 138.01H106.651V144.753H111.949V138.01Z" fill="white"/>
<path d="M102.291 138.01H96.9941V144.753H102.291V138.01Z" fill="white"/>
<path d="M92.6399 138.01H87.3428V144.753H92.6399V138.01Z" fill="white"/>
<path d="M187.571 152.199H182.273V158.942H187.571V152.199Z" fill="white"/>
<path d="M177.919 152.199H172.622V158.942H177.919V152.199Z" fill="white"/>
<path d="M168.262 152.199H162.965V158.942H168.262V152.199Z" fill="white"/>
<path d="M158.612 152.199H153.314V158.942H158.612V152.199Z" fill="white"/>
<path d="M148.953 152.199H143.656V158.942H148.953V152.199Z" fill="white"/>
<path d="M139.302 152.199H134.005V158.942H139.302V152.199Z" fill="white"/>
<path d="M129.645 152.199H124.348V158.942H129.645V152.199Z" fill="white"/>
<path d="M111.949 152.199H106.651V158.942H111.949V152.199Z" fill="white"/>
<path d="M102.291 152.199H96.9941V158.942H102.291V152.199Z" fill="white"/>
<path d="M92.6399 152.199H87.3428V158.942H92.6399V152.199Z" fill="white"/>
<path d="M187.571 166.383H182.273V173.126H187.571V166.383Z" fill="white"/>
<path d="M177.919 166.383H172.622V173.126H177.919V166.383Z" fill="white"/>
<path d="M168.262 166.383H162.965V173.126H168.262V166.383Z" fill="white"/>
<path d="M158.612 166.383H153.314V173.126H158.612V166.383Z" fill="white"/>
<path d="M148.953 166.383H143.656V173.126H148.953V166.383Z" fill="white"/>
<path d="M139.302 166.383H134.005V173.126H139.302V166.383Z" fill="white"/>
<path d="M129.645 166.383H124.348V173.126H129.645V166.383Z" fill="white"/>
<path d="M111.949 166.383H106.651V173.126H111.949V166.383Z" fill="white"/>
<path d="M102.291 166.383H96.9941V173.126H102.291V166.383Z" fill="white"/>
<path d="M92.6399 166.383H87.3428V173.126H92.6399V166.383Z" fill="white"/>
<path d="M187.571 180.57H182.273V187.313H187.571V180.57Z" fill="white"/>
<path d="M177.919 180.57H172.622V187.313H177.919V180.57Z" fill="white"/>
<path d="M168.262 180.57H162.965V187.313H168.262V180.57Z" fill="white"/>
<path d="M158.612 180.57H153.314V187.313H158.612V180.57Z" fill="white"/>
<path d="M148.953 180.57H143.656V187.313H148.953V180.57Z" fill="white"/>
<path d="M139.302 180.57H134.005V187.313H139.302V180.57Z" fill="white"/>
<path d="M129.645 180.57H124.348V187.313H129.645V180.57Z" fill="white"/>
<path d="M111.949 180.57H106.651V187.313H111.949V180.57Z" fill="white"/>
<path d="M102.291 180.57H96.9941V187.313H102.291V180.57Z" fill="white"/>
<path d="M92.6399 180.57H87.3428V187.313H92.6399V180.57Z" fill="white"/>
<path d="M187.571 194.754H182.273V201.497H187.571V194.754Z" fill="white"/>
<path d="M177.919 194.754H172.622V201.497H177.919V194.754Z" fill="white"/>
<path d="M168.262 194.754H162.965V201.497H168.262V194.754Z" fill="white"/>
<path d="M158.612 194.754H153.314V201.497H158.612V194.754Z" fill="white"/>
<path d="M148.953 194.754H143.656V201.497H148.953V194.754Z" fill="white"/>
<path d="M139.302 194.754H134.005V201.497H139.302V194.754Z" fill="white"/>
<path d="M129.645 194.754H124.348V201.497H129.645V194.754Z" fill="white"/>
<path d="M111.949 194.754H106.651V201.497H111.949V194.754Z" fill="white"/>
<path d="M102.291 194.754H96.9941V201.497H102.291V194.754Z" fill="white"/>
<path d="M92.6399 194.754H87.3428V201.497H92.6399V194.754Z" fill="white"/>
<path d="M187.571 208.941H182.273V215.684H187.571V208.941Z" fill="white"/>
<path d="M177.919 208.941H172.622V215.684H177.919V208.941Z" fill="white"/>
<path d="M168.262 208.941H162.965V215.684H168.262V208.941Z" fill="white"/>
<path d="M158.612 208.941H153.314V215.684H158.612V208.941Z" fill="white"/>
<path d="M148.953 208.941H143.656V215.684H148.953V208.941Z" fill="white"/>
<path d="M139.302 208.941H134.005V215.684H139.302V208.941Z" fill="white"/>
<path d="M129.645 208.941H124.348V215.684H129.645V208.941Z" fill="white"/>
<path d="M111.949 208.941H106.651V215.684H111.949V208.941Z" fill="white"/>
<path d="M102.291 208.941H96.9941V215.684H102.291V208.941Z" fill="white"/>
<path d="M92.6399 208.941H87.3428V215.684H92.6399V208.941Z" fill="white"/>
<path d="M187.571 223.125H182.273V229.868H187.571V223.125Z" fill="white"/>
<path d="M177.919 223.125H172.622V229.868H177.919V223.125Z" fill="white"/>
<path d="M168.262 223.125H162.965V229.868H168.262V223.125Z" fill="white"/>
<path d="M158.612 223.125H153.314V229.868H158.612V223.125Z" fill="white"/>
<path d="M148.953 223.125H143.656V229.868H148.953V223.125Z" fill="white"/>
<path d="M139.302 223.125H134.005V229.868H139.302V223.125Z" fill="white"/>
<path d="M129.645 223.125H124.348V229.868H129.645V223.125Z" fill="white"/>
<path d="M111.949 223.125H106.651V229.868H111.949V223.125Z" fill="white"/>
<path d="M102.291 223.125H96.9941V229.868H102.291V223.125Z" fill="white"/>
<path d="M92.6399 223.125H87.3428V229.868H92.6399V223.125Z" fill="white"/>
<path d="M187.571 237.312H182.273V244.055H187.571V237.312Z" fill="white"/>
<path d="M177.919 237.312H172.622V244.055H177.919V237.312Z" fill="white"/>
<path d="M168.262 237.312H162.965V244.055H168.262V237.312Z" fill="white"/>
<path d="M158.612 237.312H153.314V244.055H158.612V237.312Z" fill="white"/>
<path d="M148.953 237.312H143.656V244.055H148.953V237.312Z" fill="white"/>
<path d="M139.302 237.312H134.005V244.055H139.302V237.312Z" fill="white"/>
<path d="M129.645 237.312H124.348V244.055H129.645V237.312Z" fill="white"/>
<path d="M111.949 237.312H106.651V244.055H111.949V237.312Z" fill="white"/>
<path d="M102.291 237.312H96.9941V244.055H102.291V237.312Z" fill="white"/>
<path d="M92.6399 237.312H87.3428V244.055H92.6399V237.312Z" fill="white"/>
<path d="M187.571 251.496H182.273V258.239H187.571V251.496Z" fill="white"/>
<path d="M177.919 251.496H172.622V258.239H177.919V251.496Z" fill="white"/>
<path d="M168.262 251.496H162.965V258.239H168.262V251.496Z" fill="white"/>
<path d="M158.612 251.496H153.314V258.239H158.612V251.496Z" fill="white"/>
<path d="M148.953 251.496H143.656V258.239H148.953V251.496Z" fill="white"/>
<path d="M139.302 251.496H134.005V258.239H139.302V251.496Z" fill="white"/>
<path d="M129.645 251.496H124.348V258.239H129.645V251.496Z" fill="white"/>
<path d="M111.949 251.496H106.651V258.239H111.949V251.496Z" fill="white"/>
<path d="M102.291 251.496H96.9941V258.239H102.291V251.496Z" fill="white"/>
<path d="M92.6399 251.496H87.3428V258.239H92.6399V251.496Z" fill="white"/>
<path d="M187.571 265.684H182.273V272.426H187.571V265.684Z" fill="white"/>
<path d="M177.919 265.684H172.622V272.426H177.919V265.684Z" fill="white"/>
<path d="M168.262 265.684H162.965V272.426H168.262V265.684Z" fill="white"/>
<path d="M158.612 265.684H153.314V272.426H158.612V265.684Z" fill="white"/>
<path d="M148.953 265.684H143.656V272.426H148.953V265.684Z" fill="white"/>
<path d="M139.302 265.684H134.005V272.426H139.302V265.684Z" fill="white"/>
<path d="M129.645 265.684H124.348V272.426H129.645V265.684Z" fill="white"/>
<path d="M111.949 265.684H106.651V272.426H111.949V265.684Z" fill="white"/>
<path d="M102.291 265.684H96.9941V272.426H102.291V265.684Z" fill="white"/>
<path d="M92.6399 265.684H87.3428V272.426H92.6399V265.684Z" fill="white"/>
<path d="M178.806 55.8904H96.1084V45.9819C96.1084 44.9891 96.3039 44.006 96.6839 43.0888C97.0638 42.1716 97.6207 41.3382 98.3227 40.6361C99.0247 39.9341 99.8581 39.3773 100.775 38.9973C101.693 38.6174 102.676 38.4219 103.668 38.4219H171.246C172.238 38.4219 173.221 38.6174 174.139 38.9973C175.056 39.3773 175.889 39.9341 176.591 40.6361C177.293 41.3382 177.85 42.1716 178.23 43.0888C178.61 44.006 178.806 44.9891 178.806 45.9819V55.8904Z" fill="#ECF7FE"/>
<path d="M85.1998 416.697H57.6455L60.3998 239.857L98.5541 237.537L85.1998 416.697Z" fill="#02819F"/>
<path d="M140.605 324.387H109.194L88.0166 233.324L135.394 239.438L140.605 324.387Z" fill="#02819F"/>
<path d="M183.108 207.537C172.108 190.115 163.931 171.086 163.931 171.086L140.062 187.389L157.965 215.8C160.251 219.8 169.92 218.743 172.417 214.875L183.108 207.537Z" fill="#E8815F"/>
<path d="M134.943 134.982L107.834 124.291H79.5771L48.2514 140.377C45.5943 141.971 46.0971 145.188 47.0571 148.131L60.2 238.354L135.149 238.8L145.286 145.508C145.994 142.48 137.749 136.337 134.943 134.982Z" fill="#EAF1FC"/>
<path d="M137.908 136.801C155.799 149.869 163.925 171.087 163.925 171.087L138.428 195.698L109.479 167.584L137.908 136.801Z" fill="#EAF1FC"/>
<path d="M48.2516 140.377C48.2516 140.377 26.8573 147.514 22.4688 185.463L64.7545 198.034L76.5316 161.371L48.2516 140.377Z" fill="#EAF1FC"/>
<path d="M77.3086 72.7031C80.0285 80.8449 81.114 89.4437 80.5029 98.006C80.3257 100.406 80.0229 102.852 80.6057 105.183C81.1886 107.515 82.9315 109.755 85.3143 110.086C86.2972 103.549 87.2172 97.0174 88.1714 90.4803C88.5429 88.0403 88.9029 85.5146 88.24 83.1431C87.4849 80.8053 86.0185 78.7616 84.0457 77.2974C81.9473 75.5604 79.6919 74.0224 77.3086 72.7031Z" fill="#0B2B46"/>
<path d="M87.6454 133.6C91.7711 135.658 96.674 135.835 101.125 134.646C105.577 133.458 109.697 130.309 113.125 126.36C111.411 123.806 109.845 122.663 108.628 119.738C108.411 119.206 108.2 118.669 108 118.126C107.136 115.825 106.504 113.444 106.114 111.018C97.6054 108.349 89.7197 100.492 83.2054 94.4004C83.8568 100.852 83.3997 110.972 81.6397 117.195V117.303C81.0906 119.262 80.4227 121.186 79.6397 123.063C77.834 127.315 83.5311 131.566 87.6454 133.6Z" fill="#F09976"/>
<path d="M81.5479 117.262L81.6393 117.325C83.9825 118.96 86.593 120.175 89.3536 120.913C89.685 120.999 90.005 121.079 90.3364 121.148C91.4653 121.399 92.6113 121.565 93.765 121.645C98.163 121.937 102.558 121.028 106.479 119.016C107.005 118.748 107.525 118.445 108.034 118.148C107.175 115.845 106.544 113.464 106.148 111.039C97.6393 108.37 89.765 100.513 83.2393 94.4219C83.8907 100.873 83.4336 110.993 81.6793 117.216L81.5479 117.262Z" fill="#E8815F"/>
<path d="M110.069 69.8516C111.474 75.4445 110.829 81.3558 108.252 86.5144C106.017 81.4058 106.892 74.4458 110.069 69.8516Z" fill="#0B2B46"/>
<path d="M83.6802 86.0122C83.3244 85.1667 82.8657 84.3683 82.3145 83.635C81.7509 82.9039 80.9367 82.4072 80.0288 82.2407C78.3773 82.0179 76.8345 83.3836 76.3488 85.0007C75.8631 86.6179 76.2059 88.3264 76.6802 89.9264C77.0034 91.1778 77.5388 92.3645 78.2631 93.435C78.9964 94.5109 80.098 95.2812 81.3602 95.6007C81.9898 95.7459 82.6474 95.7127 83.2591 95.5047C83.8708 95.2968 84.4124 94.9224 84.8231 94.4236C84.0402 91.5779 83.4288 88.9436 83.6802 86.0122Z" fill="#F09976"/>
<path d="M83.3709 93.1432C83.4052 93.4689 83.4509 93.8004 83.4966 94.1318C84.3366 100.046 86.0966 106.132 90.2738 110.389C93.9881 114.189 99.5881 116.183 104.805 115.132C110.022 114.08 114.519 109.829 115.497 104.6C116.131 101.08 115.222 97.4518 113.891 94.1261C112.559 90.8004 110.857 87.6175 109.714 84.2175C108.571 80.8175 107.794 76.1318 109.068 72.7889L108.645 72.5318C100.982 67.9604 92.2624 66.949 84.1595 70.7375C82.6841 78.114 82.4177 85.6813 83.3709 93.1432Z" fill="#F09976"/>
<path d="M114.925 65.834C113.864 68.7077 111.846 71.1288 109.211 72.6911C107.137 73.9727 104.816 74.804 102.4 75.1311C96.9711 75.8682 91.4625 74.3482 86.3997 72.1997C86.2111 72.4797 81.7825 79.0568 85.1254 89.1825L80.554 79.3197C80.0837 77.8457 79.4573 76.4262 78.6854 75.0854C77.8282 73.5825 76.7597 72.1882 76.194 70.554C75.6282 68.9197 75.7197 66.914 76.954 65.7197C78.4854 64.2454 80.954 64.5768 82.9711 63.874C86.3197 62.6625 87.6739 58.7768 89.6854 55.8282C90.4382 54.7368 91.3252 53.7443 92.3254 52.874C94.6161 50.8342 97.4749 49.5423 100.52 49.1711C102.71 48.9169 104.929 49.1857 106.995 49.9556C109.061 50.7254 110.916 51.9743 112.405 53.5997C113.846 55.2477 114.836 57.2408 115.277 59.3848C115.719 61.5288 115.598 63.7507 114.925 65.834Z" fill="#0B2B46"/>
<path d="M135.394 239.429L60.4051 239.881C60.4051 239.881 59.3537 185.749 62.2851 150.858C63.4908 136.486 81.2508 167.915 125.914 147.943C133.394 144.572 135.394 239.429 135.394 239.429Z" fill="#02819F"/>
<path d="M69.3652 153.924H62.2852V131.467L69.3652 128.861V153.924Z" fill="#02819F"/>
<path d="M122.68 155.022H129.463V132.565L122.68 129.959V155.022Z" fill="#02819F"/>
<path d="M55.617 266.611C55.617 266.611 32.1884 248.897 21.9655 232.486C14.8855 221.109 22.457 185.463 22.457 185.463L49.1427 193.411L40.6855 220.6L60.1884 253.88L59.617 288.457C59.617 288.457 51.617 282.6 49.4112 273.503C46.7941 262.503 57.9827 254.646 57.9827 254.646" fill="#F09976"/>
<path d="M60.1826 253.881L64.1826 270.264C64.6512 272.172 62.8454 273.972 60.994 273.321C60.6383 273.202 60.322 272.987 60.0793 272.701C59.8365 272.415 59.6766 272.068 59.6169 271.698C58.9597 268.572 60.1826 253.881 60.1826 253.881Z" fill="#F09976"/>
<path d="M115.754 175.354C103.669 176.885 91.4388 176.885 79.3538 175.354C79.3538 175.354 78.0852 198.611 97.5538 199.874C117.022 201.136 115.754 175.354 115.754 175.354Z" fill="#05616B"/>
<path d="M96.251 268.457L109.194 324.389H114.142L102.48 267.24L96.251 268.457Z" fill="#05616B"/>
<path d="M120.502 201.816C121.036 200.178 122.117 198.774 123.563 197.838C125.009 196.901 126.732 196.49 128.445 196.673L149.114 197.816C159.714 198.959 163.765 198.611 173.954 201.359C174.125 201.405 174.285 201.456 174.445 201.513L178.811 203.799C180.271 204.291 181.543 205.222 182.453 206.465C183.364 207.708 183.868 209.202 183.897 210.742C183.93 212.28 183.766 213.816 183.411 215.313C181.697 221.713 172.108 224.725 165.771 222.856L118.914 209.445C118.694 209.376 118.511 209.224 118.404 209.02C118.297 208.817 118.275 208.579 118.342 208.359L120.502 201.816Z" fill="#F09976"/>
<path d="M101.595 195.429L101.835 203.463C102.006 206.538 103.217 207.858 106.269 208.286L120.88 210.075L123.583 188.932L107.635 186.686C103.589 186.172 101.395 191.315 101.595 195.429Z" fill="#F09976"/>
<path d="M129.994 197.713C129.212 196.805 125.103 188.53 123.583 177.319C122.063 166.108 116.606 173.616 118.286 181.713C119.966 189.81 111.892 187.696 111.892 187.696L122.394 200.656L129.994 197.713Z" fill="#F09976"/>
<path d="M101.897 192.148L109.086 192.72C109.324 192.736 109.547 192.846 109.704 193.026C109.862 193.206 109.941 193.441 109.926 193.68C109.907 193.84 109.852 193.995 109.766 194.131C109.703 194.206 109.64 194.246 109.6 194.228C109.349 194.143 101.691 193.263 101.691 193.263L101.897 192.148Z" fill="#E8815F"/>
<path d="M101.646 197.086L109.005 197.183C109.19 197.151 109.38 197.193 109.534 197.3C109.688 197.407 109.794 197.57 109.828 197.755C109.846 197.854 109.843 197.956 109.819 198.054C109.796 198.153 109.752 198.245 109.691 198.326C109.645 198.412 109.594 198.457 109.548 198.452C109.28 198.395 101.691 198.315 101.691 198.315L101.646 197.086Z" fill="#E8815F"/>
<path d="M101.754 201.451L109.142 201.314C109.284 201.291 109.43 201.311 109.56 201.371C109.69 201.431 109.8 201.529 109.874 201.652C109.948 201.775 109.984 201.917 109.977 202.061C109.97 202.204 109.92 202.342 109.834 202.457C109.782 202.543 109.731 202.588 109.68 202.577C109.422 202.525 101.822 202.674 101.822 202.674L101.754 201.451Z" fill="#E8815F"/>
<path d="M59.8974 272.399C59.8974 272.399 57.3545 266.268 58.0288 262.816C58.7031 259.365 59.8974 272.399 59.8974 272.399Z" fill="#E8815F"/>
<path d="M496.223 124.572H219.274V317.355H496.223V124.572Z" fill="#E9EDF4"/>
<path d="M476.543 152.863H238.948V317.355H476.543V152.863Z" fill="#CDE4F7"/>
<path d="M234.932 249.178H222.32V255.395H234.932V249.178Z" fill="#CDE4F7"/>
<path d="M471.143 127.65H459.292V132.325H471.143V127.65Z" fill="#CDE4F7"/>
<path d="M462.114 134.531H450.263V139.206H462.114V134.531Z" fill="#CDE4F7"/>
<path d="M484.88 142.285H230.634V155.182H484.88V142.285Z" fill="#ECF7FE"/>
<path d="M476.543 155.189H238.948V189.378H476.543V155.189Z" fill="#ECF7FE"/>
<path d="M476.543 155.463H238.948V157.177H476.543V155.463Z" fill="#CDE4F7"/>
<path d="M476.543 161.176H238.948V162.89H476.543V161.176Z" fill="#CDE4F7"/>
<path d="M476.543 166.891H238.948V168.605H476.543V166.891Z" fill="#CDE4F7"/>
<path d="M476.543 172.605H238.948V174.32H476.543V172.605Z" fill="#CDE4F7"/>
<path d="M476.543 178.32H238.948V180.035H476.543V178.32Z" fill="#CDE4F7"/>
<path d="M476.543 184.033H238.948V185.748H476.543V184.033Z" fill="#CDE4F7"/>
<path d="M263.731 52.6445H451.759C456.131 52.6445 459.674 55.3245 459.674 58.6217V103.553C459.674 106.856 456.131 109.53 451.759 109.53H263.731C259.365 109.53 255.822 106.856 255.822 103.553V58.6217C255.822 55.3245 259.365 52.6445 263.731 52.6445Z" fill="#CDE4F7"/>
<path d="M268.948 57.3379H446.537C450.909 57.3379 454.451 60.0179 454.451 63.315V98.8579C454.451 102.161 450.909 104.835 446.537 104.835H268.948C264.577 104.835 261.034 102.161 261.034 98.8579V63.315C261.034 60.0008 264.571 57.3379 268.948 57.3379Z" fill="#EAF1FC"/>
<path d="M334.017 104.84H326.137V124.691H334.017V104.84Z" fill="#CDE4F7"/>
<path d="M274.783 104.84H266.903V124.691H274.783V104.84Z" fill="#CDE4F7"/>
<path d="M452.497 104.84H444.617V124.691H452.497V104.84Z" fill="#CDE4F7"/>
<path d="M393.257 104.84H385.377V124.691H393.257V104.84Z" fill="#CDE4F7"/>
<path d="M293.171 96.2399C293.096 96.2427 293.021 96.2288 292.952 96.1991C292.883 96.1695 292.821 96.1249 292.771 96.0685L289.229 92.5256C289.184 92.4656 289.151 92.3973 289.132 92.3246C289.114 92.2519 289.109 92.1762 289.12 92.1019C289.131 92.0277 289.156 91.9562 289.194 91.8916C289.232 91.827 289.283 91.7706 289.343 91.7256C289.442 91.6514 289.562 91.6113 289.686 91.6113C289.809 91.6113 289.93 91.6514 290.029 91.7256L293.571 95.2685C293.676 95.3753 293.735 95.5189 293.735 95.6685C293.735 95.818 293.676 95.9617 293.571 96.0685C293.522 96.1249 293.46 96.1695 293.391 96.1991C293.321 96.2288 293.247 96.2427 293.171 96.2399Z" fill="#CDE4F7"/>
<path d="M289.628 96.2394C289.477 96.2394 289.332 96.1792 289.224 96.072C289.117 95.9648 289.057 95.8195 289.057 95.6679C289.054 95.5927 289.068 95.5178 289.098 95.4487C289.127 95.3795 289.172 95.3178 289.228 95.2679L292.771 91.7251C292.813 91.6627 292.867 91.6092 292.93 91.5677C292.992 91.5262 293.063 91.4975 293.136 91.4831C293.21 91.4688 293.286 91.4692 293.36 91.4842C293.433 91.4993 293.503 91.5287 293.566 91.5708C293.69 91.6555 293.776 91.7858 293.805 91.9334C293.834 92.081 293.803 92.2341 293.72 92.3594C293.693 92.3981 293.662 92.4344 293.628 92.4679L293.571 92.5251L290.028 96.0679C289.979 96.1243 289.917 96.1689 289.848 96.1986C289.779 96.2282 289.704 96.2422 289.628 96.2394Z" fill="#CDE4F7"/>
<path d="M327.457 73.3825C327.381 73.3853 327.307 73.3713 327.237 73.3417C327.168 73.3121 327.106 73.2674 327.057 73.211L323.514 69.6682C323.423 69.5469 323.384 69.3946 323.405 69.2445C323.427 69.0945 323.507 68.9591 323.628 68.8682C323.727 68.794 323.847 68.7539 323.971 68.7539C324.095 68.7539 324.215 68.794 324.314 68.8682L327.857 72.411C327.961 72.5179 328.02 72.6615 328.02 72.811C328.02 72.9606 327.961 73.1042 327.857 73.211C327.807 73.2674 327.745 73.3121 327.676 73.3417C327.607 73.3713 327.532 73.3853 327.457 73.3825Z" fill="#CDE4F7"/>
<path d="M323.915 73.3839C323.763 73.3839 323.618 73.3237 323.511 73.2165C323.403 73.1094 323.343 72.964 323.343 72.8125C323.34 72.7373 323.354 72.6624 323.384 72.5932C323.414 72.524 323.458 72.4623 323.515 72.4125L327.057 68.8696C327.099 68.8072 327.153 68.7538 327.216 68.7123C327.279 68.6708 327.349 68.642 327.423 68.6277C327.496 68.6133 327.572 68.6137 327.646 68.6287C327.72 68.6438 327.789 68.6732 327.852 68.7153C327.976 68.8 328.062 68.9303 328.091 69.0779C328.12 69.2255 328.089 69.3786 328.006 69.5039C327.979 69.5426 327.948 69.5789 327.915 69.6125L327.857 69.6696L324.315 73.2125C324.265 73.2689 324.203 73.3135 324.134 73.3431C324.065 73.3728 323.99 73.3867 323.915 73.3839Z" fill="#CDE4F7"/>
<path d="M450.765 68.0515C450.69 68.0543 450.615 68.0403 450.546 68.0107C450.477 67.9811 450.415 67.9364 450.365 67.88L446.822 64.3372C446.701 64.2462 446.621 64.1109 446.599 63.9608C446.578 63.8108 446.617 63.6584 446.708 63.5372C446.799 63.4159 446.934 63.3358 447.084 63.3143C447.234 63.2929 447.387 63.332 447.508 63.4229C447.549 63.4581 447.587 63.4963 447.622 63.5372L451.165 67.08C451.27 67.1869 451.329 67.3305 451.329 67.48C451.329 67.6296 451.27 67.7732 451.165 67.88C451.115 67.9364 451.054 67.9811 450.984 68.0107C450.915 68.0403 450.84 68.0543 450.765 68.0515Z" fill="#CDE4F7"/>
<path d="M447.223 68.052C447.072 68.052 446.926 67.9918 446.819 67.8847C446.712 67.7775 446.652 67.6321 446.652 67.4806C446.649 67.4054 446.663 67.3305 446.692 67.2613C446.722 67.1922 446.767 67.1304 446.823 67.0806L450.366 63.5377C450.47 63.4443 450.604 63.392 450.743 63.3907C450.882 63.3893 451.018 63.4389 451.123 63.5302C451.228 63.6216 451.297 63.7482 451.315 63.8864C451.334 64.0247 451.301 64.1648 451.223 64.2806L451.166 64.3377L447.623 67.8806C447.573 67.937 447.512 67.9816 447.442 68.0113C447.373 68.0409 447.298 68.0548 447.223 68.052Z" fill="#CDE4F7"/>
<path d="M277.851 68.1497C277.047 68.1392 276.28 67.8109 275.717 67.2366C275.154 66.6623 274.84 65.8886 274.846 65.0843C274.851 64.28 275.174 63.5105 275.745 62.9436C276.315 62.3767 277.087 62.0586 277.891 62.0586C278.696 62.0586 279.467 62.3767 280.038 62.9436C280.609 63.5105 280.932 64.28 280.937 65.0843C280.942 65.8886 280.629 66.6623 280.066 67.2366C279.503 67.8109 278.736 68.1392 277.931 68.1497H277.851ZM277.851 63.1783C277.467 63.1783 277.092 63.2923 276.772 63.5058C276.453 63.7192 276.204 64.0227 276.056 64.3777C275.909 64.7327 275.871 65.1233 275.946 65.5002C276.021 65.8771 276.206 66.2233 276.478 66.495C276.749 66.7667 277.096 66.9517 277.472 67.0267C277.849 67.1017 278.24 67.0632 278.595 66.9161C278.95 66.7691 279.253 66.5201 279.467 66.2006C279.68 65.8811 279.794 65.5054 279.794 65.1212C279.797 64.6109 279.598 64.1201 279.241 63.7561C278.883 63.3921 278.396 63.1844 277.886 63.1783H277.851Z" fill="#CDE4F7"/>
<path d="M428 99.5033C427.196 99.4927 426.428 99.1645 425.865 98.5902C425.302 98.0158 424.989 97.2421 424.994 96.4378C424.999 95.6335 425.323 94.864 425.893 94.2971C426.464 93.7303 427.236 93.4121 428.04 93.4121C428.844 93.4121 429.616 93.7303 430.186 94.2971C430.757 94.864 431.08 95.6335 431.086 96.4378C431.091 97.2421 430.778 98.0158 430.215 98.5902C429.651 99.1645 428.884 99.4927 428.08 99.5033H428ZM428 94.5318C427.616 94.5318 427.24 94.6458 426.92 94.8593C426.601 95.0728 426.352 95.3762 426.205 95.7312C426.058 96.0862 426.019 96.4769 426.094 96.8537C426.169 97.2306 426.354 97.5768 426.626 97.8485C426.898 98.1202 427.244 98.3053 427.621 98.3802C427.998 98.4552 428.388 98.4167 428.743 98.2697C429.098 98.1226 429.402 97.8736 429.615 97.5541C429.829 97.2346 429.943 96.859 429.943 96.4747C429.946 95.9644 429.747 95.4737 429.389 95.1096C429.032 94.7456 428.544 94.5379 428.034 94.5318H428Z" fill="#CDE4F7"/>
<path d="M399.429 76.6458C398.624 76.6353 397.857 76.307 397.294 75.7327C396.731 75.1584 396.418 74.3847 396.423 73.5804C396.428 72.7761 396.751 72.0066 397.322 71.4397C397.893 70.8728 398.664 70.5547 399.469 70.5547C400.273 70.5547 401.044 70.8728 401.615 71.4397C402.186 72.0066 402.509 72.7761 402.514 73.5804C402.519 74.3847 402.206 75.1584 401.643 75.7327C401.08 76.307 400.313 76.6353 399.509 76.6458H399.429ZM399.429 71.6744C399.044 71.6744 398.669 71.7884 398.349 72.0019C398.03 72.2153 397.781 72.5188 397.634 72.8738C397.487 73.2288 397.448 73.6194 397.523 73.9963C397.598 74.3732 397.783 74.7194 398.055 74.9911C398.326 75.2628 398.673 75.4478 399.05 75.5228C399.426 75.5978 399.817 75.5593 400.172 75.4122C400.527 75.2652 400.83 75.0162 401.044 74.6967C401.257 74.3772 401.371 74.0015 401.371 73.6173C401.374 73.107 401.175 72.6162 400.818 72.2522C400.46 71.8882 399.973 71.6805 399.463 71.6744H399.429Z" fill="#CDE4F7"/>
<path d="M369.543 97.7999H352.189C352.037 97.7999 351.892 97.7397 351.785 97.6325C351.677 97.5253 351.617 97.38 351.617 97.2284V79.8742C351.617 79.7226 351.677 79.5773 351.785 79.4701C351.892 79.3629 352.037 79.3027 352.189 79.3027H369.543C369.694 79.3027 369.84 79.3629 369.947 79.4701C370.054 79.5773 370.114 79.7226 370.114 79.8742V97.2284C370.114 97.38 370.054 97.5253 369.947 97.6325C369.84 97.7397 369.694 97.7999 369.543 97.7999ZM352.76 96.657H368.971V80.4456H352.76V96.657Z" fill="#CDE4F7"/>
<path d="M369.542 97.8002C369.467 97.8007 369.393 97.7863 369.323 97.7578C369.253 97.7294 369.19 97.6875 369.137 97.6345L351.782 80.2803C351.675 80.1727 351.614 80.0267 351.614 79.8745C351.614 79.7224 351.675 79.5764 351.782 79.4688C351.89 79.3612 352.036 79.3008 352.188 79.3008C352.34 79.3008 352.486 79.3612 352.594 79.4688L369.948 96.8231C370.002 96.8762 370.044 96.9394 370.073 97.0091C370.102 97.0787 370.117 97.1534 370.117 97.2288C370.117 97.3043 370.102 97.3789 370.073 97.4486C370.044 97.5182 370.002 97.5814 369.948 97.6345C369.895 97.6875 369.831 97.7294 369.762 97.7578C369.692 97.7863 369.617 97.8007 369.542 97.8002Z" fill="#CDE4F7"/>
<path d="M352.189 97.8002C352.114 97.8007 352.039 97.7863 351.97 97.7578C351.9 97.7294 351.837 97.6875 351.783 97.6345C351.73 97.5814 351.687 97.5182 351.658 97.4486C351.629 97.3789 351.614 97.3043 351.614 97.2288C351.614 97.1534 351.629 97.0787 351.658 97.0091C351.687 96.9394 351.73 96.8762 351.783 96.8231L369.143 79.4688C369.197 79.4156 369.26 79.3733 369.329 79.3445C369.399 79.3156 369.474 79.3008 369.549 79.3008C369.624 79.3008 369.699 79.3156 369.769 79.3445C369.838 79.3733 369.901 79.4156 369.955 79.4688C370.008 79.5221 370.05 79.5854 370.079 79.655C370.108 79.7246 370.123 79.7992 370.123 79.8745C370.123 79.9499 370.108 80.0245 370.079 80.0941C370.05 80.1637 370.008 80.227 369.955 80.2803L352.572 97.6345C352.47 97.736 352.333 97.7952 352.189 97.8002Z" fill="#CDE4F7"/>
<path d="M352.4 97.7999H335.046C334.894 97.7999 334.749 97.7397 334.642 97.6325C334.535 97.5253 334.475 97.38 334.475 97.2284V79.8742C334.475 79.7226 334.535 79.5773 334.642 79.4701C334.749 79.3629 334.894 79.3027 335.046 79.3027H352.4C352.552 79.3027 352.697 79.3629 352.804 79.4701C352.912 79.5773 352.972 79.7226 352.972 79.8742V97.2284C352.972 97.38 352.912 97.5253 352.804 97.6325C352.697 97.7397 352.552 97.7999 352.4 97.7999ZM335.617 96.657H351.829V80.4456H335.617V96.657Z" fill="#CDE4F7"/>
<path d="M352.4 97.8002C352.324 97.8007 352.25 97.7863 352.18 97.7578C352.111 97.7294 352.047 97.6875 351.994 97.6345L334.64 80.2803C334.586 80.227 334.544 80.1637 334.515 80.0941C334.487 80.0245 334.472 79.9499 334.472 79.8745C334.472 79.7992 334.487 79.7246 334.515 79.655C334.544 79.5854 334.586 79.5221 334.64 79.4688C334.693 79.4156 334.756 79.3733 334.826 79.3445C334.895 79.3156 334.97 79.3008 335.045 79.3008C335.121 79.3008 335.195 79.3156 335.265 79.3445C335.335 79.3733 335.398 79.4156 335.451 79.4688L352.805 96.8231C352.859 96.8762 352.901 96.9394 352.93 97.0091C352.959 97.0787 352.974 97.1534 352.974 97.2288C352.974 97.3043 352.959 97.3789 352.93 97.4486C352.901 97.5182 352.859 97.5814 352.805 97.6345C352.752 97.6875 352.689 97.7294 352.619 97.7578C352.549 97.7863 352.475 97.8007 352.4 97.8002Z" fill="#CDE4F7"/>
<path d="M335.045 97.8002C334.97 97.8007 334.896 97.7863 334.826 97.7578C334.756 97.7294 334.693 97.6875 334.64 97.6345C334.586 97.5814 334.544 97.5182 334.515 97.4486C334.486 97.3789 334.471 97.3043 334.471 97.2288C334.471 97.1534 334.486 97.0787 334.515 97.0091C334.544 96.9394 334.586 96.8762 334.64 96.8231L352 79.4688C352.107 79.3612 352.253 79.3008 352.405 79.3008C352.558 79.3008 352.704 79.3612 352.811 79.4688C352.919 79.5764 352.979 79.7224 352.979 79.8745C352.979 80.0267 352.919 80.1727 352.811 80.2803L335.428 97.6345C335.326 97.736 335.189 97.7952 335.045 97.8002Z" fill="#CDE4F7"/>
<path d="M386.897 97.7999H369.543C369.392 97.7999 369.246 97.7397 369.139 97.6325C369.032 97.5253 368.972 97.38 368.972 97.2284V79.8742C368.972 79.7226 369.032 79.5773 369.139 79.4701C369.246 79.3629 369.392 79.3027 369.543 79.3027H386.897C387.049 79.3027 387.194 79.3629 387.301 79.4701C387.409 79.5773 387.469 79.7226 387.469 79.8742V97.2284C387.469 97.38 387.409 97.5253 387.301 97.6325C387.194 97.7397 387.049 97.7999 386.897 97.7999ZM370.115 96.657H386.326V80.4456H370.115V96.657Z" fill="#CDE4F7"/>
<path d="M386.897 97.8003C386.822 97.8007 386.747 97.7863 386.678 97.7579C386.608 97.7294 386.545 97.6875 386.491 97.6346L369.143 80.2803C369.035 80.1727 368.975 80.0267 368.975 79.8745C368.975 79.7224 369.035 79.5764 369.143 79.4688C369.25 79.3612 369.396 79.3008 369.548 79.3008C369.701 79.3008 369.846 79.3612 369.954 79.4688L387.308 96.8231C387.362 96.8762 387.404 96.9394 387.433 97.0091C387.462 97.0787 387.477 97.1534 387.477 97.2288C387.477 97.3043 387.462 97.379 387.433 97.4486C387.404 97.5182 387.362 97.5814 387.308 97.6346C387.254 97.6882 387.19 97.7305 387.119 97.759C387.049 97.7874 386.973 97.8015 386.897 97.8003Z" fill="#CDE4F7"/>
<path d="M369.543 97.8002C369.467 97.8007 369.393 97.7863 369.323 97.7578C369.254 97.7294 369.19 97.6875 369.137 97.6345C369.083 97.5814 369.041 97.5182 369.012 97.4486C368.983 97.3789 368.968 97.3043 368.968 97.2288C368.968 97.1534 368.983 97.0787 369.012 97.0091C369.041 96.9394 369.083 96.8762 369.137 96.8231L386.491 79.4688C386.599 79.3612 386.745 79.3008 386.897 79.3008C387.049 79.3008 387.195 79.3612 387.303 79.4688C387.41 79.5764 387.471 79.7224 387.471 79.8745C387.471 80.0267 387.41 80.1727 387.303 80.2803L369.948 97.6345C369.895 97.6875 369.832 97.7294 369.762 97.7578C369.692 97.7863 369.618 97.8007 369.543 97.8002Z" fill="#CDE4F7"/>
<path d="M369.543 80.4405H352.189C352.037 80.4405 351.892 80.3803 351.785 80.2731C351.677 80.166 351.617 80.0206 351.617 79.8691V62.5148C351.617 62.3632 351.677 62.2179 351.785 62.1107C351.892 62.0036 352.037 61.9434 352.189 61.9434H369.543C369.694 61.9434 369.84 62.0036 369.947 62.1107C370.054 62.2179 370.114 62.3632 370.114 62.5148V79.8691C370.114 80.0206 370.054 80.166 369.947 80.2731C369.84 80.3803 369.694 80.4405 369.543 80.4405ZM352.76 79.2976H368.971V63.0862H352.76V79.2976Z" fill="#CDE4F7"/>
<path d="M369.542 80.4446C369.467 80.4451 369.393 80.4307 369.323 80.4022C369.253 80.3738 369.19 80.3319 369.137 80.2789L351.782 62.9189C351.675 62.8113 351.614 62.6654 351.614 62.5132C351.614 62.361 351.675 62.2151 351.782 62.1075C351.89 61.9999 352.036 61.9395 352.188 61.9395C352.34 61.9395 352.486 61.9999 352.594 62.1075L369.948 79.4675C370.002 79.5206 370.044 79.5838 370.073 79.6535C370.102 79.7231 370.117 79.7978 370.117 79.8732C370.117 79.9486 370.102 80.0233 370.073 80.093C370.044 80.1626 370.002 80.2258 369.948 80.2789C369.895 80.3319 369.831 80.3738 369.762 80.4022C369.692 80.4307 369.617 80.4451 369.542 80.4446Z" fill="#CDE4F7"/>
<path d="M352.189 80.4446C352.114 80.4451 352.039 80.4307 351.97 80.4022C351.9 80.3738 351.837 80.3319 351.783 80.2789C351.73 80.2258 351.687 80.1626 351.658 80.093C351.629 80.0233 351.614 79.9486 351.614 79.8732C351.614 79.7978 351.629 79.7231 351.658 79.6535C351.687 79.5838 351.73 79.5206 351.783 79.4675L369.143 62.1075C369.197 62.0542 369.26 62.012 369.329 61.9831C369.399 61.9543 369.474 61.9395 369.549 61.9395C369.624 61.9395 369.699 61.9543 369.769 61.9831C369.838 62.012 369.901 62.0542 369.955 62.1075C370.008 62.1608 370.05 62.224 370.079 62.2936C370.108 62.3633 370.123 62.4379 370.123 62.5132C370.123 62.5886 370.108 62.6632 370.079 62.7328C370.05 62.8024 370.008 62.8657 369.955 62.9189L352.572 80.2789C352.47 80.3804 352.333 80.4396 352.189 80.4446Z" fill="#CDE4F7"/>
<path d="M333.726 291.611V301.554L339.063 299.817V289.828L333.726 291.611Z" fill="#D38137"/>
<path d="M291.977 263.811H244.942V310.845H291.977V263.811Z" fill="#F8C47A"/>
<path d="M315.503 255.973L291.983 263.813V310.847L315.503 303.007V255.973Z" fill="#E19A54"/>
<path d="M244.942 263.813L268.462 255.973H315.502L291.982 263.813H244.942Z" fill="#FFDF9A"/>
<path d="M289.966 266.805H273.994V273.719H289.966V266.805Z" fill="#E4E6E6"/>
<path d="M275.874 267.463H275.565V272.914H275.874V267.463Z" fill="#E4E6E6"/>
<path d="M276.72 267.463H276.411V272.914H276.72V267.463Z" fill="#E4E6E6"/>
<path d="M277.565 267.463H277.257V272.914H277.565V267.463Z" fill="#E4E6E6"/>
<path d="M278.405 267.463H278.097V272.914H278.405V267.463Z" fill="#E4E6E6"/>
<path d="M278.434 267.463H278.126V272.914H278.434V267.463Z" fill="#E4E6E6"/>
<path d="M279.28 267.463H278.972V272.914H279.28V267.463Z" fill="#E4E6E6"/>
<path d="M280.126 267.463H279.817V272.914H280.126V267.463Z" fill="#E4E6E6"/>
<path d="M280.972 267.463H280.663V272.914H280.972V267.463Z" fill="#E4E6E6"/>
<path d="M281.503 267.463H281.194V272.914H281.503V267.463Z" fill="#E4E6E6"/>
<path d="M282.32 267.463H282.012V272.914H282.32V267.463Z" fill="#E4E6E6"/>
<path d="M283.131 267.463H282.822V272.914H283.131V267.463Z" fill="#E4E6E6"/>
<path d="M283.978 267.463H283.669V272.914H283.978V267.463Z" fill="#E4E6E6"/>
<path d="M284.822 267.463H284.514V272.914H284.822V267.463Z" fill="#E4E6E6"/>
<path d="M285.669 267.463H285.36V272.914H285.669V267.463Z" fill="#E4E6E6"/>
<path d="M285.697 267.463H285.389V272.914H285.697V267.463Z" fill="#E4E6E6"/>
<path d="M286.537 267.463H286.229V272.914H286.537V267.463Z" fill="#E4E6E6"/>
<path d="M287.383 267.463H287.074V272.914H287.383V267.463Z" fill="#E4E6E6"/>
<path d="M288.229 267.463H287.92V272.914H288.229V267.463Z" fill="#E4E6E6"/>
<path d="M283.862 255.973L264.399 263.813H272.531L291.411 255.973H283.862Z" fill="#CE8D4D"/>
<path d="M264.399 263.811V272.908H272.457L272.531 263.811H264.399Z" fill="#CE8D4D"/>
<path d="M264.399 302V311.097H272.457L272.531 302H264.399Z" fill="#CE8D4D"/>
<path d="M365.834 275.018H329.754V311.098H365.834V275.018Z" fill="#F8C47A"/>
<path d="M383.868 269.006L365.828 275.017V311.097L383.868 305.086V269.006Z" fill="#E19A54"/>
<path d="M329.754 275.017L347.788 269.006H383.868L365.828 275.017H329.754Z" fill="#FFDF9A"/>
<path d="M371.325 299.159V309.222L376.731 307.462V297.359L371.325 299.159Z" fill="#D38137"/>
<path d="M371.325 273.183V283.252L376.731 281.492V271.389L371.325 273.183Z" fill="#D38137"/>
<path d="M340.651 271.389L339.903 271.64L338.771 272.017L334.994 273.183H371.326L376.731 271.389H340.651Z" fill="#E19A54"/>
<path d="M362.388 245.822H335.634V272.577H362.388V245.822Z" fill="#EAB973"/>
<path d="M375.766 241.365L362.389 245.822V272.577L375.766 268.12V241.365Z" fill="#D3914F"/>
<path d="M335.634 245.822L349.011 241.365H375.765L362.388 245.822H335.634Z" fill="#F1D392"/>
<path d="M361.246 247.525H352.16V251.457H361.246V247.525Z" fill="#E4E6E6"/>
<path d="M353.223 247.902H353.052V250.999H353.223V247.902Z" fill="#E4E6E6"/>
<path d="M353.703 247.902H353.531V250.999H353.703V247.902Z" fill="#E4E6E6"/>
<path d="M354.183 247.902H354.012V250.999H354.183V247.902Z" fill="#E4E6E6"/>
<path d="M354.663 247.902H354.491V250.999H354.663V247.902Z" fill="#E4E6E6"/>
<path d="M354.674 247.902H354.503V250.999H354.674V247.902Z" fill="#E4E6E6"/>
<path d="M355.155 247.902H354.983V250.999H355.155V247.902Z" fill="#E4E6E6"/>
<path d="M355.64 247.902H355.469V250.999H355.64V247.902Z" fill="#E4E6E6"/>
<path d="M356.12 247.902H355.948V250.999H356.12V247.902Z" fill="#E4E6E6"/>
<path d="M356.422 247.902H356.251V250.999H356.422V247.902Z" fill="#E4E6E6"/>
<path d="M356.886 247.902H356.715V250.999H356.886V247.902Z" fill="#E4E6E6"/>
<path d="M357.349 247.902H357.178V250.999H357.349V247.902Z" fill="#E4E6E6"/>
<path d="M357.829 247.902H357.657V250.999H357.829V247.902Z" fill="#E4E6E6"/>
<path d="M358.308 247.902H358.137V250.999H358.308V247.902Z" fill="#E4E6E6"/>
<path d="M358.789 247.902H358.617V250.999H358.789V247.902Z" fill="#E4E6E6"/>
<path d="M358.811 247.902H358.64V250.999H358.811V247.902Z" fill="#E4E6E6"/>
<path d="M359.292 247.902H359.12V250.999H359.292V247.902Z" fill="#E4E6E6"/>
<path d="M359.765 247.902H359.594V250.999H359.765V247.902Z" fill="#E4E6E6"/>
<path d="M360.246 247.902H360.074V250.999H360.246V247.902Z" fill="#E4E6E6"/>
<path d="M357.766 241.365L346.703 245.822H351.326L362.063 241.365H357.766Z" fill="#C08448"/>
<path d="M346.703 245.822V250.999H351.28L351.326 245.822H346.703Z" fill="#C08448"/>
<path d="M346.703 267.543V272.726H351.28L351.326 267.543H346.703Z" fill="#C08448"/>
<path d="M447.606 264.062H400.571V311.097H447.606V264.062Z" fill="#F8C47A"/>
<path d="M471.126 256.223L447.611 264.068V311.097L471.126 303.263V256.223Z" fill="#E19A54"/>
<path d="M400.577 264.068L424.091 256.223H471.126L447.611 264.068H400.577Z" fill="#FFDF9A"/>
<path d="M454.783 295.538V308.652L461.817 306.367V293.189L454.783 295.538Z" fill="#D38137"/>
<path d="M454.783 261.68V274.789L461.817 272.503V259.326L454.783 261.68Z" fill="#D38137"/>
<path d="M414.783 259.326L413.811 259.652L412.331 260.149L407.411 261.68H454.783L461.817 259.326H414.783Z" fill="#E19A54"/>
<path d="M445.594 267.062H429.623V273.977H445.594V267.062Z" fill="#E4E6E6"/>
<path d="M431.503 267.721H431.194V273.172H431.503V267.721Z" fill="#E4E6E6"/>
<path d="M432.349 267.721H432.04V273.172H432.349V267.721Z" fill="#E4E6E6"/>
<path d="M433.194 267.721H432.886V273.172H433.194V267.721Z" fill="#E4E6E6"/>
<path d="M434.034 267.721H433.726V273.172H434.034V267.721Z" fill="#E4E6E6"/>
<path d="M434.062 267.721H433.754V273.172H434.062V267.721Z" fill="#E4E6E6"/>
<path d="M434.908 267.721H434.6V273.172H434.908V267.721Z" fill="#E4E6E6"/>
<path d="M435.754 267.721H435.445V273.172H435.754V267.721Z" fill="#E4E6E6"/>
<path d="M436.6 267.721H436.292V273.172H436.6V267.721Z" fill="#E4E6E6"/>
<path d="M437.131 267.721H436.822V273.172H437.131V267.721Z" fill="#E4E6E6"/>
<path d="M437.942 267.721H437.634V273.172H437.942V267.721Z" fill="#E4E6E6"/>
<path d="M438.76 267.721H438.451V273.172H438.76V267.721Z" fill="#E4E6E6"/>
<path d="M439.605 267.721H439.297V273.172H439.605V267.721Z" fill="#E4E6E6"/>
<path d="M440.451 267.721H440.143V273.172H440.451V267.721Z" fill="#E4E6E6"/>
<path d="M441.297 267.721H440.988V273.172H441.297V267.721Z" fill="#E4E6E6"/>
<path d="M441.325 267.721H441.017V273.172H441.325V267.721Z" fill="#E4E6E6"/>
<path d="M442.166 267.721H441.857V273.172H442.166V267.721Z" fill="#E4E6E6"/>
<path d="M443.012 267.721H442.703V273.172H443.012V267.721Z" fill="#E4E6E6"/>
<path d="M443.857 267.721H443.549V273.172H443.857V267.721Z" fill="#E4E6E6"/>
<path d="M440.486 224.566H400.172V264.881H440.486V224.566Z" fill="#E5B571"/>
<path d="M460.641 217.846L440.486 224.566V264.88L460.641 258.166V217.846Z" fill="#CE8D4D"/>
<path d="M400.172 224.566L420.332 217.846H460.64L440.486 224.566H400.172Z" fill="#ECCF8F"/>
<path d="M446.634 251.543V262.788L452.662 260.823V249.531L446.634 251.543Z" fill="#C07632"/>
<path d="M446.634 222.519V233.759L452.662 231.794V220.508L446.634 222.519Z" fill="#C07632"/>
<path d="M412.348 220.508L411.514 220.782L410.245 221.205L406.028 222.519H446.634L452.663 220.508H412.348Z" fill="#CE8D4D"/>
<path d="M438.76 227.131H425.068V233.057H438.76V227.131Z" fill="#E4E6E6"/>
<path d="M426.674 227.703H426.411V232.372H426.674V227.703Z" fill="#E4E6E6"/>
<path d="M427.4 227.703H427.137V232.372H427.4V227.703Z" fill="#E4E6E6"/>
<path d="M428.126 227.703H427.863V232.372H428.126V227.703Z" fill="#E4E6E6"/>
<path d="M428.852 227.703H428.589V232.372H428.852V227.703Z" fill="#E4E6E6"/>
<path d="M428.874 227.703H428.611V232.372H428.874V227.703Z" fill="#E4E6E6"/>
<path d="M429.594 227.703H429.331V232.372H429.594V227.703Z" fill="#E4E6E6"/>
<path d="M430.32 227.703H430.058V232.372H430.32V227.703Z" fill="#E4E6E6"/>
<path d="M431.046 227.703H430.783V232.372H431.046V227.703Z" fill="#E4E6E6"/>
<path d="M431.497 227.703H431.234V232.372H431.497V227.703Z" fill="#E4E6E6"/>
<path d="M432.2 227.703H431.938V232.372H432.2V227.703Z" fill="#E4E6E6"/>
<path d="M432.897 227.703H432.634V232.372H432.897V227.703Z" fill="#E4E6E6"/>
<path d="M433.623 227.703H433.36V232.372H433.623V227.703Z" fill="#E4E6E6"/>
<path d="M434.343 227.703H434.08V232.372H434.343V227.703Z" fill="#E4E6E6"/>
<path d="M435.069 227.703H434.806V232.372H435.069V227.703Z" fill="#E4E6E6"/>
<path d="M435.097 227.703H434.834V232.372H435.097V227.703Z" fill="#E4E6E6"/>
<path d="M435.818 227.703H435.555V232.372H435.818V227.703Z" fill="#E4E6E6"/>
<path d="M436.543 227.703H436.28V232.372H436.543V227.703Z" fill="#E4E6E6"/>
<path d="M437.263 227.703H437V232.372H437.263V227.703Z" fill="#E4E6E6"/>
<path d="M286.452 228.109H252.892V261.669H286.452V228.109Z" fill="#E5B571"/>
<path d="M303.24 222.52L286.457 228.108V261.674L303.24 256.08V222.52Z" fill="#CE8D4D"/>
<path d="M252.892 228.108L269.674 222.52H303.24L286.457 228.108H252.892Z" fill="#ECCF8F"/>
<path d="M291.571 250.571V259.925L296.594 258.296V248.891L291.571 250.571Z" fill="#C07632"/>
<path d="M291.571 226.407V235.767L296.594 234.132V224.732L291.571 226.407Z" fill="#C07632"/>
<path d="M263.034 224.732L262.343 224.961L261.286 225.315L257.771 226.407H291.571L296.594 224.732H263.034Z" fill="#CE8D4D"/>
<path d="M285.023 230.246H273.629V235.177H285.023V230.246Z" fill="#E4E6E6"/>
<path d="M274.96 230.721H274.743V234.606H274.96V230.721Z" fill="#E4E6E6"/>
<path d="M275.566 230.721H275.349V234.606H275.566V230.721Z" fill="#E4E6E6"/>
<path d="M276.165 230.721H275.948V234.606H276.165V230.721Z" fill="#E4E6E6"/>
<path d="M276.766 230.721H276.549V234.606H276.766V230.721Z" fill="#E4E6E6"/>
<path d="M276.789 230.721H276.571V234.606H276.789V230.721Z" fill="#E4E6E6"/>
<path d="M277.395 230.721H277.178V234.606H277.395V230.721Z" fill="#E4E6E6"/>
<path d="M277.995 230.721H277.777V234.606H277.995V230.721Z" fill="#E4E6E6"/>
<path d="M278.594 230.721H278.377V234.606H278.594V230.721Z" fill="#E4E6E6"/>
<path d="M278.977 230.721H278.76V234.606H278.977V230.721Z" fill="#E4E6E6"/>
<path d="M279.56 230.721H279.343V234.606H279.56V230.721Z" fill="#E4E6E6"/>
<path d="M280.143 230.721H279.926V234.606H280.143V230.721Z" fill="#E4E6E6"/>
<path d="M280.743 230.721H280.525V234.606H280.743V230.721Z" fill="#E4E6E6"/>
<path d="M281.343 230.721H281.126V234.606H281.343V230.721Z" fill="#E4E6E6"/>
<path d="M281.949 230.721H281.731V234.606H281.949V230.721Z" fill="#E4E6E6"/>
<path d="M281.971 230.721H281.754V234.606H281.971V230.721Z" fill="#E4E6E6"/>
<path d="M282.572 230.721H282.354V234.606H282.572V230.721Z" fill="#E4E6E6"/>
<path d="M283.171 230.721H282.954V234.606H283.171V230.721Z" fill="#E4E6E6"/>
<path d="M283.777 230.721H283.56V234.606H283.777V230.721Z" fill="#E4E6E6"/>
<path d="M392.76 311.954C392.533 311.954 392.315 311.864 392.154 311.703C391.994 311.543 391.903 311.325 391.903 311.097V199.783C391.903 199.556 391.994 199.338 392.154 199.177C392.315 199.016 392.533 198.926 392.76 198.926C392.988 198.926 393.206 199.016 393.367 199.177C393.527 199.338 393.618 199.556 393.618 199.783V311.097C393.618 311.325 393.527 311.543 393.367 311.703C393.206 311.864 392.988 311.954 392.76 311.954Z" fill="#67BCF4"/>
<path d="M324.188 311.954C323.961 311.954 323.743 311.864 323.582 311.703C323.421 311.543 323.331 311.325 323.331 311.097V199.783C323.331 199.556 323.421 199.338 323.582 199.177C323.743 199.016 323.961 198.926 324.188 198.926C324.416 198.926 324.634 199.016 324.794 199.177C324.955 199.338 325.045 199.556 325.045 199.783V311.097C325.045 311.325 324.955 311.543 324.794 311.703C324.634 311.864 324.416 311.954 324.188 311.954Z" fill="#67BCF4"/>
<path d="M474.32 200.64H241.177C240.95 200.64 240.732 200.55 240.571 200.389C240.411 200.228 240.32 200.01 240.32 199.783C240.32 199.556 240.411 199.338 240.571 199.177C240.732 199.016 240.95 198.926 241.177 198.926H474.32C474.548 198.926 474.766 199.016 474.926 199.177C475.087 199.338 475.177 199.556 475.177 199.783C475.177 200.01 475.087 200.228 474.926 200.389C474.766 200.55 474.548 200.64 474.32 200.64Z" fill="#67BCF4"/>
<path d="M289.258 196.039H270.595C268.878 196.039 267.486 197.431 267.486 199.148V200.422C267.486 202.139 268.878 203.53 270.595 203.53H289.258C290.975 203.53 292.366 202.139 292.366 200.422V199.148C292.366 197.431 290.975 196.039 289.258 196.039Z" fill="#67BCF4"/>
<path d="M278.286 202.286V201.338H276.098V200.572L277.915 197.715H279.258V200.481H279.829V201.338H279.258V202.286H278.286ZM278.286 198.578L277.052 200.481H278.286V198.578Z" fill="white"/>
<path d="M281.435 202.287V198.967L280.675 199.744L280.104 199.172L281.538 197.727H282.389V202.298L281.435 202.287Z" fill="white"/>
<path d="M368.685 196.039H350.023C348.306 196.039 346.914 197.431 346.914 199.148V200.422C346.914 202.139 348.306 203.53 350.023 203.53H368.685C370.402 203.53 371.794 202.139 371.794 200.422V199.148C371.794 197.431 370.402 196.039 368.685 196.039Z" fill="#67BCF4"/>
<path d="M357.714 202.286V201.338H355.525V200.572L357.343 197.715H358.685V200.481H359.257V201.338H358.685V202.286H357.714ZM357.714 198.578L356.48 200.481H357.714V198.578Z" fill="white"/>
<path d="M359.795 202.286V201.526C361.663 200.138 362.212 199.669 362.212 199.103C362.212 198.709 361.852 198.532 361.475 198.532C361.245 198.528 361.016 198.573 360.805 198.664C360.593 198.755 360.403 198.889 360.246 199.058L359.675 198.412C359.897 198.169 360.17 197.976 360.473 197.848C360.777 197.72 361.105 197.659 361.435 197.669C362.406 197.669 363.183 198.241 363.183 199.126C363.183 199.909 362.538 200.589 361.355 201.452H363.218V202.286H359.795Z" fill="white"/>
<path d="M444.114 196.039H425.451C423.735 196.039 422.343 197.431 422.343 199.148V200.422C422.343 202.139 423.735 203.53 425.451 203.53H444.114C445.831 203.53 447.223 202.139 447.223 200.422V199.148C447.223 197.431 445.831 196.039 444.114 196.039Z" fill="#67BCF4"/>
<path d="M433.143 202.286V201.338H430.954V200.572L432.771 197.715H434.114V200.481H434.685V201.338H434.114V202.286H433.143ZM433.143 198.578L431.908 200.481H433.143V198.578Z" fill="white"/>
<path d="M435.034 201.645L435.543 200.994C435.88 201.324 436.333 201.511 436.806 201.514C437.377 201.514 437.668 201.274 437.668 200.942C437.668 200.611 437.388 200.417 436.748 200.417H436.177V199.542H436.748C437.257 199.542 437.594 199.388 437.594 199.057C437.594 198.725 437.223 198.485 436.743 198.485C436.314 198.488 435.904 198.658 435.6 198.96L435.114 198.348C435.337 198.109 435.608 197.921 435.91 197.796C436.211 197.671 436.536 197.611 436.863 197.622C437.931 197.622 438.577 198.102 438.577 198.862C438.555 199.124 438.444 199.371 438.262 199.56C438.08 199.75 437.838 199.87 437.577 199.902C437.859 199.921 438.125 200.043 438.322 200.245C438.52 200.448 438.635 200.717 438.646 201C438.646 201.788 437.943 202.342 436.846 202.342C436.511 202.366 436.175 202.316 435.862 202.196C435.549 202.075 435.266 201.887 435.034 201.645Z" fill="white"/>
</g>
<defs>
<clipPath id="clip0">
<rect width="520" height="324" fill="white"/>
</clipPath>
</defs>
</svg>
