<svg width="520" height="324" viewBox="0 0 520 324" fill="none" xmlns="http://www.w3.org/2000/svg">
<g clip-path="url(#clip0_497_4)">
<mask id="mask0_497_4" style="mask-type:luminance" maskUnits="userSpaceOnUse" x="0" y="0" width="520" height="324">
<path d="M520 0H0V324H520V0Z" fill="white"/>
</mask>
<g mask="url(#mask0_497_4)">
<path d="M259.6 323C403.1 323 519.5 306.3 519.5 285.8C519.5 265.2 403.2 248.6 259.6 248.6C116.1 248.6 -0.300003 265.3 -0.300003 285.8C-0.300003 306.4 116.1 323 259.6 323Z" fill="#EAF1FC"/>
<path d="M472.9 271.8C502.5 210.2 518.9 92.3 454.6 53.2C412.6 27.6 368.8 60.5 323.9 62C288.6 63.2 254.6 35.3 222.8 27.4C139.3 6.5 8.20001 60.7 65.8 271.8C210.1 271.4 328.6 272.2 472.9 271.8Z" fill="#F8F8FF"/>
<path d="M401.3 125.8H303.9V291.1H401.3V125.8Z" fill="#CDE4F7"/>
<path d="M334.2 125.8H303.9V291.1H334.2V125.8Z" fill="#E9EDF4"/>
<path d="M395 133.7H390.5V138.4H395V133.7Z" fill="white"/>
<path d="M386.8 133.7H382.3V138.4H386.8V133.7Z" fill="white"/>
<path d="M378.7 133.7H374.2V138.4H378.7V133.7Z" fill="white"/>
<path d="M370.5 133.7H366V138.4H370.5V133.7Z" fill="white"/>
<path d="M362.3 133.7H357.8V138.4H362.3V133.7Z" fill="white"/>
<path d="M354.1 133.7H349.6V138.4H354.1V133.7Z" fill="white"/>
<path d="M345.9 133.7H341.4V138.4H345.9V133.7Z" fill="white"/>
<path d="M330.9 133.7H326.4V138.4H330.9V133.7Z" fill="white"/>
<path d="M322.8 133.7H318.3V138.4H322.8V133.7Z" fill="white"/>
<path d="M314.6 133.7H310.1V138.4H314.6V133.7Z" fill="white"/>
<path d="M395 143.7H390.5V148.4H395V143.7Z" fill="white"/>
<path d="M386.8 143.7H382.3V148.4H386.8V143.7Z" fill="white"/>
<path d="M378.7 143.7H374.2V148.4H378.7V143.7Z" fill="white"/>
<path d="M370.5 143.7H366V148.4H370.5V143.7Z" fill="white"/>
<path d="M362.3 143.7H357.8V148.4H362.3V143.7Z" fill="white"/>
<path d="M354.1 143.7H349.6V148.4H354.1V143.7Z" fill="white"/>
<path d="M345.9 143.7H341.4V148.4H345.9V143.7Z" fill="white"/>
<path d="M330.9 143.7H326.4V148.4H330.9V143.7Z" fill="white"/>
<path d="M322.8 143.7H318.3V148.4H322.8V143.7Z" fill="white"/>
<path d="M314.6 143.7H310.1V148.4H314.6V143.7Z" fill="white"/>
<path d="M395 153.6H390.5V158.3H395V153.6Z" fill="white"/>
<path d="M386.8 153.6H382.3V158.3H386.8V153.6Z" fill="white"/>
<path d="M378.7 153.6H374.2V158.3H378.7V153.6Z" fill="white"/>
<path d="M370.5 153.6H366V158.3H370.5V153.6Z" fill="white"/>
<path d="M362.3 153.6H357.8V158.3H362.3V153.6Z" fill="white"/>
<path d="M354.1 153.6H349.6V158.3H354.1V153.6Z" fill="white"/>
<path d="M345.9 153.6H341.4V158.3H345.9V153.6Z" fill="white"/>
<path d="M330.9 153.6H326.4V158.3H330.9V153.6Z" fill="white"/>
<path d="M322.8 153.6H318.3V158.3H322.8V153.6Z" fill="white"/>
<path d="M314.6 153.6H310.1V158.3H314.6V153.6Z" fill="white"/>
<path d="M395 163.6H390.5V168.3H395V163.6Z" fill="white"/>
<path d="M386.8 163.6H382.3V168.3H386.8V163.6Z" fill="white"/>
<path d="M378.7 163.6H374.2V168.3H378.7V163.6Z" fill="white"/>
<path d="M370.5 163.6H366V168.3H370.5V163.6Z" fill="white"/>
<path d="M362.3 163.6H357.8V168.3H362.3V163.6Z" fill="white"/>
<path d="M354.1 163.6H349.6V168.3H354.1V163.6Z" fill="white"/>
<path d="M345.9 163.6H341.4V168.3H345.9V163.6Z" fill="white"/>
<path d="M330.9 163.6H326.4V168.3H330.9V163.6Z" fill="white"/>
<path d="M322.8 163.6H318.3V168.3H322.8V163.6Z" fill="white"/>
<path d="M314.6 163.6H310.1V168.3H314.6V163.6Z" fill="white"/>
<path d="M395 173.6H390.5V178.3H395V173.6Z" fill="white"/>
<path d="M386.8 173.6H382.3V178.3H386.8V173.6Z" fill="white"/>
<path d="M378.7 173.6H374.2V178.3H378.7V173.6Z" fill="white"/>
<path d="M370.5 173.6H366V178.3H370.5V173.6Z" fill="white"/>
<path d="M362.3 173.6H357.8V178.3H362.3V173.6Z" fill="white"/>
<path d="M354.1 173.6H349.6V178.3H354.1V173.6Z" fill="white"/>
<path d="M345.9 173.6H341.4V178.3H345.9V173.6Z" fill="white"/>
<path d="M330.9 173.6H326.4V178.3H330.9V173.6Z" fill="white"/>
<path d="M322.8 173.6H318.3V178.3H322.8V173.6Z" fill="white"/>
<path d="M314.6 173.6H310.1V178.3H314.6V173.6Z" fill="white"/>
<path d="M395 183.5H390.5V188.2H395V183.5Z" fill="white"/>
<path d="M386.8 183.5H382.3V188.2H386.8V183.5Z" fill="white"/>
<path d="M378.7 183.5H374.2V188.2H378.7V183.5Z" fill="white"/>
<path d="M370.5 183.5H366V188.2H370.5V183.5Z" fill="white"/>
<path d="M362.3 183.5H357.8V188.2H362.3V183.5Z" fill="white"/>
<path d="M354.1 183.5H349.6V188.2H354.1V183.5Z" fill="white"/>
<path d="M345.9 183.5H341.4V188.2H345.9V183.5Z" fill="white"/>
<path d="M330.9 183.5H326.4V188.2H330.9V183.5Z" fill="white"/>
<path d="M322.8 183.5H318.3V188.2H322.8V183.5Z" fill="white"/>
<path d="M314.6 183.5H310.1V188.2H314.6V183.5Z" fill="white"/>
<path d="M395 193.5H390.5V198.2H395V193.5Z" fill="white"/>
<path d="M386.8 193.5H382.3V198.2H386.8V193.5Z" fill="white"/>
<path d="M378.7 193.5H374.2V198.2H378.7V193.5Z" fill="white"/>
<path d="M370.5 193.5H366V198.2H370.5V193.5Z" fill="white"/>
<path d="M362.3 193.5H357.8V198.2H362.3V193.5Z" fill="white"/>
<path d="M354.1 193.5H349.6V198.2H354.1V193.5Z" fill="white"/>
<path d="M345.9 193.5H341.4V198.2H345.9V193.5Z" fill="white"/>
<path d="M330.9 193.5H326.4V198.2H330.9V193.5Z" fill="white"/>
<path d="M322.8 193.5H318.3V198.2H322.8V193.5Z" fill="white"/>
<path d="M314.6 193.5H310.1V198.2H314.6V193.5Z" fill="white"/>
<path d="M395 203.5H390.5V208.2H395V203.5Z" fill="white"/>
<path d="M386.8 203.5H382.3V208.2H386.8V203.5Z" fill="white"/>
<path d="M378.7 203.5H374.2V208.2H378.7V203.5Z" fill="white"/>
<path d="M370.5 203.5H366V208.2H370.5V203.5Z" fill="white"/>
<path d="M362.3 203.5H357.8V208.2H362.3V203.5Z" fill="white"/>
<path d="M354.1 203.5H349.6V208.2H354.1V203.5Z" fill="white"/>
<path d="M345.9 203.5H341.4V208.2H345.9V203.5Z" fill="white"/>
<path d="M330.9 203.5H326.4V208.2H330.9V203.5Z" fill="white"/>
<path d="M322.8 203.5H318.3V208.2H322.8V203.5Z" fill="white"/>
<path d="M314.6 203.5H310.1V208.2H314.6V203.5Z" fill="white"/>
<path d="M395 213.4H390.5V218.1H395V213.4Z" fill="white"/>
<path d="M386.8 213.4H382.3V218.1H386.8V213.4Z" fill="white"/>
<path d="M378.7 213.4H374.2V218.1H378.7V213.4Z" fill="white"/>
<path d="M370.5 213.4H366V218.1H370.5V213.4Z" fill="white"/>
<path d="M362.3 213.4H357.8V218.1H362.3V213.4Z" fill="white"/>
<path d="M354.1 213.4H349.6V218.1H354.1V213.4Z" fill="white"/>
<path d="M345.9 213.4H341.4V218.1H345.9V213.4Z" fill="white"/>
<path d="M330.9 213.4H326.4V218.1H330.9V213.4Z" fill="white"/>
<path d="M322.8 213.4H318.3V218.1H322.8V213.4Z" fill="white"/>
<path d="M314.6 213.4H310.1V218.1H314.6V213.4Z" fill="white"/>
<path d="M395 223.4H390.5V228.1H395V223.4Z" fill="white"/>
<path d="M386.8 223.4H382.3V228.1H386.8V223.4Z" fill="white"/>
<path d="M378.7 223.4H374.2V228.1H378.7V223.4Z" fill="white"/>
<path d="M370.5 223.4H366V228.1H370.5V223.4Z" fill="white"/>
<path d="M362.3 223.4H357.8V228.1H362.3V223.4Z" fill="white"/>
<path d="M354.1 223.4H349.6V228.1H354.1V223.4Z" fill="white"/>
<path d="M345.9 223.4H341.4V228.1H345.9V223.4Z" fill="white"/>
<path d="M330.9 223.4H326.4V228.1H330.9V223.4Z" fill="white"/>
<path d="M322.8 223.4H318.3V228.1H322.8V223.4Z" fill="white"/>
<path d="M314.6 223.4H310.1V228.1H314.6V223.4Z" fill="white"/>
<path d="M395 233.4H390.5V238.1H395V233.4Z" fill="white"/>
<path d="M386.8 233.4H382.3V238.1H386.8V233.4Z" fill="white"/>
<path d="M378.7 233.4H374.2V238.1H378.7V233.4Z" fill="white"/>
<path d="M370.5 233.4H366V238.1H370.5V233.4Z" fill="white"/>
<path d="M362.3 233.4H357.8V238.1H362.3V233.4Z" fill="white"/>
<path d="M354.1 233.4H349.6V238.1H354.1V233.4Z" fill="white"/>
<path d="M345.9 233.4H341.4V238.1H345.9V233.4Z" fill="white"/>
<path d="M330.9 233.4H326.4V238.1H330.9V233.4Z" fill="white"/>
<path d="M322.8 233.4H318.3V238.1H322.8V233.4Z" fill="white"/>
<path d="M314.6 233.4H310.1V238.1H314.6V233.4Z" fill="white"/>
<path d="M395 243.4H390.5V248.1H395V243.4Z" fill="white"/>
<path d="M386.8 243.4H382.3V248.1H386.8V243.4Z" fill="white"/>
<path d="M378.7 243.4H374.2V248.1H378.7V243.4Z" fill="white"/>
<path d="M370.5 243.4H366V248.1H370.5V243.4Z" fill="white"/>
<path d="M362.3 243.4H357.8V248.1H362.3V243.4Z" fill="white"/>
<path d="M354.1 243.4H349.6V248.1H354.1V243.4Z" fill="white"/>
<path d="M345.9 243.4H341.4V248.1H345.9V243.4Z" fill="white"/>
<path d="M330.9 243.4H326.4V248.1H330.9V243.4Z" fill="white"/>
<path d="M322.8 243.4H318.3V248.1H322.8V243.4Z" fill="white"/>
<path d="M314.6 243.4H310.1V248.1H314.6V243.4Z" fill="white"/>
<path d="M395 253.3H390.5V258H395V253.3Z" fill="white"/>
<path d="M386.8 253.3H382.3V258H386.8V253.3Z" fill="white"/>
<path d="M378.7 253.3H374.2V258H378.7V253.3Z" fill="white"/>
<path d="M370.5 253.3H366V258H370.5V253.3Z" fill="white"/>
<path d="M362.3 253.3H357.8V258H362.3V253.3Z" fill="white"/>
<path d="M354.1 253.3H349.6V258H354.1V253.3Z" fill="white"/>
<path d="M345.9 253.3H341.4V258H345.9V253.3Z" fill="white"/>
<path d="M330.9 253.3H326.4V258H330.9V253.3Z" fill="white"/>
<path d="M322.8 253.3H318.3V258H322.8V253.3Z" fill="white"/>
<path d="M314.6 253.3H310.1V258H314.6V253.3Z" fill="white"/>
<path d="M395 263.3H390.5V268H395V263.3Z" fill="white"/>
<path d="M386.8 263.3H382.3V268H386.8V263.3Z" fill="white"/>
<path d="M378.7 263.3H374.2V268H378.7V263.3Z" fill="white"/>
<path d="M370.5 263.3H366V268H370.5V263.3Z" fill="white"/>
<path d="M362.3 263.3H357.8V268H362.3V263.3Z" fill="white"/>
<path d="M354.1 263.3H349.6V268H354.1V263.3Z" fill="white"/>
<path d="M345.9 263.3H341.4V268H345.9V263.3Z" fill="white"/>
<path d="M330.9 263.3H326.4V268H330.9V263.3Z" fill="white"/>
<path d="M322.8 263.3H318.3V268H322.8V263.3Z" fill="white"/>
<path d="M314.6 263.3H310.1V268H314.6V263.3Z" fill="white"/>
<path d="M395 273.3H390.5V278H395V273.3Z" fill="white"/>
<path d="M386.8 273.3H382.3V278H386.8V273.3Z" fill="white"/>
<path d="M378.7 273.3H374.2V278H378.7V273.3Z" fill="white"/>
<path d="M370.5 273.3H366V278H370.5V273.3Z" fill="white"/>
<path d="M362.3 273.3H357.8V278H362.3V273.3Z" fill="white"/>
<path d="M354.1 273.3H349.6V278H354.1V273.3Z" fill="white"/>
<path d="M345.9 273.3H341.4V278H345.9V273.3Z" fill="white"/>
<path d="M330.9 273.3H326.4V278H330.9V273.3Z" fill="white"/>
<path d="M322.8 273.3H318.3V278H322.8V273.3Z" fill="white"/>
<path d="M314.6 273.3H310.1V278H314.6V273.3Z" fill="white"/>
<path d="M317.5 154.3H227.1V291.2H317.5V154.3Z" fill="#CDE4F7"/>
<path d="M255.3 154.3H227.1V291.2H255.3V154.3Z" fill="#E9EDF4"/>
<path d="M311.7 161.2H307.5V181.6H311.7V161.2Z" fill="white"/>
<path d="M304.1 161.2H300V181.6H304.2V161.2H304.1Z" fill="white"/>
<path d="M296.5 161.2H292.3V181.6H296.5V161.2Z" fill="white"/>
<path d="M288.9 161.2H284.7V181.6H288.9V161.2Z" fill="white"/>
<path d="M281.3 161.2H277.1V181.6H281.3V161.2Z" fill="white"/>
<path d="M273.8 161.2H269.6V181.6H273.8V161.2Z" fill="white"/>
<path d="M266.2 161.2H262V181.6H266.2V161.2Z" fill="white"/>
<path d="M252.2 161.2H248V181.6H252.2V161.2Z" fill="white"/>
<path d="M244.6 161.2H240.4V181.6H244.6V161.2Z" fill="white"/>
<path d="M237.1 161.2H232.9V181.6H237.1V161.2Z" fill="white"/>
<path d="M311.7 184.3H307.5V204.7H311.7V184.3Z" fill="white"/>
<path d="M304.1 184.3H300V204.7H304.2V184.3H304.1Z" fill="white"/>
<path d="M296.5 184.3H292.3V204.7H296.5V184.3Z" fill="white"/>
<path d="M288.9 184.3H284.7V204.7H288.9V184.3Z" fill="white"/>
<path d="M281.3 184.3H277.1V204.7H281.3V184.3Z" fill="white"/>
<path d="M273.8 184.3H269.6V204.7H273.8V184.3Z" fill="white"/>
<path d="M266.2 184.3H262V204.7H266.2V184.3Z" fill="white"/>
<path d="M252.2 184.3H248V204.7H252.2V184.3Z" fill="white"/>
<path d="M244.6 184.3H240.4V204.7H244.6V184.3Z" fill="white"/>
<path d="M237.1 184.3H232.9V204.7H237.1V184.3Z" fill="white"/>
<path d="M311.7 207.4H307.5V227.8H311.7V207.4Z" fill="white"/>
<path d="M304.1 207.4H300V227.8H304.2V207.4H304.1Z" fill="white"/>
<path d="M296.5 207.4H292.3V227.8H296.5V207.4Z" fill="white"/>
<path d="M288.9 207.4H284.7V227.8H288.9V207.4Z" fill="white"/>
<path d="M281.3 207.4H277.1V227.8H281.3V207.4Z" fill="white"/>
<path d="M273.8 207.4H269.6V227.8H273.8V207.4Z" fill="white"/>
<path d="M266.2 207.4H262V227.8H266.2V207.4Z" fill="white"/>
<path d="M252.2 207.4H248V227.8H252.2V207.4Z" fill="white"/>
<path d="M244.6 207.4H240.4V227.8H244.6V207.4Z" fill="white"/>
<path d="M237.1 207.4H232.9V227.8H237.1V207.4Z" fill="white"/>
<path d="M311.7 230.5H307.5V250.9H311.7V230.5Z" fill="white"/>
<path d="M304.1 230.5H300V250.9H304.2V230.5H304.1Z" fill="white"/>
<path d="M296.5 230.5H292.3V250.9H296.5V230.5Z" fill="white"/>
<path d="M288.9 230.5H284.7V250.9H288.9V230.5Z" fill="white"/>
<path d="M281.3 230.5H277.1V250.9H281.3V230.5Z" fill="white"/>
<path d="M273.8 230.5H269.6V250.9H273.8V230.5Z" fill="white"/>
<path d="M266.2 230.5H262V250.9H266.2V230.5Z" fill="white"/>
<path d="M252.2 230.5H248V250.9H252.2V230.5Z" fill="white"/>
<path d="M244.6 230.5H240.4V250.9H244.6V230.5Z" fill="white"/>
<path d="M237.1 230.5H232.9V250.9H237.1V230.5Z" fill="white"/>
<path d="M311.7 253.6H307.5V274H311.7V253.6Z" fill="white"/>
<path d="M304.1 253.6H300V274H304.2V253.6H304.1Z" fill="white"/>
<path d="M296.5 253.6H292.3V274H296.5V253.6Z" fill="white"/>
<path d="M288.9 253.6H284.7V274H288.9V253.6Z" fill="white"/>
<path d="M281.3 253.6H277.1V274H281.3V253.6Z" fill="white"/>
<path d="M273.8 253.6H269.6V274H273.8V253.6Z" fill="white"/>
<path d="M266.2 253.6H262V274H266.2V253.6Z" fill="white"/>
<path d="M252.2 253.6H248V274H252.2V253.6Z" fill="white"/>
<path d="M244.6 253.6H240.4V274H244.6V253.6Z" fill="white"/>
<path d="M237.1 253.6H232.9V274H237.1V253.6Z" fill="white"/>
<path d="M106.1 106.1H15.7V291.1H106.1V106.1Z" fill="#CDE4F7"/>
<path d="M43.9 106.1H15.7V291.1H43.9V106.1Z" fill="#E9EDF4"/>
<path d="M100.3 114.9H96.1V135.3H100.3V114.9Z" fill="white"/>
<path d="M92.8 114.9H88.6V135.3H92.8V114.9Z" fill="white"/>
<path d="M85.2 114.9H81V135.3H85.2V114.9Z" fill="white"/>
<path d="M77.6 114.9H73.4V135.3H77.6V114.9Z" fill="white"/>
<path d="M70 114.9H65.8V135.3H70V114.9Z" fill="white"/>
<path d="M62.4 114.9H58.2V135.3H62.4V114.9Z" fill="white"/>
<path d="M54.8 114.9H50.6V135.3H54.8V114.9Z" fill="white"/>
<path d="M40.9 114.9H36.7V135.3H40.9V114.9Z" fill="white"/>
<path d="M33.3 114.9H29.1V135.3H33.3V114.9Z" fill="white"/>
<path d="M25.7 114.9H21.5V135.3H25.7V114.9Z" fill="white"/>
<path d="M100.3 138H96.1V158.4H100.3V138Z" fill="white"/>
<path d="M92.8 138H88.6V158.4H92.8V138Z" fill="white"/>
<path d="M85.2 138H81V158.4H85.2V138Z" fill="white"/>
<path d="M77.6 138H73.4V158.4H77.6V138Z" fill="white"/>
<path d="M70 138H65.8V158.4H70V138Z" fill="white"/>
<path d="M62.4 138H58.2V158.4H62.4V138Z" fill="white"/>
<path d="M54.8 138H50.6V158.4H54.8V138Z" fill="white"/>
<path d="M40.9 138H36.7V158.4H40.9V138Z" fill="white"/>
<path d="M33.3 138H29.1V158.4H33.3V138Z" fill="white"/>
<path d="M25.7 138H21.5V158.4H25.7V138Z" fill="white"/>
<path d="M100.3 161.2H96.1V181.6H100.3V161.2Z" fill="white"/>
<path d="M92.8 161.2H88.6V181.6H92.8V161.2Z" fill="white"/>
<path d="M85.2 161.2H81V181.6H85.2V161.2Z" fill="white"/>
<path d="M77.6 161.2H73.4V181.6H77.6V161.2Z" fill="white"/>
<path d="M70 161.2H65.8V181.6H70V161.2Z" fill="white"/>
<path d="M62.4 161.2H58.2V181.6H62.4V161.2Z" fill="white"/>
<path d="M54.8 161.2H50.6V181.6H54.8V161.2Z" fill="white"/>
<path d="M40.9 161.2H36.7V181.6H40.9V161.2Z" fill="white"/>
<path d="M33.3 161.2H29.1V181.6H33.3V161.2Z" fill="white"/>
<path d="M25.7 161.2H21.5V181.6H25.7V161.2Z" fill="white"/>
<path d="M100.3 184.3H96.1V204.7H100.3V184.3Z" fill="white"/>
<path d="M92.8 184.3H88.6V204.7H92.8V184.3Z" fill="white"/>
<path d="M85.2 184.3H81V204.7H85.2V184.3Z" fill="white"/>
<path d="M77.6 184.3H73.4V204.7H77.6V184.3Z" fill="white"/>
<path d="M70 184.3H65.8V204.7H70V184.3Z" fill="white"/>
<path d="M62.4 184.3H58.2V204.7H62.4V184.3Z" fill="white"/>
<path d="M54.8 184.3H50.6V204.7H54.8V184.3Z" fill="white"/>
<path d="M40.9 184.3H36.7V204.7H40.9V184.3Z" fill="white"/>
<path d="M33.3 184.3H29.1V204.7H33.3V184.3Z" fill="white"/>
<path d="M25.7 184.3H21.5V204.7H25.7V184.3Z" fill="white"/>
<path d="M100.3 207.4H96.1V227.8H100.3V207.4Z" fill="white"/>
<path d="M92.8 207.4H88.6V227.8H92.8V207.4Z" fill="white"/>
<path d="M85.2 207.4H81V227.8H85.2V207.4Z" fill="white"/>
<path d="M77.6 207.4H73.4V227.8H77.6V207.4Z" fill="white"/>
<path d="M70 207.4H65.8V227.8H70V207.4Z" fill="white"/>
<path d="M62.4 207.4H58.2V227.8H62.4V207.4Z" fill="white"/>
<path d="M54.8 207.4H50.6V227.8H54.8V207.4Z" fill="white"/>
<path d="M40.9 207.4H36.7V227.8H40.9V207.4Z" fill="white"/>
<path d="M33.3 207.4H29.1V227.8H33.3V207.4Z" fill="white"/>
<path d="M25.7 207.4H21.5V227.8H25.7V207.4Z" fill="white"/>
<path d="M100.3 230.5H96.1V250.9H100.3V230.5Z" fill="white"/>
<path d="M92.8 230.5H88.6V250.9H92.8V230.5Z" fill="white"/>
<path d="M85.2 230.5H81V250.9H85.2V230.5Z" fill="white"/>
<path d="M77.6 230.5H73.4V250.9H77.6V230.5Z" fill="white"/>
<path d="M70 230.5H65.8V250.9H70V230.5Z" fill="white"/>
<path d="M62.4 230.5H58.2V250.9H62.4V230.5Z" fill="white"/>
<path d="M54.8 230.5H50.6V250.9H54.8V230.5Z" fill="white"/>
<path d="M40.9 230.5H36.7V250.9H40.9V230.5Z" fill="white"/>
<path d="M33.3 230.5H29.1V250.9H33.3V230.5Z" fill="white"/>
<path d="M25.7 230.5H21.5V250.9H25.7V230.5Z" fill="white"/>
<path d="M100.3 253.6H96.1V274H100.3V253.6Z" fill="white"/>
<path d="M92.8 253.6H88.6V274H92.8V253.6Z" fill="white"/>
<path d="M85.2 253.6H81V274H85.2V253.6Z" fill="white"/>
<path d="M77.6 253.6H73.4V274H77.6V253.6Z" fill="white"/>
<path d="M70 253.6H65.8V274H70V253.6Z" fill="white"/>
<path d="M62.4 253.6H58.2V274H62.4V253.6Z" fill="white"/>
<path d="M54.8 253.6H50.6V274H54.8V253.6Z" fill="white"/>
<path d="M40.9 253.6H36.7V274H40.9V253.6Z" fill="white"/>
<path d="M33.3 253.6H29.1V274H33.3V253.6Z" fill="white"/>
<path d="M25.7 253.6H21.5V274H25.7V253.6Z" fill="white"/>
<path d="M245 121.5H182.3V291.2H245V121.5Z" fill="#CDE4F7"/>
<path d="M201.8 121.5H182.3V291.2H201.8V121.5Z" fill="#ECF7FE"/>
<path d="M245 130.7H182.3V132.1H245V130.7Z" fill="white"/>
<path d="M245 142H182.3V143.4H245V142Z" fill="white"/>
<path d="M245 153.2H182.3V154.6H245V153.2Z" fill="white"/>
<path d="M245 164.4H182.3V165.8H245V164.4Z" fill="white"/>
<path d="M245 175.6H182.3V177H245V175.6Z" fill="white"/>
<path d="M245 186.8H182.3V188.2H245V186.8Z" fill="white"/>
<path d="M245 198H182.3V199.4H245V198Z" fill="white"/>
<path d="M245 209.2H182.3V210.6H245V209.2Z" fill="white"/>
<path d="M245 220.4H182.3V221.8H245V220.4Z" fill="white"/>
<path d="M245 231.6H182.3V233H245V231.6Z" fill="white"/>
<path d="M245 242.8H182.3V244.2H245V242.8Z" fill="white"/>
<path d="M245 254H182.3V255.4H245V254Z" fill="white"/>
<path d="M245 265.2H182.3V266.6H245V265.2Z" fill="white"/>
<path d="M245 276.4H182.3V277.8H245V276.4Z" fill="white"/>
<path d="M499 155.2H400.5V291.1H499V155.2Z" fill="#CDE4F7"/>
<path d="M431.1 155.2H400.4V291.1H431.1V155.2Z" fill="#E9EDF4"/>
<path d="M499 162.7H400.5V163.8H499V162.7Z" fill="white"/>
<path d="M499 171.6H400.5V172.7H499V171.6Z" fill="white"/>
<path d="M499 180.6H400.5V181.7H499V180.6Z" fill="white"/>
<path d="M499 189.6H400.5V190.7H499V189.6Z" fill="white"/>
<path d="M499 198.6H400.5V199.7H499V198.6Z" fill="white"/>
<path d="M499 207.5H400.5V208.6H499V207.5Z" fill="white"/>
<path d="M499 216.5H400.5V217.6H499V216.5Z" fill="white"/>
<path d="M499 225.5H400.5V226.6H499V225.5Z" fill="white"/>
<path d="M499 234.4H400.5V235.5H499V234.4Z" fill="white"/>
<path d="M499 243.4H400.5V244.5H499V243.4Z" fill="white"/>
<path d="M499 252.4H400.5V253.5H499V252.4Z" fill="white"/>
<path d="M499 261.4H400.5V262.5H499V261.4Z" fill="white"/>
<path d="M499 270.3H400.5V271.4H499V270.3Z" fill="white"/>
<path d="M499 279.3H400.5V280.4H499V279.3Z" fill="white"/>
<path d="M195 55.9H80V291.2H195V55.9Z" fill="#CDE4F7"/>
<path d="M115.8 55.9H80V291.2H115.8V55.9Z" fill="#ECF7FE"/>
<path d="M187.6 67.1H182.3V73.8H187.6V67.1Z" fill="white"/>
<path d="M177.9 67.1H172.6V73.8H177.9V67.1Z" fill="white"/>
<path d="M168.3 67.1H163V73.8H168.3V67.1Z" fill="white"/>
<path d="M158.6 67.1H153.3V73.8H158.6V67.1Z" fill="white"/>
<path d="M149 67.1H143.7V73.8H149V67.1Z" fill="white"/>
<path d="M139.3 67.1H134V73.8H139.3V67.1Z" fill="white"/>
<path d="M129.6 67.1H124.3V73.8H129.6V67.1Z" fill="white"/>
<path d="M111.9 67.1H106.6V73.8H111.9V67.1Z" fill="white"/>
<path d="M102.3 67.1H97V73.8H102.3V67.1Z" fill="white"/>
<path d="M92.6 67.1H87.3V73.8H92.6V67.1Z" fill="white"/>
<path d="M187.6 81.3H182.3V88H187.6V81.3Z" fill="white"/>
<path d="M177.9 81.3H172.6V88H177.9V81.3Z" fill="white"/>
<path d="M168.3 81.3H163V88H168.3V81.3Z" fill="white"/>
<path d="M158.6 81.3H153.3V88H158.6V81.3Z" fill="white"/>
<path d="M149 81.3H143.7V88H149V81.3Z" fill="white"/>
<path d="M139.3 81.3H134V88H139.3V81.3Z" fill="white"/>
<path d="M129.6 81.3H124.3V88H129.6V81.3Z" fill="white"/>
<path d="M111.9 81.3H106.6V88H111.9V81.3Z" fill="white"/>
<path d="M102.3 81.3H97V88H102.3V81.3Z" fill="white"/>
<path d="M92.6 81.3H87.3V88H92.6V81.3Z" fill="white"/>
<path d="M187.6 95.5H182.3V102.2H187.6V95.5Z" fill="white"/>
<path d="M177.9 95.5H172.6V102.2H177.9V95.5Z" fill="white"/>
<path d="M168.3 95.5H163V102.2H168.3V95.5Z" fill="white"/>
<path d="M158.6 95.5H153.3V102.2H158.6V95.5Z" fill="white"/>
<path d="M149 95.5H143.7V102.2H149V95.5Z" fill="white"/>
<path d="M139.3 95.5H134V102.2H139.3V95.5Z" fill="white"/>
<path d="M129.6 95.5H124.3V102.2H129.6V95.5Z" fill="white"/>
<path d="M111.9 95.5H106.6V102.2H111.9V95.5Z" fill="white"/>
<path d="M102.3 95.5H97V102.2H102.3V95.5Z" fill="white"/>
<path d="M92.6 95.5H87.3V102.2H92.6V95.5Z" fill="white"/>
<path d="M187.6 109.6H182.3V116.3H187.6V109.6Z" fill="white"/>
<path d="M177.9 109.6H172.6V116.3H177.9V109.6Z" fill="white"/>
<path d="M168.3 109.6H163V116.3H168.3V109.6Z" fill="white"/>
<path d="M158.6 109.6H153.3V116.3H158.6V109.6Z" fill="white"/>
<path d="M149 109.6H143.7V116.3H149V109.6Z" fill="white"/>
<path d="M139.3 109.6H134V116.3H139.3V109.6Z" fill="white"/>
<path d="M129.6 109.6H124.3V116.3H129.6V109.6Z" fill="white"/>
<path d="M111.9 109.6H106.6V116.3H111.9V109.6Z" fill="white"/>
<path d="M102.3 109.6H97V116.3H102.3V109.6Z" fill="white"/>
<path d="M92.6 109.6H87.3V116.3H92.6V109.6Z" fill="white"/>
<path d="M187.6 123.8H182.3V130.5H187.6V123.8Z" fill="white"/>
<path d="M177.9 123.8H172.6V130.5H177.9V123.8Z" fill="white"/>
<path d="M168.3 123.8H163V130.5H168.3V123.8Z" fill="white"/>
<path d="M158.6 123.8H153.3V130.5H158.6V123.8Z" fill="white"/>
<path d="M149 123.8H143.7V130.5H149V123.8Z" fill="white"/>
<path d="M139.3 123.8H134V130.5H139.3V123.8Z" fill="white"/>
<path d="M129.6 123.8H124.3V130.5H129.6V123.8Z" fill="white"/>
<path d="M111.9 123.8H106.6V130.5H111.9V123.8Z" fill="white"/>
<path d="M102.3 123.8H97V130.5H102.3V123.8Z" fill="white"/>
<path d="M92.6 123.8H87.3V130.5H92.6V123.8Z" fill="white"/>
<path d="M187.6 138H182.3V144.7H187.6V138Z" fill="white"/>
<path d="M177.9 138H172.6V144.7H177.9V138Z" fill="white"/>
<path d="M168.3 138H163V144.7H168.3V138Z" fill="white"/>
<path d="M158.6 138H153.3V144.7H158.6V138Z" fill="white"/>
<path d="M149 138H143.7V144.7H149V138Z" fill="white"/>
<path d="M139.3 138H134V144.7H139.3V138Z" fill="white"/>
<path d="M129.6 138H124.3V144.7H129.6V138Z" fill="white"/>
<path d="M111.9 138H106.6V144.7H111.9V138Z" fill="white"/>
<path d="M102.3 138H97V144.7H102.3V138Z" fill="white"/>
<path d="M92.6 138H87.3V144.7H92.6V138Z" fill="white"/>
<path d="M187.6 152.2H182.3V158.9H187.6V152.2Z" fill="white"/>
<path d="M177.9 152.2H172.6V158.9H177.9V152.2Z" fill="white"/>
<path d="M168.3 152.2H163V158.9H168.3V152.2Z" fill="white"/>
<path d="M158.6 152.2H153.3V158.9H158.6V152.2Z" fill="white"/>
<path d="M149 152.2H143.7V158.9H149V152.2Z" fill="white"/>
<path d="M139.3 152.2H134V158.9H139.3V152.2Z" fill="white"/>
<path d="M129.6 152.2H124.3V158.9H129.6V152.2Z" fill="white"/>
<path d="M111.9 152.2H106.6V158.9H111.9V152.2Z" fill="white"/>
<path d="M102.3 152.2H97V158.9H102.3V152.2Z" fill="white"/>
<path d="M92.6 152.2H87.3V158.9H92.6V152.2Z" fill="white"/>
<path d="M187.6 166.4H182.3V173.1H187.6V166.4Z" fill="white"/>
<path d="M177.9 166.4H172.6V173.1H177.9V166.4Z" fill="white"/>
<path d="M168.3 166.4H163V173.1H168.3V166.4Z" fill="white"/>
<path d="M158.6 166.4H153.3V173.1H158.6V166.4Z" fill="white"/>
<path d="M149 166.4H143.7V173.1H149V166.4Z" fill="white"/>
<path d="M139.3 166.4H134V173.1H139.3V166.4Z" fill="white"/>
<path d="M129.6 166.4H124.3V173.1H129.6V166.4Z" fill="white"/>
<path d="M111.9 166.4H106.6V173.1H111.9V166.4Z" fill="white"/>
<path d="M102.3 166.4H97V173.1H102.3V166.4Z" fill="white"/>
<path d="M92.6 166.4H87.3V173.1H92.6V166.4Z" fill="white"/>
<path d="M187.6 180.6H182.3V187.3H187.6V180.6Z" fill="white"/>
<path d="M177.9 180.6H172.6V187.3H177.9V180.6Z" fill="white"/>
<path d="M168.3 180.6H163V187.3H168.3V180.6Z" fill="white"/>
<path d="M158.6 180.6H153.3V187.3H158.6V180.6Z" fill="white"/>
<path d="M149 180.6H143.7V187.3H149V180.6Z" fill="white"/>
<path d="M139.3 180.6H134V187.3H139.3V180.6Z" fill="white"/>
<path d="M129.6 180.6H124.3V187.3H129.6V180.6Z" fill="white"/>
<path d="M111.9 180.6H106.6V187.3H111.9V180.6Z" fill="white"/>
<path d="M102.3 180.6H97V187.3H102.3V180.6Z" fill="white"/>
<path d="M92.6 180.6H87.3V187.3H92.6V180.6Z" fill="white"/>
<path d="M187.6 194.8H182.3V201.5H187.6V194.8Z" fill="white"/>
<path d="M177.9 194.8H172.6V201.5H177.9V194.8Z" fill="white"/>
<path d="M168.3 194.8H163V201.5H168.3V194.8Z" fill="white"/>
<path d="M158.6 194.8H153.3V201.5H158.6V194.8Z" fill="white"/>
<path d="M149 194.8H143.7V201.5H149V194.8Z" fill="white"/>
<path d="M139.3 194.8H134V201.5H139.3V194.8Z" fill="white"/>
<path d="M129.6 194.8H124.3V201.5H129.6V194.8Z" fill="white"/>
<path d="M111.9 194.8H106.6V201.5H111.9V194.8Z" fill="white"/>
<path d="M102.3 194.8H97V201.5H102.3V194.8Z" fill="white"/>
<path d="M92.6 194.8H87.3V201.5H92.6V194.8Z" fill="white"/>
<path d="M187.6 208.9H182.3V215.6H187.6V208.9Z" fill="white"/>
<path d="M177.9 208.9H172.6V215.6H177.9V208.9Z" fill="white"/>
<path d="M168.3 208.9H163V215.6H168.3V208.9Z" fill="white"/>
<path d="M158.6 208.9H153.3V215.6H158.6V208.9Z" fill="white"/>
<path d="M149 208.9H143.7V215.6H149V208.9Z" fill="white"/>
<path d="M139.3 208.9H134V215.6H139.3V208.9Z" fill="white"/>
<path d="M129.6 208.9H124.3V215.6H129.6V208.9Z" fill="white"/>
<path d="M111.9 208.9H106.6V215.6H111.9V208.9Z" fill="white"/>
<path d="M102.3 208.9H97V215.6H102.3V208.9Z" fill="white"/>
<path d="M92.6 208.9H87.3V215.6H92.6V208.9Z" fill="white"/>
<path d="M187.6 223.1H182.3V229.8H187.6V223.1Z" fill="white"/>
<path d="M177.9 223.1H172.6V229.8H177.9V223.1Z" fill="white"/>
<path d="M168.3 223.1H163V229.8H168.3V223.1Z" fill="white"/>
<path d="M158.6 223.1H153.3V229.8H158.6V223.1Z" fill="white"/>
<path d="M149 223.1H143.7V229.8H149V223.1Z" fill="white"/>
<path d="M139.3 223.1H134V229.8H139.3V223.1Z" fill="white"/>
<path d="M129.6 223.1H124.3V229.8H129.6V223.1Z" fill="white"/>
<path d="M111.9 223.1H106.6V229.8H111.9V223.1Z" fill="white"/>
<path d="M102.3 223.1H97V229.8H102.3V223.1Z" fill="white"/>
<path d="M92.6 223.1H87.3V229.8H92.6V223.1Z" fill="white"/>
<path d="M187.6 237.3H182.3V244H187.6V237.3Z" fill="white"/>
<path d="M177.9 237.3H172.6V244H177.9V237.3Z" fill="white"/>
<path d="M168.3 237.3H163V244H168.3V237.3Z" fill="white"/>
<path d="M158.6 237.3H153.3V244H158.6V237.3Z" fill="white"/>
<path d="M149 237.3H143.7V244H149V237.3Z" fill="white"/>
<path d="M139.3 237.3H134V244H139.3V237.3Z" fill="white"/>
<path d="M129.6 237.3H124.3V244H129.6V237.3Z" fill="white"/>
<path d="M111.9 237.3H106.6V244H111.9V237.3Z" fill="white"/>
<path d="M102.3 237.3H97V244H102.3V237.3Z" fill="white"/>
<path d="M92.6 237.3H87.3V244H92.6V237.3Z" fill="white"/>
<path d="M187.6 251.5H182.3V258.2H187.6V251.5Z" fill="white"/>
<path d="M177.9 251.5H172.6V258.2H177.9V251.5Z" fill="white"/>
<path d="M168.3 251.5H163V258.2H168.3V251.5Z" fill="white"/>
<path d="M158.6 251.5H153.3V258.2H158.6V251.5Z" fill="white"/>
<path d="M149 251.5H143.7V258.2H149V251.5Z" fill="white"/>
<path d="M139.3 251.5H134V258.2H139.3V251.5Z" fill="white"/>
<path d="M129.6 251.5H124.3V258.2H129.6V251.5Z" fill="white"/>
<path d="M111.9 251.5H106.6V258.2H111.9V251.5Z" fill="white"/>
<path d="M102.3 251.5H97V258.2H102.3V251.5Z" fill="white"/>
<path d="M92.6 251.5H87.3V258.2H92.6V251.5Z" fill="white"/>
<path d="M187.6 265.7H182.3V272.4H187.6V265.7Z" fill="white"/>
<path d="M177.9 265.7H172.6V272.4H177.9V265.7Z" fill="white"/>
<path d="M168.3 265.7H163V272.4H168.3V265.7Z" fill="white"/>
<path d="M158.6 265.7H153.3V272.4H158.6V265.7Z" fill="white"/>
<path d="M149 265.7H143.7V272.4H149V265.7Z" fill="white"/>
<path d="M139.3 265.7H134V272.4H139.3V265.7Z" fill="white"/>
<path d="M129.6 265.7H124.3V272.4H129.6V265.7Z" fill="white"/>
<path d="M111.9 265.7H106.6V272.4H111.9V265.7Z" fill="white"/>
<path d="M102.3 265.7H97V272.4H102.3V265.7Z" fill="white"/>
<path d="M92.6 265.7H87.3V272.4H92.6V265.7Z" fill="white"/>
<path d="M178.8 55.9H96.1V46C96.1 45 96.3 44 96.7 43.1C97.1 42.2 97.6 41.3 98.3 40.6C99 39.9 99.8 39.3 100.8 39C101.7 38.6 102.7 38.4 103.7 38.4H171.3C172.3 38.4 173.3 38.6 174.2 39C175.1 39.4 176 39.9 176.7 40.6C177.4 41.3 178 42.1 178.3 43.1C178.7 44 178.9 45 178.9 46V55.9H178.8Z" fill="#ECF7FE"/>
<path d="M85.2 416.7H57.6L60.4 239.9L98.6 237.6L85.2 416.7Z" fill="#1FCFCB"/>
<path d="M140.6 324.4H109.2L88 233.3L135.4 239.4L140.6 324.4Z" fill="#1FCFCB"/>
<path d="M183.1 207.5C172.1 190.1 163.9 171 163.9 171L140 187.3L157.9 215.7C160.2 219.7 169.9 218.6 172.4 214.8L183.1 207.5Z" fill="#E8815F"/>
<path d="M134.9 135L107.8 124.3H79.6L48.3 140.4C45.6 142 46.1 145.2 47.1 148.2L60.2 238.4L135.1 238.8L145.2 145.5C146 142.5 137.7 136.3 134.9 135Z" fill="#EAF1FC"/>
<path d="M137.9 136.8C155.8 149.9 163.9 171.1 163.9 171.1L138.4 195.7L109.5 167.6L137.9 136.8Z" fill="#EAF1FC"/>
<path d="M48.3 140.4C48.3 140.4 26.9 147.5 22.5 185.5L64.8 198L76.6 161.3L48.3 140.4Z" fill="#EAF1FC"/>
<path d="M77.3 72.7C80 80.8 81.1 89.4 80.5 98C80.3 100.4 80 102.8 80.6 105.2C81.2 107.5 82.9 109.8 85.3 110.1C86.3 103.6 87.2 97 88.2 90.5C88.6 88.1 88.9 85.5 88.3 83.2C87.5 80.9 86.1 78.8 84.1 77.4C81.9 75.6 79.7 74 77.3 72.7Z" fill="#0B2B46"/>
<path d="M87.6 133.6C91.7 135.7 96.6 135.8 101.1 134.6C105.6 133.4 109.7 130.3 113.1 126.3C111.4 123.7 109.8 122.6 108.6 119.7C108.4 119.2 108.2 118.6 108 118.1C107.1 115.8 106.5 113.4 106.1 111C97.6 108.3 89.7 100.5 83.2 94.4C83.9 100.9 83.4 111 81.6 117.2V117.3C81.1 119.3 80.4 121.2 79.6 123.1C77.8 127.3 83.5 131.6 87.6 133.6Z" fill="#F09976"/>
<path d="M81.5 117.3C83.9 119 86.5 120.2 89.3 121C89.6 121.1 90 121.2 90.3 121.2C91.4 121.5 92.6 121.6 93.7 121.7C98.1 122 102.5 121.1 106.4 119.1C106.9 118.8 107.4 118.5 108 118.2C107.1 115.9 106.5 113.5 106.1 111.1C97.6 108.4 89.7 100.6 83.2 94.5C83.9 101 83.4 111.1 81.6 117.3H81.5Z" fill="#E8815F"/>
<path d="M110.1 69.9C111.5 75.5 110.9 81.4 108.3 86.6C106 81.4 106.9 74.4 110.1 69.9Z" fill="#0B2B46"/>
<path d="M83.7 86C83.3 85.2 82.9 84.4 82.3 83.6C81.7 82.9 80.9 82.4 80 82.2C78.3 82 76.8 83.3 76.3 85C75.8 86.6 76.2 88.3 76.6 89.9C76.9 91.2 77.5 92.3 78.2 93.4C78.9 94.5 80 95.2 81.3 95.6C81.9 95.7 82.6 95.7 83.2 95.5C83.8 95.3 84.4 94.9 84.8 94.4C84 91.6 83.4 88.9 83.7 86Z" fill="#F09976"/>
<path d="M83.4 93.1C83.4 93.4 83.5 93.8 83.5 94.1C84.3 100 86.1 106.1 90.3 110.4C94 114.2 99.6 116.2 104.8 115.1C110 114 114.5 109.8 115.5 104.6C116.1 101.1 115.2 97.5 113.9 94.1C112.6 90.8 110.9 87.6 109.7 84.2C108.6 80.8 107.8 76.1 109.1 72.8L108.7 72.5C101 67.9 92.3 66.9 84.2 70.7C82.7 78.1 82.4 85.7 83.4 93.1Z" fill="#F09976"/>
<path d="M114.9 65.8C113.8 68.7 111.8 71.1 109.2 72.7C107.1 74 104.8 74.8 102.4 75.1C97 75.8 91.5 74.3 86.4 72.2C86.2 72.5 81.8 79.1 85.1 89.2L80.5 79.3C80 77.8 79.4 76.4 78.6 75.1C77.7 73.6 76.7 72.2 76.1 70.6C75.5 69 75.6 67 76.9 65.8C78.4 64.3 80.9 64.7 82.9 64C86.2 62.8 87.6 58.9 89.6 56C90.4 54.9 91.2 53.9 92.2 53C94.5 51 97.3 49.7 100.4 49.3C102.6 49 104.8 49.3 106.9 50.1C109 50.9 110.8 52.1 112.3 53.7C113.7 55.3 114.7 57.3 115.2 59.5C115.7 61.5 115.6 63.8 114.9 65.8Z" fill="#0B2B46"/>
<path d="M135.4 239.4L60.4 239.9C60.4 239.9 59.3 185.8 62.3 150.9C63.5 136.5 81.3 168 125.9 148C133.4 144.6 135.4 239.4 135.4 239.4Z" fill="#1FCFCB"/>
<path d="M69.4 153.9H62.3V131.4L69.4 128.8V153.9Z" fill="#1FCFCB"/>
<path d="M122.7 155H129.5V132.5L122.7 129.9V155Z" fill="#1FCFCB"/>
<path d="M55.6 266.6C55.6 266.6 32.2 248.9 21.9 232.5C14.8 221.1 22.4 185.5 22.4 185.5L49.1 193.4L40.6 220.6L60.1 253.9L59.5 288.5C59.5 288.5 51.5 282.6 49.3 273.5C46.7 262.5 57.9 254.6 57.9 254.6" fill="#F09976"/>
<path d="M60.2 253.9L64.2 270.3C64.7 272.2 62.9 274 61 273.4C60.6 273.3 60.3 273.1 60.1 272.8C59.9 272.5 59.7 272.2 59.6 271.8C59 268.6 60.2 253.9 60.2 253.9Z" fill="#F09976"/>
<path d="M115.8 175.4C103.7 176.9 91.5 176.9 79.4 175.4C79.4 175.4 78.1 198.7 97.6 199.9C117 201.1 115.8 175.4 115.8 175.4Z" fill="#25A8A5"/>
<path d="M96.3 268.5L109.2 324.4H114.1L102.4 267.3L96.3 268.5Z" fill="#25A8A5"/>
<path d="M120.5 201.8C121 200.2 122.1 198.8 123.6 197.8C125 196.9 126.8 196.5 128.5 196.6L149.2 197.7C159.8 198.8 163.9 198.5 174 201.2C174.2 201.2 174.3 201.3 174.5 201.4L178.9 203.7C180.4 204.2 181.6 205.1 182.5 206.4C183.4 207.6 183.9 209.1 183.9 210.7C183.9 212.2 183.8 213.8 183.4 215.3C181.7 221.7 172.1 224.7 165.8 222.8L118.9 209.4C118.7 209.3 118.5 209.2 118.4 209C118.3 208.8 118.3 208.6 118.3 208.3L120.5 201.8Z" fill="#F09976"/>
<path d="M101.6 195.4L101.8 203.4C102 206.5 103.2 207.8 106.2 208.2L120.8 210L123.5 188.9L107.6 186.7C103.6 186.2 101.4 191.3 101.6 195.4Z" fill="#F09976"/>
<path d="M130 197.7C129.2 196.8 125.1 188.5 123.6 177.3C122.1 166.1 116.6 173.6 118.3 181.7C120 189.8 111.9 187.7 111.9 187.7L122.4 200.7L130 197.7Z" fill="#F09976"/>
<path d="M101.9 192.1L109.1 192.7C109.3 192.7 109.6 192.8 109.7 193C109.9 193.2 109.9 193.4 109.9 193.7C109.9 193.9 109.8 194 109.7 194.2C109.6 194.3 109.6 194.3 109.5 194.3C109.2 194.2 101.6 193.3 101.6 193.3L101.9 192.1Z" fill="#E8815F"/>
<path d="M101.6 197.1L109 197.2C109.2 197.2 109.4 197.2 109.5 197.3C109.7 197.4 109.8 197.6 109.8 197.8C109.8 197.9 109.8 198 109.8 198.1C109.8 198.2 109.7 198.3 109.7 198.4C109.7 198.5 109.6 198.5 109.6 198.5C109.3 198.4 101.7 198.4 101.7 198.4L101.6 197.1Z" fill="#E8815F"/>
<path d="M101.8 201.5L109.2 201.4C109.3 201.4 109.5 201.4 109.6 201.5C109.7 201.6 109.8 201.7 109.9 201.8C110 201.9 110 202.1 110 202.2C110 202.3 109.9 202.5 109.9 202.6C109.8 202.7 109.8 202.7 109.7 202.7C109.4 202.6 101.8 202.8 101.8 202.8V201.5Z" fill="#E8815F"/>
<path d="M59.9 272.4C59.9 272.4 57.4 266.3 58 262.8C58.7 259.4 59.9 272.4 59.9 272.4Z" fill="#E8815F"/>
<path d="M496.2 124.6H219.3V317.4H496.2V124.6Z" fill="#E9EDF4"/>
<path d="M476.5 152.9H238.9V317.4H476.5V152.9Z" fill="#CDE4F7"/>
<path d="M234.9 249.2H222.3V255.4H234.9V249.2Z" fill="#CDE4F7"/>
<path d="M471.1 127.7H459.2V132.4H471.1V127.7Z" fill="#CDE4F7"/>
<path d="M462.1 134.5H450.2V139.2H462.1V134.5Z" fill="#CDE4F7"/>
<path d="M484.9 142.3H230.6V155.2H484.8V142.3H484.9Z" fill="#ECF7FE"/>
<path d="M476.5 155.2H238.9V189.4H476.5V155.2Z" fill="#ECF7FE"/>
<path d="M476.5 155.5H238.9V157.2H476.5V155.5Z" fill="#CDE4F7"/>
<path d="M476.5 161.2H238.9V162.9H476.5V161.2Z" fill="#CDE4F7"/>
<path d="M476.5 166.9H238.9V168.6H476.5V166.9Z" fill="#CDE4F7"/>
<path d="M476.5 172.6H238.9V174.3H476.5V172.6Z" fill="#CDE4F7"/>
<path d="M476.5 178.3H238.9V180H476.5V178.3Z" fill="#CDE4F7"/>
<path d="M476.5 184H238.9V185.7H476.5V184Z" fill="#CDE4F7"/>
<path d="M263.7 52.6H451.7C456.1 52.6 459.6 55.3 459.6 58.6V103.5C459.6 106.8 456.1 109.5 451.7 109.5H263.7C259.3 109.5 255.8 106.8 255.8 103.5V58.6C255.8 55.3 259.4 52.6 263.7 52.6Z" fill="#CDE4F7"/>
<path d="M268.9 57.3H446.5C450.9 57.3 454.4 60 454.4 63.3V98.8C454.4 102.1 450.9 104.8 446.5 104.8H268.9C264.5 104.8 261 102.1 261 98.8V63.3C261 60 264.6 57.3 268.9 57.3Z" fill="#EAF1FC"/>
<path d="M334 104.8H326.1V124.7H334V104.8Z" fill="#CDE4F7"/>
<path d="M274.8 104.8H266.9V124.7H274.8V104.8Z" fill="#CDE4F7"/>
<path d="M452.5 104.8H444.6V124.7H452.5V104.8Z" fill="#CDE4F7"/>
<path d="M393.3 104.8H385.4V124.7H393.3V104.8Z" fill="#CDE4F7"/>
<path d="M293.2 96.2C293.1 96.2 293.1 96.2 293 96.2C292.9 96.2 292.9 96.1 292.8 96.1L289.3 92.6C289.3 92.5 289.2 92.5 289.2 92.4C289.2 92.3 289.2 92.3 289.2 92.2C289.2 92.1 289.2 92.1 289.3 92C289.4 91.9 289.4 91.9 289.4 91.8C289.5 91.7 289.6 91.7 289.7 91.7C289.8 91.7 289.9 91.7 290 91.8L293.5 95.3C293.6 95.4 293.7 95.6 293.7 95.7C293.7 95.8 293.6 96 293.5 96.1C293.5 96.2 293.4 96.2 293.3 96.2H293.2Z" fill="#CDE4F7"/>
<path d="M289.6 96.2C289.4 96.2 289.3 96.1 289.2 96C289.1 95.9 289 95.7 289 95.6C289 95.5 289 95.4 289 95.4C289 95.3 289.1 95.3 289.1 95.2L292.6 91.7C292.6 91.6 292.7 91.6 292.8 91.5C292.9 91.5 292.9 91.4 293 91.4C293.1 91.4 293.2 91.4 293.2 91.4C293.3 91.4 293.3 91.4 293.4 91.5C293.5 91.6 293.6 91.7 293.6 91.9C293.6 92 293.6 92.2 293.5 92.3L293.4 92.4L293.3 92.5L289.8 96C289.8 96.1 289.7 96.1 289.6 96.1C289.8 96.2 289.7 96.2 289.6 96.2Z" fill="#CDE4F7"/>
<path d="M327.5 73.4C327.4 73.4 327.4 73.4 327.3 73.4C327.2 73.4 327.2 73.3 327.1 73.3L323.6 69.8C323.5 69.7 323.5 69.5 323.5 69.4C323.5 69.2 323.6 69.1 323.7 69C323.8 68.9 323.9 68.9 324 68.9C324.1 68.9 324.2 68.9 324.3 69L327.8 72.5C327.9 72.6 328 72.8 328 72.9C328 73 327.9 73.2 327.8 73.3C327.8 73.4 327.7 73.4 327.6 73.4H327.5Z" fill="#CDE4F7"/>
<path d="M323.9 73.4C323.7 73.4 323.6 73.3 323.5 73.2C323.4 73.1 323.3 72.9 323.3 72.8C323.3 72.7 323.3 72.6 323.3 72.6C323.3 72.6 323.4 72.5 323.4 72.4L326.9 68.9C326.9 68.8 327 68.8 327.1 68.7C327.2 68.7 327.2 68.6 327.3 68.6C327.4 68.6 327.4 68.6 327.5 68.6C327.6 68.6 327.6 68.6 327.7 68.7C327.8 68.8 327.9 68.9 327.9 69.1C327.9 69.2 327.9 69.4 327.8 69.5L327.7 69.6L327.6 69.7L324.1 73.2C324.1 73.3 324 73.3 323.9 73.3C324.1 73.4 324 73.4 323.9 73.4Z" fill="#CDE4F7"/>
<path d="M450.8 68.1C450.7 68.1 450.6 68.1 450.6 68.1C450.5 68.1 450.5 68 450.4 68L446.9 64.5C446.8 64.4 446.7 64.3 446.7 64.1C446.7 63.9 446.7 63.8 446.8 63.7C446.9 63.6 447 63.5 447.2 63.5C447.3 63.5 447.5 63.5 447.6 63.6L447.7 63.7L451.2 67.2C451.3 67.3 451.4 67.5 451.4 67.6C451.4 67.7 451.3 67.9 451.2 68C451.1 68.1 451.1 68.1 451 68.1C450.9 68 450.8 68.1 450.8 68.1Z" fill="#CDE4F7"/>
<path d="M447.2 68.1C447 68.1 446.9 68 446.8 67.9C446.7 67.8 446.6 67.6 446.6 67.5C446.6 67.4 446.6 67.3 446.6 67.3C446.6 67.2 446.7 67.2 446.7 67.1L450.2 63.6C450.3 63.5 450.4 63.5 450.6 63.5C450.7 63.5 450.9 63.5 451 63.6C451.1 63.7 451.2 63.8 451.2 64C451.2 64.1 451.2 64.3 451.1 64.4L451 64.5L447.5 68C447.5 68.1 447.4 68.1 447.3 68.1C447.4 68 447.3 68.1 447.2 68.1Z" fill="#CDE4F7"/>
<path d="M277.9 68.1C277.1 68.1 276.3 67.8 275.8 67.2C275.2 66.6 274.9 65.9 274.9 65C274.9 64.2 275.2 63.4 275.8 62.9C276.4 62.3 277.1 62 277.9 62C278.7 62 279.5 62.3 280 62.9C280.6 63.5 280.9 64.2 280.9 65C280.9 65.8 280.6 66.6 280 67.2C279.5 67.8 278.7 68.1 277.9 68.1ZM277.9 63.2C277.5 63.2 277.1 63.3 276.8 63.5C276.5 63.7 276.2 64 276.1 64.4C276 64.8 275.9 65.1 276 65.5C276.1 65.9 276.3 66.2 276.5 66.5C276.8 66.8 277.1 67 277.5 67C277.9 67.1 278.3 67 278.6 66.9C279 66.8 279.3 66.5 279.5 66.2C279.7 65.9 279.8 65.5 279.8 65.1C279.8 64.6 279.6 64.1 279.2 63.7C278.9 63.4 278.4 63.2 277.9 63.2Z" fill="#CDE4F7"/>
<path d="M428 99.5C427.2 99.5 426.4 99.2 425.9 98.6C425.3 98 425 97.3 425 96.4C425 95.6 425.3 94.8 425.9 94.3C426.5 93.7 427.2 93.4 428 93.4C428.8 93.4 429.6 93.7 430.1 94.3C430.7 94.9 431 95.6 431 96.4C431 97.2 430.7 98 430.1 98.6C429.7 99.2 428.9 99.5 428 99.5ZM428 94.5C427.6 94.5 427.2 94.6 426.9 94.8C426.6 95 426.3 95.3 426.2 95.7C426.1 96.1 426 96.4 426.1 96.8C426.2 97.2 426.4 97.5 426.6 97.8C426.9 98.1 427.2 98.3 427.6 98.3C428 98.4 428.4 98.3 428.7 98.2C429.1 98.1 429.4 97.8 429.6 97.5C429.8 97.2 429.9 96.8 429.9 96.4C429.9 95.9 429.7 95.4 429.3 95C429 94.7 428.5 94.5 428 94.5Z" fill="#CDE4F7"/>
<path d="M399.4 76.6C398.6 76.6 397.8 76.3 397.3 75.7C396.7 75.1 396.4 74.4 396.4 73.5C396.4 72.6 396.7 71.9 397.3 71.4C397.9 70.8 398.6 70.5 399.4 70.5C400.2 70.5 401 70.8 401.5 71.4C402.1 72 402.4 72.7 402.4 73.5C402.4 74.3 402.1 75.1 401.5 75.7C401.1 76.3 400.3 76.6 399.4 76.6ZM399.4 71.7C399 71.7 398.6 71.8 398.3 72C398 72.2 397.7 72.5 397.6 72.9C397.5 73.3 397.4 73.6 397.5 74C397.6 74.4 397.8 74.7 398 75C398.3 75.3 398.6 75.5 399 75.5C399.4 75.6 399.8 75.5 400.1 75.4C400.5 75.3 400.8 75 401 74.7C401.2 74.4 401.3 74 401.3 73.6C401.3 73.1 401.1 72.6 400.7 72.2C400.5 71.9 400 71.7 399.4 71.7Z" fill="#CDE4F7"/>
<path d="M369.5 97.8H352.1C351.9 97.8 351.8 97.7 351.7 97.6C351.6 97.5 351.5 97.3 351.5 97.2V79.9C351.5 79.7 351.6 79.6 351.7 79.5C351.8 79.4 352 79.3 352.1 79.3H369.5C369.7 79.3 369.8 79.4 369.9 79.5C370 79.6 370.1 79.8 370.1 79.9V97.3C370.1 97.5 370 97.6 369.9 97.7C369.8 97.8 369.7 97.8 369.5 97.8ZM352.8 96.7H369V80.4H352.8V96.7Z" fill="#CDE4F7"/>
<path d="M369.5 97.8C369.4 97.8 369.4 97.8 369.3 97.8C369.2 97.8 369.2 97.7 369.1 97.7L351.7 80.3C351.6 80.2 351.5 80 351.5 79.9C351.5 79.7 351.6 79.6 351.7 79.5C351.8 79.4 352 79.3 352.1 79.3C352.3 79.3 352.4 79.4 352.5 79.5L369.9 96.9C370 97 370 97 370 97.1C370 97.2 370 97.2 370 97.3C370 97.4 370 97.5 370 97.5C370 97.6 369.9 97.6 369.9 97.7C369.8 97.8 369.8 97.8 369.7 97.8C369.7 97.8 369.6 97.8 369.5 97.8Z" fill="#CDE4F7"/>
<path d="M352.2 97.8C352.1 97.8 352.1 97.8 352 97.8C351.9 97.8 351.9 97.7 351.8 97.7C351.7 97.6 351.7 97.6 351.7 97.5C351.7 97.4 351.7 97.4 351.7 97.3C351.7 97.2 351.7 97.1 351.7 97.1C351.7 97 351.8 97 351.8 96.9L369.2 79.5C369.3 79.4 369.3 79.4 369.4 79.4C369.5 79.4 369.5 79.4 369.6 79.4C369.7 79.4 369.7 79.4 369.8 79.4C369.9 79.4 369.9 79.5 370 79.5C370.1 79.6 370.1 79.6 370.1 79.7C370.1 79.8 370.1 79.8 370.1 79.9C370.1 80 370.1 80.1 370.1 80.1C370.1 80.2 370 80.2 370 80.3L352.6 97.7C352.5 97.7 352.3 97.8 352.2 97.8Z" fill="#CDE4F7"/>
<path d="M352.4 97.8H335C334.8 97.8 334.7 97.7 334.6 97.6C334.5 97.5 334.4 97.3 334.4 97.2V79.9C334.4 79.7 334.5 79.6 334.6 79.5C334.7 79.4 334.9 79.3 335 79.3H352.4C352.6 79.3 352.7 79.4 352.8 79.5C352.9 79.6 353 79.8 353 79.9V97.3C353 97.5 352.9 97.6 352.8 97.7C352.7 97.7 352.6 97.8 352.4 97.8ZM335.6 96.7H351.8V80.4H335.6V96.7Z" fill="#CDE4F7"/>
<path d="M352.4 97.8C352.3 97.8 352.3 97.8 352.2 97.8C352.1 97.8 352.1 97.7 352 97.7L334.6 80.3C334.5 80.2 334.5 80.2 334.5 80.1C334.5 80 334.5 80 334.5 79.9C334.5 79.8 334.5 79.8 334.5 79.7C334.5 79.6 334.6 79.6 334.6 79.5C334.7 79.4 334.7 79.4 334.8 79.4C334.9 79.4 334.9 79.4 335 79.4C335.1 79.4 335.1 79.4 335.2 79.4C335.3 79.4 335.3 79.5 335.4 79.5L352.8 96.9C352.9 97 352.9 97 352.9 97.1C352.9 97.2 352.9 97.2 352.9 97.3C352.9 97.4 352.9 97.5 352.9 97.5C352.9 97.6 352.8 97.6 352.8 97.7C352.7 97.8 352.7 97.8 352.6 97.8C352.5 97.8 352.5 97.8 352.4 97.8Z" fill="#CDE4F7"/>
<path d="M335 97.8C334.9 97.8 334.9 97.8 334.8 97.8C334.7 97.8 334.7 97.7 334.6 97.7C334.5 97.6 334.5 97.6 334.5 97.5C334.5 97.4 334.5 97.4 334.5 97.3C334.5 97.2 334.5 97.1 334.5 97.1C334.5 97 334.6 97 334.6 96.9L352 79.5C352.1 79.4 352.3 79.3 352.4 79.3C352.6 79.3 352.7 79.4 352.8 79.5C352.9 79.6 353 79.8 353 79.9C353 80.1 352.9 80.2 352.8 80.3L335.4 97.7C335.3 97.7 335.2 97.8 335 97.8Z" fill="#CDE4F7"/>
<path d="M386.9 97.8H369.5C369.3 97.8 369.2 97.7 369.1 97.6C369 97.5 368.9 97.3 368.9 97.2V79.9C368.9 79.7 369 79.6 369.1 79.5C369.2 79.4 369.4 79.3 369.5 79.3H386.9C387.1 79.3 387.2 79.4 387.3 79.5C387.4 79.6 387.5 79.8 387.5 79.9V97.3C387.5 97.5 387.4 97.6 387.3 97.7C387.2 97.7 387 97.8 386.9 97.8ZM370.1 96.7H386.3V80.4H370.1V96.7Z" fill="#CDE4F7"/>
<path d="M386.9 97.8C386.8 97.8 386.8 97.8 386.7 97.8C386.6 97.8 386.6 97.7 386.5 97.7L369.2 80.3C369.1 80.2 369 80 369 79.9C369 79.7 369.1 79.6 369.2 79.5C369.3 79.4 369.5 79.3 369.6 79.3C369.8 79.3 369.9 79.4 370 79.5L387.4 96.9C387.5 97 387.5 97 387.5 97.1C387.5 97.2 387.5 97.2 387.5 97.3C387.5 97.4 387.5 97.5 387.5 97.5C387.5 97.6 387.4 97.6 387.4 97.7C387.3 97.8 387.3 97.8 387.2 97.8C387 97.8 387 97.8 386.9 97.8Z" fill="#CDE4F7"/>
<path d="M369.5 97.8C369.4 97.8 369.4 97.8 369.3 97.8C369.2 97.8 369.2 97.7 369.1 97.7C369 97.6 369 97.6 369 97.5C369 97.4 369 97.4 369 97.3C369 97.2 369 97.1 369 97.1C369 97 369.1 97 369.1 96.9L386.5 79.5C386.6 79.4 386.8 79.3 386.9 79.3C387 79.3 387.2 79.4 387.3 79.5C387.4 79.6 387.5 79.8 387.5 79.9C387.5 80.1 387.4 80.2 387.3 80.3L369.9 97.7C369.8 97.8 369.8 97.8 369.7 97.8C369.7 97.8 369.6 97.8 369.5 97.8Z" fill="#CDE4F7"/>
<path d="M369.5 80.4H352.1C351.9 80.4 351.8 80.3 351.7 80.2C351.6 80.1 351.5 79.9 351.5 79.8V62.5C351.5 62.3 351.6 62.2 351.7 62.1C351.8 62 352 61.9 352.1 61.9H369.5C369.7 61.9 369.8 62 369.9 62.1C370 62.2 370.1 62.4 370.1 62.5V79.9C370.1 80.1 370 80.2 369.9 80.3C369.8 80.4 369.7 80.4 369.5 80.4ZM352.8 79.3H369V63.1H352.8V79.3Z" fill="#CDE4F7"/>
<path d="M369.5 80.4C369.4 80.4 369.4 80.4 369.3 80.4C369.2 80.4 369.2 80.3 369.1 80.3L351.7 62.9C351.6 62.8 351.5 62.6 351.5 62.5C351.5 62.3 351.6 62.2 351.7 62.1C351.8 62 352 61.9 352.1 61.9C352.3 61.9 352.4 62 352.5 62.1L369.9 79.5C370 79.6 370 79.6 370 79.7C370 79.8 370 79.8 370 79.9C370 80 370 80.1 370 80.1C370 80.2 369.9 80.2 369.9 80.3C369.8 80.4 369.8 80.4 369.7 80.4C369.7 80.4 369.6 80.4 369.5 80.4Z" fill="#CDE4F7"/>
<path d="M352.2 80.4C352.1 80.4 352.1 80.4 352 80.4C351.9 80.4 351.9 80.3 351.8 80.3C351.7 80.2 351.7 80.2 351.7 80.1C351.7 80 351.7 80 351.7 79.9C351.7 79.8 351.7 79.7 351.7 79.7C351.7 79.6 351.8 79.6 351.8 79.5L369.2 62.1C369.3 62 369.3 62 369.4 62C369.5 62 369.5 62 369.6 62C369.7 62 369.7 62 369.8 62C369.9 62 369.9 62.1 370 62.1C370.1 62.2 370.1 62.2 370.1 62.3C370.1 62.4 370.1 62.4 370.1 62.5C370.1 62.6 370.1 62.7 370.1 62.7C370.1 62.8 370 62.8 370 62.9L352.6 80.3C352.5 80.4 352.3 80.4 352.2 80.4Z" fill="#CDE4F7"/>
<path d="M333.7 291.6V301.5L339 299.8V289.8L333.7 291.6Z" fill="#D38137"/>
<path d="M292 263.8H245V310.8H292V263.8Z" fill="#F8C47A"/>
<path d="M315.5 256L292 263.8V310.8L315.5 303V256Z" fill="#E19A54"/>
<path d="M244.9 263.8L268.4 256H315.4L291.9 263.8H244.9Z" fill="#FFDF9A"/>
<path d="M290 266.8H274V273.7H290V266.8Z" fill="#E4E6E6"/>
<path d="M275.9 267.5H275.6V273H275.9V267.5Z" fill="#E4E6E6"/>
<path d="M276.7 267.5H276.4V273H276.7V267.5Z" fill="#E4E6E6"/>
<path d="M277.6 267.5H277.3V273H277.6V267.5Z" fill="#E4E6E6"/>
<path d="M278.4 267.5H278.1V273H278.4V267.5Z" fill="#E4E6E6"/>
<path d="M278.4 267.5H278.1V273H278.4V267.5Z" fill="#E4E6E6"/>
<path d="M279.3 267.5H279V273H279.3V267.5Z" fill="#E4E6E6"/>
<path d="M280.1 267.5H279.8V273H280.1V267.5Z" fill="#E4E6E6"/>
<path d="M281 267.5H280.7V273H281V267.5Z" fill="#E4E6E6"/>
<path d="M281.5 267.5H281.2V273H281.5V267.5Z" fill="#E4E6E6"/>
<path d="M282.3 267.5H282V273H282.3V267.5Z" fill="#E4E6E6"/>
<path d="M283.1 267.5H282.8V273H283.1V267.5Z" fill="#E4E6E6"/>
<path d="M284 267.5H283.7V273H284V267.5Z" fill="#E4E6E6"/>
<path d="M284.8 267.5H284.5V273H284.8V267.5Z" fill="#E4E6E6"/>
<path d="M285.7 267.5H285.4V273H285.7V267.5Z" fill="#E4E6E6"/>
<path d="M285.7 267.5H285.4V273H285.7V267.5Z" fill="#E4E6E6"/>
<path d="M286.5 267.5H286.2V273H286.5V267.5Z" fill="#E4E6E6"/>
<path d="M287.4 267.5H287.1V273H287.4V267.5Z" fill="#E4E6E6"/>
<path d="M288.2 267.5H287.9V273H288.2V267.5Z" fill="#E4E6E6"/>
<path d="M283.9 256L264.4 263.8H272.5L291.4 256H283.9Z" fill="#CE8D4D"/>
<path d="M264.4 263.8V272.9H272.5L272.6 263.8H264.4Z" fill="#CE8D4D"/>
<path d="M264.4 302V311.1H272.5L272.6 302H264.4Z" fill="#CE8D4D"/>
<path d="M365.8 275H329.7V311.1H365.8V275Z" fill="#F8C47A"/>
<path d="M383.9 269L365.9 275V311.1L383.9 305.1V269Z" fill="#E19A54"/>
<path d="M329.8 275L347.8 269H383.9L365.9 275H329.8Z" fill="#FFDF9A"/>
<path d="M371.3 299.2V309.3L376.7 307.5V297.4L371.3 299.2Z" fill="#D38137"/>
<path d="M371.3 273.2V283.3L376.7 281.5V271.4L371.3 273.2Z" fill="#D38137"/>
<path d="M340.7 271.4L340 271.7L338.9 272.1L335.1 273.3H371.4L376.8 271.5H340.7V271.4Z" fill="#E19A54"/>
<path d="M362.4 245.8H335.6V272.6H362.4V245.8Z" fill="#EAB973"/>
<path d="M375.8 241.4L362.4 245.9V272.7L375.8 268.2V241.4Z" fill="#D3914F"/>
<path d="M335.6 245.8L349 241.3H375.8L362.4 245.8H335.6Z" fill="#F1D392"/>
<path d="M361.2 247.5H352.1V251.4H361.2V247.5Z" fill="#E4E6E6"/>
<path d="M353.2 247.9H353V251H353.2V247.9Z" fill="#E4E6E6"/>
<path d="M353.7 247.9H353.5V251H353.7V247.9Z" fill="#E4E6E6"/>
<path d="M354.2 247.9H354V251H354.2V247.9Z" fill="#E4E6E6"/>
<path d="M354.7 247.9H354.5V251H354.7V247.9Z" fill="#E4E6E6"/>
<path d="M354.7 247.9H354.5V251H354.7V247.9Z" fill="#E4E6E6"/>
<path d="M355.2 247.9H355V251H355.2V247.9Z" fill="#E4E6E6"/>
<path d="M355.6 247.9H355.4V251H355.6V247.9Z" fill="#E4E6E6"/>
<path d="M356.1 247.9H355.9V251H356.1V247.9Z" fill="#E4E6E6"/>
<path d="M356.4 247.9H356.2V251H356.4V247.9Z" fill="#E4E6E6"/>
<path d="M356.9 247.9H356.7V251H356.9V247.9Z" fill="#E4E6E6"/>
<path d="M357.3 247.9H357.1V251H357.3V247.9Z" fill="#E4E6E6"/>
<path d="M357.8 247.9H357.6V251H357.8V247.9Z" fill="#E4E6E6"/>
<path d="M358.3 247.9H358.1V251H358.3V247.9Z" fill="#E4E6E6"/>
<path d="M358.8 247.9H358.6V251H358.8V247.9Z" fill="#E4E6E6"/>
<path d="M358.8 247.9H358.6V251H358.8V247.9Z" fill="#E4E6E6"/>
<path d="M359.3 247.9H359.1V251H359.3V247.9Z" fill="#E4E6E6"/>
<path d="M359.8 247.9H359.6V251H359.8V247.9Z" fill="#E4E6E6"/>
<path d="M360.2 247.9H360V251H360.2V247.9Z" fill="#E4E6E6"/>
<path d="M357.8 241.4L346.7 245.9H351.3L362 241.4H357.8Z" fill="#C08448"/>
<path d="M346.7 245.8V251H351.3V245.8H346.7Z" fill="#C08448"/>
<path d="M346.7 267.5V272.7H351.3V267.5H346.7Z" fill="#C08448"/>
<path d="M447.6 264.1H400.6V311.1H447.6V264.1Z" fill="#F8C47A"/>
<path d="M471.1 256.2L447.6 264V311L471.1 303.2V256.2Z" fill="#E19A54"/>
<path d="M400.6 264.1L424.1 256.3H471.1L447.6 264.1H400.6Z" fill="#FFDF9A"/>
<path d="M454.8 295.5V308.6L461.8 306.3V293.1L454.8 295.5Z" fill="#D38137"/>
<path d="M454.8 261.7V274.8L461.8 272.5V259.3L454.8 261.7Z" fill="#D38137"/>
<path d="M414.8 259.3L413.8 259.6L412.3 260.1L407.4 261.6H454.8L461.8 259.2H414.8V259.3Z" fill="#E19A54"/>
<path d="M445.6 267.1H429.6V274H445.6V267.1Z" fill="#E4E6E6"/>
<path d="M431.5 267.7H431.2V273.2H431.5V267.7Z" fill="#E4E6E6"/>
<path d="M432.3 267.7H432V273.2H432.3V267.7Z" fill="#E4E6E6"/>
<path d="M433.2 267.7H432.9V273.2H433.2V267.7Z" fill="#E4E6E6"/>
<path d="M434 267.7H433.7V273.2H434V267.7Z" fill="#E4E6E6"/>
<path d="M434.1 267.7H433.8V273.2H434.1V267.7Z" fill="#E4E6E6"/>
<path d="M434.9 267.7H434.6V273.2H434.9V267.7Z" fill="#E4E6E6"/>
<path d="M435.8 267.7H435.5V273.2H435.8V267.7Z" fill="#E4E6E6"/>
<path d="M436.6 267.7H436.3V273.2H436.6V267.7Z" fill="#E4E6E6"/>
<path d="M437.1 267.7H436.8V273.2H437.1V267.7Z" fill="#E4E6E6"/>
<path d="M437.9 267.7H437.6V273.2H437.9V267.7Z" fill="#E4E6E6"/>
<path d="M438.8 267.7H438.5V273.2H438.8V267.7Z" fill="#E4E6E6"/>
<path d="M439.6 267.7H439.3V273.2H439.6V267.7Z" fill="#E4E6E6"/>
<path d="M440.5 267.7H440.2V273.2H440.5V267.7Z" fill="#E4E6E6"/>
<path d="M441.3 267.7H441V273.2H441.3V267.7Z" fill="#E4E6E6"/>
<path d="M441.3 267.7H441V273.2H441.3V267.7Z" fill="#E4E6E6"/>
<path d="M442.2 267.7H441.9V273.2H442.2V267.7Z" fill="#E4E6E6"/>
<path d="M443 267.7H442.7V273.2H443V267.7Z" fill="#E4E6E6"/>
<path d="M443.9 267.7H443.6V273.2H443.9V267.7Z" fill="#E4E6E6"/>
<path d="M440.5 224.6H400.2V264.9H440.5V224.6Z" fill="#E5B571"/>
<path d="M460.6 217.8L440.4 224.5V264.8L460.6 258.1V217.8Z" fill="#CE8D4D"/>
<path d="M400.2 224.6L420.4 217.9H460.7L440.5 224.6H400.2Z" fill="#ECCF8F"/>
<path d="M446.6 251.5V262.7L452.6 260.7V249.4L446.6 251.5Z" fill="#C07632"/>
<path d="M446.6 222.5V233.7L452.6 231.7V220.4L446.6 222.5Z" fill="#C07632"/>
<path d="M412.3 220.5L411.5 220.8L410.2 221.2L406 222.5H446.6L452.6 220.5H412.3Z" fill="#CE8D4D"/>
<path d="M438.8 227.1H425.1V233H438.8V227.1Z" fill="#E4E6E6"/>
<path d="M426.7 227.7H426.4V232.4H426.7V227.7Z" fill="#E4E6E6"/>
<path d="M427.4 227.7H427.1V232.4H427.4V227.7Z" fill="#E4E6E6"/>
<path d="M428.1 227.7H427.8V232.4H428.1V227.7Z" fill="#E4E6E6"/>
<path d="M428.9 227.7H428.6V232.4H428.9V227.7Z" fill="#E4E6E6"/>
<path d="M428.9 227.7H428.6V232.4H428.9V227.7Z" fill="#E4E6E6"/>
<path d="M429.6 227.7H429.3V232.4H429.6V227.7Z" fill="#E4E6E6"/>
<path d="M430.3 227.7H430V232.4H430.3V227.7Z" fill="#E4E6E6"/>
<path d="M431 227.7H430.7V232.4H431V227.7Z" fill="#E4E6E6"/>
<path d="M431.5 227.7H431.2V232.4H431.5V227.7Z" fill="#E4E6E6"/>
<path d="M432.2 227.7H431.9V232.4H432.2V227.7Z" fill="#E4E6E6"/>
<path d="M432.9 227.7H432.6V232.4H432.9V227.7Z" fill="#E4E6E6"/>
<path d="M433.6 227.7H433.3V232.4H433.6V227.7Z" fill="#E4E6E6"/>
<path d="M434.3 227.7H434V232.4H434.3V227.7Z" fill="#E4E6E6"/>
<path d="M435.1 227.7H434.8V232.4H435.1V227.7Z" fill="#E4E6E6"/>
<path d="M435.1 227.7H434.8V232.4H435.1V227.7Z" fill="#E4E6E6"/>
<path d="M435.8 227.7H435.5V232.4H435.8V227.7Z" fill="#E4E6E6"/>
<path d="M436.5 227.7H436.2V232.4H436.5V227.7Z" fill="#E4E6E6"/>
<path d="M437.3 227.7H437V232.4H437.3V227.7Z" fill="#E4E6E6"/>
<path d="M286.5 228.1H252.9V261.7H286.5V228.1Z" fill="#E5B571"/>
<path d="M303.2 222.5L286.4 228.1V261.7L303.2 256.1V222.5Z" fill="#CE8D4D"/>
<path d="M252.9 228.1L269.7 222.5H303.3L286.5 228.1H252.9Z" fill="#ECCF8F"/>
<path d="M291.6 250.6V260L296.6 258.4V249L291.6 250.6Z" fill="#C07632"/>
<path d="M291.6 226.4V235.8L296.6 234.2V224.8L291.6 226.4Z" fill="#C07632"/>
<path d="M263 224.7L262.3 224.9L261.2 225.3L257.7 226.4H291.5L296.5 224.7H263Z" fill="#CE8D4D"/>
<path d="M285 230.2H273.6V235.1H285V230.2Z" fill="#E4E6E6"/>
<path d="M275 230.7H274.8V234.6H275V230.7Z" fill="#E4E6E6"/>
<path d="M275.6 230.7H275.4V234.6H275.6V230.7Z" fill="#E4E6E6"/>
<path d="M276.2 230.7H276V234.6H276.2V230.7Z" fill="#E4E6E6"/>
<path d="M276.8 230.7H276.6V234.6H276.8V230.7Z" fill="#E4E6E6"/>
<path d="M276.8 230.7H276.6V234.6H276.8V230.7Z" fill="#E4E6E6"/>
<path d="M277.4 230.7H277.2V234.6H277.4V230.7Z" fill="#E4E6E6"/>
<path d="M278 230.7H277.8V234.6H278V230.7Z" fill="#E4E6E6"/>
<path d="M278.6 230.7H278.4V234.6H278.6V230.7Z" fill="#E4E6E6"/>
<path d="M279 230.7H278.8V234.6H279V230.7Z" fill="#E4E6E6"/>
<path d="M279.6 230.7H279.4V234.6H279.6V230.7Z" fill="#E4E6E6"/>
<path d="M280.1 230.7H279.9V234.6H280.1V230.7Z" fill="#E4E6E6"/>
<path d="M280.7 230.7H280.5V234.6H280.7V230.7Z" fill="#E4E6E6"/>
<path d="M281.3 230.7H281.1V234.6H281.3V230.7Z" fill="#E4E6E6"/>
<path d="M281.9 230.7H281.7V234.6H281.9V230.7Z" fill="#E4E6E6"/>
<path d="M282 230.7H281.8V234.6H282V230.7Z" fill="#E4E6E6"/>
<path d="M282.6 230.7H282.4V234.6H282.6V230.7Z" fill="#E4E6E6"/>
<path d="M283.2 230.7H283V234.6H283.2V230.7Z" fill="#E4E6E6"/>
<path d="M283.8 230.7H283.6V234.6H283.8V230.7Z" fill="#E4E6E6"/>
<path d="M392.8 312C392.6 312 392.4 311.9 392.2 311.7C392 311.5 391.9 311.3 391.9 311.1V199.8C391.9 199.6 392 199.4 392.2 199.2C392.4 199 392.6 198.9 392.8 198.9C393 198.9 393.2 199 393.4 199.2C393.6 199.4 393.7 199.6 393.7 199.8V311.1C393.7 311.3 393.6 311.5 393.4 311.7C393.2 311.9 393 312 392.8 312Z" fill="#67BCF4"/>
<path d="M324.2 312C324 312 323.8 311.9 323.6 311.7C323.4 311.5 323.3 311.3 323.3 311.1V199.8C323.3 199.6 323.4 199.4 323.6 199.2C323.8 199 324 198.9 324.2 198.9C324.4 198.9 324.6 199 324.8 199.2C325 199.4 325.1 199.6 325.1 199.8V311.1C325.1 311.3 325 311.5 324.8 311.7C324.6 311.9 324.4 312 324.2 312Z" fill="#67BCF4"/>
<path d="M474.3 200.6H241.2C241 200.6 240.8 200.5 240.6 200.3C240.4 200.1 240.3 199.9 240.3 199.7C240.3 199.5 240.4 199.3 240.6 199.1C240.8 198.9 241 198.8 241.2 198.8H474.3C474.5 198.8 474.7 198.9 474.9 199.1C475.1 199.3 475.2 199.5 475.2 199.7C475.2 199.9 475.1 200.1 474.9 200.3C474.8 200.6 474.5 200.6 474.3 200.6Z" fill="#67BCF4"/>
<path d="M289.3 196H270.6C268.9 196 267.5 197.4 267.5 199.1V200.4C267.5 202.1 268.9 203.5 270.6 203.5H289.3C291 203.5 292.4 202.1 292.4 200.4V199.1C292.4 197.4 291 196 289.3 196Z" fill="#67BCF4"/>
<path d="M278.3 202.3V201.4H276.1V200.6L277.9 197.7H279.2V200.5H279.8V201.4H279.2V202.3H278.3ZM278.3 198.6L277.1 200.5H278.3V198.6Z" fill="white"/>
<path d="M281.4 202.3V199L280.6 199.8L280 199.2L281.4 197.8H282.3V202.4L281.4 202.3Z" fill="white"/>
<path d="M368.7 196H350C348.3 196 346.9 197.4 346.9 199.1V200.4C346.9 202.1 348.3 203.5 350 203.5H368.7C370.4 203.5 371.8 202.1 371.8 200.4V199.1C371.8 197.4 370.4 196 368.7 196Z" fill="#67BCF4"/>
<path d="M357.7 202.3V201.4H355.5V200.6L357.3 197.7H358.6V200.5H359.2V201.4H358.6V202.3H357.7ZM357.7 198.6L356.5 200.5H357.7V198.6Z" fill="white"/>
<path d="M359.8 202.3V201.5C361.7 200.1 362.2 199.6 362.2 199.1C362.2 198.7 361.8 198.5 361.5 198.5C361.3 198.5 361 198.5 360.8 198.6C360.6 198.7 360.4 198.8 360.2 199L359.6 198.4C359.8 198.2 360.1 198 360.4 197.8C360.7 197.7 361 197.6 361.4 197.6C362.4 197.6 363.1 198.2 363.1 199.1C363.1 199.9 362.5 200.6 361.3 201.4H363.2V202.2H359.8V202.3Z" fill="white"/>
<path d="M444.1 196H425.4C423.7 196 422.3 197.4 422.3 199.1V200.4C422.3 202.1 423.7 203.5 425.4 203.5H444.1C445.8 203.5 447.2 202.1 447.2 200.4V199.1C447.2 197.4 445.8 196 444.1 196Z" fill="#67BCF4"/>
<path d="M433.1 202.3V201.4H431V200.6L432.8 197.7H434.1V200.5H434.7V201.4H434.1V202.3H433.1ZM433.1 198.6L431.9 200.5H433.1V198.6Z" fill="white"/>
<path d="M435 201.6L435.5 200.9C435.8 201.2 436.3 201.4 436.8 201.4C437.4 201.4 437.7 201.2 437.7 200.8C437.7 200.5 437.4 200.3 436.8 200.3H436.2V199.4H436.8C437.3 199.4 437.6 199.2 437.6 198.9C437.6 198.6 437.2 198.3 436.7 198.3C436.3 198.3 435.9 198.5 435.6 198.8L435.1 198.2C435.3 198 435.6 197.8 435.9 197.6C436.2 197.5 436.5 197.4 436.9 197.4C438 197.4 438.6 197.9 438.6 198.6C438.6 198.9 438.5 199.1 438.3 199.3C438.1 199.5 437.9 199.6 437.6 199.6C437.9 199.6 438.1 199.7 438.3 199.9C438.5 200.1 438.6 200.4 438.6 200.7C438.6 201.5 437.9 202 436.8 202C436.5 202 436.1 202 435.8 201.9C435.5 202.1 435.3 201.9 435 201.6Z" fill="white"/>
</g>
</g>
<defs>
<clipPath id="clip0_497_4">
<rect width="520" height="324" fill="white"/>
</clipPath>
</defs>
</svg>
