<?xml version="1.0" encoding="utf-8"?>
<!-- Generator: Adobe Illustrator 26.0.1, SVG Export Plug-In . SVG Version: 6.00 Build 0)  -->
<svg version="1.1" id="Слой_1" xmlns="http://www.w3.org/2000/svg" xmlns:xlink="http://www.w3.org/1999/xlink" x="0px" y="0px"
	 viewBox="0 0 520 324" style="enable-background:new 0 0 520 324;" xml:space="preserve">
<style type="text/css">
	.st0{clip-path:url(#SVGID_00000180346599203130571730000002185100444954237090_);}
	.st1{fill:#EAF1FC;}
	.st2{fill:#F8F8FF;}
	.st3{fill:#CDE4F7;}
	.st4{fill:#E9EDF4;}
	.st5{fill:#FFFFFF;}
	.st6{fill:#ECF7FE;}
	.st7{fill:#E31E24;}
	.st8{fill:#E8815F;}
	.st9{fill:#0B2B46;}
	.st10{fill:#F09976;}
	.st11{fill:#AD000D;}
	.st12{fill:#D38137;}
	.st13{fill:#F8C47A;}
	.st14{fill:#E19A54;}
	.st15{fill:#FFDF9A;}
	.st16{fill:#E4E6E6;}
	.st17{fill:#CE8D4D;}
	.st18{fill:#EAB973;}
	.st19{fill:#D3914F;}
	.st20{fill:#F1D392;}
	.st21{fill:#C08448;}
	.st22{fill:#E5B571;}
	.st23{fill:#ECCF8F;}
	.st24{fill:#C07632;}
	.st25{fill:#67BCF4;}
</style>
<g>
	<defs>
		<rect id="SVGID_1_" width="520" height="324"/>
	</defs>
	<clipPath id="SVGID_00000166655776496935249680000014356595672028213634_">
		<use xlink:href="#SVGID_1_"  style="overflow:visible;"/>
	</clipPath>
	<g style="clip-path:url(#SVGID_00000166655776496935249680000014356595672028213634_);">
		<path class="st1" d="M259.6,323c143.5,0,259.9-16.7,259.9-37.2c0-20.6-116.3-37.2-259.9-37.2c-143.5,0-259.9,16.7-259.9,37.2
			C-0.3,306.4,116.1,323,259.6,323z"/>
		<path class="st2" d="M472.9,271.8c29.6-61.6,46-179.5-18.3-218.6c-42-25.6-85.8,7.3-130.7,8.8c-35.3,1.2-69.3-26.7-101.1-34.6
			C139.3,6.5,8.2,60.7,65.8,271.8C210.1,271.4,328.6,272.2,472.9,271.8z"/>
		<path class="st3" d="M401.3,125.8h-97.4v165.3h97.4V125.8z"/>
		<path class="st4" d="M334.2,125.8h-30.3v165.3h30.3V125.8z"/>
		<path class="st5" d="M395,133.7h-4.5v4.7h4.5V133.7z"/>
		<path class="st5" d="M386.8,133.7h-4.5v4.7h4.5V133.7z"/>
		<path class="st5" d="M378.7,133.7h-4.5v4.7h4.5V133.7z"/>
		<path class="st5" d="M370.5,133.7H366v4.7h4.5V133.7z"/>
		<path class="st5" d="M362.3,133.7h-4.5v4.7h4.5V133.7z"/>
		<path class="st5" d="M354.1,133.7h-4.5v4.7h4.5V133.7z"/>
		<path class="st5" d="M345.9,133.7h-4.5v4.7h4.5V133.7z"/>
		<path class="st5" d="M330.9,133.7h-4.5v4.7h4.5V133.7z"/>
		<path class="st5" d="M322.8,133.7h-4.5v4.7h4.5V133.7z"/>
		<path class="st5" d="M314.6,133.7h-4.5v4.7h4.5V133.7z"/>
		<path class="st5" d="M395,143.7h-4.5v4.7h4.5V143.7z"/>
		<path class="st5" d="M386.8,143.7h-4.5v4.7h4.5V143.7z"/>
		<path class="st5" d="M378.7,143.7h-4.5v4.7h4.5V143.7z"/>
		<path class="st5" d="M370.5,143.7H366v4.7h4.5V143.7z"/>
		<path class="st5" d="M362.3,143.7h-4.5v4.7h4.5V143.7z"/>
		<path class="st5" d="M354.1,143.7h-4.5v4.7h4.5V143.7z"/>
		<path class="st5" d="M345.9,143.7h-4.5v4.7h4.5V143.7z"/>
		<path class="st5" d="M330.9,143.7h-4.5v4.7h4.5V143.7z"/>
		<path class="st5" d="M322.8,143.7h-4.5v4.7h4.5V143.7z"/>
		<path class="st5" d="M314.6,143.7h-4.5v4.7h4.5V143.7z"/>
		<path class="st5" d="M395,153.6h-4.5v4.7h4.5V153.6z"/>
		<path class="st5" d="M386.8,153.6h-4.5v4.7h4.5V153.6z"/>
		<path class="st5" d="M378.7,153.6h-4.5v4.7h4.5V153.6z"/>
		<path class="st5" d="M370.5,153.6H366v4.7h4.5V153.6z"/>
		<path class="st5" d="M362.3,153.6h-4.5v4.7h4.5V153.6z"/>
		<path class="st5" d="M354.1,153.6h-4.5v4.7h4.5V153.6z"/>
		<path class="st5" d="M345.9,153.6h-4.5v4.7h4.5V153.6z"/>
		<path class="st5" d="M330.9,153.6h-4.5v4.7h4.5V153.6z"/>
		<path class="st5" d="M322.8,153.6h-4.5v4.7h4.5V153.6z"/>
		<path class="st5" d="M314.6,153.6h-4.5v4.7h4.5V153.6z"/>
		<path class="st5" d="M395,163.6h-4.5v4.7h4.5V163.6z"/>
		<path class="st5" d="M386.8,163.6h-4.5v4.7h4.5V163.6z"/>
		<path class="st5" d="M378.7,163.6h-4.5v4.7h4.5V163.6z"/>
		<path class="st5" d="M370.5,163.6H366v4.7h4.5V163.6z"/>
		<path class="st5" d="M362.3,163.6h-4.5v4.7h4.5V163.6z"/>
		<path class="st5" d="M354.1,163.6h-4.5v4.7h4.5V163.6z"/>
		<path class="st5" d="M345.9,163.6h-4.5v4.7h4.5V163.6z"/>
		<path class="st5" d="M330.9,163.6h-4.5v4.7h4.5V163.6z"/>
		<path class="st5" d="M322.8,163.6h-4.5v4.7h4.5V163.6z"/>
		<path class="st5" d="M314.6,163.6h-4.5v4.7h4.5V163.6z"/>
		<path class="st5" d="M395,173.6h-4.5v4.7h4.5V173.6z"/>
		<path class="st5" d="M386.8,173.6h-4.5v4.7h4.5V173.6z"/>
		<path class="st5" d="M378.7,173.6h-4.5v4.7h4.5V173.6z"/>
		<path class="st5" d="M370.5,173.6H366v4.7h4.5V173.6z"/>
		<path class="st5" d="M362.3,173.6h-4.5v4.7h4.5V173.6z"/>
		<path class="st5" d="M354.1,173.6h-4.5v4.7h4.5V173.6z"/>
		<path class="st5" d="M345.9,173.6h-4.5v4.7h4.5V173.6z"/>
		<path class="st5" d="M330.9,173.6h-4.5v4.7h4.5V173.6z"/>
		<path class="st5" d="M322.8,173.6h-4.5v4.7h4.5V173.6z"/>
		<path class="st5" d="M314.6,173.6h-4.5v4.7h4.5V173.6z"/>
		<path class="st5" d="M395,183.5h-4.5v4.7h4.5V183.5z"/>
		<path class="st5" d="M386.8,183.5h-4.5v4.7h4.5V183.5z"/>
		<path class="st5" d="M378.7,183.5h-4.5v4.7h4.5V183.5z"/>
		<path class="st5" d="M370.5,183.5H366v4.7h4.5V183.5z"/>
		<path class="st5" d="M362.3,183.5h-4.5v4.7h4.5V183.5z"/>
		<path class="st5" d="M354.1,183.5h-4.5v4.7h4.5V183.5z"/>
		<path class="st5" d="M345.9,183.5h-4.5v4.7h4.5V183.5z"/>
		<path class="st5" d="M330.9,183.5h-4.5v4.7h4.5V183.5z"/>
		<path class="st5" d="M322.8,183.5h-4.5v4.7h4.5V183.5z"/>
		<path class="st5" d="M314.6,183.5h-4.5v4.7h4.5V183.5z"/>
		<path class="st5" d="M395,193.5h-4.5v4.7h4.5V193.5z"/>
		<path class="st5" d="M386.8,193.5h-4.5v4.7h4.5V193.5z"/>
		<path class="st5" d="M378.7,193.5h-4.5v4.7h4.5V193.5z"/>
		<path class="st5" d="M370.5,193.5H366v4.7h4.5V193.5z"/>
		<path class="st5" d="M362.3,193.5h-4.5v4.7h4.5V193.5z"/>
		<path class="st5" d="M354.1,193.5h-4.5v4.7h4.5V193.5z"/>
		<path class="st5" d="M345.9,193.5h-4.5v4.7h4.5V193.5z"/>
		<path class="st5" d="M330.9,193.5h-4.5v4.7h4.5V193.5z"/>
		<path class="st5" d="M322.8,193.5h-4.5v4.7h4.5V193.5z"/>
		<path class="st5" d="M314.6,193.5h-4.5v4.7h4.5V193.5z"/>
		<path class="st5" d="M395,203.5h-4.5v4.7h4.5V203.5z"/>
		<path class="st5" d="M386.8,203.5h-4.5v4.7h4.5V203.5z"/>
		<path class="st5" d="M378.7,203.5h-4.5v4.7h4.5V203.5z"/>
		<path class="st5" d="M370.5,203.5H366v4.7h4.5V203.5z"/>
		<path class="st5" d="M362.3,203.5h-4.5v4.7h4.5V203.5z"/>
		<path class="st5" d="M354.1,203.5h-4.5v4.7h4.5V203.5z"/>
		<path class="st5" d="M345.9,203.5h-4.5v4.7h4.5V203.5z"/>
		<path class="st5" d="M330.9,203.5h-4.5v4.7h4.5V203.5z"/>
		<path class="st5" d="M322.8,203.5h-4.5v4.7h4.5V203.5z"/>
		<path class="st5" d="M314.6,203.5h-4.5v4.7h4.5V203.5z"/>
		<path class="st5" d="M395,213.4h-4.5v4.7h4.5V213.4z"/>
		<path class="st5" d="M386.8,213.4h-4.5v4.7h4.5V213.4z"/>
		<path class="st5" d="M378.7,213.4h-4.5v4.7h4.5V213.4z"/>
		<path class="st5" d="M370.5,213.4H366v4.7h4.5V213.4z"/>
		<path class="st5" d="M362.3,213.4h-4.5v4.7h4.5V213.4z"/>
		<path class="st5" d="M354.1,213.4h-4.5v4.7h4.5V213.4z"/>
		<path class="st5" d="M345.9,213.4h-4.5v4.7h4.5V213.4z"/>
		<path class="st5" d="M330.9,213.4h-4.5v4.7h4.5V213.4z"/>
		<path class="st5" d="M322.8,213.4h-4.5v4.7h4.5V213.4z"/>
		<path class="st5" d="M314.6,213.4h-4.5v4.7h4.5V213.4z"/>
		<path class="st5" d="M395,223.4h-4.5v4.7h4.5V223.4z"/>
		<path class="st5" d="M386.8,223.4h-4.5v4.7h4.5V223.4z"/>
		<path class="st5" d="M378.7,223.4h-4.5v4.7h4.5V223.4z"/>
		<path class="st5" d="M370.5,223.4H366v4.7h4.5V223.4z"/>
		<path class="st5" d="M362.3,223.4h-4.5v4.7h4.5V223.4z"/>
		<path class="st5" d="M354.1,223.4h-4.5v4.7h4.5V223.4z"/>
		<path class="st5" d="M345.9,223.4h-4.5v4.7h4.5V223.4z"/>
		<path class="st5" d="M330.9,223.4h-4.5v4.7h4.5V223.4z"/>
		<path class="st5" d="M322.8,223.4h-4.5v4.7h4.5V223.4z"/>
		<path class="st5" d="M314.6,223.4h-4.5v4.7h4.5V223.4z"/>
		<path class="st5" d="M395,233.4h-4.5v4.7h4.5V233.4z"/>
		<path class="st5" d="M386.8,233.4h-4.5v4.7h4.5V233.4z"/>
		<path class="st5" d="M378.7,233.4h-4.5v4.7h4.5V233.4z"/>
		<path class="st5" d="M370.5,233.4H366v4.7h4.5V233.4z"/>
		<path class="st5" d="M362.3,233.4h-4.5v4.7h4.5V233.4z"/>
		<path class="st5" d="M354.1,233.4h-4.5v4.7h4.5V233.4z"/>
		<path class="st5" d="M345.9,233.4h-4.5v4.7h4.5V233.4z"/>
		<path class="st5" d="M330.9,233.4h-4.5v4.7h4.5V233.4z"/>
		<path class="st5" d="M322.8,233.4h-4.5v4.7h4.5V233.4z"/>
		<path class="st5" d="M314.6,233.4h-4.5v4.7h4.5V233.4z"/>
		<path class="st5" d="M395,243.4h-4.5v4.7h4.5V243.4z"/>
		<path class="st5" d="M386.8,243.4h-4.5v4.7h4.5V243.4z"/>
		<path class="st5" d="M378.7,243.4h-4.5v4.7h4.5V243.4z"/>
		<path class="st5" d="M370.5,243.4H366v4.7h4.5V243.4z"/>
		<path class="st5" d="M362.3,243.4h-4.5v4.7h4.5V243.4z"/>
		<path class="st5" d="M354.1,243.4h-4.5v4.7h4.5V243.4z"/>
		<path class="st5" d="M345.9,243.4h-4.5v4.7h4.5V243.4z"/>
		<path class="st5" d="M330.9,243.4h-4.5v4.7h4.5V243.4z"/>
		<path class="st5" d="M322.8,243.4h-4.5v4.7h4.5V243.4z"/>
		<path class="st5" d="M314.6,243.4h-4.5v4.7h4.5V243.4z"/>
		<path class="st5" d="M395,253.3h-4.5v4.7h4.5V253.3z"/>
		<path class="st5" d="M386.8,253.3h-4.5v4.7h4.5V253.3z"/>
		<path class="st5" d="M378.7,253.3h-4.5v4.7h4.5V253.3z"/>
		<path class="st5" d="M370.5,253.3H366v4.7h4.5V253.3z"/>
		<path class="st5" d="M362.3,253.3h-4.5v4.7h4.5V253.3z"/>
		<path class="st5" d="M354.1,253.3h-4.5v4.7h4.5V253.3z"/>
		<path class="st5" d="M345.9,253.3h-4.5v4.7h4.5V253.3z"/>
		<path class="st5" d="M330.9,253.3h-4.5v4.7h4.5V253.3z"/>
		<path class="st5" d="M322.8,253.3h-4.5v4.7h4.5V253.3z"/>
		<path class="st5" d="M314.6,253.3h-4.5v4.7h4.5V253.3z"/>
		<path class="st5" d="M395,263.3h-4.5v4.7h4.5V263.3z"/>
		<path class="st5" d="M386.8,263.3h-4.5v4.7h4.5V263.3z"/>
		<path class="st5" d="M378.7,263.3h-4.5v4.7h4.5V263.3z"/>
		<path class="st5" d="M370.5,263.3H366v4.7h4.5V263.3z"/>
		<path class="st5" d="M362.3,263.3h-4.5v4.7h4.5V263.3z"/>
		<path class="st5" d="M354.1,263.3h-4.5v4.7h4.5V263.3z"/>
		<path class="st5" d="M345.9,263.3h-4.5v4.7h4.5V263.3z"/>
		<path class="st5" d="M330.9,263.3h-4.5v4.7h4.5V263.3z"/>
		<path class="st5" d="M322.8,263.3h-4.5v4.7h4.5V263.3z"/>
		<path class="st5" d="M314.6,263.3h-4.5v4.7h4.5V263.3z"/>
		<path class="st5" d="M395,273.3h-4.5v4.7h4.5V273.3z"/>
		<path class="st5" d="M386.8,273.3h-4.5v4.7h4.5V273.3z"/>
		<path class="st5" d="M378.7,273.3h-4.5v4.7h4.5V273.3z"/>
		<path class="st5" d="M370.5,273.3H366v4.7h4.5V273.3z"/>
		<path class="st5" d="M362.3,273.3h-4.5v4.7h4.5V273.3z"/>
		<path class="st5" d="M354.1,273.3h-4.5v4.7h4.5V273.3z"/>
		<path class="st5" d="M345.9,273.3h-4.5v4.7h4.5V273.3z"/>
		<path class="st5" d="M330.9,273.3h-4.5v4.7h4.5V273.3z"/>
		<path class="st5" d="M322.8,273.3h-4.5v4.7h4.5V273.3z"/>
		<path class="st5" d="M314.6,273.3h-4.5v4.7h4.5V273.3z"/>
		<path class="st3" d="M317.5,154.3h-90.4v136.9h90.4V154.3z"/>
		<path class="st4" d="M255.3,154.3h-28.2v136.9h28.2V154.3z"/>
		<path class="st5" d="M311.7,161.2h-4.2v20.4h4.2V161.2z"/>
		<path class="st5" d="M304.1,161.2H300v20.4h4.2V161.2z"/>
		<path class="st5" d="M296.5,161.2h-4.2v20.4h4.2V161.2z"/>
		<path class="st5" d="M288.9,161.2h-4.2v20.4h4.2V161.2z"/>
		<path class="st5" d="M281.3,161.2h-4.2v20.4h4.2V161.2z"/>
		<path class="st5" d="M273.8,161.2h-4.2v20.4h4.2V161.2z"/>
		<path class="st5" d="M266.2,161.2H262v20.4h4.2V161.2z"/>
		<path class="st5" d="M252.2,161.2h-4.2v20.4h4.2V161.2z"/>
		<path class="st5" d="M244.6,161.2h-4.2v20.4h4.2V161.2z"/>
		<path class="st5" d="M237.1,161.2h-4.2v20.4h4.2V161.2z"/>
		<path class="st5" d="M311.7,184.3h-4.2v20.4h4.2V184.3z"/>
		<path class="st5" d="M304.1,184.3H300v20.4h4.2V184.3z"/>
		<path class="st5" d="M296.5,184.3h-4.2v20.4h4.2V184.3z"/>
		<path class="st5" d="M288.9,184.3h-4.2v20.4h4.2V184.3z"/>
		<path class="st5" d="M281.3,184.3h-4.2v20.4h4.2V184.3z"/>
		<path class="st5" d="M273.8,184.3h-4.2v20.4h4.2V184.3z"/>
		<path class="st5" d="M266.2,184.3H262v20.4h4.2V184.3z"/>
		<path class="st5" d="M252.2,184.3h-4.2v20.4h4.2V184.3z"/>
		<path class="st5" d="M244.6,184.3h-4.2v20.4h4.2V184.3z"/>
		<path class="st5" d="M237.1,184.3h-4.2v20.4h4.2V184.3z"/>
		<path class="st5" d="M311.7,207.4h-4.2v20.4h4.2V207.4z"/>
		<path class="st5" d="M304.1,207.4H300v20.4h4.2V207.4z"/>
		<path class="st5" d="M296.5,207.4h-4.2v20.4h4.2V207.4z"/>
		<path class="st5" d="M288.9,207.4h-4.2v20.4h4.2V207.4z"/>
		<path class="st5" d="M281.3,207.4h-4.2v20.4h4.2V207.4z"/>
		<path class="st5" d="M273.8,207.4h-4.2v20.4h4.2V207.4z"/>
		<path class="st5" d="M266.2,207.4H262v20.4h4.2V207.4z"/>
		<path class="st5" d="M252.2,207.4h-4.2v20.4h4.2V207.4z"/>
		<path class="st5" d="M244.6,207.4h-4.2v20.4h4.2V207.4z"/>
		<path class="st5" d="M237.1,207.4h-4.2v20.4h4.2V207.4z"/>
		<path class="st5" d="M311.7,230.5h-4.2v20.4h4.2V230.5z"/>
		<path class="st5" d="M304.1,230.5H300v20.4h4.2V230.5z"/>
		<path class="st5" d="M296.5,230.5h-4.2v20.4h4.2V230.5z"/>
		<path class="st5" d="M288.9,230.5h-4.2v20.4h4.2V230.5z"/>
		<path class="st5" d="M281.3,230.5h-4.2v20.4h4.2V230.5z"/>
		<path class="st5" d="M273.8,230.5h-4.2v20.4h4.2V230.5z"/>
		<path class="st5" d="M266.2,230.5H262v20.4h4.2V230.5z"/>
		<path class="st5" d="M252.2,230.5h-4.2v20.4h4.2V230.5z"/>
		<path class="st5" d="M244.6,230.5h-4.2v20.4h4.2V230.5z"/>
		<path class="st5" d="M237.1,230.5h-4.2v20.4h4.2V230.5z"/>
		<path class="st5" d="M311.7,253.6h-4.2v20.4h4.2V253.6z"/>
		<path class="st5" d="M304.1,253.6H300v20.4h4.2V253.6z"/>
		<path class="st5" d="M296.5,253.6h-4.2v20.4h4.2V253.6z"/>
		<path class="st5" d="M288.9,253.6h-4.2v20.4h4.2V253.6z"/>
		<path class="st5" d="M281.3,253.6h-4.2v20.4h4.2V253.6z"/>
		<path class="st5" d="M273.8,253.6h-4.2v20.4h4.2V253.6z"/>
		<path class="st5" d="M266.2,253.6H262v20.4h4.2V253.6z"/>
		<path class="st5" d="M252.2,253.6h-4.2v20.4h4.2V253.6z"/>
		<path class="st5" d="M244.6,253.6h-4.2v20.4h4.2V253.6z"/>
		<path class="st5" d="M237.1,253.6h-4.2v20.4h4.2V253.6z"/>
		<path class="st3" d="M106.1,106.1H15.7v185h90.4V106.1z"/>
		<path class="st4" d="M43.9,106.1H15.7v185h28.2V106.1z"/>
		<path class="st5" d="M100.3,114.9h-4.2v20.4h4.2V114.9z"/>
		<path class="st5" d="M92.8,114.9h-4.2v20.4h4.2V114.9z"/>
		<path class="st5" d="M85.2,114.9H81v20.4h4.2V114.9z"/>
		<path class="st5" d="M77.6,114.9h-4.2v20.4h4.2V114.9z"/>
		<path class="st5" d="M70,114.9h-4.2v20.4H70V114.9z"/>
		<path class="st5" d="M62.4,114.9h-4.2v20.4h4.2V114.9z"/>
		<path class="st5" d="M54.8,114.9h-4.2v20.4h4.2V114.9z"/>
		<path class="st5" d="M40.9,114.9h-4.2v20.4h4.2V114.9z"/>
		<path class="st5" d="M33.3,114.9h-4.2v20.4h4.2V114.9z"/>
		<path class="st5" d="M25.7,114.9h-4.2v20.4h4.2V114.9z"/>
		<path class="st5" d="M100.3,138h-4.2v20.4h4.2V138z"/>
		<path class="st5" d="M92.8,138h-4.2v20.4h4.2V138z"/>
		<path class="st5" d="M85.2,138H81v20.4h4.2V138z"/>
		<path class="st5" d="M77.6,138h-4.2v20.4h4.2V138z"/>
		<path class="st5" d="M70,138h-4.2v20.4H70V138z"/>
		<path class="st5" d="M62.4,138h-4.2v20.4h4.2V138z"/>
		<path class="st5" d="M54.8,138h-4.2v20.4h4.2V138z"/>
		<path class="st5" d="M40.9,138h-4.2v20.4h4.2V138z"/>
		<path class="st5" d="M33.3,138h-4.2v20.4h4.2V138z"/>
		<path class="st5" d="M25.7,138h-4.2v20.4h4.2V138z"/>
		<path class="st5" d="M100.3,161.2h-4.2v20.4h4.2V161.2z"/>
		<path class="st5" d="M92.8,161.2h-4.2v20.4h4.2V161.2z"/>
		<path class="st5" d="M85.2,161.2H81v20.4h4.2V161.2z"/>
		<path class="st5" d="M77.6,161.2h-4.2v20.4h4.2V161.2z"/>
		<path class="st5" d="M70,161.2h-4.2v20.4H70V161.2z"/>
		<path class="st5" d="M62.4,161.2h-4.2v20.4h4.2V161.2z"/>
		<path class="st5" d="M54.8,161.2h-4.2v20.4h4.2V161.2z"/>
		<path class="st5" d="M40.9,161.2h-4.2v20.4h4.2V161.2z"/>
		<path class="st5" d="M33.3,161.2h-4.2v20.4h4.2V161.2z"/>
		<path class="st5" d="M25.7,161.2h-4.2v20.4h4.2V161.2z"/>
		<path class="st5" d="M100.3,184.3h-4.2v20.4h4.2V184.3z"/>
		<path class="st5" d="M92.8,184.3h-4.2v20.4h4.2V184.3z"/>
		<path class="st5" d="M85.2,184.3H81v20.4h4.2V184.3z"/>
		<path class="st5" d="M77.6,184.3h-4.2v20.4h4.2V184.3z"/>
		<path class="st5" d="M70,184.3h-4.2v20.4H70V184.3z"/>
		<path class="st5" d="M62.4,184.3h-4.2v20.4h4.2V184.3z"/>
		<path class="st5" d="M54.8,184.3h-4.2v20.4h4.2V184.3z"/>
		<path class="st5" d="M40.9,184.3h-4.2v20.4h4.2V184.3z"/>
		<path class="st5" d="M33.3,184.3h-4.2v20.4h4.2V184.3z"/>
		<path class="st5" d="M25.7,184.3h-4.2v20.4h4.2V184.3z"/>
		<path class="st5" d="M100.3,207.4h-4.2v20.4h4.2V207.4z"/>
		<path class="st5" d="M92.8,207.4h-4.2v20.4h4.2V207.4z"/>
		<path class="st5" d="M85.2,207.4H81v20.4h4.2V207.4z"/>
		<path class="st5" d="M77.6,207.4h-4.2v20.4h4.2V207.4z"/>
		<path class="st5" d="M70,207.4h-4.2v20.4H70V207.4z"/>
		<path class="st5" d="M62.4,207.4h-4.2v20.4h4.2V207.4z"/>
		<path class="st5" d="M54.8,207.4h-4.2v20.4h4.2V207.4z"/>
		<path class="st5" d="M40.9,207.4h-4.2v20.4h4.2V207.4z"/>
		<path class="st5" d="M33.3,207.4h-4.2v20.4h4.2V207.4z"/>
		<path class="st5" d="M25.7,207.4h-4.2v20.4h4.2V207.4z"/>
		<path class="st5" d="M100.3,230.5h-4.2v20.4h4.2V230.5z"/>
		<path class="st5" d="M92.8,230.5h-4.2v20.4h4.2V230.5z"/>
		<path class="st5" d="M85.2,230.5H81v20.4h4.2V230.5z"/>
		<path class="st5" d="M77.6,230.5h-4.2v20.4h4.2V230.5z"/>
		<path class="st5" d="M70,230.5h-4.2v20.4H70V230.5z"/>
		<path class="st5" d="M62.4,230.5h-4.2v20.4h4.2V230.5z"/>
		<path class="st5" d="M54.8,230.5h-4.2v20.4h4.2V230.5z"/>
		<path class="st5" d="M40.9,230.5h-4.2v20.4h4.2V230.5z"/>
		<path class="st5" d="M33.3,230.5h-4.2v20.4h4.2V230.5z"/>
		<path class="st5" d="M25.7,230.5h-4.2v20.4h4.2V230.5z"/>
		<path class="st5" d="M100.3,253.6h-4.2v20.4h4.2V253.6z"/>
		<path class="st5" d="M92.8,253.6h-4.2v20.4h4.2V253.6z"/>
		<path class="st5" d="M85.2,253.6H81v20.4h4.2V253.6z"/>
		<path class="st5" d="M77.6,253.6h-4.2v20.4h4.2V253.6z"/>
		<path class="st5" d="M70,253.6h-4.2v20.4H70V253.6z"/>
		<path class="st5" d="M62.4,253.6h-4.2v20.4h4.2V253.6z"/>
		<path class="st5" d="M54.8,253.6h-4.2v20.4h4.2V253.6z"/>
		<path class="st5" d="M40.9,253.6h-4.2v20.4h4.2V253.6z"/>
		<path class="st5" d="M33.3,253.6h-4.2v20.4h4.2V253.6z"/>
		<path class="st5" d="M25.7,253.6h-4.2v20.4h4.2V253.6z"/>
		<path class="st3" d="M245,121.5h-62.7v169.7H245V121.5z"/>
		<path class="st6" d="M201.8,121.5h-19.5v169.7h19.5V121.5z"/>
		<path class="st5" d="M245,130.7h-62.7v1.4H245V130.7z"/>
		<path class="st5" d="M245,142h-62.7v1.4H245V142z"/>
		<path class="st5" d="M245,153.2h-62.7v1.4H245V153.2z"/>
		<path class="st5" d="M245,164.4h-62.7v1.4H245V164.4z"/>
		<path class="st5" d="M245,175.6h-62.7v1.4H245V175.6z"/>
		<path class="st5" d="M245,186.8h-62.7v1.4H245V186.8z"/>
		<path class="st5" d="M245,198h-62.7v1.4H245V198z"/>
		<path class="st5" d="M245,209.2h-62.7v1.4H245V209.2z"/>
		<path class="st5" d="M245,220.4h-62.7v1.4H245V220.4z"/>
		<path class="st5" d="M245,231.6h-62.7v1.4H245V231.6z"/>
		<path class="st5" d="M245,242.8h-62.7v1.4H245V242.8z"/>
		<path class="st5" d="M245,254h-62.7v1.4H245V254z"/>
		<path class="st5" d="M245,265.2h-62.7v1.4H245V265.2z"/>
		<path class="st5" d="M245,276.4h-62.7v1.4H245V276.4z"/>
		<path class="st3" d="M499,155.2h-98.5v135.9H499V155.2z"/>
		<path class="st4" d="M431.1,155.2h-30.7v135.9h30.7V155.2z"/>
		<path class="st5" d="M499,162.7h-98.5v1.1H499V162.7z"/>
		<path class="st5" d="M499,171.6h-98.5v1.1H499V171.6z"/>
		<path class="st5" d="M499,180.6h-98.5v1.1H499V180.6z"/>
		<path class="st5" d="M499,189.6h-98.5v1.1H499V189.6z"/>
		<path class="st5" d="M499,198.6h-98.5v1.1H499V198.6z"/>
		<path class="st5" d="M499,207.5h-98.5v1.1H499V207.5z"/>
		<path class="st5" d="M499,216.5h-98.5v1.1H499V216.5z"/>
		<path class="st5" d="M499,225.5h-98.5v1.1H499V225.5z"/>
		<path class="st5" d="M499,234.4h-98.5v1.1H499V234.4z"/>
		<path class="st5" d="M499,243.4h-98.5v1.1H499V243.4z"/>
		<path class="st5" d="M499,252.4h-98.5v1.1H499V252.4z"/>
		<path class="st5" d="M499,261.4h-98.5v1.1H499V261.4z"/>
		<path class="st5" d="M499,270.3h-98.5v1.1H499V270.3z"/>
		<path class="st5" d="M499,279.3h-98.5v1.1H499V279.3z"/>
		<path class="st3" d="M195,55.9H80v235.3h115V55.9z"/>
		<path class="st6" d="M115.8,55.9H80v235.3h35.8V55.9z"/>
		<path class="st5" d="M187.6,67.1h-5.3v6.7h5.3V67.1z"/>
		<path class="st5" d="M177.9,67.1h-5.3v6.7h5.3V67.1z"/>
		<path class="st5" d="M168.3,67.1H163v6.7h5.3V67.1z"/>
		<path class="st5" d="M158.6,67.1h-5.3v6.7h5.3V67.1z"/>
		<path class="st5" d="M149,67.1h-5.3v6.7h5.3V67.1z"/>
		<path class="st5" d="M139.3,67.1H134v6.7h5.3V67.1z"/>
		<path class="st5" d="M129.6,67.1h-5.3v6.7h5.3V67.1z"/>
		<path class="st5" d="M111.9,67.1h-5.3v6.7h5.3V67.1z"/>
		<path class="st5" d="M102.3,67.1H97v6.7h5.3V67.1z"/>
		<path class="st5" d="M92.6,67.1h-5.3v6.7h5.3V67.1z"/>
		<path class="st5" d="M187.6,81.3h-5.3V88h5.3V81.3z"/>
		<path class="st5" d="M177.9,81.3h-5.3V88h5.3V81.3z"/>
		<path class="st5" d="M168.3,81.3H163V88h5.3V81.3z"/>
		<path class="st5" d="M158.6,81.3h-5.3V88h5.3V81.3z"/>
		<path class="st5" d="M149,81.3h-5.3V88h5.3V81.3z"/>
		<path class="st5" d="M139.3,81.3H134V88h5.3V81.3z"/>
		<path class="st5" d="M129.6,81.3h-5.3V88h5.3V81.3z"/>
		<path class="st5" d="M111.9,81.3h-5.3V88h5.3V81.3z"/>
		<path class="st5" d="M102.3,81.3H97V88h5.3V81.3z"/>
		<path class="st5" d="M92.6,81.3h-5.3V88h5.3V81.3z"/>
		<path class="st5" d="M187.6,95.5h-5.3v6.7h5.3V95.5z"/>
		<path class="st5" d="M177.9,95.5h-5.3v6.7h5.3V95.5z"/>
		<path class="st5" d="M168.3,95.5H163v6.7h5.3V95.5z"/>
		<path class="st5" d="M158.6,95.5h-5.3v6.7h5.3V95.5z"/>
		<path class="st5" d="M149,95.5h-5.3v6.7h5.3V95.5z"/>
		<path class="st5" d="M139.3,95.5H134v6.7h5.3V95.5z"/>
		<path class="st5" d="M129.6,95.5h-5.3v6.7h5.3V95.5z"/>
		<path class="st5" d="M111.9,95.5h-5.3v6.7h5.3V95.5z"/>
		<path class="st5" d="M102.3,95.5H97v6.7h5.3V95.5z"/>
		<path class="st5" d="M92.6,95.5h-5.3v6.7h5.3V95.5z"/>
		<path class="st5" d="M187.6,109.6h-5.3v6.7h5.3V109.6z"/>
		<path class="st5" d="M177.9,109.6h-5.3v6.7h5.3V109.6z"/>
		<path class="st5" d="M168.3,109.6H163v6.7h5.3V109.6z"/>
		<path class="st5" d="M158.6,109.6h-5.3v6.7h5.3V109.6z"/>
		<path class="st5" d="M149,109.6h-5.3v6.7h5.3V109.6z"/>
		<path class="st5" d="M139.3,109.6H134v6.7h5.3V109.6z"/>
		<path class="st5" d="M129.6,109.6h-5.3v6.7h5.3V109.6z"/>
		<path class="st5" d="M111.9,109.6h-5.3v6.7h5.3V109.6z"/>
		<path class="st5" d="M102.3,109.6H97v6.7h5.3V109.6z"/>
		<path class="st5" d="M92.6,109.6h-5.3v6.7h5.3V109.6z"/>
		<path class="st5" d="M187.6,123.8h-5.3v6.7h5.3V123.8z"/>
		<path class="st5" d="M177.9,123.8h-5.3v6.7h5.3V123.8z"/>
		<path class="st5" d="M168.3,123.8H163v6.7h5.3V123.8z"/>
		<path class="st5" d="M158.6,123.8h-5.3v6.7h5.3V123.8z"/>
		<path class="st5" d="M149,123.8h-5.3v6.7h5.3V123.8z"/>
		<path class="st5" d="M139.3,123.8H134v6.7h5.3V123.8z"/>
		<path class="st5" d="M129.6,123.8h-5.3v6.7h5.3V123.8z"/>
		<path class="st5" d="M111.9,123.8h-5.3v6.7h5.3V123.8z"/>
		<path class="st5" d="M102.3,123.8H97v6.7h5.3V123.8z"/>
		<path class="st5" d="M92.6,123.8h-5.3v6.7h5.3V123.8z"/>
		<path class="st5" d="M187.6,138h-5.3v6.7h5.3V138z"/>
		<path class="st5" d="M177.9,138h-5.3v6.7h5.3V138z"/>
		<path class="st5" d="M168.3,138H163v6.7h5.3V138z"/>
		<path class="st5" d="M158.6,138h-5.3v6.7h5.3V138z"/>
		<path class="st5" d="M149,138h-5.3v6.7h5.3V138z"/>
		<path class="st5" d="M139.3,138H134v6.7h5.3V138z"/>
		<path class="st5" d="M129.6,138h-5.3v6.7h5.3V138z"/>
		<path class="st5" d="M111.9,138h-5.3v6.7h5.3V138z"/>
		<path class="st5" d="M102.3,138H97v6.7h5.3V138z"/>
		<path class="st5" d="M92.6,138h-5.3v6.7h5.3V138z"/>
		<path class="st5" d="M187.6,152.2h-5.3v6.7h5.3V152.2z"/>
		<path class="st5" d="M177.9,152.2h-5.3v6.7h5.3V152.2z"/>
		<path class="st5" d="M168.3,152.2H163v6.7h5.3V152.2z"/>
		<path class="st5" d="M158.6,152.2h-5.3v6.7h5.3V152.2z"/>
		<path class="st5" d="M149,152.2h-5.3v6.7h5.3V152.2z"/>
		<path class="st5" d="M139.3,152.2H134v6.7h5.3V152.2z"/>
		<path class="st5" d="M129.6,152.2h-5.3v6.7h5.3V152.2z"/>
		<path class="st5" d="M111.9,152.2h-5.3v6.7h5.3V152.2z"/>
		<path class="st5" d="M102.3,152.2H97v6.7h5.3V152.2z"/>
		<path class="st5" d="M92.6,152.2h-5.3v6.7h5.3V152.2z"/>
		<path class="st5" d="M187.6,166.4h-5.3v6.7h5.3V166.4z"/>
		<path class="st5" d="M177.9,166.4h-5.3v6.7h5.3V166.4z"/>
		<path class="st5" d="M168.3,166.4H163v6.7h5.3V166.4z"/>
		<path class="st5" d="M158.6,166.4h-5.3v6.7h5.3V166.4z"/>
		<path class="st5" d="M149,166.4h-5.3v6.7h5.3V166.4z"/>
		<path class="st5" d="M139.3,166.4H134v6.7h5.3V166.4z"/>
		<path class="st5" d="M129.6,166.4h-5.3v6.7h5.3V166.4z"/>
		<path class="st5" d="M111.9,166.4h-5.3v6.7h5.3V166.4z"/>
		<path class="st5" d="M102.3,166.4H97v6.7h5.3V166.4z"/>
		<path class="st5" d="M92.6,166.4h-5.3v6.7h5.3V166.4z"/>
		<path class="st5" d="M187.6,180.6h-5.3v6.7h5.3V180.6z"/>
		<path class="st5" d="M177.9,180.6h-5.3v6.7h5.3V180.6z"/>
		<path class="st5" d="M168.3,180.6H163v6.7h5.3V180.6z"/>
		<path class="st5" d="M158.6,180.6h-5.3v6.7h5.3V180.6z"/>
		<path class="st5" d="M149,180.6h-5.3v6.7h5.3V180.6z"/>
		<path class="st5" d="M139.3,180.6H134v6.7h5.3V180.6z"/>
		<path class="st5" d="M129.6,180.6h-5.3v6.7h5.3V180.6z"/>
		<path class="st5" d="M111.9,180.6h-5.3v6.7h5.3V180.6z"/>
		<path class="st5" d="M102.3,180.6H97v6.7h5.3V180.6z"/>
		<path class="st5" d="M92.6,180.6h-5.3v6.7h5.3V180.6z"/>
		<path class="st5" d="M187.6,194.8h-5.3v6.7h5.3V194.8z"/>
		<path class="st5" d="M177.9,194.8h-5.3v6.7h5.3V194.8z"/>
		<path class="st5" d="M168.3,194.8H163v6.7h5.3V194.8z"/>
		<path class="st5" d="M158.6,194.8h-5.3v6.7h5.3V194.8z"/>
		<path class="st5" d="M149,194.8h-5.3v6.7h5.3V194.8z"/>
		<path class="st5" d="M139.3,194.8H134v6.7h5.3V194.8z"/>
		<path class="st5" d="M129.6,194.8h-5.3v6.7h5.3V194.8z"/>
		<path class="st5" d="M111.9,194.8h-5.3v6.7h5.3V194.8z"/>
		<path class="st5" d="M102.3,194.8H97v6.7h5.3V194.8z"/>
		<path class="st5" d="M92.6,194.8h-5.3v6.7h5.3V194.8z"/>
		<path class="st5" d="M187.6,208.9h-5.3v6.7h5.3V208.9z"/>
		<path class="st5" d="M177.9,208.9h-5.3v6.7h5.3V208.9z"/>
		<path class="st5" d="M168.3,208.9H163v6.7h5.3V208.9z"/>
		<path class="st5" d="M158.6,208.9h-5.3v6.7h5.3V208.9z"/>
		<path class="st5" d="M149,208.9h-5.3v6.7h5.3V208.9z"/>
		<path class="st5" d="M139.3,208.9H134v6.7h5.3V208.9z"/>
		<path class="st5" d="M129.6,208.9h-5.3v6.7h5.3V208.9z"/>
		<path class="st5" d="M111.9,208.9h-5.3v6.7h5.3V208.9z"/>
		<path class="st5" d="M102.3,208.9H97v6.7h5.3V208.9z"/>
		<path class="st5" d="M92.6,208.9h-5.3v6.7h5.3V208.9z"/>
		<path class="st5" d="M187.6,223.1h-5.3v6.7h5.3V223.1z"/>
		<path class="st5" d="M177.9,223.1h-5.3v6.7h5.3V223.1z"/>
		<path class="st5" d="M168.3,223.1H163v6.7h5.3V223.1z"/>
		<path class="st5" d="M158.6,223.1h-5.3v6.7h5.3V223.1z"/>
		<path class="st5" d="M149,223.1h-5.3v6.7h5.3V223.1z"/>
		<path class="st5" d="M139.3,223.1H134v6.7h5.3V223.1z"/>
		<path class="st5" d="M129.6,223.1h-5.3v6.7h5.3V223.1z"/>
		<path class="st5" d="M111.9,223.1h-5.3v6.7h5.3V223.1z"/>
		<path class="st5" d="M102.3,223.1H97v6.7h5.3V223.1z"/>
		<path class="st5" d="M92.6,223.1h-5.3v6.7h5.3V223.1z"/>
		<path class="st5" d="M187.6,237.3h-5.3v6.7h5.3V237.3z"/>
		<path class="st5" d="M177.9,237.3h-5.3v6.7h5.3V237.3z"/>
		<path class="st5" d="M168.3,237.3H163v6.7h5.3V237.3z"/>
		<path class="st5" d="M158.6,237.3h-5.3v6.7h5.3V237.3z"/>
		<path class="st5" d="M149,237.3h-5.3v6.7h5.3V237.3z"/>
		<path class="st5" d="M139.3,237.3H134v6.7h5.3V237.3z"/>
		<path class="st5" d="M129.6,237.3h-5.3v6.7h5.3V237.3z"/>
		<path class="st5" d="M111.9,237.3h-5.3v6.7h5.3V237.3z"/>
		<path class="st5" d="M102.3,237.3H97v6.7h5.3V237.3z"/>
		<path class="st5" d="M92.6,237.3h-5.3v6.7h5.3V237.3z"/>
		<path class="st5" d="M187.6,251.5h-5.3v6.7h5.3V251.5z"/>
		<path class="st5" d="M177.9,251.5h-5.3v6.7h5.3V251.5z"/>
		<path class="st5" d="M168.3,251.5H163v6.7h5.3V251.5z"/>
		<path class="st5" d="M158.6,251.5h-5.3v6.7h5.3V251.5z"/>
		<path class="st5" d="M149,251.5h-5.3v6.7h5.3V251.5z"/>
		<path class="st5" d="M139.3,251.5H134v6.7h5.3V251.5z"/>
		<path class="st5" d="M129.6,251.5h-5.3v6.7h5.3V251.5z"/>
		<path class="st5" d="M111.9,251.5h-5.3v6.7h5.3V251.5z"/>
		<path class="st5" d="M102.3,251.5H97v6.7h5.3V251.5z"/>
		<path class="st5" d="M92.6,251.5h-5.3v6.7h5.3V251.5z"/>
		<path class="st5" d="M187.6,265.7h-5.3v6.7h5.3V265.7z"/>
		<path class="st5" d="M177.9,265.7h-5.3v6.7h5.3V265.7z"/>
		<path class="st5" d="M168.3,265.7H163v6.7h5.3V265.7z"/>
		<path class="st5" d="M158.6,265.7h-5.3v6.7h5.3V265.7z"/>
		<path class="st5" d="M149,265.7h-5.3v6.7h5.3V265.7z"/>
		<path class="st5" d="M139.3,265.7H134v6.7h5.3V265.7z"/>
		<path class="st5" d="M129.6,265.7h-5.3v6.7h5.3V265.7z"/>
		<path class="st5" d="M111.9,265.7h-5.3v6.7h5.3V265.7z"/>
		<path class="st5" d="M102.3,265.7H97v6.7h5.3V265.7z"/>
		<path class="st5" d="M92.6,265.7h-5.3v6.7h5.3V265.7z"/>
		<path class="st6" d="M178.8,55.9H96.1V46c0-1,0.2-2,0.6-2.9c0.4-0.9,0.9-1.8,1.6-2.5c0.7-0.7,1.5-1.3,2.5-1.6
			c0.9-0.4,1.9-0.6,2.9-0.6h67.6c1,0,2,0.2,2.9,0.6c0.9,0.4,1.8,0.9,2.5,1.6c0.7,0.7,1.3,1.5,1.6,2.5c0.4,0.9,0.6,1.9,0.6,2.9V55.9z
			"/>
		<path class="st7" d="M85.2,416.7H57.6l2.8-176.8l38.2-2.3L85.2,416.7z"/>
		<path class="st7" d="M140.6,324.4h-31.4L88,233.3l47.4,6.1L140.6,324.4z"/>
		<path class="st8" d="M183.1,207.5c-11-17.4-19.2-36.5-19.2-36.5l-23.9,16.3l17.9,28.4c2.3,4,12,2.9,14.5-0.9L183.1,207.5z"/>
		<path class="st1" d="M134.9,135l-27.1-10.7H79.6l-31.3,16.1c-2.7,1.6-2.2,4.8-1.2,7.8l13.1,90.2l74.9,0.4l10.1-93.3
			C146,142.5,137.7,136.3,134.9,135z"/>
		<path class="st1" d="M137.9,136.8c17.9,13.1,26,34.3,26,34.3l-25.5,24.6l-28.9-28.1L137.9,136.8z"/>
		<path class="st1" d="M48.3,140.4c0,0-21.4,7.1-25.8,45.1L64.8,198l11.8-36.7L48.3,140.4z"/>
		<path class="st9" d="M77.3,72.7c2.7,8.1,3.8,16.7,3.2,25.3c-0.2,2.4-0.5,4.8,0.1,7.2c0.6,2.3,2.3,4.6,4.7,4.9
			c1-6.5,1.9-13.1,2.9-19.6c0.4-2.4,0.7-5,0.1-7.3c-0.8-2.3-2.2-4.4-4.2-5.8C81.9,75.6,79.7,74,77.3,72.7z"/>
		<path class="st10" d="M87.6,133.6c4.1,2.1,9,2.2,13.5,1c4.5-1.2,8.6-4.3,12-8.3c-1.7-2.6-3.3-3.7-4.5-6.6
			c-0.2-0.5-0.4-1.1-0.6-1.6c-0.9-2.3-1.5-4.7-1.9-7.1c-8.5-2.7-16.4-10.5-22.9-16.6c0.7,6.5,0.2,16.6-1.6,22.8v0.1
			c-0.5,2-1.2,3.9-2,5.8C77.8,127.3,83.5,131.6,87.6,133.6z"/>
		<path class="st8" d="M81.5,117.3L81.5,117.3c2.4,1.7,5,2.9,7.8,3.7c0.3,0.1,0.7,0.2,1,0.2c1.1,0.3,2.3,0.4,3.4,0.5
			c4.4,0.3,8.8-0.6,12.7-2.6c0.5-0.3,1-0.6,1.6-0.9c-0.9-2.3-1.5-4.7-1.9-7.1c-8.5-2.7-16.4-10.5-22.9-16.6
			c0.7,6.5,0.2,16.6-1.6,22.8L81.5,117.3z"/>
		<path class="st9" d="M110.1,69.9c1.4,5.6,0.8,11.5-1.8,16.7C106,81.4,106.9,74.4,110.1,69.9z"/>
		<path class="st10" d="M83.7,86c-0.4-0.8-0.8-1.6-1.4-2.4c-0.6-0.7-1.4-1.2-2.3-1.4c-1.7-0.2-3.2,1.1-3.7,2.8
			c-0.5,1.6-0.1,3.3,0.3,4.9c0.3,1.3,0.9,2.4,1.6,3.5c0.7,1.1,1.8,1.8,3.1,2.2c0.6,0.1,1.3,0.1,1.9-0.1c0.6-0.2,1.2-0.6,1.6-1.1
			C84,91.6,83.4,88.9,83.7,86z"/>
		<path class="st10" d="M83.4,93.1c0,0.3,0.1,0.7,0.1,1c0.8,5.9,2.6,12,6.8,16.3c3.7,3.8,9.3,5.8,14.5,4.7
			c5.2-1.1,9.7-5.3,10.7-10.5c0.6-3.5-0.3-7.1-1.6-10.5c-1.3-3.3-3-6.5-4.2-9.9c-1.1-3.4-1.9-8.1-0.6-11.4l-0.4-0.3
			c-7.7-4.6-16.4-5.6-24.5-1.8C82.7,78.1,82.4,85.7,83.4,93.1z"/>
		<path class="st9" d="M114.9,65.8c-1.1,2.9-3.1,5.3-5.7,6.9c-2.1,1.3-4.4,2.1-6.8,2.4c-5.4,0.7-10.9-0.8-16-2.9
			c-0.2,0.3-4.6,6.9-1.3,17l-4.6-9.9c-0.5-1.5-1.1-2.9-1.9-4.2c-0.9-1.5-1.9-2.9-2.5-4.5c-0.6-1.6-0.5-3.6,0.8-4.8
			c1.5-1.5,4-1.1,6-1.8c3.3-1.2,4.7-5.1,6.7-8c0.8-1.1,1.6-2.1,2.6-3c2.3-2,5.1-3.3,8.2-3.7c2.2-0.3,4.4,0,6.5,0.8
			c2.1,0.8,3.9,2,5.4,3.6c1.4,1.6,2.4,3.6,2.9,5.8C115.7,61.5,115.6,63.8,114.9,65.8z"/>
		<path class="st7" d="M135.4,239.4l-75,0.5c0,0-1.1-54.1,1.9-89c1.2-14.4,19,17.1,63.6-2.9C133.4,144.6,135.4,239.4,135.4,239.4z"
			/>
		<path class="st7" d="M69.4,153.9h-7.1v-22.5l7.1-2.6V153.9z"/>
		<path class="st7" d="M122.7,155h6.8v-22.5l-6.8-2.6V155z"/>
		<path class="st10" d="M55.6,266.6c0,0-23.4-17.7-33.7-34.1c-7.1-11.4,0.5-47,0.5-47l26.7,7.9l-8.5,27.2l19.5,33.3l-0.6,34.6
			c0,0-8-5.9-10.2-15c-2.6-11,8.6-18.9,8.6-18.9"/>
		<path class="st10" d="M60.2,253.9l4,16.4c0.5,1.9-1.3,3.7-3.2,3.1c-0.4-0.1-0.7-0.3-0.9-0.6c-0.2-0.3-0.4-0.6-0.5-1
			C59,268.6,60.2,253.9,60.2,253.9z"/>
		<path class="st11" d="M115.8,175.4c-12.1,1.5-24.3,1.5-36.4,0c0,0-1.3,23.3,18.2,24.5C117,201.1,115.8,175.4,115.8,175.4z"/>
		<path class="st11" d="M96.3,268.5l12.9,55.9h4.9l-11.7-57.1L96.3,268.5z"/>
		<path class="st10" d="M120.5,201.8c0.5-1.6,1.6-3,3.1-4c1.4-0.9,3.2-1.3,4.9-1.2l20.7,1.1c10.6,1.1,14.7,0.8,24.8,3.5
			c0.2,0,0.3,0.1,0.5,0.2l4.4,2.3c1.5,0.5,2.7,1.4,3.6,2.7c0.9,1.2,1.4,2.7,1.4,4.3c0,1.5-0.1,3.1-0.5,4.6
			c-1.7,6.4-11.3,9.4-17.6,7.5l-46.9-13.4c-0.2-0.1-0.4-0.2-0.5-0.4c-0.1-0.2-0.1-0.4-0.1-0.7L120.5,201.8z"/>
		<path class="st10" d="M101.6,195.4l0.2,8c0.2,3.1,1.4,4.4,4.4,4.8l14.6,1.8l2.7-21.1l-15.9-2.2
			C103.6,186.2,101.4,191.3,101.6,195.4z"/>
		<path class="st10" d="M130,197.7c-0.8-0.9-4.9-9.2-6.4-20.4s-7-3.7-5.3,4.4s-6.4,6-6.4,6l10.5,13L130,197.7z"/>
		<path class="st8" d="M101.9,192.1l7.2,0.6c0.2,0,0.5,0.1,0.6,0.3c0.2,0.2,0.2,0.4,0.2,0.7c0,0.2-0.1,0.3-0.2,0.5
			c-0.1,0.1-0.1,0.1-0.2,0.1c-0.3-0.1-7.9-1-7.9-1L101.9,192.1z"/>
		<path class="st8" d="M101.6,197.1l7.4,0.1c0.2,0,0.4,0,0.5,0.1c0.2,0.1,0.3,0.3,0.3,0.5c0,0.1,0,0.2,0,0.3c0,0.1-0.1,0.2-0.1,0.3
			c0,0.1-0.1,0.1-0.1,0.1c-0.3-0.1-7.9-0.1-7.9-0.1L101.6,197.1z"/>
		<path class="st8" d="M101.8,201.5l7.4-0.1c0.1,0,0.3,0,0.4,0.1c0.1,0.1,0.2,0.2,0.3,0.3c0.1,0.1,0.1,0.3,0.1,0.4
			c0,0.1-0.1,0.3-0.1,0.4c-0.1,0.1-0.1,0.1-0.2,0.1c-0.3-0.1-7.9,0.1-7.9,0.1L101.8,201.5z"/>
		<path class="st8" d="M59.9,272.4c0,0-2.5-6.1-1.9-9.6C58.7,259.4,59.9,272.4,59.9,272.4z"/>
		<path class="st4" d="M496.2,124.6H219.3v192.8h276.9V124.6z"/>
		<path class="st3" d="M476.5,152.9H238.9v164.5h237.6V152.9z"/>
		<path class="st3" d="M234.9,249.2h-12.6v6.2h12.6V249.2z"/>
		<path class="st3" d="M471.1,127.7h-11.9v4.7h11.9V127.7z"/>
		<path class="st3" d="M462.1,134.5h-11.9v4.7h11.9V134.5z"/>
		<path class="st6" d="M484.9,142.3H230.6v12.9h254.2V142.3z"/>
		<path class="st6" d="M476.5,155.2H238.9v34.2h237.6V155.2z"/>
		<path class="st3" d="M476.5,155.5H238.9v1.7h237.6V155.5z"/>
		<path class="st3" d="M476.5,161.2H238.9v1.7h237.6V161.2z"/>
		<path class="st3" d="M476.5,166.9H238.9v1.7h237.6V166.9z"/>
		<path class="st3" d="M476.5,172.6H238.9v1.7h237.6V172.6z"/>
		<path class="st3" d="M476.5,178.3H238.9v1.7h237.6V178.3z"/>
		<path class="st3" d="M476.5,184H238.9v1.7h237.6V184z"/>
		<path class="st3" d="M263.7,52.6h188c4.4,0,7.9,2.7,7.9,6v44.9c0,3.3-3.5,6-7.9,6h-188c-4.4,0-7.9-2.7-7.9-6V58.6
			C255.8,55.3,259.4,52.6,263.7,52.6z"/>
		<path class="st1" d="M268.9,57.3h177.6c4.4,0,7.9,2.7,7.9,6v35.5c0,3.3-3.5,6-7.9,6H268.9c-4.4,0-7.9-2.7-7.9-6V63.3
			C261,60,264.6,57.3,268.9,57.3z"/>
		<path class="st3" d="M334,104.8h-7.9v19.9h7.9V104.8z"/>
		<path class="st3" d="M274.8,104.8h-7.9v19.9h7.9V104.8z"/>
		<path class="st3" d="M452.5,104.8h-7.9v19.9h7.9V104.8z"/>
		<path class="st3" d="M393.3,104.8h-7.9v19.9h7.9V104.8z"/>
		<path class="st3" d="M293.2,96.2c-0.1,0-0.1,0-0.2,0c-0.1,0-0.1-0.1-0.2-0.1l-3.5-3.5c0-0.1-0.1-0.1-0.1-0.2c0-0.1,0-0.1,0-0.2
			c0-0.1,0-0.1,0.1-0.2s0.1-0.1,0.1-0.2c0.1-0.1,0.2-0.1,0.3-0.1c0.1,0,0.2,0,0.3,0.1l3.5,3.5c0.1,0.1,0.2,0.3,0.2,0.4
			c0,0.1-0.1,0.3-0.2,0.4c0,0.1-0.1,0.1-0.2,0.1C293.3,96.2,293.2,96.2,293.2,96.2z"/>
		<path class="st3" d="M289.6,96.2c-0.2,0-0.3-0.1-0.4-0.2c-0.1-0.1-0.2-0.3-0.2-0.4c0-0.1,0-0.2,0-0.2c0-0.1,0.1-0.1,0.1-0.2
			l3.5-3.5c0-0.1,0.1-0.1,0.2-0.2c0.1,0,0.1-0.1,0.2-0.1c0.1,0,0.2,0,0.2,0c0.1,0,0.1,0,0.2,0.1c0.1,0.1,0.2,0.2,0.2,0.4
			c0,0.1,0,0.3-0.1,0.4c0,0-0.1,0.1-0.1,0.1l-0.1,0.1l-3.5,3.5c0,0.1-0.1,0.1-0.2,0.1C289.8,96.2,289.7,96.2,289.6,96.2z"/>
		<path class="st3" d="M327.5,73.4c-0.1,0-0.1,0-0.2,0c-0.1,0-0.1-0.1-0.2-0.1l-3.5-3.5c-0.1-0.1-0.1-0.3-0.1-0.4
			c0-0.2,0.1-0.3,0.2-0.4c0.1-0.1,0.2-0.1,0.3-0.1c0.1,0,0.2,0,0.3,0.1l3.5,3.5c0.1,0.1,0.2,0.3,0.2,0.4c0,0.1-0.1,0.3-0.2,0.4
			c0,0.1-0.1,0.1-0.2,0.1C327.6,73.4,327.5,73.4,327.5,73.4z"/>
		<path class="st3" d="M323.9,73.4c-0.2,0-0.3-0.1-0.4-0.2c-0.1-0.1-0.2-0.3-0.2-0.4c0-0.1,0-0.2,0-0.2s0.1-0.1,0.1-0.2l3.5-3.5
			c0-0.1,0.1-0.1,0.2-0.2c0.1,0,0.1-0.1,0.2-0.1c0.1,0,0.1,0,0.2,0c0.1,0,0.1,0,0.2,0.1c0.1,0.1,0.2,0.2,0.2,0.4
			c0,0.1,0,0.3-0.1,0.4c0,0-0.1,0.1-0.1,0.1l-0.1,0.1l-3.5,3.5c0,0.1-0.1,0.1-0.2,0.1C324.1,73.4,324,73.4,323.9,73.4z"/>
		<path class="st3" d="M450.8,68.1c-0.1,0-0.2,0-0.2,0c-0.1,0-0.1-0.1-0.2-0.1l-3.5-3.5c-0.1-0.1-0.2-0.2-0.2-0.4
			c0-0.2,0-0.3,0.1-0.4c0.1-0.1,0.2-0.2,0.4-0.2c0.1,0,0.3,0,0.4,0.1c0,0,0.1,0.1,0.1,0.1l3.5,3.5c0.1,0.1,0.2,0.3,0.2,0.4
			c0,0.1-0.1,0.3-0.2,0.4c-0.1,0.1-0.1,0.1-0.2,0.1C450.9,68,450.8,68.1,450.8,68.1z"/>
		<path class="st3" d="M447.2,68.1c-0.2,0-0.3-0.1-0.4-0.2c-0.1-0.1-0.2-0.3-0.2-0.4c0-0.1,0-0.2,0-0.2c0-0.1,0.1-0.1,0.1-0.2
			l3.5-3.5c0.1-0.1,0.2-0.1,0.4-0.1c0.1,0,0.3,0,0.4,0.1c0.1,0.1,0.2,0.2,0.2,0.4c0,0.1,0,0.3-0.1,0.4l-0.1,0.1l-3.5,3.5
			c0,0.1-0.1,0.1-0.2,0.1C447.4,68,447.3,68.1,447.2,68.1z"/>
		<path class="st3" d="M277.9,68.1c-0.8,0-1.6-0.3-2.1-0.9c-0.6-0.6-0.9-1.3-0.9-2.2c0-0.8,0.3-1.6,0.9-2.1c0.6-0.6,1.3-0.9,2.1-0.9
			c0.8,0,1.6,0.3,2.1,0.9c0.6,0.6,0.9,1.3,0.9,2.1c0,0.8-0.3,1.6-0.9,2.2C279.5,67.8,278.7,68.1,277.9,68.1L277.9,68.1z M277.9,63.2
			c-0.4,0-0.8,0.1-1.1,0.3c-0.3,0.2-0.6,0.5-0.7,0.9c-0.1,0.4-0.2,0.7-0.1,1.1c0.1,0.4,0.3,0.7,0.5,1c0.3,0.3,0.6,0.5,1,0.5
			c0.4,0.1,0.8,0,1.1-0.1c0.4-0.1,0.7-0.4,0.9-0.7c0.2-0.3,0.3-0.7,0.3-1.1c0-0.5-0.2-1-0.6-1.4C278.9,63.4,278.4,63.2,277.9,63.2
			L277.9,63.2z"/>
		<path class="st3" d="M428,99.5c-0.8,0-1.6-0.3-2.1-0.9c-0.6-0.6-0.9-1.3-0.9-2.2c0-0.8,0.3-1.6,0.9-2.1c0.6-0.6,1.3-0.9,2.1-0.9
			c0.8,0,1.6,0.3,2.1,0.9c0.6,0.6,0.9,1.3,0.9,2.1c0,0.8-0.3,1.6-0.9,2.2C429.7,99.2,428.9,99.5,428,99.5L428,99.5z M428,94.5
			c-0.4,0-0.8,0.1-1.1,0.3c-0.3,0.2-0.6,0.5-0.7,0.9c-0.1,0.4-0.2,0.7-0.1,1.1c0.1,0.4,0.3,0.7,0.5,1c0.3,0.3,0.6,0.5,1,0.5
			c0.4,0.1,0.8,0,1.1-0.1c0.4-0.1,0.7-0.4,0.9-0.7c0.2-0.3,0.3-0.7,0.3-1.1c0-0.5-0.2-1-0.6-1.4C429,94.7,428.5,94.5,428,94.5
			L428,94.5z"/>
		<path class="st3" d="M399.4,76.6c-0.8,0-1.6-0.3-2.1-0.9c-0.6-0.6-0.9-1.3-0.9-2.2s0.3-1.6,0.9-2.1c0.6-0.6,1.3-0.9,2.1-0.9
			c0.8,0,1.6,0.3,2.1,0.9c0.6,0.6,0.9,1.3,0.9,2.1s-0.3,1.6-0.9,2.2C401.1,76.3,400.3,76.6,399.4,76.6L399.4,76.6z M399.4,71.7
			c-0.4,0-0.8,0.1-1.1,0.3c-0.3,0.2-0.6,0.5-0.7,0.9c-0.1,0.4-0.2,0.7-0.1,1.1c0.1,0.4,0.3,0.7,0.5,1c0.3,0.3,0.6,0.5,1,0.5
			c0.4,0.1,0.8,0,1.1-0.1c0.4-0.1,0.7-0.4,0.9-0.7c0.2-0.3,0.3-0.7,0.3-1.1c0-0.5-0.2-1-0.6-1.4C400.5,71.9,400,71.7,399.4,71.7
			L399.4,71.7z"/>
		<path class="st3" d="M369.5,97.8h-17.4c-0.2,0-0.3-0.1-0.4-0.2c-0.1-0.1-0.2-0.3-0.2-0.4V79.9c0-0.2,0.1-0.3,0.2-0.4
			c0.1-0.1,0.3-0.2,0.4-0.2h17.4c0.2,0,0.3,0.1,0.4,0.2s0.2,0.3,0.2,0.4v17.4c0,0.2-0.1,0.3-0.2,0.4S369.7,97.8,369.5,97.8z
			 M352.8,96.7H369V80.4h-16.2V96.7z"/>
		<path class="st3" d="M369.5,97.8c-0.1,0-0.1,0-0.2,0c-0.1,0-0.1-0.1-0.2-0.1l-17.4-17.4c-0.1-0.1-0.2-0.3-0.2-0.4
			c0-0.2,0.1-0.3,0.2-0.4c0.1-0.1,0.3-0.2,0.4-0.2c0.2,0,0.3,0.1,0.4,0.2l17.4,17.4c0.1,0.1,0.1,0.1,0.1,0.2c0,0.1,0,0.1,0,0.2
			c0,0.1,0,0.2,0,0.2c0,0.1-0.1,0.1-0.1,0.2c-0.1,0.1-0.1,0.1-0.2,0.1C369.7,97.8,369.6,97.8,369.5,97.8z"/>
		<path class="st3" d="M352.2,97.8c-0.1,0-0.1,0-0.2,0c-0.1,0-0.1-0.1-0.2-0.1c-0.1-0.1-0.1-0.1-0.1-0.2c0-0.1,0-0.1,0-0.2
			c0-0.1,0-0.2,0-0.2c0-0.1,0.1-0.1,0.1-0.2l17.4-17.4c0.1-0.1,0.1-0.1,0.2-0.1c0.1,0,0.1,0,0.2,0c0.1,0,0.1,0,0.2,0
			c0.1,0,0.1,0.1,0.2,0.1c0.1,0.1,0.1,0.1,0.1,0.2c0,0.1,0,0.1,0,0.2c0,0.1,0,0.2,0,0.2c0,0.1-0.1,0.1-0.1,0.2l-17.4,17.4
			C352.5,97.7,352.3,97.8,352.2,97.8z"/>
		<path class="st3" d="M352.4,97.8H335c-0.2,0-0.3-0.1-0.4-0.2s-0.2-0.3-0.2-0.4V79.9c0-0.2,0.1-0.3,0.2-0.4s0.3-0.2,0.4-0.2h17.4
			c0.2,0,0.3,0.1,0.4,0.2c0.1,0.1,0.2,0.3,0.2,0.4v17.4c0,0.2-0.1,0.3-0.2,0.4C352.7,97.7,352.6,97.8,352.4,97.8z M335.6,96.7h16.2
			V80.4h-16.2V96.7z"/>
		<path class="st3" d="M352.4,97.8c-0.1,0-0.1,0-0.2,0c-0.1,0-0.1-0.1-0.2-0.1l-17.4-17.4c-0.1-0.1-0.1-0.1-0.1-0.2
			c0-0.1,0-0.1,0-0.2c0-0.1,0-0.1,0-0.2c0-0.1,0.1-0.1,0.1-0.2c0.1-0.1,0.1-0.1,0.2-0.1c0.1,0,0.1,0,0.2,0c0.1,0,0.1,0,0.2,0
			c0.1,0,0.1,0.1,0.2,0.1l17.4,17.4c0.1,0.1,0.1,0.1,0.1,0.2c0,0.1,0,0.1,0,0.2c0,0.1,0,0.2,0,0.2c0,0.1-0.1,0.1-0.1,0.2
			c-0.1,0.1-0.1,0.1-0.2,0.1C352.5,97.8,352.5,97.8,352.4,97.8z"/>
		<path class="st3" d="M335,97.8c-0.1,0-0.1,0-0.2,0c-0.1,0-0.1-0.1-0.2-0.1c-0.1-0.1-0.1-0.1-0.1-0.2c0-0.1,0-0.1,0-0.2
			c0-0.1,0-0.2,0-0.2c0-0.1,0.1-0.1,0.1-0.2L352,79.5c0.1-0.1,0.3-0.2,0.4-0.2c0.2,0,0.3,0.1,0.4,0.2c0.1,0.1,0.2,0.3,0.2,0.4
			c0,0.2-0.1,0.3-0.2,0.4l-17.4,17.4C335.3,97.7,335.2,97.8,335,97.8z"/>
		<path class="st3" d="M386.9,97.8h-17.4c-0.2,0-0.3-0.1-0.4-0.2s-0.2-0.3-0.2-0.4V79.9c0-0.2,0.1-0.3,0.2-0.4s0.3-0.2,0.4-0.2h17.4
			c0.2,0,0.3,0.1,0.4,0.2c0.1,0.1,0.2,0.3,0.2,0.4v17.4c0,0.2-0.1,0.3-0.2,0.4C387.2,97.7,387,97.8,386.9,97.8z M370.1,96.7h16.2
			V80.4h-16.2V96.7z"/>
		<path class="st3" d="M386.9,97.8c-0.1,0-0.1,0-0.2,0c-0.1,0-0.1-0.1-0.2-0.1l-17.3-17.4c-0.1-0.1-0.2-0.3-0.2-0.4
			c0-0.2,0.1-0.3,0.2-0.4c0.1-0.1,0.3-0.2,0.4-0.2c0.2,0,0.3,0.1,0.4,0.2l17.4,17.4c0.1,0.1,0.1,0.1,0.1,0.2c0,0.1,0,0.1,0,0.2
			c0,0.1,0,0.2,0,0.2c0,0.1-0.1,0.1-0.1,0.2c-0.1,0.1-0.1,0.1-0.2,0.1C387,97.8,387,97.8,386.9,97.8z"/>
		<path class="st3" d="M369.5,97.8c-0.1,0-0.1,0-0.2,0c-0.1,0-0.1-0.1-0.2-0.1c-0.1-0.1-0.1-0.1-0.1-0.2c0-0.1,0-0.1,0-0.2
			c0-0.1,0-0.2,0-0.2c0-0.1,0.1-0.1,0.1-0.2l17.4-17.4c0.1-0.1,0.3-0.2,0.4-0.2s0.3,0.1,0.4,0.2c0.1,0.1,0.2,0.3,0.2,0.4
			c0,0.2-0.1,0.3-0.2,0.4l-17.4,17.4c-0.1,0.1-0.1,0.1-0.2,0.1C369.7,97.8,369.6,97.8,369.5,97.8z"/>
		<path class="st3" d="M369.5,80.4h-17.4c-0.2,0-0.3-0.1-0.4-0.2c-0.1-0.1-0.2-0.3-0.2-0.4V62.5c0-0.2,0.1-0.3,0.2-0.4
			c0.1-0.1,0.3-0.2,0.4-0.2h17.4c0.2,0,0.3,0.1,0.4,0.2c0.1,0.1,0.2,0.3,0.2,0.4v17.4c0,0.2-0.1,0.3-0.2,0.4
			C369.8,80.4,369.7,80.4,369.5,80.4z M352.8,79.3H369V63.1h-16.2V79.3z"/>
		<path class="st3" d="M369.5,80.4c-0.1,0-0.1,0-0.2,0c-0.1,0-0.1-0.1-0.2-0.1l-17.4-17.4c-0.1-0.1-0.2-0.3-0.2-0.4
			c0-0.2,0.1-0.3,0.2-0.4c0.1-0.1,0.3-0.2,0.4-0.2c0.2,0,0.3,0.1,0.4,0.2l17.4,17.4c0.1,0.1,0.1,0.1,0.1,0.2c0,0.1,0,0.1,0,0.2
			s0,0.2,0,0.2c0,0.1-0.1,0.1-0.1,0.2c-0.1,0.1-0.1,0.1-0.2,0.1C369.7,80.4,369.6,80.4,369.5,80.4z"/>
		<path class="st3" d="M352.2,80.4c-0.1,0-0.1,0-0.2,0c-0.1,0-0.1-0.1-0.2-0.1c-0.1-0.1-0.1-0.1-0.1-0.2c0-0.1,0-0.1,0-0.2
			s0-0.2,0-0.2c0-0.1,0.1-0.1,0.1-0.2l17.4-17.4c0.1-0.1,0.1-0.1,0.2-0.1c0.1,0,0.1,0,0.2,0c0.1,0,0.1,0,0.2,0
			c0.1,0,0.1,0.1,0.2,0.1c0.1,0.1,0.1,0.1,0.1,0.2c0,0.1,0,0.1,0,0.2c0,0.1,0,0.2,0,0.2c0,0.1-0.1,0.1-0.1,0.2l-17.4,17.4
			C352.5,80.4,352.3,80.4,352.2,80.4z"/>
		<path class="st12" d="M333.7,291.6v9.9l5.3-1.7v-10L333.7,291.6z"/>
		<path class="st13" d="M292,263.8h-47v47h47V263.8z"/>
		<path class="st14" d="M315.5,256l-23.5,7.8v47l23.5-7.8V256z"/>
		<path class="st15" d="M244.9,263.8l23.5-7.8h47l-23.5,7.8H244.9z"/>
		<path class="st16" d="M290,266.8h-16v6.9h16V266.8z"/>
		<path class="st16" d="M275.9,267.5h-0.3v5.5h0.3V267.5z"/>
		<path class="st16" d="M276.7,267.5h-0.3v5.5h0.3V267.5z"/>
		<path class="st16" d="M277.6,267.5h-0.3v5.5h0.3V267.5z"/>
		<path class="st16" d="M278.4,267.5h-0.3v5.5h0.3V267.5z"/>
		<path class="st16" d="M278.4,267.5h-0.3v5.5h0.3V267.5z"/>
		<path class="st16" d="M279.3,267.5H279v5.5h0.3V267.5z"/>
		<path class="st16" d="M280.1,267.5h-0.3v5.5h0.3V267.5z"/>
		<path class="st16" d="M281,267.5h-0.3v5.5h0.3V267.5z"/>
		<path class="st16" d="M281.5,267.5h-0.3v5.5h0.3V267.5z"/>
		<path class="st16" d="M282.3,267.5H282v5.5h0.3V267.5z"/>
		<path class="st16" d="M283.1,267.5h-0.3v5.5h0.3V267.5z"/>
		<path class="st16" d="M284,267.5h-0.3v5.5h0.3V267.5z"/>
		<path class="st16" d="M284.8,267.5h-0.3v5.5h0.3V267.5z"/>
		<path class="st16" d="M285.7,267.5h-0.3v5.5h0.3V267.5z"/>
		<path class="st16" d="M285.7,267.5h-0.3v5.5h0.3V267.5z"/>
		<path class="st16" d="M286.5,267.5h-0.3v5.5h0.3V267.5z"/>
		<path class="st16" d="M287.4,267.5h-0.3v5.5h0.3V267.5z"/>
		<path class="st16" d="M288.2,267.5h-0.3v5.5h0.3V267.5z"/>
		<path class="st17" d="M283.9,256l-19.5,7.8h8.1l18.9-7.8H283.9z"/>
		<path class="st17" d="M264.4,263.8v9.1h8.1l0.1-9.1H264.4z"/>
		<path class="st17" d="M264.4,302v9.1h8.1l0.1-9.1H264.4z"/>
		<path class="st13" d="M365.8,275h-36.1v36.1h36.1V275z"/>
		<path class="st14" d="M383.9,269l-18,6v36.1l18-6V269z"/>
		<path class="st15" d="M329.8,275l18-6h36.1l-18,6H329.8z"/>
		<path class="st12" d="M371.3,299.2v10.1l5.4-1.8v-10.1L371.3,299.2z"/>
		<path class="st12" d="M371.3,273.2v10.1l5.4-1.8v-10.1L371.3,273.2z"/>
		<path class="st14" d="M340.7,271.4l-0.7,0.3l-1.1,0.4l-3.8,1.2h36.3l5.4-1.8H340.7z"/>
		<path class="st18" d="M362.4,245.8h-26.8v26.8h26.8V245.8z"/>
		<path class="st19" d="M375.8,241.4l-13.4,4.5v26.8l13.4-4.5V241.4z"/>
		<path class="st20" d="M335.6,245.8l13.4-4.5h26.8l-13.4,4.5H335.6z"/>
		<path class="st16" d="M361.2,247.5h-9.1v3.9h9.1V247.5z"/>
		<path class="st16" d="M353.2,247.9h-0.2v3.1h0.2V247.9z"/>
		<path class="st16" d="M353.7,247.9h-0.2v3.1h0.2V247.9z"/>
		<path class="st16" d="M354.2,247.9H354v3.1h0.2V247.9z"/>
		<path class="st16" d="M354.7,247.9h-0.2v3.1h0.2V247.9z"/>
		<path class="st16" d="M354.7,247.9h-0.2v3.1h0.2V247.9z"/>
		<path class="st16" d="M355.2,247.9H355v3.1h0.2V247.9z"/>
		<path class="st16" d="M355.6,247.9h-0.2v3.1h0.2V247.9z"/>
		<path class="st16" d="M356.1,247.9h-0.2v3.1h0.2V247.9z"/>
		<path class="st16" d="M356.4,247.9h-0.2v3.1h0.2V247.9z"/>
		<path class="st16" d="M356.9,247.9h-0.2v3.1h0.2V247.9z"/>
		<path class="st16" d="M357.3,247.9h-0.2v3.1h0.2V247.9z"/>
		<path class="st16" d="M357.8,247.9h-0.2v3.1h0.2V247.9z"/>
		<path class="st16" d="M358.3,247.9h-0.2v3.1h0.2V247.9z"/>
		<path class="st16" d="M358.8,247.9h-0.2v3.1h0.2V247.9z"/>
		<path class="st16" d="M358.8,247.9h-0.2v3.1h0.2V247.9z"/>
		<path class="st16" d="M359.3,247.9h-0.2v3.1h0.2V247.9z"/>
		<path class="st16" d="M359.8,247.9h-0.2v3.1h0.2V247.9z"/>
		<path class="st16" d="M360.2,247.9h-0.2v3.1h0.2V247.9z"/>
		<path class="st21" d="M357.8,241.4l-11.1,4.5h4.6l10.7-4.5H357.8z"/>
		<path class="st21" d="M346.7,245.8v5.2h4.6l0-5.2H346.7z"/>
		<path class="st21" d="M346.7,267.5v5.2h4.6l0-5.2H346.7z"/>
		<path class="st13" d="M447.6,264.1h-47v47h47V264.1z"/>
		<path class="st14" d="M471.1,256.2l-23.5,7.8v47l23.5-7.8V256.2z"/>
		<path class="st15" d="M400.6,264.1l23.5-7.8h47l-23.5,7.8H400.6z"/>
		<path class="st12" d="M454.8,295.5v13.1l7-2.3v-13.2L454.8,295.5z"/>
		<path class="st12" d="M454.8,261.7v13.1l7-2.3v-13.2L454.8,261.7z"/>
		<path class="st14" d="M414.8,259.3l-1,0.3l-1.5,0.5l-4.9,1.5h47.4l7-2.4H414.8z"/>
		<path class="st16" d="M445.6,267.1h-16v6.9h16V267.1z"/>
		<path class="st16" d="M431.5,267.7h-0.3v5.5h0.3V267.7z"/>
		<path class="st16" d="M432.3,267.7H432v5.5h0.3V267.7z"/>
		<path class="st16" d="M433.2,267.7h-0.3v5.5h0.3V267.7z"/>
		<path class="st16" d="M434,267.7h-0.3v5.5h0.3V267.7z"/>
		<path class="st16" d="M434.1,267.7h-0.3v5.5h0.3V267.7z"/>
		<path class="st16" d="M434.9,267.7h-0.3v5.5h0.3V267.7z"/>
		<path class="st16" d="M435.8,267.7h-0.3v5.5h0.3V267.7z"/>
		<path class="st16" d="M436.6,267.7h-0.3v5.5h0.3V267.7z"/>
		<path class="st16" d="M437.1,267.7h-0.3v5.5h0.3V267.7z"/>
		<path class="st16" d="M437.9,267.7h-0.3v5.5h0.3V267.7z"/>
		<path class="st16" d="M438.8,267.7h-0.3v5.5h0.3V267.7z"/>
		<path class="st16" d="M439.6,267.7h-0.3v5.5h0.3V267.7z"/>
		<path class="st16" d="M440.5,267.7h-0.3v5.5h0.3V267.7z"/>
		<path class="st16" d="M441.3,267.7H441v5.5h0.3V267.7z"/>
		<path class="st16" d="M441.3,267.7H441v5.5h0.3V267.7z"/>
		<path class="st16" d="M442.2,267.7h-0.3v5.5h0.3V267.7z"/>
		<path class="st16" d="M443,267.7h-0.3v5.5h0.3V267.7z"/>
		<path class="st16" d="M443.9,267.7h-0.3v5.5h0.3V267.7z"/>
		<path class="st22" d="M440.5,224.6h-40.3v40.3h40.3V224.6z"/>
		<path class="st17" d="M460.6,217.8l-20.2,6.7v40.3l20.2-6.7V217.8z"/>
		<path class="st23" d="M400.2,224.6l20.2-6.7h40.3l-20.2,6.7H400.2z"/>
		<path class="st24" d="M446.6,251.5v11.2l6-2v-11.3L446.6,251.5z"/>
		<path class="st24" d="M446.6,222.5v11.2l6-2v-11.3L446.6,222.5z"/>
		<path class="st17" d="M412.3,220.5l-0.8,0.3l-1.3,0.4l-4.2,1.3h40.6l6-2H412.3z"/>
		<path class="st16" d="M438.8,227.1h-13.7v5.9h13.7V227.1z"/>
		<path class="st16" d="M426.7,227.7h-0.3v4.7h0.3V227.7z"/>
		<path class="st16" d="M427.4,227.7h-0.3v4.7h0.3V227.7z"/>
		<path class="st16" d="M428.1,227.7h-0.3v4.7h0.3V227.7z"/>
		<path class="st16" d="M428.9,227.7h-0.3v4.7h0.3V227.7z"/>
		<path class="st16" d="M428.9,227.7h-0.3v4.7h0.3V227.7z"/>
		<path class="st16" d="M429.6,227.7h-0.3v4.7h0.3V227.7z"/>
		<path class="st16" d="M430.3,227.7h-0.3v4.7h0.3V227.7z"/>
		<path class="st16" d="M431,227.7h-0.3v4.7h0.3V227.7z"/>
		<path class="st16" d="M431.5,227.7h-0.3v4.7h0.3V227.7z"/>
		<path class="st16" d="M432.2,227.7h-0.3v4.7h0.3V227.7z"/>
		<path class="st16" d="M432.9,227.7h-0.3v4.7h0.3V227.7z"/>
		<path class="st16" d="M433.6,227.7h-0.3v4.7h0.3V227.7z"/>
		<path class="st16" d="M434.3,227.7h-0.3v4.7h0.3V227.7z"/>
		<path class="st16" d="M435.1,227.7h-0.3v4.7h0.3V227.7z"/>
		<path class="st16" d="M435.1,227.7h-0.3v4.7h0.3V227.7z"/>
		<path class="st16" d="M435.8,227.7h-0.3v4.7h0.3V227.7z"/>
		<path class="st16" d="M436.5,227.7h-0.3v4.7h0.3V227.7z"/>
		<path class="st16" d="M437.3,227.7H437v4.7h0.3V227.7z"/>
		<path class="st22" d="M286.5,228.1h-33.6v33.6h33.6V228.1z"/>
		<path class="st17" d="M303.2,222.5l-16.8,5.6v33.6l16.8-5.6V222.5z"/>
		<path class="st23" d="M252.9,228.1l16.8-5.6h33.6l-16.8,5.6H252.9z"/>
		<path class="st24" d="M291.6,250.6v9.4l5-1.6v-9.4L291.6,250.6z"/>
		<path class="st24" d="M291.6,226.4v9.4l5-1.6v-9.4L291.6,226.4z"/>
		<path class="st17" d="M263,224.7l-0.7,0.2l-1.1,0.4l-3.5,1.1h33.8l5-1.7H263z"/>
		<path class="st16" d="M285,230.2h-11.4v4.9H285V230.2z"/>
		<path class="st16" d="M275,230.7h-0.2v3.9h0.2V230.7z"/>
		<path class="st16" d="M275.6,230.7h-0.2v3.9h0.2V230.7z"/>
		<path class="st16" d="M276.2,230.7h-0.2v3.9h0.2V230.7z"/>
		<path class="st16" d="M276.8,230.7h-0.2v3.9h0.2V230.7z"/>
		<path class="st16" d="M276.8,230.7h-0.2v3.9h0.2V230.7z"/>
		<path class="st16" d="M277.4,230.7h-0.2v3.9h0.2V230.7z"/>
		<path class="st16" d="M278,230.7h-0.2v3.9h0.2V230.7z"/>
		<path class="st16" d="M278.6,230.7h-0.2v3.9h0.2V230.7z"/>
		<path class="st16" d="M279,230.7h-0.2v3.9h0.2V230.7z"/>
		<path class="st16" d="M279.6,230.7h-0.2v3.9h0.2V230.7z"/>
		<path class="st16" d="M280.1,230.7h-0.2v3.9h0.2V230.7z"/>
		<path class="st16" d="M280.7,230.7h-0.2v3.9h0.2V230.7z"/>
		<path class="st16" d="M281.3,230.7h-0.2v3.9h0.2V230.7z"/>
		<path class="st16" d="M281.9,230.7h-0.2v3.9h0.2V230.7z"/>
		<path class="st16" d="M282,230.7h-0.2v3.9h0.2V230.7z"/>
		<path class="st16" d="M282.6,230.7h-0.2v3.9h0.2V230.7z"/>
		<path class="st16" d="M283.2,230.7H283v3.9h0.2V230.7z"/>
		<path class="st16" d="M283.8,230.7h-0.2v3.9h0.2V230.7z"/>
		<path class="st25" d="M392.8,312c-0.2,0-0.4-0.1-0.6-0.3c-0.2-0.2-0.3-0.4-0.3-0.6V199.8c0-0.2,0.1-0.4,0.3-0.6
			c0.2-0.2,0.4-0.3,0.6-0.3c0.2,0,0.4,0.1,0.6,0.3c0.2,0.2,0.3,0.4,0.3,0.6v111.3c0,0.2-0.1,0.4-0.3,0.6
			C393.2,311.9,393,312,392.8,312z"/>
		<path class="st25" d="M324.2,312c-0.2,0-0.4-0.1-0.6-0.3c-0.2-0.2-0.3-0.4-0.3-0.6V199.8c0-0.2,0.1-0.4,0.3-0.6s0.4-0.3,0.6-0.3
			c0.2,0,0.4,0.1,0.6,0.3c0.2,0.2,0.3,0.4,0.3,0.6v111.3c0,0.2-0.1,0.4-0.3,0.6C324.6,311.9,324.4,312,324.2,312z"/>
		<path class="st25" d="M474.3,200.6H241.2c-0.2,0-0.4-0.1-0.6-0.3c-0.2-0.2-0.3-0.4-0.3-0.6c0-0.2,0.1-0.4,0.3-0.6
			c0.2-0.2,0.4-0.3,0.6-0.3h233.1c0.2,0,0.4,0.1,0.6,0.3c0.2,0.2,0.3,0.4,0.3,0.6c0,0.2-0.1,0.4-0.3,0.6
			C474.8,200.6,474.5,200.6,474.3,200.6z"/>
		<path class="st25" d="M289.3,196h-18.7c-1.7,0-3.1,1.4-3.1,3.1v1.3c0,1.7,1.4,3.1,3.1,3.1h18.7c1.7,0,3.1-1.4,3.1-3.1v-1.3
			C292.4,197.4,291,196,289.3,196z"/>
		<path class="st5" d="M278.3,202.3v-0.9h-2.2v-0.8l1.8-2.9h1.3v2.8h0.6v0.9h-0.6v0.9H278.3z M278.3,198.6l-1.2,1.9h1.2V198.6z"/>
		<path class="st5" d="M281.4,202.3V199l-0.8,0.8l-0.6-0.6l1.4-1.4h0.9v4.6L281.4,202.3z"/>
		<path class="st25" d="M368.7,196H350c-1.7,0-3.1,1.4-3.1,3.1v1.3c0,1.7,1.4,3.1,3.1,3.1h18.7c1.7,0,3.1-1.4,3.1-3.1v-1.3
			C371.8,197.4,370.4,196,368.7,196z"/>
		<path class="st5" d="M357.7,202.3v-0.9h-2.2v-0.8l1.8-2.9h1.3v2.8h0.6v0.9h-0.6v0.9H357.7z M357.7,198.6l-1.2,1.9h1.2V198.6z"/>
		<path class="st5" d="M359.8,202.3v-0.8c1.9-1.4,2.4-1.9,2.4-2.4c0-0.4-0.4-0.6-0.7-0.6c-0.2,0-0.5,0-0.7,0.1
			c-0.2,0.1-0.4,0.2-0.6,0.4l-0.6-0.6c0.2-0.2,0.5-0.4,0.8-0.6c0.3-0.1,0.6-0.2,1-0.2c1,0,1.7,0.6,1.7,1.5c0,0.8-0.6,1.5-1.8,2.3
			h1.9v0.8H359.8z"/>
		<path class="st25" d="M444.1,196h-18.7c-1.7,0-3.1,1.4-3.1,3.1v1.3c0,1.7,1.4,3.1,3.1,3.1h18.7c1.7,0,3.1-1.4,3.1-3.1v-1.3
			C447.2,197.4,445.8,196,444.1,196z"/>
		<path class="st5" d="M433.1,202.3v-0.9H431v-0.8l1.8-2.9h1.3v2.8h0.6v0.9h-0.6v0.9H433.1z M433.1,198.6l-1.2,1.9h1.2V198.6z"/>
		<path class="st5" d="M435,201.6l0.5-0.7c0.3,0.3,0.8,0.5,1.3,0.5c0.6,0,0.9-0.2,0.9-0.6c0-0.3-0.3-0.5-0.9-0.5h-0.6v-0.9h0.6
			c0.5,0,0.8-0.2,0.8-0.5c0-0.3-0.4-0.6-0.9-0.6c-0.4,0-0.8,0.2-1.1,0.5l-0.5-0.6c0.2-0.2,0.5-0.4,0.8-0.6c0.3-0.1,0.6-0.2,1-0.2
			c1.1,0,1.7,0.5,1.7,1.2c0,0.3-0.1,0.5-0.3,0.7c-0.2,0.2-0.4,0.3-0.7,0.3c0.3,0,0.5,0.1,0.7,0.3c0.2,0.2,0.3,0.5,0.3,0.8
			c0,0.8-0.7,1.3-1.8,1.3c-0.3,0-0.7,0-1-0.1C435.5,202.1,435.3,201.9,435,201.6z"/>
	</g>
</g>
</svg>
