<svg width="16" height="24" viewBox="0 0 16 24" fill="none" xmlns="http://www.w3.org/2000/svg">
<path d="M10.3975 17.4408L13.9842 20.9033C14.719 21.6111 14.719 22.7606 13.9842 23.4691C13.2502 24.1776 12.0605 24.1776 11.3273 23.4691L7.8009 20.0666L4.27758 23.4691C3.9102 23.823 3.4288 24.0001 2.94741 24.0001C2.46678 24.0001 1.98615 23.823 1.61877 23.4691C0.884775 22.7606 0.884775 21.6118 1.618 20.9033L5.20505 17.4408C3.89907 17.1536 2.63953 16.6541 1.47942 15.9515C0.601466 15.4171 0.337734 14.2977 0.890917 13.4495C1.44256 12.6001 2.60267 12.3444 3.48216 12.8788C6.10873 14.4737 9.49232 14.4741 12.1204 12.8788C12.9999 12.3444 14.1596 12.6001 14.7124 13.4495C15.2656 14.2969 15.0011 15.4171 14.1232 15.9515C12.963 16.6548 11.7035 17.1536 10.3975 17.4408Z" fill="#F68634"/>
<path fill-rule="evenodd" clip-rule="evenodd" d="M1.36719 6.19358C1.36719 9.60795 4.24481 12.3853 7.78311 12.3853C11.3222 12.3853 14.199 9.60795 14.199 6.19358C14.199 2.77811 11.3222 0 7.78311 0C4.24481 0 1.36719 2.77811 1.36719 6.19358ZM10.438 6.19234C10.438 4.77827 9.24642 3.62842 7.78151 3.62842C6.31774 3.62842 5.125 4.77827 5.125 6.19234C5.125 7.60529 6.31774 8.75589 7.78151 8.75589C9.24642 8.75589 10.438 7.60529 10.438 6.19234Z" fill="#F68634"/>
</svg>
