<svg id="_1" data-name="1" xmlns="http://www.w3.org/2000/svg" viewBox="0 0 1079.03 244.26"><defs><style>.cls-1{fill:#1fcfcb;}.cls-1,.cls-2{fill-rule:evenodd;}.cls-2{fill:gray;}</style></defs><path class="cls-1" d="M119,131.34,76,106.93,52,93.31,36.56,84.58,23.65,77.25A12.82,12.82,0,0,0,5.94,82.54,43.28,43.28,0,0,0,1.12,102.3v78.89a43.35,43.35,0,0,0,21.7,37.45l2.09,1.2,24,13.83,3,1.73,24,13.83,15.4,8.86a42.94,42.94,0,0,0,9.68,4.09,43.7,43.7,0,0,0,12,1.68h.12a12,12,0,0,0,11.89-12V141.74a12,12,0,0,0-6.07-10.4ZM101,236,76,221.58,52,207.76l-3-1.74-14.1-8.11a19.52,19.52,0,0,1-9.92-16.69c0-25.34.23-50,.23-75.57L52,120.85l24,13.63L101,148.7Z" transform="translate(-1.13 -19.6)"/><path class="cls-1" d="M880.28,71.85c41,0,64.39,17.15,64.39,59.61s-23.43,59.61-64.39,59.61-64.38-17.15-64.38-59.61,23.43-59.61,64.38-59.61ZM846,131.46c0,24.49,9.67,38,34.24,38s34.24-13.56,34.24-38-9.66-38.05-34.24-38.05S846,107,846,131.46Z" transform="translate(-1.13 -19.6)"/><path class="cls-2" d="M203,64.71,134.62,25.36a43.49,43.49,0,0,0-43.26,0L60,43.42l-24,13.84L60.07,70.94l87.57,49.68-.23,101.9-.07,27.61,24-13.81.06-27.61.22-95a11.93,11.93,0,0,0-6.05-10.4L84.11,57.11,103.33,46a19.44,19.44,0,0,1,19.32,0L191,85.39a19.27,19.27,0,0,1,9.66,16.67V219.43L203,218.1a43.23,43.23,0,0,0,21.63-37.35V102.06A43.23,43.23,0,0,0,203,64.71Z" transform="translate(-1.13 -19.6)"/><path class="cls-2" d="M337,71.85c41,0,64.39,17.15,64.39,59.61S378,191.07,337,191.07s-64.39-17.15-64.39-59.61S296.05,71.85,337,71.85Zm-34.24,59.61c0,24.49,9.67,38,34.24,38s34.24-13.56,34.24-38S361.58,93.41,337,93.41,302.77,107,302.77,131.46Z" transform="translate(-1.13 -19.6)"/><path class="cls-2" d="M425.32,188.62a7.61,7.61,0,0,1-7.54-7.52V81.81a7.47,7.47,0,0,1,7.37-7.51h23.6c3.93,0,8.51,3.75,11,7.51L508.05,156V81.65a7.47,7.47,0,0,1,7.54-7.35h13.76a7.41,7.41,0,0,1,7.54,7.51V181.1a7.51,7.51,0,0,1-7.54,7.52H502.81c-4.26,0-9-3.43-11.63-7.52l-44.24-68.42V181.1a7.61,7.61,0,0,1-7.53,7.52Z" transform="translate(-1.13 -19.6)"/><path class="cls-2" d="M567.36,188.62a7.65,7.65,0,0,1-7.53-7.68V81.81a7.64,7.64,0,0,1,7.53-7.67h15.07A7.64,7.64,0,0,1,590,81.81V120h17.2c9.34,0,16.06-4.74,22.45-16.17l12.45-22c2.95-5.22,7.37-7.67,11.47-7.67h18.51c4.09,0,4.91,3.26,2.46,7.67l-17.37,31.36c-4.09,7.35-9.5,15-20.64,17.64,7.86,1.63,16,11.59,20.64,18.61l20,31.68c2.62,4.25,1.47,7.52-2.79,7.52H656c-4.09,0-9.66-3.27-12.28-7.52l-14.09-22.2c-6.07-9.64-12.13-16.34-22.45-16.34H590v38.71a7.47,7.47,0,0,1-7.54,7.35Z" transform="translate(-1.13 -19.6)"/><path class="cls-2" d="M720.22,146.81v34.3a7.51,7.51,0,0,1-7.54,7.51H697.61a7.61,7.61,0,0,1-7.54-7.51V81.81a7.37,7.37,0,0,1,7.38-7.51h66c23.92,0,41.78,13.72,41.78,36.25,0,17.64-13.6,25.81-30.15,29.07,6.72,2.45,11.63,8.17,18.19,18.46l14.58,23c2.62,4.24,1.47,7.51-2.79,7.51H785.92c-4.1,0-9.67-3.27-12.29-7.51L760,159.87c-4.1-6.37-10-13.06-20.32-13.06Zm0-50v27.43H754.3c9.17,0,20.8-3.26,20.8-13.72s-11.63-13.71-20.8-13.71Z" transform="translate(-1.13 -19.6)"/><path class="cls-2" d="M968.59,188.62a7.61,7.61,0,0,1-7.53-7.52V81.81a7.47,7.47,0,0,1,7.37-7.51H992c3.93,0,8.52,3.75,11,7.51L1051.33,156V81.65a7.47,7.47,0,0,1,7.53-7.35h13.76a7.41,7.41,0,0,1,7.54,7.51V181.1a7.51,7.51,0,0,1-7.54,7.52h-26.54c-4.25,0-9-3.43-11.63-7.52l-44.23-68.42V181.1a7.61,7.61,0,0,1-7.54,7.52Z" transform="translate(-1.13 -19.6)"/></svg>