<svg width="54" height="44" viewBox="0 0 54 44" fill="none" xmlns="http://www.w3.org/2000/svg">
<rect width="54" height="44" fill="white"/>
<path d="M48.5495 5.51685C48.0044 5.51454 47.4723 5.3508 47.0202 5.0463C46.5681 4.74179 46.2164 4.31018 46.0094 3.80595C45.8024 3.30171 45.7494 2.74745 45.8572 2.21314C45.9649 1.67883 46.2286 1.18841 46.6148 0.803809C47.001 0.419203 47.4925 0.157646 48.0273 0.0521551C48.5621 -0.0533358 49.1161 0.00196875 49.6195 0.211087C50.1228 0.420206 50.5529 0.773764 50.8555 1.22713C51.1581 1.68049 51.3196 2.21334 51.3196 2.75841C51.3196 3.12164 51.2479 3.48129 51.1085 3.81673C50.9692 4.15216 50.7649 4.45677 50.5076 4.71306C50.2502 4.96936 49.9447 5.1723 49.6087 5.31024C49.2727 5.44817 48.9127 5.51839 48.5495 5.51685ZM48.5495 1.16881C48.2356 1.17111 47.9294 1.2663 47.6695 1.44237C47.4097 1.61843 47.2078 1.86749 47.0892 2.15815C46.9707 2.44881 46.9409 2.76805 47.0035 3.07563C47.0662 3.38321 47.2185 3.66536 47.4413 3.8865C47.664 4.10764 47.9473 4.25788 48.2553 4.31828C48.5634 4.37867 48.8824 4.34651 49.1722 4.22587C49.4619 4.10522 49.7095 3.90147 49.8837 3.64032C50.0578 3.37917 50.1508 3.07231 50.1508 2.75841C50.1508 2.54867 50.1093 2.34101 50.0287 2.14738C49.9481 1.95376 49.8299 1.778 49.6811 1.63024C49.5322 1.48248 49.3556 1.36563 49.1614 1.28644C48.9672 1.20724 48.7592 1.16726 48.5495 1.16881Z" fill="#668FFF"/>
<path d="M5.66474 34.8586C5.51001 34.8564 5.3618 34.7959 5.24981 34.6891L2.16994 31.6268C2.0611 31.5173 2 31.3692 2 31.2148C2 31.0604 2.0611 30.9123 2.16994 30.8028C2.27944 30.6939 2.42756 30.6328 2.58196 30.6328C2.73635 30.6328 2.88447 30.6939 2.99397 30.8028L6.07383 33.8826C6.18268 33.9921 6.24377 34.1402 6.24377 34.2946C6.24377 34.449 6.18268 34.5971 6.07383 34.7066C5.9622 34.8082 5.81561 34.8627 5.66474 34.8586Z" fill="#668FFF"/>
<path d="M43.447 44.0009H39.0698C38.9148 44.0009 38.7661 43.9393 38.6565 43.8297C38.5469 43.7201 38.4854 43.5714 38.4854 43.4164C38.4854 43.2614 38.5469 43.1128 38.6565 43.0032C38.7661 42.8936 38.9148 42.832 39.0698 42.832H43.447C43.602 42.832 43.7507 42.8936 43.8603 43.0032C43.9699 43.1128 44.0314 43.2614 44.0314 43.4164C44.0314 43.5714 43.9699 43.7201 43.8603 43.8297C43.7507 43.9393 43.602 44.0009 43.447 44.0009Z" fill="#668FFF"/>
<path d="M2.58488 34.8605C2.43014 34.8583 2.28194 34.7978 2.16994 34.691C2.0611 34.5815 2 34.4334 2 34.279C2 34.1246 2.0611 33.9765 2.16994 33.867L5.24981 30.7871C5.3593 30.6783 5.50742 30.6172 5.66182 30.6172C5.81621 30.6172 5.96433 30.6783 6.07383 30.7871C6.18268 30.8966 6.24377 31.0447 6.24377 31.1991C6.24377 31.3535 6.18268 31.5017 6.07383 31.6112L2.99397 34.691C2.88511 34.799 2.73819 34.8599 2.58488 34.8605Z" fill="#668FFF"/>
<path d="M14.5007 30.0777C13.6909 30.0763 12.9139 29.7571 12.3368 29.1888C11.7598 28.6205 11.4288 27.8485 11.415 27.0387V13.5096C11.415 12.6927 11.7395 11.9093 12.3171 11.3318C12.8947 10.7542 13.6781 10.4297 14.4949 10.4297H30.9695C31.1137 10.4297 31.2519 10.4869 31.3539 10.5889C31.4558 10.6908 31.513 10.829 31.513 10.9732C31.513 11.1173 31.4558 11.2556 31.3539 11.3575C31.2519 11.4594 31.1137 11.5167 30.9695 11.5167H14.4949C13.9673 11.5198 13.4622 11.7307 13.0891 12.1038C12.7161 12.4769 12.5051 12.982 12.502 13.5096V26.9511C12.5082 27.4828 12.7242 27.9905 13.1029 28.3637C13.4816 28.737 13.9924 28.9455 14.5241 28.9439C14.6683 28.9439 14.8065 29.0012 14.9084 29.1031C15.0104 29.205 15.0676 29.3433 15.0676 29.4874C15.0676 29.6316 15.0104 29.7698 14.9084 29.8718C14.8065 29.9737 14.6683 30.0309 14.5241 30.0309L14.5007 30.0777Z" fill="#668FFF"/>
<path d="M32.5008 25.393H11.9762C11.9043 25.393 11.8331 25.3788 11.7668 25.3511C11.7005 25.3234 11.6403 25.2828 11.5898 25.2318C11.5392 25.1807 11.4993 25.1201 11.4723 25.0534C11.4454 24.9868 11.4319 24.9155 11.4326 24.8437V13.3482C11.4319 13.2766 11.4454 13.2056 11.4724 13.1393C11.4995 13.073 11.5395 13.0128 11.5901 12.9622C11.6407 12.9115 11.7009 12.8715 11.7672 12.8445C11.8335 12.8175 11.9046 12.8039 11.9762 12.8047H32.5008C32.5726 12.8039 32.6439 12.8174 32.7106 12.8444C32.7772 12.8714 32.8378 12.9113 32.8889 12.9618C32.94 13.0124 32.9805 13.0726 33.0082 13.1389C33.0359 13.2052 33.0501 13.2764 33.0501 13.3482V24.8437C33.0501 24.9893 32.9923 25.1291 32.8892 25.2321C32.7862 25.3351 32.6465 25.393 32.5008 25.393ZM12.5197 24.3001H31.9573V13.8917H12.5197V24.3001Z" fill="#668FFF"/>
<g opacity="0.24">
<path opacity="0.24" d="M19.691 26.4272H14.4312C14.191 26.4226 13.9621 26.3239 13.7938 26.1523C13.6255 25.9807 13.5312 25.75 13.5313 25.5096V15.8493C13.5359 15.6111 13.6341 15.3843 13.8048 15.218C13.9754 15.0517 14.2047 14.9594 14.4429 14.961H33.2026C33.4329 14.9607 33.6543 15.0493 33.8209 15.2082C33.9874 15.3672 34.0863 15.5842 34.0968 15.8142V15.8493V25.5096C34.1031 25.7448 34.0165 25.9731 33.8557 26.1448C33.6948 26.3166 33.4728 26.418 33.2377 26.4272H22.2566" fill="#9EBBFF"/>
</g>
<path d="M23.4021 28.4537C23.1259 28.4537 22.8558 28.3717 22.6261 28.2183C22.3964 28.0648 22.2174 27.8466 22.1117 27.5914C22.006 27.3362 21.9783 27.0554 22.0322 26.7844C22.0861 26.5135 22.2191 26.2646 22.4145 26.0693C22.6098 25.8739 22.8587 25.7409 23.1296 25.687C23.4006 25.6331 23.6814 25.6608 23.9366 25.7665C24.1919 25.8722 24.41 26.0512 24.5635 26.2809C24.717 26.5106 24.7989 26.7807 24.7989 27.0569C24.7996 27.2405 24.764 27.4225 24.6941 27.5923C24.6242 27.7621 24.5214 27.9164 24.3915 28.0463C24.2616 28.1761 24.1074 28.279 23.9375 28.3489C23.7677 28.4188 23.5858 28.4544 23.4021 28.4537ZM23.4021 26.753C23.342 26.753 23.2833 26.7708 23.2333 26.8042C23.1833 26.8376 23.1444 26.8851 23.1214 26.9406C23.0984 26.9961 23.0923 27.0572 23.1041 27.1162C23.1158 27.1751 23.1447 27.2293 23.1872 27.2718C23.2297 27.3143 23.2839 27.3432 23.3428 27.355C23.4018 27.3667 23.4629 27.3607 23.5184 27.3377C23.5739 27.3147 23.6214 27.2757 23.6548 27.2257C23.6882 27.1758 23.706 27.117 23.706 27.0569C23.706 26.9763 23.674 26.899 23.617 26.842C23.56 26.785 23.4827 26.753 23.4021 26.753Z" fill="#668FFF"/>
<path d="M37.9011 28.9576C37.6246 28.9576 37.3544 28.8755 37.1245 28.7218C36.8947 28.568 36.7157 28.3495 36.6102 28.094C36.5046 27.8384 36.4773 27.5573 36.5317 27.2862C36.586 27.0151 36.7196 26.7662 36.9156 26.5711C37.1115 26.376 37.3609 26.2434 37.6322 26.1902C37.9036 26.137 38.1846 26.1655 38.4397 26.2721C38.6948 26.3787 38.9126 26.5586 39.0653 26.7891C39.2181 27.0195 39.299 27.2902 39.2979 27.5667C39.2979 27.7498 39.2617 27.9312 39.1915 28.1003C39.1212 28.2694 39.0182 28.423 38.8884 28.5522C38.7587 28.6815 38.6046 28.7838 38.4352 28.8534C38.2658 28.9229 38.0843 28.9583 37.9011 28.9576ZM37.9011 27.2569C37.82 27.2584 37.7427 27.2918 37.6859 27.3497C37.6291 27.4076 37.5972 27.4855 37.5972 27.5667C37.6075 27.6407 37.6442 27.7086 37.7006 27.7578C37.757 27.8069 37.8293 27.834 37.9041 27.834C37.9789 27.834 38.0511 27.8069 38.1075 27.7578C38.1639 27.7086 38.2006 27.6407 38.2109 27.5667C38.2109 27.4845 38.1782 27.4057 38.1202 27.3476C38.0621 27.2896 37.9833 27.2569 37.9011 27.2569Z" fill="#1FD157"/>
<path d="M33.3489 36.5728C32.9914 36.5682 32.6501 36.4225 32.3994 36.1675C32.1488 35.9124 32.009 35.5687 32.0106 35.2111V14.1722C32.0026 13.8221 32.1322 13.4829 32.3714 13.2272C32.6107 12.9716 32.9406 12.8199 33.2905 12.8047H42.3314C42.6889 12.8108 43.0296 12.958 43.2791 13.2141C43.5287 13.4703 43.667 13.8146 43.6638 14.1722V35.2111C43.6686 35.5662 43.5332 35.9088 43.2871 36.1648C43.0409 36.4208 42.7039 36.5695 42.3489 36.5787L33.3489 36.5728ZM41.5307 13.8917H33.3022C33.2392 13.9003 33.1816 13.932 33.1406 13.9806C33.0996 14.0291 33.078 14.0912 33.0801 14.1547V35.1936C33.0815 35.265 33.1101 35.3332 33.1601 35.3842C33.21 35.4352 33.2776 35.4653 33.3489 35.4683H42.3372C42.4033 35.461 42.4644 35.4296 42.5087 35.3799C42.5529 35.3302 42.5772 35.266 42.5768 35.1994V14.1605C42.5801 14.088 42.5551 14.0171 42.5072 13.9626C42.4592 13.9081 42.392 13.8743 42.3197 13.8683H41.5249L41.5307 13.8917Z" fill="#668FFF"/>
<path d="M40.9044 16.0714H34.7505C34.6064 16.0714 34.4681 16.0141 34.3662 15.9122C34.2643 15.8103 34.207 15.672 34.207 15.5279C34.207 15.3837 34.2643 15.2455 34.3662 15.1436C34.4681 15.0416 34.6064 14.9844 34.7505 14.9844H40.9044C41.0486 14.9844 41.1868 15.0416 41.2887 15.1436C41.3907 15.2455 41.4479 15.3837 41.4479 15.5279C41.4479 15.672 41.3907 15.8103 41.2887 15.9122C41.1868 16.0141 41.0486 16.0714 40.9044 16.0714Z" fill="#1FD157"/>
<path d="M39.8941 18.128H35.7564C35.6213 18.114 35.4961 18.0504 35.4051 17.9495C35.314 17.8486 35.2637 17.7175 35.2637 17.5816C35.2637 17.4457 35.314 17.3146 35.4051 17.2137C35.4961 17.1128 35.6213 17.0492 35.7564 17.0352H39.8941C40.0293 17.0492 40.1545 17.1128 40.2455 17.2137C40.3365 17.3146 40.3869 17.4457 40.3869 17.5816C40.3869 17.7175 40.3365 17.8486 40.2455 17.9495C40.1545 18.0504 40.0293 18.114 39.8941 18.128Z" fill="#1FD157"/>
<path d="M43.1198 23.6494H32.501C32.3569 23.6494 32.2186 23.5922 32.1167 23.4903C32.0148 23.3883 31.9575 23.2501 31.9575 23.1059V20.8326C31.9575 20.6884 32.0148 20.5502 32.1167 20.4483C32.2186 20.3463 32.3569 20.2891 32.501 20.2891H43.1198C43.264 20.2891 43.4022 20.3463 43.5042 20.4483C43.6061 20.5502 43.6633 20.6884 43.6633 20.8326V23.1059C43.6633 23.2501 43.6061 23.3883 43.5042 23.4903C43.4022 23.5922 43.264 23.6494 43.1198 23.6494ZM33.0504 22.5624H42.5763V21.3936H33.0504V22.5624Z" fill="#668FFF"/>
<path d="M26.0667 34.1759H20.7193C20.5736 34.1759 20.4338 34.1181 20.3308 34.015C20.2278 33.912 20.1699 33.7723 20.1699 33.6266V29.5357C20.1715 29.391 20.23 29.2528 20.3329 29.151C20.4357 29.0493 20.5746 28.9922 20.7193 28.9922H26.0667C26.2108 28.9922 26.3491 29.0494 26.451 29.1514C26.5529 29.2533 26.6102 29.3915 26.6102 29.5357V33.6266C26.6109 33.6985 26.5975 33.7698 26.5705 33.8364C26.5435 33.903 26.5036 33.9636 26.4531 34.0147C26.4025 34.0658 26.3423 34.1063 26.276 34.134C26.2097 34.1617 26.1385 34.1759 26.0667 34.1759ZM21.2394 33.0831H25.5232V30.0967H21.2394V33.0831Z" fill="#668FFF"/>
<path d="M27.7965 36.5671H19.0303C18.8856 36.5671 18.7468 36.51 18.6439 36.4082C18.5411 36.3065 18.4825 36.1683 18.481 36.0236V34.8898C18.4916 34.4066 18.6907 33.9467 19.0357 33.6082C19.3808 33.2698 19.8444 33.0795 20.3277 33.0781H26.4991C26.9879 33.0828 27.4549 33.281 27.7978 33.6293C28.1407 33.9777 28.3315 34.4478 28.3283 34.9366V36.0294C28.3269 36.1705 28.2705 36.3056 28.1713 36.4059C28.072 36.5063 27.9376 36.564 27.7965 36.5671ZM19.5621 35.4801H27.253V34.9307C27.253 34.7302 27.1738 34.5379 27.0326 34.3956C26.8913 34.2532 26.6996 34.1725 26.4991 34.171H20.3102C20.215 34.1679 20.1201 34.1835 20.031 34.2171C19.9419 34.2507 19.8603 34.3015 19.7908 34.3666C19.7213 34.4317 19.6654 34.5099 19.6261 34.5967C19.5869 34.6834 19.5651 34.7771 19.5621 34.8723V35.4567V35.4801Z" fill="#668FFF"/>
<path d="M32.5714 30.0792H19.4864C19.3422 30.0792 19.204 30.0219 19.1021 29.92C19.0001 29.8181 18.9429 29.6798 18.9429 29.5357C18.9429 29.3915 19.0001 29.2533 19.1021 29.1514C19.204 29.0494 19.3422 28.9922 19.4864 28.9922H32.5714C32.7156 28.9922 32.8538 29.0494 32.9557 29.1514C33.0577 29.2533 33.1149 29.3915 33.1149 29.5357C33.1149 29.6798 33.0577 29.8181 32.9557 29.92C32.8538 30.0219 32.7156 30.0792 32.5714 30.0792Z" fill="#668FFF"/>
<path d="M19.6266 30.1011H14.5071C14.1027 30.1011 13.7022 30.0214 13.3285 29.8666C12.9548 29.7119 12.6153 29.485 12.3293 29.199C12.0433 28.913 11.8165 28.5735 11.6617 28.1998C11.5069 27.8262 11.4272 27.4257 11.4272 27.0212V13.5096C11.4272 12.6927 11.7517 11.9093 12.3293 11.3318C12.9069 10.7542 13.6903 10.4297 14.5071 10.4297H32.2266C32.9792 10.4375 33.7032 10.7196 34.2627 11.2231C34.8222 11.7267 35.1787 12.417 35.2655 13.1647C35.2807 13.239 35.2804 13.3156 35.2645 13.3897C35.2487 13.4638 35.2177 13.5338 35.1735 13.5954C35.1292 13.6569 35.0728 13.7087 35.0076 13.7473C34.9424 13.786 34.8699 13.8108 34.7947 13.8201C34.7195 13.8294 34.6432 13.823 34.5705 13.8014C34.4979 13.7798 34.4305 13.7433 34.3727 13.6944C34.3148 13.6455 34.2677 13.5851 34.2342 13.5171C34.2008 13.4491 34.1818 13.3749 34.1785 13.2992C34.1164 12.8177 33.8822 12.3749 33.5191 12.0527C33.156 11.7304 32.6886 11.5504 32.2032 11.5459H14.5071C13.9795 11.549 13.4744 11.7599 13.1013 12.133C12.7283 12.5061 12.5173 13.0112 12.5143 13.5388V27.0212C12.5173 27.5488 12.7283 28.0539 13.1013 28.427C13.4744 28.8 13.9795 29.011 14.5071 29.0141H19.6266C19.7707 29.0141 19.909 29.0713 20.0109 29.1733C20.1128 29.2752 20.1701 29.4134 20.1701 29.5576C20.1701 29.7017 20.1128 29.84 20.0109 29.9419C19.909 30.0438 19.7707 30.1011 19.6266 30.1011Z" fill="#668FFF"/>
<path d="M33.3953 13.8917H32.5362C32.392 13.8917 32.2538 13.8344 32.1519 13.7325C32.0499 13.6306 31.9927 13.4923 31.9927 13.3482C31.9927 13.204 32.0499 13.0658 32.1519 12.9639C32.2538 12.8619 32.392 12.8047 32.5362 12.8047H33.3953C33.5394 12.8047 33.6777 12.8619 33.7796 12.9639C33.8815 13.0658 33.9388 13.204 33.9388 13.3482C33.9388 13.4923 33.8815 13.6306 33.7796 13.7325C33.6777 13.8344 33.5394 13.8917 33.3953 13.8917Z" fill="#668FFF"/>
</svg>
