<svg width="54" height="44" viewBox="0 0 54 44" fill="none" xmlns="http://www.w3.org/2000/svg">
<rect width="54" height="44" fill="white"/>
<path d="M5.57497 29.384C5.42403 29.3819 5.27945 29.3228 5.1702 29.2187L2.16578 26.2313C2.0596 26.1245 2 25.98 2 25.8294C2 25.6788 2.0596 25.5343 2.16578 25.4275C2.2726 25.3213 2.41709 25.2617 2.5677 25.2617C2.71831 25.2617 2.8628 25.3213 2.96962 25.4275L5.97404 28.4319C6.08022 28.5387 6.13982 28.6832 6.13982 28.8338C6.13982 28.9844 6.08022 29.1289 5.97404 29.2358C5.86514 29.3348 5.72214 29.388 5.57497 29.384Z" fill="#668FFF"/>
<path d="M47.5628 43.9996H43.2928C43.1416 43.9996 42.9965 43.9395 42.8896 43.8326C42.7827 43.7257 42.7227 43.5807 42.7227 43.4295C42.7227 43.2783 42.7827 43.1333 42.8896 43.0264C42.9965 42.9194 43.1416 42.8594 43.2928 42.8594H47.5628C47.714 42.8594 47.859 42.9194 47.9659 43.0264C48.0728 43.1333 48.1329 43.2783 48.1329 43.4295C48.1329 43.5807 48.0728 43.7257 47.9659 43.8326C47.859 43.9395 47.714 43.9996 47.5628 43.9996Z" fill="#668FFF"/>
<path d="M2.57055 29.3816C2.41961 29.3795 2.27503 29.3204 2.16578 29.2162C2.0596 29.1094 2 28.9649 2 28.8143C2 28.6637 2.0596 28.5192 2.16578 28.4124L5.1702 25.408C5.27701 25.3018 5.42151 25.2422 5.57212 25.2422C5.72273 25.2422 5.86722 25.3018 5.97404 25.408C6.08022 25.5148 6.13982 25.6593 6.13982 25.8099C6.13982 25.9605 6.08022 26.105 5.97404 26.2118L2.96962 29.2162C2.86343 29.3215 2.72011 29.3809 2.57055 29.3816Z" fill="#668FFF"/>
<path d="M36.1609 37.4735H18.5619C18.0933 37.44 17.6572 37.2218 17.3494 36.8669C17.0415 36.512 16.8871 36.0495 16.92 35.5808V29.914C16.9335 29.7866 16.9936 29.6686 17.0889 29.5828C17.1841 29.497 17.3078 29.4496 17.436 29.4496C17.5642 29.4496 17.6878 29.497 17.7831 29.5828C17.8784 29.6686 17.9385 29.7866 17.9519 29.914V35.615C17.9365 35.7109 17.9403 35.8089 17.9629 35.9033C17.9856 35.9977 18.0267 36.0867 18.084 36.1652C18.1412 36.2436 18.2134 36.31 18.2964 36.3604C18.3794 36.4107 18.4716 36.4442 18.5676 36.4588H36.1609C36.3363 36.429 36.4946 36.3356 36.6055 36.1965C36.7221 36.0518 36.781 35.869 36.7709 35.6834V9.19097C36.7824 9.01367 36.7256 8.83869 36.6121 8.70193C36.4987 8.56518 36.3372 8.47702 36.1609 8.45555H18.5619C18.475 8.46076 18.39 8.48308 18.3117 8.52124C18.2334 8.55939 18.1635 8.61263 18.1058 8.67789C18.0446 8.74212 17.9973 8.81833 17.9669 8.90172C17.9365 8.98511 17.9236 9.07388 17.9291 9.16247V21.4766C17.9157 21.6041 17.8556 21.7221 17.7603 21.8078C17.665 21.8936 17.5414 21.9411 17.4132 21.9411C17.285 21.9411 17.1613 21.8936 17.0661 21.8078C16.9708 21.7221 16.9107 21.6041 16.8972 21.4766V9.19097C16.8801 8.74202 17.0404 8.30436 17.3434 7.9726C17.6463 7.64083 18.0677 7.44161 18.5163 7.41797H36.1609C36.3855 7.42749 36.6061 7.48123 36.81 7.5761C37.0139 7.67097 37.197 7.80512 37.349 7.97086C37.501 8.1366 37.6188 8.33068 37.6957 8.542C37.7725 8.75332 37.807 8.97773 37.797 9.20238V35.5808C37.8337 36.0393 37.6897 36.4939 37.3957 36.8476C37.1017 37.2012 36.681 37.4259 36.2236 37.4735H36.1609Z" fill="#668FFF"/>
<path d="M30.7225 10.6402H23.4994C23.4271 10.6478 23.354 10.6401 23.2848 10.6177C23.2157 10.5952 23.152 10.5585 23.098 10.5098C23.0439 10.4612 23.0007 10.4017 22.9711 10.3353C22.9416 10.2689 22.9263 10.197 22.9263 10.1243C22.9263 10.0515 22.9416 9.97965 22.9711 9.91323C23.0007 9.84681 23.0439 9.78734 23.098 9.7387C23.152 9.69005 23.2157 9.6533 23.2848 9.63084C23.354 9.60838 23.4271 9.60071 23.4994 9.60832H30.7225C30.7948 9.60071 30.8679 9.60838 30.9371 9.63084C31.0062 9.6533 31.0699 9.69005 31.1239 9.7387C31.178 9.78734 31.2212 9.84681 31.2508 9.91323C31.2803 9.97965 31.2956 10.0515 31.2956 10.1243C31.2956 10.197 31.2803 10.2689 31.2508 10.3353C31.2212 10.4017 31.178 10.4612 31.1239 10.5098C31.0699 10.5585 31.0062 10.5952 30.9371 10.6177C30.8679 10.6401 30.7948 10.6478 30.7225 10.6402Z" fill="#668FFF"/>
<path d="M27.4667 36.003C27.0743 36.0042 26.6904 35.8889 26.3635 35.6718C26.0366 35.4548 25.7815 35.1457 25.6303 34.7836C25.4791 34.4215 25.4386 34.0227 25.5141 33.6376C25.5895 33.2526 25.7774 32.8985 26.0541 32.6203C26.3308 32.342 26.6837 32.1521 27.0684 32.0744C27.453 31.9967 27.852 32.0349 28.2149 32.184C28.5779 32.3331 28.8885 32.5865 29.1074 32.9121C29.3263 33.2378 29.4438 33.621 29.4449 34.0134C29.4449 34.5391 29.2369 35.0435 28.8662 35.4163C28.4955 35.7891 27.9924 36 27.4667 36.003ZM27.4667 33.0727C27.2784 33.0716 27.094 33.1263 26.9368 33.23C26.7796 33.3337 26.6567 33.4817 26.5836 33.6552C26.5105 33.8287 26.4905 34.02 26.5261 34.2049C26.5618 34.3898 26.6514 34.56 26.7838 34.6939C26.9161 34.8279 27.0852 34.9196 27.2697 34.9574C27.4541 34.9953 27.6457 34.9775 27.8201 34.9065C27.9945 34.8355 28.1439 34.7144 28.2494 34.5585C28.355 34.4025 28.4119 34.2188 28.4131 34.0305C28.4116 33.7789 28.3118 33.5378 28.1349 33.3589C27.9581 33.1799 27.7183 33.0772 27.4667 33.0727Z" fill="#1FD157"/>
<g opacity="0.24">
<path opacity="0.24" d="M34.6726 13.1328H23.8066C22.6794 13.1328 21.7656 14.0466 21.7656 15.1738V30.3213C21.7656 31.4485 22.6794 32.3622 23.8066 32.3622H34.6726C35.7998 32.3622 36.7136 31.4485 36.7136 30.3213V15.1738C36.7136 14.0466 35.7998 13.1328 34.6726 13.1328Z" fill="#9EBBFF"/>
</g>
<path d="M33.362 31.6527H21.3387C21.0772 31.6519 20.8184 31.5995 20.5772 31.4984C20.3361 31.3973 20.1173 31.2495 19.9334 31.0635C19.7496 30.8776 19.6043 30.6571 19.506 30.4148C19.4076 30.1725 19.3582 29.9131 19.3604 29.6516V13.381C19.3604 13.1215 19.4116 12.8645 19.5111 12.6248C19.6106 12.3851 19.7564 12.1674 19.9402 11.9842C20.124 11.8009 20.3421 11.6558 20.5821 11.557C20.822 11.4582 21.0791 11.4077 21.3387 11.4085C21.4662 11.4219 21.5842 11.482 21.6699 11.5773C21.7557 11.6726 21.8031 11.7962 21.8031 11.9244C21.8031 12.0526 21.7557 12.1762 21.6699 12.2715C21.5842 12.3668 21.4662 12.4269 21.3387 12.4403C21.2147 12.4396 21.0917 12.4634 20.9769 12.5103C20.8622 12.5572 20.7578 12.6264 20.6698 12.7138C20.5819 12.8013 20.5121 12.9052 20.4644 13.0197C20.4168 13.1342 20.3923 13.257 20.3923 13.381V29.6516C20.3893 29.7778 20.4115 29.9033 20.4577 30.0208C20.5039 30.1382 20.5731 30.2453 20.6613 30.3356C20.7495 30.4259 20.8548 30.4976 20.9712 30.5466C21.0875 30.5956 21.2124 30.6208 21.3387 30.6208H33.362C33.6131 30.6133 33.8511 30.5076 34.0249 30.3263C34.1987 30.145 34.2944 29.9027 34.2913 29.6516V13.381C34.2928 13.128 34.1942 12.8846 34.0168 12.7041C33.8395 12.5236 33.598 12.4205 33.3449 12.4175C33.2726 12.4252 33.1995 12.4175 33.1304 12.395C33.0612 12.3726 32.9976 12.3358 32.9435 12.2872C32.8895 12.2385 32.8463 12.1791 32.8167 12.1126C32.7871 12.0462 32.7718 11.9743 32.7718 11.9016C32.7718 11.8289 32.7871 11.757 32.8167 11.6906C32.8463 11.6242 32.8895 11.5647 32.9435 11.516C32.9976 11.4674 33.0612 11.4306 33.1304 11.4082C33.1995 11.3857 33.2726 11.3781 33.3449 11.3857C33.8701 11.3857 34.3739 11.5939 34.7458 11.9647C35.1177 12.3356 35.3274 12.8387 35.3289 13.3639V29.6516C35.3319 30.1773 35.1268 30.6829 34.7582 31.0579C34.3897 31.4328 33.8877 31.6466 33.362 31.6527Z" fill="#668FFF"/>
<path d="M48.4065 5.3817C47.8748 5.37945 47.3557 5.21972 46.9147 4.92268C46.4737 4.62564 46.1305 4.2046 45.9286 3.71271C45.7267 3.22083 45.675 2.68015 45.7802 2.15892C45.8853 1.6377 46.1424 1.1593 46.5192 0.784119C46.896 0.408934 47.3755 0.153784 47.8971 0.0508776C48.4188 -0.0520292 48.9593 0.00192032 49.4503 0.205916C49.9413 0.409912 50.3609 0.754809 50.6561 1.19707C50.9512 1.63933 51.1088 2.15912 51.1088 2.69084C51.1088 3.04517 51.0388 3.39601 50.9029 3.72323C50.7669 4.05045 50.5677 4.34759 50.3166 4.59761C50.0655 4.84763 49.7676 5.0456 49.4398 5.18016C49.112 5.31471 48.7608 5.38321 48.4065 5.3817ZM48.4065 1.14017C48.1003 1.14242 47.8016 1.23528 47.5481 1.40703C47.2946 1.57878 47.0977 1.82175 46.982 2.10528C46.8664 2.38882 46.8373 2.70024 46.8984 3.00029C46.9596 3.30033 47.1081 3.57557 47.3254 3.79129C47.5428 4.00702 47.8191 4.15358 48.1196 4.21249C48.42 4.27141 48.7312 4.24004 49.0139 4.12235C49.2966 4.00465 49.5381 3.8059 49.708 3.55115C49.8779 3.29639 49.9686 2.99705 49.9686 2.69084C49.9678 2.48672 49.9268 2.28476 49.8478 2.09653C49.7688 1.90831 49.6535 1.73753 49.5084 1.59399C49.3632 1.45045 49.1912 1.33698 49.0021 1.26008C48.813 1.18318 48.6106 1.14437 48.4065 1.14587V1.14017Z" fill="#668FFF"/>
</svg>
