<svg width="72" height="60" viewBox="0 0 72 60" fill="none" xmlns="http://www.w3.org/2000/svg">
<path d="M65.896 13.1822C65.13 13.1789 64.3822 12.9488 63.7469 12.5209C63.1116 12.093 62.6174 11.4865 62.3265 10.7779C62.0356 10.0694 61.9612 9.29051 62.1126 8.53967C62.264 7.78884 62.6345 7.09969 63.1773 6.55923C63.72 6.01877 64.4107 5.65122 65.1622 5.50298C65.9137 5.35474 66.6922 5.43245 67.3995 5.72631C68.1069 6.02018 68.7113 6.51701 69.1365 7.15409C69.5617 7.79118 69.7886 8.53996 69.7886 9.30591C69.7887 9.81633 69.6878 10.3217 69.492 10.7931C69.2962 11.2645 69.0092 11.6925 68.6475 12.0527C68.2858 12.4128 67.8566 12.698 67.3844 12.8918C66.9122 13.0857 66.4064 13.1843 65.896 13.1822ZM65.896 7.07214C65.4549 7.07538 65.0246 7.20914 64.6595 7.45655C64.2943 7.70397 64.0105 8.05396 63.844 8.4624C63.6774 8.87085 63.6355 9.31946 63.7236 9.75168C63.8116 10.1839 64.0256 10.5804 64.3387 10.8911C64.6517 11.2019 65.0498 11.413 65.4826 11.4979C65.9155 11.5828 66.3638 11.5376 66.771 11.368C67.1782 11.1985 67.5261 10.9122 67.7708 10.5452C68.0155 10.1782 68.1462 9.74701 68.1462 9.30591C68.1462 9.01118 68.0879 8.71936 67.9746 8.44727C67.8613 8.17518 67.6953 7.9282 67.4861 7.72056C67.2769 7.51292 67.0287 7.34872 66.7558 7.23743C66.4829 7.12615 66.1907 7.06997 65.896 7.07214Z" fill="#668FFF"/>
<path d="M6.45452 5.96361C6.23708 5.96059 6.02881 5.87552 5.87144 5.72545L1.5435 1.42215C1.39054 1.26828 1.30469 1.06014 1.30469 0.843176C1.30469 0.626216 1.39054 0.418071 1.5435 0.264201C1.69737 0.111244 1.90551 0.0253906 2.12247 0.0253906C2.33943 0.0253906 2.54758 0.111244 2.70145 0.264201L7.02939 4.59214C7.18234 4.74601 7.2682 4.95415 7.2682 5.17111C7.2682 5.38807 7.18234 5.59622 7.02939 5.75009C6.87252 5.89282 6.66652 5.96934 6.45452 5.96361Z" fill="#668FFF"/>
<path d="M34.0895 59.8671H27.9384C27.7206 59.8671 27.5117 59.7806 27.3577 59.6266C27.2037 59.4725 27.1172 59.2637 27.1172 59.0458C27.1172 58.828 27.2037 58.6192 27.3577 58.4651C27.5117 58.3111 27.7206 58.2246 27.9384 58.2246H34.0895C34.3073 58.2246 34.5162 58.3111 34.6702 58.4651C34.8242 58.6192 34.9108 58.828 34.9108 59.0458C34.9108 59.2637 34.8242 59.4725 34.6702 59.6266C34.5162 59.7806 34.3073 59.8671 34.0895 59.8671Z" fill="#668FFF"/>
<path d="M2.12658 5.96286C1.90914 5.95983 1.70088 5.87477 1.5435 5.7247C1.39054 5.57083 1.30469 5.36268 1.30469 5.14572C1.30469 4.92876 1.39054 4.72062 1.5435 4.56675L5.87144 0.238811C6.02531 0.0858545 6.23345 0 6.45041 0C6.66737 0 6.87552 0.0858545 7.02939 0.238811C7.18234 0.392681 7.2682 0.600826 7.2682 0.817786C7.2682 1.03475 7.18234 1.24289 7.02939 1.39676L2.70145 5.7247C2.54848 5.87642 2.34202 5.96195 2.12658 5.96286Z" fill="#668FFF"/>
<path d="M54.8182 46.0642H32.7432C32.5429 46.0642 32.3507 45.9846 32.209 45.8429C32.0673 45.7012 31.9877 45.509 31.9877 45.3086C31.9877 45.1082 32.0673 44.9161 32.209 44.7744C32.3507 44.6327 32.5429 44.5531 32.7432 44.5531H54.8182C55.0896 44.5531 55.3583 44.4995 55.6089 44.3954C55.8595 44.2913 56.0871 44.1387 56.2787 43.9464C56.4702 43.7542 56.6218 43.526 56.725 43.2749C56.8281 43.0239 56.8806 42.7549 56.8795 42.4836V15.7029C56.8795 15.1562 56.6623 14.6319 56.2758 14.2453C55.8892 13.8588 55.3649 13.6416 54.8182 13.6416H21.1473C20.6006 13.6416 20.0763 13.8588 19.6898 14.2453C19.3032 14.6319 19.086 15.1562 19.086 15.7029V42.4836C19.0849 42.7543 19.1372 43.0225 19.2398 43.273C19.3424 43.5235 19.4933 43.7514 19.6839 43.9435C19.8746 44.1357 20.1012 44.2885 20.3509 44.393C20.6006 44.4976 20.8684 44.552 21.1391 44.5531H23.8164C24.0167 44.5531 24.2089 44.6327 24.3506 44.7744C24.4923 44.9161 24.5719 45.1082 24.5719 45.3086C24.5719 45.509 24.4923 45.7012 24.3506 45.8429C24.2089 45.9846 24.0167 46.0642 23.8164 46.0642H21.1145C20.1669 46.0598 19.2596 45.6809 18.5903 45.0102C17.921 44.3394 17.5442 43.4311 17.5421 42.4836V15.7029C17.5388 15.2327 17.6282 14.7664 17.8052 14.3308C17.9821 13.8951 18.2432 13.4986 18.5734 13.1638C18.9036 12.829 19.2965 12.5625 19.7297 12.3796C20.1629 12.1967 20.6278 12.1009 21.0981 12.0977H54.7689C55.238 12.0977 55.7026 12.1901 56.136 12.3696C56.5694 12.5491 56.9632 12.8123 57.295 13.144C57.6267 13.4757 57.8898 13.8695 58.0694 14.303C58.2489 14.7364 58.3413 15.2009 58.3413 15.6701V42.4836C58.3414 43.4233 57.9721 44.3255 57.313 44.9953C56.6539 45.6652 55.7578 46.0491 54.8182 46.0642Z" fill="#668FFF"/>
<path d="M69.5262 46.3726H67.6291C67.4312 46.3905 67.2343 46.3297 67.081 46.2035C66.9276 46.0773 66.8301 45.8957 66.8096 45.6981C66.7891 45.5005 66.8472 45.3028 66.9713 45.1478C67.0955 44.9928 67.2758 44.8928 67.4731 44.8697H69.5262C69.7943 44.8446 70.0418 44.7152 70.2154 44.5094C70.389 44.3035 70.4747 44.0377 70.4542 43.7692V36.9858C70.466 36.7219 70.3765 36.4635 70.204 36.2634C70.0314 36.0634 69.7889 35.937 69.5262 35.91H59.3346C59.0628 35.933 58.8111 36.0624 58.6343 36.27C58.4574 36.4776 58.3697 36.7467 58.3901 37.0186V42.562C58.3901 42.7624 58.3105 42.9546 58.1688 43.0963C58.0271 43.238 57.835 43.3176 57.6346 43.3176C57.4342 43.3176 57.242 43.238 57.1003 43.0963C56.9586 42.9546 56.879 42.7624 56.879 42.562V36.9776C56.8591 36.3029 57.1071 35.6477 57.5687 35.1553C58.0304 34.6628 58.6682 34.3732 59.3428 34.3496H69.5344C69.8687 34.3602 70.1978 34.4366 70.5026 34.5745C70.8074 34.7123 71.0821 34.9089 71.3109 35.153C71.5397 35.397 71.7182 35.6838 71.8361 35.9969C71.954 36.31 72.009 36.6432 71.9981 36.9776V43.7692C72.0136 44.4403 71.7634 45.0904 71.302 45.578C70.8406 46.0655 70.2053 46.3511 69.5344 46.3726H69.5262Z" fill="#668FFF"/>
<g opacity="0.24">
<path opacity="0.24" d="M65.1004 53.2671C67.5677 53.2671 69.5679 51.2669 69.5679 48.7996C69.5679 46.3322 67.5677 44.332 65.1004 44.332C62.633 44.332 60.6328 46.3322 60.6328 48.7996C60.6328 51.2669 62.633 53.2671 65.1004 53.2671Z" fill="#9EBBFF"/>
</g>
<g opacity="0.24">
<path opacity="0.24" d="M30.5086 53.2671C32.9759 53.2671 34.9761 51.2669 34.9761 48.7996C34.9761 46.3322 32.9759 44.332 30.5086 44.332C28.0412 44.332 26.041 46.3322 26.041 48.7996C26.041 51.2669 28.0412 53.2671 30.5086 53.2671Z" fill="#9EBBFF"/>
</g>
<path d="M68.3606 35.6332H57.7995C57.6018 35.6291 57.4132 35.5493 57.2727 35.4102C57.1321 35.2712 57.0502 35.0835 57.0439 34.8859V24.6286C57.0439 24.4282 57.1235 24.236 57.2652 24.0943C57.4069 23.9526 57.5991 23.873 57.7995 23.873H63.7535C64.1816 23.8776 64.5986 24.0097 64.9511 24.2526C65.3037 24.4954 65.5758 24.838 65.7327 25.2363L69.0669 34.582C69.0956 34.6861 69.1034 34.7948 69.09 34.9019C69.0767 35.009 69.0423 35.1125 68.9889 35.2063C68.9355 35.3001 68.8641 35.3825 68.7789 35.4487C68.6936 35.5149 68.5962 35.5636 68.492 35.5922H68.3606V35.6332ZM58.555 34.1303H67.293L64.2709 25.8276C64.225 25.71 64.1449 25.6088 64.041 25.5371C63.9371 25.4654 63.814 25.4264 63.6878 25.4252H58.5222L58.555 34.1303Z" fill="#668FFF"/>
<path d="M71.2084 40.4787H69.0568C68.7958 40.4949 68.5342 40.4595 68.2869 40.3746C68.0395 40.2896 67.8114 40.1568 67.6154 39.9837C67.4194 39.8106 67.2594 39.6006 67.1446 39.3657C67.0298 39.1307 66.9624 38.8755 66.9462 38.6145C66.93 38.3535 66.9654 38.0919 67.0503 37.8446C67.1353 37.5973 67.2681 37.3691 67.4412 37.1731C67.6143 36.9771 67.8243 36.8171 68.0592 36.7023C68.2942 36.5875 68.5494 36.5201 68.8104 36.5039H71.2084C71.4088 36.5039 71.601 36.5835 71.7427 36.7252C71.8844 36.8669 71.964 37.0591 71.964 37.2594V39.7232C71.964 39.9236 71.8844 40.1157 71.7427 40.2574C71.601 40.3991 71.4088 40.4787 71.2084 40.4787ZM69.0568 38.015C68.9942 38.0069 68.9307 38.0112 68.8698 38.0277C68.8089 38.0441 68.7519 38.0724 68.7019 38.1109C68.652 38.1495 68.6101 38.1974 68.5787 38.2521C68.5473 38.3068 68.527 38.3672 68.5189 38.4297C68.5108 38.4923 68.5151 38.5558 68.5316 38.6167C68.548 38.6776 68.5763 38.7346 68.6148 38.7846C68.6533 38.8345 68.7013 38.8764 68.756 38.9078C68.8107 38.9392 68.871 38.9595 68.9336 38.9676H70.4529V38.015H69.0568Z" fill="#1FD157"/>
<path d="M62.8329 50.9989C61.7998 51.0005 60.7895 50.6958 59.9297 50.1232C59.0699 49.5507 58.3991 48.736 58.0023 47.7822C57.6055 46.8284 57.5004 45.7784 57.7003 44.7649C57.9003 43.7514 58.3963 42.82 59.1256 42.0884C59.8549 41.3567 60.7848 40.8578 61.7976 40.6547C62.8105 40.4516 63.8608 40.5534 64.8159 40.9472C65.7709 41.341 66.5877 42.0092 67.1629 42.8672C67.7382 43.7252 68.0461 44.7346 68.0477 45.7676C68.0499 46.4538 67.9166 47.1337 67.6555 47.7683C67.3944 48.4029 67.0106 48.9797 66.5262 49.4657C66.0417 49.9517 65.4661 50.3373 64.8323 50.6004C64.1985 50.8635 63.5191 50.9989 62.8329 50.9989ZM62.8329 42.072C62.098 42.072 61.3797 42.2902 60.7689 42.6988C60.1581 43.1074 59.6823 43.6881 59.4019 44.3673C59.1214 45.0466 59.0489 45.7938 59.1934 46.5143C59.338 47.2348 59.6932 47.8962 60.2139 48.4146C60.7347 48.9331 61.3977 49.2853 62.1188 49.4267C62.8399 49.5681 63.5868 49.4922 64.2648 49.2087C64.9428 48.9253 65.5214 48.4469 65.9273 47.8343C66.3332 47.2217 66.5481 46.5025 66.5449 45.7676C66.5405 44.786 66.1475 43.846 65.4519 43.1534C64.7562 42.4608 63.8145 42.072 62.8329 42.072Z" fill="#668FFF"/>
<path d="M28.2088 50.9989C27.1758 51.0005 26.1655 50.6958 25.3057 50.1232C24.4458 49.5507 23.7751 48.736 23.3783 47.7822C22.9814 46.8284 22.8764 45.7784 23.0763 44.7649C23.2762 43.7514 23.7722 42.82 24.5015 42.0884C25.2309 41.3567 26.1607 40.8578 27.1736 40.6547C28.1865 40.4516 29.2368 40.5534 30.1918 40.9472C31.1468 41.341 31.9636 42.0092 32.5389 42.8672C33.1142 43.7252 33.4221 44.7346 33.4237 45.7676C33.4259 46.4524 33.2931 47.131 33.033 47.7645C32.773 48.398 32.3907 48.9741 31.9079 49.4599C31.4252 49.9457 30.8515 50.3316 30.2197 50.5957C29.5878 50.8597 28.9101 50.9968 28.2253 50.9989H28.2088ZM28.2088 42.072C27.474 42.072 26.7556 42.2902 26.1449 42.6988C25.5341 43.1074 25.0583 43.6881 24.7778 44.3673C24.4974 45.0466 24.4248 45.7938 24.5694 46.5143C24.714 47.2348 25.0691 47.8962 25.5899 48.4146C26.1107 48.9331 26.7736 49.2853 27.4948 49.4267C28.2159 49.5681 28.9628 49.4922 29.6408 49.2087C30.3188 48.9253 30.8974 48.4469 31.3033 47.8343C31.7092 47.2217 31.9241 46.5025 31.9208 45.7676C31.9165 44.786 31.5235 43.846 30.8278 43.1534C30.1322 42.4608 29.1905 42.072 28.2088 42.072Z" fill="#668FFF"/>
<path d="M28.2178 48.4282C27.6929 48.4315 27.1787 48.2789 26.7406 47.9897C26.3024 47.7006 25.9598 47.288 25.7563 46.804C25.5528 46.3201 25.4974 45.7867 25.5972 45.2713C25.6971 44.7559 25.9476 44.2817 26.3171 43.9087C26.6865 43.5358 27.1584 43.2809 27.6728 43.1762C28.1873 43.0716 28.7212 43.122 29.207 43.321C29.6928 43.5201 30.1086 43.8588 30.4018 44.2942C30.695 44.7297 30.8524 45.2424 30.854 45.7674C30.8562 46.1147 30.7899 46.459 30.659 46.7806C30.5281 47.1023 30.3352 47.395 30.0911 47.6421C29.8471 47.8892 29.5568 48.0858 29.2368 48.2206C28.9168 48.3555 28.5733 48.4261 28.2261 48.4282H28.2178ZM28.2178 44.6587C27.9921 44.6555 27.7705 44.7193 27.581 44.842C27.3915 44.9647 27.2427 45.1409 27.1533 45.3482C27.0639 45.5555 27.038 45.7847 27.0789 46.0067C27.1197 46.2288 27.2255 46.4337 27.3828 46.5956C27.5402 46.7575 27.742 46.8692 27.9627 46.9164C28.1835 46.9636 28.4133 46.9443 28.6231 46.861C28.8329 46.7776 29.0133 46.6339 29.1414 46.448C29.2695 46.2621 29.3397 46.0424 29.3429 45.8167C29.3451 45.6668 29.3177 45.5179 29.2624 45.3786C29.207 45.2392 29.1247 45.1122 29.0203 45.0046C28.9158 44.8971 28.7911 44.8112 28.6535 44.7519C28.5158 44.6925 28.3678 44.6609 28.2178 44.6587Z" fill="#668FFF"/>
<path d="M62.8327 48.4282C62.3081 48.4299 61.7947 48.2759 61.3576 47.9858C60.9205 47.6956 60.5792 47.2824 60.3769 46.7983C60.1747 46.3143 60.1205 45.7811 60.2213 45.2662C60.322 44.7513 60.5732 44.2779 60.943 43.9058C61.3128 43.5337 61.7847 43.2796 62.2989 43.1756C62.8132 43.0717 63.3467 43.1226 63.832 43.3218C64.3173 43.5211 64.7326 43.8598 65.0255 44.2951C65.3183 44.7304 65.4755 45.2428 65.4771 45.7674C65.4782 46.1158 65.4106 46.4609 65.2783 46.7832C65.146 47.1054 64.9515 47.3984 64.706 47.6455C64.4604 47.8926 64.1686 48.0889 63.8472 48.2232C63.5257 48.3575 63.181 48.4272 62.8327 48.4282ZM62.8327 44.6588C62.6055 44.6588 62.3836 44.7267 62.1952 44.8537C62.0068 44.9806 61.8606 45.1609 61.7753 45.3714C61.6899 45.5819 61.6693 45.8131 61.7161 46.0353C61.7629 46.2576 61.8749 46.4609 62.0378 46.6192C62.2008 46.7774 62.4073 46.8835 62.6308 46.9237C62.8544 46.964 63.0848 46.9366 63.2928 46.8452C63.5007 46.7537 63.6766 46.6023 63.798 46.4103C63.9194 46.2183 63.9807 45.9945 63.9742 45.7674C63.9657 45.4704 63.8416 45.1884 63.6285 44.9814C63.4153 44.7744 63.1298 44.6586 62.8327 44.6588Z" fill="#668FFF"/>
<path d="M57.3792 39.888H18.7809C18.5806 39.888 18.3884 39.8084 18.2467 39.6667C18.105 39.5251 18.0254 39.3329 18.0254 39.1325C18.0254 38.9321 18.105 38.7399 18.2467 38.5982C18.3884 38.4566 18.5806 38.377 18.7809 38.377H57.3792C57.5796 38.377 57.7718 38.4566 57.9135 38.5982C58.0552 38.7399 58.1348 38.9321 58.1348 39.1325C58.1348 39.3329 58.0552 39.5251 57.9135 39.6667C57.7718 39.8084 57.5796 39.888 57.3792 39.888Z" fill="#668FFF"/>
<path d="M33.8845 30.3956C33.6964 30.3941 33.5154 30.324 33.3753 30.1985L27.8566 25.1889C27.7152 25.0473 27.6357 24.8553 27.6357 24.6551C27.6357 24.455 27.7152 24.263 27.8566 24.1213C27.9895 23.9935 28.1642 23.9182 28.3483 23.9091C28.5325 23.9001 28.7137 23.9579 28.8585 24.072L34.3772 29.0816C34.4506 29.1485 34.5101 29.2291 34.5522 29.3189C34.5944 29.4088 34.6185 29.5061 34.6231 29.6052C34.6276 29.7043 34.6126 29.8034 34.5789 29.8968C34.5452 29.9901 34.4934 30.0759 34.4265 30.1492C34.3576 30.2271 34.2729 30.2893 34.178 30.3318C34.0831 30.3743 33.9802 30.396 33.8763 30.3956H33.8845Z" fill="#668FFF"/>
<path d="M41.4221 30.3928C41.2366 30.3909 41.0583 30.3207 40.9212 30.1957L35.3942 25.1862C35.2299 25.0717 35.1176 24.8968 35.0822 24.6997C35.0468 24.5025 35.0911 24.2994 35.2054 24.135C35.2598 24.0546 35.3296 23.9858 35.4106 23.9324C35.4917 23.879 35.5825 23.8421 35.6778 23.8238C35.7731 23.8055 35.8711 23.8062 35.9662 23.8257C36.0613 23.8453 36.1516 23.8834 36.2319 23.9379L36.3222 24.0036L36.3879 24.0611L41.9149 29.0706C42.0276 29.1733 42.1065 29.3077 42.1415 29.4561C42.1764 29.6044 42.1656 29.7599 42.1105 29.9021C42.0554 30.0442 41.9586 30.1664 41.8328 30.2525C41.7071 30.3386 41.5582 30.3847 41.4057 30.3846L41.4221 30.3928Z" fill="#668FFF"/>
<path d="M48.971 30.3944C48.7781 30.3856 48.5959 30.3034 48.4618 30.1645L42.9431 25.1549C42.7787 25.0405 42.6665 24.8655 42.6311 24.6684C42.5956 24.4713 42.6399 24.2682 42.7542 24.1037C42.8086 24.0234 42.8784 23.9545 42.9595 23.9011C43.0405 23.8478 43.1313 23.8109 43.2266 23.7926C43.322 23.7743 43.42 23.7749 43.515 23.7945C43.6101 23.814 43.7004 23.8522 43.7807 23.9066L43.8711 23.9723L43.9368 24.0298L49.4555 29.0394C49.5289 29.1062 49.5883 29.1869 49.6305 29.2767C49.6727 29.3666 49.6968 29.4638 49.7013 29.563C49.7059 29.6621 49.6909 29.7612 49.6572 29.8545C49.6235 29.9479 49.5717 30.0337 49.5048 30.107C49.4359 30.1848 49.3511 30.2471 49.2562 30.2895C49.1614 30.332 49.0585 30.3538 48.9545 30.3534L48.971 30.3944Z" fill="#668FFF"/>
<path d="M14.1335 19.2421H6.0771C5.85929 19.2421 5.65041 19.1556 5.4964 19.0016C5.34238 18.8475 5.25586 18.6387 5.25586 18.4208C5.25586 18.203 5.34238 17.9942 5.4964 17.8401C5.65041 17.6861 5.85929 17.5996 6.0771 17.5996H14.1335C14.3513 17.5996 14.5602 17.6861 14.7142 17.8401C14.8682 17.9942 14.9547 18.203 14.9547 18.4208C14.9547 18.6387 14.8682 18.8475 14.7142 19.0016C14.5602 19.1556 14.3513 19.2421 14.1335 19.2421Z" fill="#668FFF"/>
<path d="M14.1335 39.7733H6.0771C5.85929 39.7733 5.65041 39.6868 5.4964 39.5328C5.34238 39.3788 5.25586 39.1699 5.25586 38.9521C5.25586 38.7343 5.34238 38.5254 5.4964 38.3714C5.65041 38.2174 5.85929 38.1309 6.0771 38.1309H14.1335C14.3513 38.1309 14.5602 38.2174 14.7142 38.3714C14.8682 38.5254 14.9547 38.7343 14.9547 38.9521C14.9547 39.1699 14.8682 39.3788 14.7142 39.5328C14.5602 39.6868 14.3513 39.7733 14.1335 39.7733Z" fill="#668FFF"/>
<path d="M8.87761 29.5077H0.821241C0.603434 29.5077 0.394549 29.4212 0.240537 29.2672C0.0865243 29.1132 0 28.9043 0 28.6865C0 28.4687 0.0865243 28.2598 0.240537 28.1058C0.394549 27.9518 0.603434 27.8652 0.821241 27.8652H8.87761C9.09542 27.8652 9.3043 27.9518 9.45832 28.1058C9.61233 28.2598 9.69885 28.4687 9.69885 28.6865C9.69885 28.9043 9.61233 29.1132 9.45832 29.2672C9.3043 29.4212 9.09542 29.5077 8.87761 29.5077Z" fill="#668FFF"/>
</svg>
