<svg width="72" height="62" viewBox="0 0 72 62" fill="none" xmlns="http://www.w3.org/2000/svg">
<path d="M68.1913 7.60177C67.4399 7.60018 66.7058 7.37591 66.0818 6.95729C65.4578 6.53868 64.9719 5.94451 64.6855 5.24985C64.399 4.55519 64.3249 3.79121 64.4725 3.05444C64.62 2.31767 64.9827 1.64117 65.5145 1.11041C66.0464 0.579655 66.7237 0.218454 67.4608 0.0724478C68.1978 -0.0735587 68.9617 0.00218004 69.6557 0.290095C70.3498 0.578011 70.9429 1.06518 71.3602 1.69006C71.7775 2.31494 72.0002 3.04948 72.0002 3.80088C72.0002 4.3007 71.9016 4.79561 71.7101 5.25728C71.5186 5.71895 71.2379 6.13831 70.8841 6.49136C70.5303 6.84442 70.1104 7.12422 69.6483 7.31476C69.1862 7.50529 68.6911 7.60283 68.1913 7.60177ZM68.1913 1.61054C67.7584 1.61213 67.3357 1.74194 66.9766 1.98359C66.6175 2.22523 66.338 2.56787 66.1734 2.96824C66.0089 3.36861 65.9666 3.80876 66.0521 4.23311C66.1375 4.65746 66.3467 5.04699 66.6534 5.35251C66.96 5.65803 67.3503 5.86584 67.775 5.94971C68.1996 6.03357 68.6396 5.98973 69.0394 5.82371C69.4391 5.65769 69.7808 5.37695 70.0211 5.01693C70.2614 4.6569 70.3897 4.23375 70.3897 3.80088C70.3897 3.51256 70.3327 3.22708 70.2222 2.96081C70.1116 2.69454 69.9495 2.45272 69.7453 2.24922C69.541 2.04572 69.2986 1.88455 69.032 1.77495C68.7653 1.66535 68.4796 1.60948 68.1913 1.61054Z" fill="#668FFF"/>
<path d="M5.0497 24.4321C4.83649 24.4292 4.63227 24.3458 4.47795 24.1986L0.234169 19.979C0.084186 19.8281 0 19.624 0 19.4113C0 19.1985 0.084186 18.9944 0.234169 18.8435C0.385047 18.6936 0.589144 18.6094 0.801886 18.6094C1.01463 18.6094 1.21873 18.6936 1.3696 18.8435L5.61339 23.0873C5.76337 23.2382 5.84756 23.4423 5.84756 23.655C5.84756 23.8678 5.76337 24.0719 5.61339 24.2228C5.45958 24.3627 5.25758 24.4377 5.0497 24.4321Z" fill="#668FFF"/>
<path d="M56.3055 61.1848H50.274C50.0605 61.1848 49.8556 61.0999 49.7046 60.9489C49.5536 60.7979 49.4688 60.5931 49.4688 60.3795C49.4688 60.1659 49.5536 59.9611 49.7046 59.8101C49.8556 59.6591 50.0605 59.5742 50.274 59.5742H56.3055C56.5191 59.5742 56.7239 59.6591 56.8749 59.8101C57.0259 59.9611 57.1108 60.1659 57.1108 60.3795C57.1108 60.5931 57.0259 60.7979 56.8749 60.9489C56.7239 61.0999 56.5191 61.1848 56.3055 61.1848Z" fill="#668FFF"/>
<path d="M0.805912 24.4329C0.592702 24.4299 0.388486 24.3465 0.234169 24.1993C0.084186 24.0484 0 23.8444 0 23.6316C0 23.4189 0.084186 23.2148 0.234169 23.0639L4.47795 18.8201C4.62883 18.6701 4.83293 18.5859 5.04567 18.5859C5.25841 18.5859 5.46251 18.6701 5.61339 18.8201C5.76337 18.971 5.84756 19.1751 5.84756 19.3878C5.84756 19.6006 5.76337 19.8047 5.61339 19.9555L1.3696 24.1993C1.21961 24.3481 1.01717 24.432 0.805912 24.4329Z" fill="#668FFF"/>
<path d="M33.548 54.1143H27.1944C26.585 54.1122 26.0013 53.8686 25.5711 53.4369C25.141 53.0052 24.8994 52.4206 24.8994 51.8112V45.4496C24.9015 44.8394 25.1449 44.2548 25.5763 43.8234C26.0078 43.3919 26.5923 43.1486 27.2025 43.1465H33.5561C34.1663 43.1486 34.7508 43.3919 35.1823 43.8234C35.6137 44.2548 35.8571 44.8394 35.8592 45.4496V51.8112C35.8592 52.422 35.6165 53.0078 35.1846 53.4397C34.7527 53.8717 34.1669 54.1143 33.5561 54.1143H33.548ZM27.1944 44.596C26.9673 44.596 26.7494 44.6856 26.588 44.8455C26.4266 45.0053 26.3349 45.2224 26.3328 45.4496V51.8112C26.3328 52.0397 26.4236 52.2589 26.5852 52.4205C26.7468 52.5821 26.9659 52.6729 27.1944 52.6729H33.548C33.7766 52.6729 33.9957 52.5821 34.1573 52.4205C34.3189 52.2589 34.4097 52.0397 34.4097 51.8112V45.4496C34.4076 45.2224 34.3158 45.0053 34.1545 44.8455C33.9931 44.6856 33.7752 44.596 33.548 44.596H27.1944Z" fill="#1FD157"/>
<path d="M43.1227 54.1143H36.7611C36.1503 54.1143 35.5645 53.8717 35.1326 53.4397C34.7007 53.0078 34.458 52.422 34.458 51.8112V45.4496C34.4601 44.8394 34.7035 44.2548 35.1349 43.8234C35.5664 43.3919 36.1509 43.1486 36.7611 43.1465H43.1227C43.7329 43.1486 44.3175 43.3919 44.7489 43.8234C45.1804 44.2548 45.4237 44.8394 45.4258 45.4496V51.8112C45.4258 52.422 45.1832 53.0078 44.7513 53.4397C44.3194 53.8717 43.7336 54.1143 43.1227 54.1143ZM36.7611 44.596C36.6487 44.5949 36.5372 44.6162 36.4332 44.6588C36.3291 44.7013 36.2346 44.7641 36.1551 44.8436C36.0756 44.9231 36.0128 45.0176 35.9703 45.1216C35.9278 45.2257 35.9064 45.3372 35.9075 45.4496V51.8112C35.9031 52.0314 35.9847 52.2447 36.1351 52.4056C36.2855 52.5665 36.4928 52.6624 36.7128 52.6729H43.0825C43.311 52.6729 43.5302 52.5821 43.6917 52.4205C43.8533 52.2589 43.9441 52.0397 43.9441 51.8112V45.4496C43.942 45.2224 43.8503 45.0053 43.6889 44.8455C43.5276 44.6856 43.3096 44.596 43.0825 44.596H36.7611Z" fill="#1FD157"/>
<path d="M38.3559 44.5889H32.0265C31.4171 44.5868 30.8333 44.3432 30.4032 43.9115C29.973 43.4798 29.7314 42.8953 29.7314 42.2858V35.9242C29.7314 35.3134 29.9741 34.7276 30.406 34.2957C30.8379 33.8637 31.4237 33.6211 32.0345 33.6211H38.3962C39.007 33.6211 39.5928 33.8637 40.0247 34.2957C40.4566 34.7276 40.6993 35.3134 40.6993 35.9242V42.2858C40.6993 42.8966 40.4566 43.4824 40.0247 43.9144C39.5928 44.3463 39.007 44.5889 38.3962 44.5889H38.3559ZM32.0265 35.0625C31.9141 35.0615 31.8026 35.0828 31.6985 35.1253C31.5945 35.1678 31.5 35.2307 31.4205 35.3101C31.341 35.3896 31.2782 35.4842 31.2357 35.5882C31.1932 35.6922 31.1718 35.8037 31.1729 35.9161V42.2778C31.1707 42.3902 31.191 42.5018 31.2326 42.6063C31.2741 42.7107 31.336 42.8059 31.4148 42.8861C31.4935 42.9663 31.5874 43.0301 31.6911 43.0735C31.7947 43.117 31.906 43.1394 32.0184 43.1394H38.3881C38.6166 43.1394 38.8358 43.0486 38.9974 42.8871C39.159 42.7255 39.2498 42.5063 39.2498 42.2778V35.9242C39.2498 35.6957 39.159 35.4765 38.9974 35.3149C38.8358 35.1533 38.6166 35.0625 38.3881 35.0625H32.0265Z" fill="#1FD157"/>
<path d="M53.8896 54.0496H16.3559C15.3997 54.0475 14.4833 53.6667 13.8072 52.9906C13.1311 52.3145 12.7504 51.3981 12.7482 50.442V20.7033C12.7406 19.8478 12.9602 19.0056 13.3846 18.2629C13.8091 17.5201 14.4232 16.9033 15.1641 16.4756L33.323 5.92653C33.8729 5.60997 34.4963 5.44336 35.1308 5.44336C35.7653 5.44336 36.3887 5.60997 36.9386 5.92653L55.0734 16.4595C55.8143 16.8872 56.4283 17.504 56.8528 18.2468C57.2772 18.9895 57.4968 19.8317 57.4892 20.6872V50.4823C57.4765 51.43 57.0922 52.3349 56.419 53.0021C55.7458 53.6693 54.8375 54.0455 53.8896 54.0496ZM35.1268 6.8848C34.7456 6.88731 34.3714 6.9871 34.0396 7.1747L15.8969 17.7157C15.3755 18.0205 14.9434 18.4569 14.6438 18.9812C14.3442 19.5055 14.1876 20.0994 14.1897 20.7033V50.442C14.1886 50.7268 14.2439 51.0089 14.3524 51.2722C14.4609 51.5355 14.6204 51.7747 14.8218 51.9761C15.0231 52.1775 15.2623 52.337 15.5256 52.4455C15.7889 52.5539 16.0711 52.6092 16.3559 52.6082H53.8896C54.4628 52.604 55.0114 52.3744 55.4167 51.9691C55.822 51.5637 56.0516 51.0152 56.0558 50.442V20.6872C56.0549 20.084 55.8961 19.4916 55.5951 18.9689C55.2942 18.4462 54.8617 18.0113 54.3406 17.7077L36.2219 7.1747C35.8931 6.98709 35.5215 6.88725 35.1429 6.8848H35.1268Z" fill="#668FFF"/>
<path d="M49.6296 54.0575H20.6398C20.5447 54.0575 20.4504 54.0387 20.3625 54.0023C20.2745 53.9659 20.1947 53.9125 20.1274 53.8452C20.0601 53.7779 20.0067 53.698 19.9702 53.6101C19.9338 53.5221 19.9151 53.4279 19.9151 53.3327V28.7075C19.913 28.3035 19.9904 27.9031 20.1431 27.5291C20.2957 27.155 20.5205 26.8147 20.8047 26.5276C21.0888 26.2404 21.4267 26.0121 21.7991 25.8555C22.1716 25.699 22.5712 25.6173 22.9751 25.6152H47.2782C48.0914 25.6194 48.8702 25.9438 49.4459 26.518C50.0217 27.0923 50.348 27.8702 50.3544 28.6833V53.3327C50.3544 53.5249 50.278 53.7093 50.1421 53.8452C50.0062 53.9811 49.8219 54.0575 49.6296 54.0575ZM21.3565 52.616H48.9049V28.7075C48.9049 28.2803 48.7352 27.8707 48.4332 27.5687C48.1311 27.2666 47.7215 27.0969 47.2944 27.0969H22.9751C22.548 27.0969 22.1383 27.2666 21.8363 27.5687C21.5343 27.8707 21.3646 28.2803 21.3646 28.7075L21.3565 52.616Z" fill="#668FFF"/>
<path opacity="0.24" d="M26.1158 17.3613H45.5873C46.1818 17.3613 46.7521 17.5969 47.1732 18.0165C47.5943 18.4361 47.8319 19.0055 47.8341 19.6C47.8341 19.895 47.7759 20.1872 47.663 20.4598C47.5501 20.7323 47.3846 20.98 47.176 21.1886C46.9674 21.3973 46.7197 21.5628 46.4471 21.6757C46.1745 21.7886 45.8824 21.8467 45.5873 21.8467H26.1158C25.52 21.8467 24.9485 21.61 24.5272 21.1886C24.1058 20.7673 23.8691 20.1959 23.8691 19.6C23.8713 19.0055 24.1089 18.4361 24.53 18.0165C24.9511 17.5969 25.5214 17.3613 26.1158 17.3613Z" fill="#9EBBFF"/>
<path d="M44.9427 20.6803H25.3101C24.7593 20.5987 24.2536 20.3294 23.8785 19.9179C23.5034 19.5064 23.2819 18.978 23.2516 18.422C23.2213 17.866 23.384 17.3166 23.7122 16.8668C24.0403 16.4169 24.5138 16.0942 25.0525 15.9533C25.1382 15.9453 25.2244 15.9453 25.3101 15.9533H44.9427C45.5115 16.0153 46.0399 16.2772 46.4337 16.6923C46.8276 17.1074 47.0612 17.6489 47.0931 18.2202C47.125 18.7916 46.9531 19.3557 46.6079 19.8121C46.2628 20.2685 45.7669 20.5876 45.2084 20.7125L44.9427 20.6803ZM25.3101 17.3625C25.0627 17.3424 24.8173 17.4208 24.6273 17.5806C24.4373 17.7405 24.318 17.9689 24.2955 18.2161C24.2725 18.4565 24.3436 18.6965 24.4937 18.8857C24.6438 19.0749 24.8614 19.1985 25.1008 19.2308H44.9427C45.1904 19.2521 45.4365 19.1742 45.6268 19.0141C45.8171 18.854 45.936 18.6249 45.9573 18.3772C45.9787 18.1294 45.9008 17.8834 45.7407 17.6931C45.5806 17.5028 45.3515 17.3839 45.1037 17.3625H25.3101Z" fill="#668FFF"/>
</svg>
