<svg width="72" height="62" viewBox="0 0 72 62" fill="none" xmlns="http://www.w3.org/2000/svg">
<path d="M68.445 7.11069C67.7418 7.11069 67.0544 6.90217 66.4698 6.5115C65.8851 6.12084 65.4294 5.56557 65.1603 4.91591C64.8912 4.26626 64.8208 3.5514 64.958 2.86173C65.0951 2.17206 65.4338 1.53856 65.931 1.04134C66.4282 0.544114 67.0617 0.2055 67.7514 0.0683165C68.4411 -0.0688672 69.1559 0.00154059 69.8056 0.270636C70.4552 0.539732 71.0105 0.995429 71.4012 1.5801C71.7918 2.16478 72.0003 2.85216 72.0003 3.55534C72.0003 4.49629 71.6265 5.3987 70.9612 6.06405C70.2958 6.7294 69.3934 7.10319 68.4525 7.10319L68.445 7.11069ZM68.445 1.36513C68.0103 1.36513 67.5854 1.49403 67.224 1.73551C66.8626 1.977 66.5809 2.32024 66.4146 2.72182C66.2482 3.1234 66.2047 3.56528 66.2895 3.9916C66.3743 4.41791 66.5836 4.80951 66.891 5.11686C67.1983 5.42422 67.5899 5.63353 68.0162 5.71833C68.4426 5.80313 68.8844 5.75961 69.286 5.59327C69.6876 5.42693 70.0308 5.14524 70.2723 4.78383C70.5138 4.42242 70.6427 3.99751 70.6427 3.56285C70.6427 2.97998 70.4112 2.42098 69.999 2.00883C69.5869 1.59668 69.0279 1.36513 68.445 1.36513Z" fill="#668FFF"/>
<path d="M4.77943 51.7239C4.60046 51.7222 4.42884 51.6525 4.29938 51.5289L0.218987 47.4635C0.0962321 47.3399 0.0273438 47.1727 0.0273438 46.9985C0.0273438 46.8242 0.0962321 46.6571 0.218987 46.5334C0.342633 46.4107 0.509799 46.3418 0.684032 46.3418C0.858265 46.3418 1.02543 46.4107 1.14908 46.5334L5.23697 50.6138C5.36339 50.7416 5.4343 50.9141 5.4343 51.0939C5.4343 51.2736 5.36339 51.4461 5.23697 51.5739C5.10843 51.6791 4.94529 51.7326 4.77943 51.7239Z" fill="#668FFF"/>
<path d="M0.683174 51.7253C0.502146 51.7253 0.328533 51.6534 0.200527 51.5253C0.0725211 51.3973 0.000608074 51.2237 0.000608074 51.0427C-0.00326679 50.954 0.0114101 50.8655 0.0436999 50.7829C0.0759898 50.7002 0.125181 50.6252 0.188126 50.5627L4.26852 46.4823C4.39882 46.35 4.57633 46.2749 4.76201 46.2735C4.94769 46.2721 5.12633 46.3445 5.25862 46.4748C5.3909 46.6051 5.46601 46.7826 5.46742 46.9683C5.46883 47.1539 5.39642 47.3326 5.26612 47.4649L1.17822 51.5527C1.11162 51.6134 1.03342 51.66 0.948341 51.6896C0.863262 51.7193 0.773062 51.7314 0.683174 51.7253Z" fill="#668FFF"/>
<path d="M53.1214 61.774H46.4907C46.3115 61.7915 46.1326 61.7373 45.9931 61.6234C45.8536 61.5095 45.7647 61.3451 45.7459 61.1659C45.7271 60.9868 45.7799 60.8075 45.8927 60.6671C46.0055 60.5267 46.1692 60.4366 46.3482 60.4164H53.1364C53.2259 60.4063 53.3165 60.414 53.403 60.4391C53.4896 60.4642 53.5702 60.5062 53.6405 60.5626C53.7107 60.619 53.769 60.6888 53.8122 60.7679C53.8553 60.847 53.8823 60.9338 53.8917 61.0234C53.9011 61.113 53.8927 61.2036 53.867 61.2899C53.8412 61.3762 53.7986 61.4566 53.7416 61.5264C53.6847 61.5961 53.6144 61.6539 53.535 61.6965C53.4556 61.739 53.3686 61.7653 53.2789 61.774C53.2317 61.7815 53.1836 61.7815 53.1364 61.774H53.1214Z" fill="#668FFF"/>
<path d="M16.173 35.2212L15.1229 35.4087C14.9508 35.4286 14.7775 35.3824 14.6382 35.2793C14.4989 35.1763 14.404 35.0241 14.3728 34.8536V34.7111C14.3549 34.5382 14.4029 34.3649 14.5072 34.2259C14.6114 34.0868 14.7644 33.9922 14.9354 33.961H14.9954L16.0755 33.916C16.2423 33.915 16.4035 33.9757 16.5282 34.0865C16.6528 34.1973 16.732 34.3503 16.7506 34.5161C16.7598 34.6845 16.7056 34.8503 16.5987 34.9808C16.4918 35.1113 16.34 35.197 16.173 35.2212Z" fill="#668FFF"/>
<path d="M19.8037 44.0586L18.9411 44.8087C18.7862 44.9152 18.597 44.9597 18.4108 44.9333C18.2247 44.9069 18.0552 44.8116 17.936 44.6662L17.861 44.5536C17.7543 44.4094 17.7079 44.2293 17.7317 44.0515C17.7555 43.8737 17.8476 43.7121 17.9885 43.6011H18.0335L18.9936 42.9635C19.1481 42.8788 19.3275 42.8512 19.5003 42.8854C19.6731 42.9197 19.8283 43.0137 19.9387 43.151C20.033 43.292 20.0714 43.4631 20.0465 43.6309C20.0215 43.7987 19.935 43.9511 19.8037 44.0586Z" fill="#668FFF"/>
<path d="M27.0334 50.4128L26.5233 51.3728C26.4415 51.5317 26.3005 51.6522 26.1308 51.7083C25.9611 51.7644 25.7762 51.7517 25.6158 51.6729L25.5483 51.6279L25.4357 51.5679C25.3604 51.5231 25.2946 51.4638 25.2421 51.3936C25.1896 51.3234 25.1515 51.2435 25.1299 51.1585C25.1083 51.0735 25.1037 50.9851 25.1163 50.8983C25.1289 50.8116 25.1584 50.7281 25.2032 50.6528L25.8258 49.7527C25.9214 49.604 26.0711 49.4982 26.2432 49.4577C26.4152 49.4171 26.5964 49.4449 26.7484 49.5352C26.8971 49.6192 27.0089 49.756 27.0616 49.9185C27.1144 50.081 27.1043 50.2573 27.0334 50.4128Z" fill="#668FFF"/>
<path d="M58.056 30.5445L59.0911 30.4395C59.2582 30.4398 59.4195 30.5009 59.5451 30.6113C59.6706 30.7216 59.7518 30.8738 59.7736 31.0395V31.197C59.7726 31.3676 59.7084 31.5318 59.5934 31.6579C59.4785 31.7839 59.3209 31.8629 59.1511 31.8796H58.1085C57.9446 31.8758 57.7884 31.809 57.6725 31.693C57.5565 31.5771 57.4897 31.4209 57.4859 31.257C57.4745 31.0885 57.5268 30.9218 57.6323 30.7898C57.7378 30.6579 57.889 30.5704 58.056 30.5445Z" fill="#668FFF"/>
<path d="M55.1453 21.4654L56.0154 20.8729C56.0828 20.823 56.1594 20.787 56.2408 20.7668C56.3222 20.7466 56.4068 20.7427 56.4897 20.7552C56.5726 20.7678 56.6522 20.7965 56.724 20.8399C56.7958 20.8833 56.8583 20.9403 56.9079 21.0079L56.983 21.1279C57.0653 21.2776 57.0879 21.4529 57.0462 21.6185C57.0044 21.7841 56.9014 21.9278 56.7579 22.0205L55.8203 22.5155C55.6757 22.5951 55.5063 22.6169 55.3462 22.5765C55.1862 22.5362 55.0474 22.4367 54.9578 22.298C54.8898 22.1586 54.8713 22.0002 54.9054 21.8488C54.9394 21.6975 55.0241 21.5623 55.1453 21.4654Z" fill="#668FFF"/>
<path d="M48.8684 14.574L49.4385 13.7115C49.4799 13.6435 49.5345 13.5845 49.5989 13.5378C49.6634 13.4912 49.7365 13.4578 49.814 13.4396C49.8914 13.4215 49.9718 13.4189 50.0502 13.4321C50.1287 13.4453 50.2038 13.474 50.2711 13.5164L50.3836 13.584C50.4512 13.6317 50.5087 13.6924 50.5526 13.7626C50.5964 13.8328 50.6259 13.9111 50.6391 13.9928C50.6524 14.0745 50.6493 14.1581 50.6298 14.2386C50.6104 14.319 50.5752 14.3948 50.5261 14.4615L49.9035 15.3016C49.8025 15.4222 49.6592 15.4995 49.5029 15.5177C49.3467 15.5358 49.1894 15.4934 49.0635 15.3991C48.9327 15.3117 48.84 15.178 48.8038 15.0249C48.7676 14.8719 48.7907 14.7108 48.8684 14.574Z" fill="#668FFF"/>
<path d="M36.8294 54.7017C34.6937 54.7032 32.5681 54.4078 30.5138 53.8241C30.3231 53.7699 30.1616 53.6424 30.0647 53.4696C29.9677 53.2967 29.9431 53.0925 29.9962 52.9015C30.0521 52.7156 30.1778 52.5585 30.3471 52.4634C30.5164 52.3683 30.7159 52.3425 30.9038 52.3915C33.5865 53.1672 36.3957 53.407 39.171 53.097C41.9463 52.7871 44.6334 51.9336 47.0789 50.5851C49.5243 49.2367 51.6802 47.4197 53.4235 45.2381C55.1667 43.0564 56.4632 40.5528 57.2388 37.8701C57.4187 37.2855 57.5689 36.6922 57.6889 36.0924C57.7253 35.8978 57.8373 35.7255 58.0003 35.6131C58.1633 35.5007 58.3641 35.4573 58.559 35.4923C58.6565 35.507 58.7503 35.5407 58.8348 35.5917C58.9193 35.6426 58.9929 35.7097 59.0514 35.7891C59.1099 35.8686 59.1522 35.9588 59.1758 36.0546C59.1994 36.1504 59.2039 36.2499 59.189 36.3474C58.1747 41.528 55.3881 46.1937 51.3078 49.543C47.2275 52.8924 42.1083 54.7164 36.8294 54.7017Z" fill="#668FFF"/>
<path d="M15.5272 27.3246H15.3397C15.1512 27.2734 14.9901 27.1508 14.8907 26.9827C14.7912 26.8146 14.7612 26.6143 14.8071 26.4245C16.2828 20.5832 20.0181 15.5673 25.1917 12.4798C30.3652 9.39224 36.5532 8.48603 42.3948 9.96043C43.3396 10.2012 44.269 10.4992 45.1776 10.853C45.3167 10.9497 45.4189 11.0905 45.4678 11.2527C45.5166 11.4149 45.5091 11.5889 45.4465 11.7462C45.3839 11.9036 45.2699 12.0352 45.123 12.1195C44.9761 12.2038 44.805 12.2359 44.6375 12.2106C39.3717 10.1569 33.5058 10.2785 28.3296 12.5487C23.1534 14.8189 19.0907 19.0518 17.0348 24.3168C16.7204 25.1278 16.4549 25.9568 16.2398 26.7996C16.192 26.9513 16.0973 27.084 15.9692 27.1784C15.8411 27.2728 15.6863 27.324 15.5272 27.3246Z" fill="#668FFF"/>
<path d="M15.5269 27.3254C15.328 27.3254 15.1372 27.2464 14.9965 27.1057C14.8558 26.965 14.7768 26.7743 14.7768 26.5753V17.0044C14.7579 16.8055 14.8188 16.6072 14.9461 16.4531C15.0734 16.2991 15.2567 16.202 15.4556 16.1831C15.6546 16.1642 15.8529 16.2251 16.0069 16.3524C16.1609 16.4797 16.2581 16.663 16.277 16.8619V26.6128C16.2673 26.8052 16.1841 26.9865 16.0444 27.1191C15.9048 27.2518 15.7195 27.3256 15.5269 27.3254Z" fill="#668FFF"/>
<path d="M58.3936 46.519C58.1947 46.519 58.0039 46.44 57.8632 46.2993C57.7226 46.1587 57.6436 45.9679 57.6436 45.769V36.168C57.6436 35.9691 57.7226 35.7783 57.8632 35.6377C58.0039 35.497 58.1947 35.418 58.3936 35.418C58.5926 35.418 58.7833 35.497 58.924 35.6377C59.0647 35.7783 59.1437 35.9691 59.1437 36.168V45.7765C59.1437 45.9754 59.0647 46.1662 58.924 46.3069C58.7833 46.4475 58.5926 46.5265 58.3936 46.5265V46.519Z" fill="#668FFF"/>
<g opacity="0.24">
<path opacity="0.24" d="M47.2583 23.2738L25.5803 30.6536C23.7098 31.2904 22.7096 33.323 23.3464 35.1936L25.2487 40.7817C25.8855 42.6523 27.9181 43.6525 29.7887 43.0157L51.4667 35.6359C53.3373 34.9991 54.3374 32.9665 53.7007 31.0959L51.7983 25.5078C51.1615 23.6372 49.1289 22.637 47.2583 23.2738Z" fill="#9EBBFF"/>
</g>
<path d="M36.5817 36.7151C36.4191 36.7241 36.2579 36.68 36.1226 36.5893C35.9873 36.4986 35.8852 36.3664 35.8316 36.2125L33.3114 28.7943C33.2779 28.6998 33.2634 28.5995 33.2686 28.4993C33.2739 28.3992 33.2988 28.301 33.342 28.2104C33.3852 28.1199 33.4458 28.0388 33.5203 27.9716C33.5948 27.9045 33.6819 27.8527 33.7764 27.8192C33.871 27.7857 33.9712 27.7712 34.0714 27.7764C34.1716 27.7817 34.2698 27.8066 34.3603 27.8498C34.4509 27.893 34.532 27.9536 34.5991 28.0281C34.6663 28.1027 34.7181 28.1897 34.7515 28.2843L37.2868 35.695C37.3494 35.881 37.3365 36.0842 37.251 36.2609C37.1654 36.4376 37.014 36.5737 36.8292 36.6401C36.7502 36.6752 36.667 36.7004 36.5817 36.7151Z" fill="#1FD157"/>
<path d="M34.4371 33.1157C34.3406 33.1354 34.2411 33.1359 34.1444 33.1172C34.0476 33.0985 33.9555 33.0609 33.8733 33.0065C33.7912 32.9522 33.7205 32.8822 33.6653 32.8006C33.6102 32.7189 33.5717 32.6272 33.552 32.5307V32.4631C33.5371 32.3656 33.5416 32.2661 33.5652 32.1703C33.5888 32.0745 33.6311 31.9843 33.6896 31.9049C33.7482 31.8254 33.8218 31.7583 33.9063 31.7074C33.9908 31.6565 34.0845 31.6227 34.1821 31.6081L37.4374 30.588C37.7234 30.4997 37.9628 30.3018 38.1033 30.0376C38.2438 29.7734 38.2741 29.4643 38.1875 29.1778C38.0976 28.8896 37.8971 28.6487 37.63 28.5081C37.3628 28.3675 37.0508 28.3386 36.7623 28.4278L34.3546 29.2378C34.1704 29.2986 33.9699 29.2856 33.7951 29.2017C33.6203 29.1178 33.4848 28.9694 33.417 28.7878C33.3571 28.6017 33.3721 28.3996 33.459 28.2245C33.5458 28.0494 33.6976 27.9151 33.882 27.8502L36.2598 27.0476C36.5847 26.9329 36.9293 26.8844 37.2733 26.905C37.6172 26.9256 37.9536 27.0149 38.2625 27.1676C38.8893 27.4719 39.3699 28.0122 39.5991 28.6702C39.8283 29.3282 39.7873 30.0502 39.4851 30.678C39.3324 30.9981 39.116 31.2837 38.849 31.5171C38.582 31.7506 38.2701 31.927 37.9324 32.0356L34.7521 33.1157C34.6485 33.1395 34.5408 33.1395 34.4371 33.1157Z" fill="#1FD157"/>
<path d="M35.1189 35.0491C35.0204 35.0649 34.9197 35.0611 34.8227 35.038C34.7257 35.0148 34.6341 34.9728 34.5533 34.9143C34.4726 34.8558 34.4041 34.782 34.3518 34.697C34.2996 34.612 34.2646 34.5176 34.2488 34.4191C34.233 34.3206 34.2368 34.2199 34.26 34.1229C34.2831 34.0259 34.3251 33.9343 34.3836 33.8535C34.4421 33.7727 34.516 33.7043 34.601 33.652C34.6859 33.5998 34.7804 33.5648 34.8789 33.549L38.5842 32.2889C38.7693 32.2285 38.9706 32.2426 39.1456 32.3279C39.3205 32.4133 39.4555 32.5634 39.5218 32.7464C39.584 32.9335 39.5701 33.1375 39.4831 33.3143C39.3961 33.4912 39.2429 33.6267 39.0568 33.6915L35.3514 34.9441C35.2816 34.9941 35.2025 35.0298 35.1189 35.0491Z" fill="#1FD157"/>
<path d="M21.7613 36.1672C21.5857 36.1653 21.4162 36.1017 21.2826 35.9876C21.149 35.8735 21.0596 35.7162 21.0302 35.5429C21.0007 35.3697 21.033 35.1917 21.1214 35.0398C21.2098 34.888 21.3487 34.772 21.5138 34.7121C22.6315 34.3372 23.5551 33.5347 24.0823 32.4803C24.6095 31.4259 24.6974 30.2056 24.3266 29.0865V29.0415C24.2667 28.8554 24.2817 28.6533 24.3686 28.4782C24.4554 28.3031 24.6072 28.1688 24.7916 28.1039C24.9748 28.0454 25.1734 28.0595 25.3465 28.1432C25.5196 28.227 25.6539 28.374 25.7217 28.554C26.212 30.0461 26.0929 31.6715 25.3905 33.0763C24.6881 34.4811 23.4592 35.5516 21.9714 36.0547C21.9101 36.1066 21.8385 36.1449 21.7613 36.1672Z" fill="#668FFF"/>
<path d="M29.2611 41.869C29.0985 41.878 28.9374 41.8339 28.802 41.7432C28.6667 41.6525 28.5646 41.5203 28.5111 41.3664C28.3272 40.8118 28.0356 40.299 27.6531 39.8573C27.2706 39.4156 26.8047 39.0537 26.2821 38.7924C25.7595 38.5311 25.1905 38.3755 24.6076 38.3345C24.0248 38.2935 23.4396 38.368 22.8855 38.5537H22.833C22.6677 38.5928 22.4939 38.5746 22.3402 38.5021C22.1865 38.4296 22.062 38.3071 21.9871 38.1546C21.9121 38.0021 21.8912 37.8286 21.9277 37.6627C21.9642 37.4967 22.0559 37.348 22.188 37.241C22.2319 37.2135 22.28 37.1932 22.3305 37.181C23.0667 36.9169 23.8478 36.8007 24.6289 36.8392C25.4101 36.8777 26.176 37.0701 26.8827 37.4053C27.5893 37.7405 28.2228 38.2119 28.7468 38.7926C29.2708 39.3732 29.675 40.0516 29.9362 40.7889V40.8414V40.8864C29.9982 41.0677 29.9884 41.2659 29.9089 41.4402C29.8294 41.6146 29.6862 41.7519 29.5087 41.824C29.4276 41.8462 29.3448 41.8613 29.2611 41.869Z" fill="#668FFF"/>
<path d="M48.628 27.0853C47.4245 27.0812 46.2524 26.7008 45.276 25.9974C44.2995 25.2939 43.5675 24.3026 43.1825 23.1624C43.1115 22.9829 43.1124 22.783 43.185 22.6041C43.2577 22.4253 43.3965 22.2814 43.5725 22.2023C43.7538 22.1267 43.9574 22.1253 44.1397 22.1982C44.322 22.2711 44.4685 22.4126 44.5476 22.5923C44.555 22.6244 44.555 22.6578 44.5476 22.6898C44.9194 23.7633 45.7004 24.6464 46.7204 25.1466C47.7404 25.6467 48.9168 25.7235 49.9931 25.3601C50.1831 25.2974 50.3902 25.3128 50.5688 25.4028C50.7475 25.4929 50.8831 25.6502 50.9457 25.8401C51.0084 26.0301 50.993 26.2372 50.903 26.4159C50.813 26.5945 50.6557 26.7301 50.4657 26.7927C49.8734 26.9906 49.2525 27.0895 48.628 27.0853Z" fill="#668FFF"/>
<path d="M47.9371 35.4637C47.7868 35.4591 47.6414 35.4094 47.5197 35.3211C47.398 35.2329 47.3056 35.11 47.2545 34.9686C46.7745 33.5263 46.8864 31.9525 47.5657 30.5926C48.2449 29.2328 49.436 28.198 50.8774 27.7154C51.0527 27.6644 51.2406 27.6791 51.4058 27.7567C51.5711 27.8343 51.7023 27.9695 51.775 28.137C51.8477 28.3044 51.8568 28.4927 51.8007 28.6664C51.7445 28.8401 51.6269 28.9873 51.47 29.0806H51.3499C50.2874 29.4229 49.4041 30.1726 48.8936 31.1653C48.3832 32.1581 48.2874 33.3128 48.6272 34.3761V34.4511C48.6705 34.5428 48.6947 34.6424 48.6984 34.7437C48.7021 34.8451 48.6853 34.9462 48.6488 35.0408C48.6123 35.1355 48.5571 35.2218 48.4863 35.2944C48.4155 35.3671 48.3308 35.4247 48.2371 35.4637H48.1621C48.0879 35.4786 48.0114 35.4786 47.9371 35.4637Z" fill="#668FFF"/>
<path d="M25.7428 42.9186C25.2706 42.9185 24.8044 42.8134 24.3777 42.6111C23.6589 42.2597 23.1067 41.6402 22.8401 40.8859L20.1173 32.8751C19.8646 32.1111 19.9238 31.2783 20.282 30.5577C20.6402 29.8371 21.2684 29.2871 22.03 29.0273L46.0848 20.859C46.463 20.7233 46.8642 20.6636 47.2656 20.6834C47.6669 20.7031 48.0603 20.8019 48.4234 20.974C48.7864 21.1461 49.1119 21.3882 49.3812 21.6864C49.6505 21.9846 49.8583 22.333 49.9927 22.7117L52.7229 30.6624C52.9744 31.4383 52.9089 32.2822 52.5408 33.01C52.1727 33.7378 51.5318 34.2906 50.7578 34.5478L26.7029 42.7161C26.3972 42.8392 26.0722 42.9077 25.7428 42.9186ZM47.0899 22.1266C46.917 22.1252 46.745 22.1505 46.5799 22.2016L22.5175 30.3699C22.1206 30.5064 21.7937 30.7944 21.6083 31.171C21.4228 31.5476 21.3937 31.9822 21.5274 32.3801L24.2502 40.3384C24.3154 40.5359 24.4191 40.7186 24.5553 40.8758C24.6915 41.0331 24.8574 41.1618 25.0436 41.2545C25.2298 41.3473 25.4326 41.4022 25.6401 41.4162C25.8477 41.4302 26.0559 41.4029 26.2529 41.336L50.3152 33.1677C50.5116 33.1032 50.6933 33.0006 50.8499 32.8656C51.0065 32.7307 51.1348 32.5661 51.2275 32.3814C51.3202 32.1966 51.3755 31.9954 51.3901 31.7892C51.4048 31.583 51.3785 31.376 51.3128 31.18V31.135L48.575 23.1317C48.4405 22.7341 48.1549 22.4054 47.78 22.2166C47.5598 22.1345 47.3238 22.1038 47.0899 22.1266Z" fill="#668FFF"/>
</svg>
