<svg width="72" height="56" viewBox="0 0 72 56" fill="none" xmlns="http://www.w3.org/2000/svg">
<path d="M58.465 55.6269H51.8744C51.8036 55.6269 51.7327 55.6269 51.7327 55.6269C51.6618 55.6269 51.591 55.6269 51.591 55.556C51.5201 55.556 51.5201 55.4851 51.4492 55.4851C51.3784 55.4851 51.3784 55.4143 51.3075 55.3434C51.2366 55.2725 51.2366 55.2725 51.1658 55.2017C51.1658 55.1308 51.0949 55.1308 51.0949 55.0599C51.0949 54.9891 51.024 54.9182 51.024 54.9182C51.024 54.8473 51.024 54.7765 51.024 54.7765C51.024 54.7056 51.024 54.6347 51.024 54.6347C51.024 54.5639 51.024 54.493 51.0949 54.493C51.0949 54.4221 51.1658 54.4221 51.1658 54.3513C51.1658 54.2804 51.2366 54.2804 51.3075 54.2095C51.3784 54.1387 51.3784 54.1387 51.4492 54.0678C51.5201 54.0678 51.5201 53.9969 51.591 53.9969C51.6618 53.9969 51.7327 53.9261 51.7327 53.9261C51.8036 53.9261 51.8744 53.9261 51.8744 53.9261H58.465C58.5359 53.9261 58.6067 53.9261 58.6067 53.9261C58.6776 53.9261 58.7485 53.9261 58.7485 53.9969C58.8193 53.9969 58.8193 54.0678 58.8902 54.0678C58.9611 54.0678 58.9611 54.1387 59.0319 54.2095C59.1028 54.2804 59.1028 54.2804 59.1737 54.3513C59.1737 54.4221 59.2445 54.4221 59.2445 54.493C59.2445 54.5639 59.3154 54.6347 59.3154 54.6347C59.3154 54.7056 59.3154 54.7765 59.3154 54.7765C59.3154 54.8473 59.3154 54.9182 59.3154 54.9182C59.3154 54.9891 59.3154 55.0599 59.2445 55.0599C59.2445 55.1308 59.1737 55.1308 59.1737 55.2017C59.1737 55.2725 59.1028 55.2725 59.0319 55.3434C58.9611 55.4143 58.9611 55.4143 58.8902 55.4851C58.8193 55.4851 58.8193 55.556 58.7485 55.556C58.6776 55.556 58.6067 55.6269 58.6067 55.6269C58.5359 55.6269 58.465 55.6269 58.465 55.6269ZM5.52798 15.3749C5.38625 15.3749 5.31538 15.3749 5.17365 15.304C5.03192 15.2332 4.96105 15.2332 4.89019 15.0914L0.283888 10.4851L0.213021 10.4143C0.213021 10.3434 0.142155 10.3434 0.142155 10.2725C0.142155 10.2017 0.0712891 10.1308 0.0712891 10.1308C0.0712891 10.0599 0.0712891 9.98906 0.0712891 9.98906C0.0712891 9.9182 0.0712891 9.84733 0.0712891 9.84733C0.0712891 9.77647 0.0712893 9.7056 0.142155 9.7056C0.142155 9.63473 0.213021 9.63474 0.213021 9.56387C0.213021 9.493 0.283888 9.493 0.354754 9.42214C0.42562 9.35127 0.42562 9.35127 0.496486 9.2804C0.567352 9.2804 0.567352 9.20954 0.638218 9.20954C0.709085 9.20954 0.77995 9.13867 0.77995 9.13867C0.850817 9.13867 0.921683 9.13867 0.921683 9.13867C0.992549 9.13867 1.06342 9.13867 1.06342 9.13867C1.13428 9.13867 1.20515 9.13867 1.20515 9.20954C1.27601 9.20954 1.27601 9.2804 1.34688 9.2804C1.41775 9.2804 1.41775 9.35127 1.48861 9.42214L6.09491 14.0284C6.16578 14.0993 6.16578 14.0993 6.23664 14.1702C6.23664 14.241 6.30751 14.241 6.30751 14.3119C6.30751 14.3828 6.37838 14.4536 6.37838 14.4536C6.37838 14.5245 6.37838 14.5954 6.37838 14.5954C6.37838 14.6662 6.37838 14.7371 6.37838 14.7371C6.37838 14.808 6.37838 14.8788 6.30751 14.8788C6.30751 14.9497 6.23664 14.9497 6.23664 15.0206C6.23664 15.0914 6.16578 15.0914 6.09491 15.1623C6.02405 15.2332 5.88231 15.304 5.81145 15.304C5.81145 15.3749 5.66971 15.3749 5.52798 15.3749Z" fill="#668FFF"/>
<path d="M0.921259 15.3754C0.779527 15.3754 0.708661 15.3754 0.566929 15.3046C0.425196 15.2337 0.35433 15.2337 0.283464 15.092C0.212598 15.0211 0.212598 15.0211 0.141732 14.9502C0.141732 14.8794 0.0708657 14.8794 0.0708657 14.8085C0.0708657 14.7376 0 14.6668 0 14.6668C0 14.5959 0 14.5251 0 14.5251C0 14.4542 0 14.3833 0 14.3833C0 14.3125 -4.06555e-07 14.2416 0.0708657 14.2416C0.0708657 14.1707 0.141732 14.1707 0.141732 14.0999C0.141732 14.029 0.212598 14.029 0.283464 13.9581L4.88976 9.35182C4.96063 9.28096 4.96063 9.28096 5.0315 9.21009C5.10236 9.21009 5.10236 9.13923 5.17323 9.13923C5.24409 9.13923 5.31496 9.06836 5.31496 9.06836C5.38583 9.06836 5.45669 9.06836 5.45669 9.06836C5.52756 9.06836 5.59842 9.06836 5.59842 9.06836C5.66929 9.06836 5.74016 9.06836 5.74016 9.13923C5.81102 9.13923 5.81102 9.21009 5.88189 9.21009C5.95276 9.21009 5.95276 9.28096 6.02362 9.35182C6.09449 9.42269 6.09449 9.42269 6.16535 9.49356C6.16535 9.56442 6.23622 9.56442 6.23622 9.63529C6.23622 9.70615 6.30709 9.77702 6.30709 9.77702C6.30709 9.84789 6.30709 9.91875 6.30709 9.91875C6.30709 9.98962 6.30709 10.0605 6.30709 10.0605C6.30709 10.1314 6.30709 10.2022 6.23622 10.2022C6.23622 10.2731 6.16535 10.2731 6.16535 10.3439C6.16535 10.4148 6.09449 10.4148 6.02362 10.4857L1.41732 15.092C1.34646 15.1628 1.27559 15.2337 1.13386 15.3046C1.13386 15.3754 1.06299 15.3754 0.921259 15.3754Z" fill="#668FFF"/>
<path d="M68.3159 8.29195C68.1742 8.29195 68.1033 8.29195 67.9616 8.29195C67.8198 8.29195 67.749 8.29195 67.6072 8.22109C67.4655 8.22109 67.3946 8.15022 67.2529 8.15022C67.1112 8.15022 67.0403 8.07936 66.8986 8.00849C66.7568 7.93762 66.686 7.93762 66.5442 7.86676C66.4025 7.79589 66.3316 7.72502 66.2608 7.65416C66.1899 7.58329 66.0482 7.51243 65.9773 7.44156C65.9064 7.37069 65.7647 7.29983 65.6939 7.22896C65.623 7.1581 65.5521 7.08723 65.4813 6.9455C65.4104 6.87463 65.3395 6.7329 65.2687 6.66203C65.1978 6.59117 65.1269 6.44943 65.0561 6.37857C64.9852 6.23684 64.9143 6.16597 64.9143 6.02424C64.8435 5.88251 64.8435 5.81164 64.7726 5.66991C64.7726 5.52817 64.7017 5.45731 64.7017 5.31558C64.7017 5.17384 64.6309 5.10298 64.6309 4.96125C64.6309 4.81951 64.6309 4.74865 64.6309 4.60691C64.6309 4.46518 64.6309 4.39432 64.6309 4.25258C64.6309 4.11085 64.6309 4.03999 64.7017 3.89825C64.7017 3.75652 64.7726 3.68566 64.7726 3.54392C64.7726 3.40219 64.8435 3.33132 64.9143 3.18959C64.9852 3.04786 64.9852 2.97699 65.0561 2.83526C65.1269 2.69353 65.1978 2.62266 65.2687 2.5518C65.3395 2.48093 65.4104 2.3392 65.4813 2.26833C65.5521 2.19747 65.623 2.05573 65.6939 1.98487C65.7647 1.914 65.8356 1.84313 65.9773 1.77227C66.0482 1.7014 66.1899 1.63054 66.2608 1.55967C66.3316 1.4888 66.4734 1.41794 66.5442 1.34707C66.686 1.27621 66.7568 1.20534 66.8986 1.20534C67.0403 1.13447 67.1112 1.13447 67.2529 1.06361C67.3946 1.06361 67.4655 0.992741 67.6072 0.992741C67.749 0.992741 67.8198 0.921875 67.9616 0.921875C68.1033 0.921875 68.1742 0.921875 68.3159 0.921875C68.4576 0.921875 68.5285 0.921875 68.6702 0.921875C68.812 0.921875 68.8828 0.921875 69.0246 0.992741C69.1663 0.992741 69.2372 1.06361 69.3789 1.06361C69.5206 1.06361 69.5915 1.13447 69.7332 1.20534C69.875 1.27621 69.9458 1.27621 70.0876 1.34707C70.2293 1.41794 70.3001 1.4888 70.371 1.55967C70.4419 1.63054 70.5836 1.7014 70.6545 1.77227C70.7253 1.84313 70.8671 1.914 70.9379 1.98487C71.0088 2.05573 71.0797 2.1266 71.1505 2.26833C71.2214 2.3392 71.2923 2.48093 71.3631 2.5518C71.434 2.62266 71.5049 2.7644 71.5757 2.83526C71.6466 2.97699 71.7175 3.04786 71.7175 3.18959C71.7883 3.33132 71.7883 3.40219 71.8592 3.54392C71.8592 3.68566 71.9301 3.75652 71.9301 3.89825C71.9301 4.03999 72.0009 4.11085 72.0009 4.25258C72.0009 4.39432 72.0009 4.46518 72.0009 4.60691C72.0009 4.74865 72.0009 4.81951 72.0009 4.96125C72.0009 5.10298 72.0009 5.17384 71.9301 5.31558C71.9301 5.45731 71.8592 5.52817 71.8592 5.66991C71.8592 5.81164 71.7883 5.88251 71.7175 6.02424C71.6466 6.16597 71.6466 6.23684 71.5757 6.37857C71.5049 6.5203 71.434 6.59117 71.3631 6.66203C71.2923 6.7329 71.2214 6.87463 71.1505 6.9455C71.0797 7.01636 71.0088 7.1581 70.9379 7.22896C70.8671 7.29983 70.7962 7.37069 70.6545 7.44156C70.5836 7.51243 70.4419 7.58329 70.371 7.65416C70.3001 7.72502 70.1584 7.79589 70.0876 7.86676C69.9458 7.93762 69.875 8.00849 69.7332 8.00849C69.5915 8.07936 69.5206 8.07936 69.3789 8.15022C69.2372 8.15022 69.1663 8.22109 69.0246 8.22109C68.8828 8.22109 68.812 8.29195 68.6702 8.29195C68.5285 8.22109 68.4576 8.29195 68.3159 8.29195Z" fill="#668FFF"/>
<path d="M68.3156 2.26953C68.2447 2.26953 68.1738 2.26953 68.103 2.26953C68.0321 2.26953 67.9612 2.26953 67.8904 2.26953C67.8195 2.26953 67.7486 2.26953 67.6778 2.3404C67.6069 2.3404 67.536 2.41126 67.4652 2.41126C67.3943 2.41126 67.3234 2.48213 67.2526 2.48213C67.1817 2.48213 67.1108 2.553 67.04 2.62386C66.9691 2.69473 66.8982 2.69473 66.8274 2.76559C66.7565 2.83646 66.6856 2.83646 66.6856 2.90733C66.6148 2.97819 66.6148 3.04906 66.5439 3.04906C66.473 3.11993 66.473 3.19079 66.4022 3.26166C66.3313 3.33252 66.3313 3.40339 66.2604 3.47426C66.2604 3.54512 66.1896 3.61599 66.1896 3.68685C66.1896 3.75772 66.1187 3.82859 66.1187 3.89945C66.1187 3.97032 66.0479 4.04119 66.0479 4.11205C66.0479 4.18292 66.0479 4.25378 66.0479 4.32465C66.0479 4.39552 66.0479 4.46638 66.0479 4.53725C66.0479 4.60811 66.0479 4.67898 66.0479 4.74985C66.0479 4.82071 66.0479 4.89158 66.0479 4.96245C66.0479 5.03331 66.0479 5.10418 66.1187 5.17504C66.1187 5.24591 66.1896 5.31678 66.1896 5.38764C66.1896 5.45851 66.2604 5.52937 66.2604 5.60024C66.2604 5.67111 66.3313 5.74197 66.4022 5.81284C66.473 5.8837 66.473 5.95457 66.5439 6.02544C66.6148 6.0963 66.6148 6.16717 66.6856 6.16717C66.7565 6.23804 66.8274 6.23804 66.8274 6.3089C66.8982 6.37977 66.9691 6.37977 67.04 6.45063C67.1108 6.5215 67.1817 6.5215 67.2526 6.59237C67.3234 6.59237 67.3943 6.66323 67.4652 6.66323C67.536 6.66323 67.6069 6.7341 67.6778 6.7341C67.7486 6.7341 67.8195 6.80496 67.8904 6.80496C67.9612 6.80496 68.0321 6.80496 68.103 6.80496C68.1738 6.80496 68.2447 6.80496 68.3156 6.80496C68.3864 6.80496 68.4573 6.80496 68.5282 6.80496C68.599 6.80496 68.6699 6.80496 68.7408 6.80496C68.8116 6.80496 68.8825 6.80497 68.9534 6.7341C69.0242 6.7341 69.0951 6.66323 69.166 6.66323C69.2368 6.66323 69.3077 6.59237 69.3786 6.59237C69.4494 6.59237 69.5203 6.5215 69.5912 6.45063C69.662 6.37977 69.7329 6.37977 69.8038 6.3089C69.8746 6.23804 69.9455 6.23804 69.9455 6.16717C70.0164 6.0963 70.0164 6.02544 70.0872 6.02544C70.1581 5.95457 70.1581 5.8837 70.2289 5.81284C70.2998 5.74197 70.2998 5.67111 70.3707 5.60024C70.3707 5.52937 70.4416 5.45851 70.4416 5.38764C70.4416 5.31678 70.5124 5.24591 70.5124 5.17504C70.5124 5.10418 70.5833 5.03331 70.5833 4.96245C70.5833 4.89158 70.5833 4.82071 70.5833 4.74985C70.5833 4.67898 70.5833 4.60811 70.5833 4.53725C70.5833 4.46638 70.5833 4.39552 70.5833 4.32465C70.5833 4.25378 70.5833 4.18292 70.5833 4.11205C70.5833 4.04119 70.5833 3.97032 70.5124 3.89945C70.5124 3.82859 70.4416 3.75772 70.4416 3.68685C70.4416 3.61599 70.3707 3.54512 70.3707 3.47426C70.3707 3.40339 70.2998 3.33252 70.2289 3.26166C70.1581 3.19079 70.1581 3.11993 70.0872 3.04906C70.0164 2.97819 70.0164 2.90733 69.9455 2.90733C69.8746 2.83646 69.8038 2.83646 69.8038 2.76559C69.7329 2.69473 69.662 2.69473 69.5912 2.62386C69.5203 2.553 69.4494 2.553 69.3786 2.48213C69.3077 2.48213 69.2368 2.41126 69.166 2.41126C69.0951 2.41126 69.0242 2.3404 68.9534 2.3404C68.8825 2.3404 68.8116 2.26953 68.7408 2.26953C68.6699 2.26953 68.599 2.26953 68.5282 2.26953C68.4573 2.3404 68.3864 2.26953 68.3156 2.26953Z" fill="white"/>
<path d="M60.2359 10.3477H18.9209V48.4028H60.2359V10.3477Z" fill="white"/>
<g opacity="0.38">
<path opacity="0.38" d="M30.6855 50.0308V24.5898H53.5753V50.0308" fill="#9EBBFF"/>
</g>
<path d="M55.7704 47.4765H20.1247C19.6995 47.4765 19.416 47.1222 19.416 46.7678V11.193C19.416 10.7678 19.7703 10.4844 20.1247 10.4844H55.7704C56.1955 10.4844 56.479 10.8387 56.479 11.193V46.8387C56.479 47.193 56.1247 47.4765 55.7704 47.4765ZM20.8333 46.0592H54.9908V11.9017H20.8333V46.0592Z" fill="#668FFF"/>
<path d="M49.8885 47.2679H26.9987C26.5735 47.2679 26.29 46.9135 26.29 46.5592V25.5828C26.29 25.1576 26.6444 24.8742 26.9987 24.8742C27.353 24.8742 27.7074 25.2285 27.7074 25.5828V45.8505H49.1798V21.8978H33.2349C32.8097 21.8978 32.5263 21.5435 32.5263 21.1891C32.5263 20.8348 32.8806 20.4805 33.2349 20.4805H49.8885C50.3137 20.4805 50.5971 20.8348 50.5971 21.1891V46.6301C50.5971 46.9844 50.3137 47.2679 49.8885 47.2679Z" fill="#668FFF"/>
<path d="M49.8885 28.4876H26.9987C26.5735 28.4876 26.29 28.1333 26.29 27.779C26.29 27.4246 26.6444 27.0703 26.9987 27.0703H49.8885C50.3137 27.0703 50.5971 27.4246 50.5971 27.779C50.5971 28.1333 50.3137 28.4876 49.8885 28.4876Z" fill="#668FFF"/>
<path d="M49.251 35.1478H35.0778C34.6526 35.1478 34.3691 34.7935 34.3691 34.4391C34.3691 34.0848 34.7235 33.7305 35.0778 33.7305H49.251C49.6762 33.7305 49.9597 34.0848 49.9597 34.4391C49.9597 34.7935 49.6054 35.1478 49.251 35.1478Z" fill="#668FFF"/>
<path d="M49.8891 41.8099H39.5426C39.1174 41.8099 38.834 41.4556 38.834 41.1012C38.834 40.7469 39.1883 40.3926 39.5426 40.3926H49.8891C50.3143 40.3926 50.5978 40.7469 50.5978 41.1012C50.5978 41.4556 50.3143 41.8099 49.8891 41.8099Z" fill="#668FFF"/>
<path d="M22.1098 23.8094C28.4893 23.8094 33.661 18.6378 33.661 12.2582C33.661 5.87867 28.4893 0.707031 22.1098 0.707031C15.7302 0.707031 10.5586 5.87867 10.5586 12.2582C10.5586 18.6378 15.7302 23.8094 22.1098 23.8094Z" fill="white"/>
<path d="M22.1104 24.5197C15.3781 24.5197 9.85059 18.9921 9.85059 12.2598C9.85059 5.52756 15.3781 0 22.1104 0C28.8427 0 34.3703 5.52756 34.3703 12.2598C34.3703 19.063 28.9136 24.5197 22.1104 24.5197ZM22.1104 1.41732C16.0868 1.41732 11.2679 6.30709 11.2679 12.2598C11.2679 18.2126 16.1577 23.1024 22.1104 23.1024C28.0632 23.1024 33.0238 18.2835 33.0238 12.2598C33.0238 6.23622 28.1341 1.41732 22.1104 1.41732Z" fill="#1FD157"/>
<path d="M23.1746 14.4571H18.2848C17.8596 14.4571 17.5762 14.1028 17.5762 13.7485C17.5762 13.3941 17.9305 13.0398 18.2848 13.0398H23.1746C24.4502 13.0398 25.9384 12.402 25.9384 10.7012C25.9384 8.92956 24.4502 8.36264 23.1746 8.36264H19.4896C19.0644 8.36264 18.7809 8.0083 18.7809 7.65397C18.7809 7.29964 19.1352 6.94531 19.4896 6.94531H23.1746C25.6549 6.94531 27.4266 8.50437 27.4266 10.7721C27.4266 12.8981 25.6549 14.4571 23.1746 14.4571Z" fill="#668FFF"/>
<path d="M22.4659 17.0072H18.2848C17.8596 17.0072 17.5762 16.6528 17.5762 16.2985C17.5762 15.9442 17.9305 15.5898 18.2848 15.5898H22.4659C22.8911 15.5898 23.1746 15.9442 23.1746 16.2985C23.1746 16.6528 22.8911 17.0072 22.4659 17.0072Z" fill="#668FFF"/>
<path d="M19.4899 19.346C19.0647 19.346 18.7812 18.9917 18.7812 18.6374V7.5114C18.7812 7.0862 19.1356 6.80273 19.4899 6.80273C19.8442 6.80273 20.1986 7.15707 20.1986 7.5114V18.6374C20.1986 18.9917 19.9151 19.346 19.4899 19.346Z" fill="#668FFF"/>
<path d="M30.048 21.6161C29.9063 21.6161 29.6937 21.5452 29.552 21.4035L13.111 4.96254C12.8276 4.67907 12.8276 4.25388 13.111 3.97041C13.3945 3.68695 13.8197 3.68695 14.1032 3.97041L30.5441 20.4114C30.8276 20.6948 30.8276 21.12 30.5441 21.4035C30.4024 21.5452 30.1898 21.6161 30.048 21.6161Z" fill="#1FD157"/>
</svg>
