<svg width="72" height="53" viewBox="0 0 72 53" fill="none" xmlns="http://www.w3.org/2000/svg">
<g opacity="0.24">
<path opacity="0.24" d="M34.2733 45.8231L24.6299 40.3498V31.4883L34.2733 36.9616V45.8231Z" fill="#9EBBFF"/>
</g>
<path d="M31.4718 52.0797H25.412C25.3469 52.0797 25.2817 52.0797 25.2817 52.0797C25.2166 52.0797 25.1514 52.0797 25.1514 52.0145C25.0862 52.0145 25.0862 51.9493 25.0211 51.9493C24.9559 51.9493 24.9559 51.8842 24.8908 51.819C24.8256 51.7539 24.8256 51.7539 24.7604 51.6887C24.7604 51.6236 24.6953 51.6236 24.6953 51.5584C24.6953 51.4932 24.6301 51.4281 24.6301 51.4281C24.6301 51.3629 24.6301 51.2978 24.6301 51.2978C24.6301 51.2326 24.6301 51.1674 24.6301 51.1674C24.6301 51.1023 24.6301 51.0371 24.6953 51.0371C24.6953 50.972 24.7604 50.972 24.7604 50.9068C24.7604 50.8417 24.8256 50.8417 24.8908 50.7765C24.9559 50.7113 24.9559 50.7113 25.0211 50.6462C25.0862 50.6462 25.0862 50.581 25.1514 50.581C25.2166 50.581 25.2817 50.5159 25.2817 50.5159C25.3469 50.5159 25.412 50.5159 25.412 50.5159H31.4718C31.5369 50.5159 31.6021 50.5159 31.6021 50.5159C31.6672 50.5159 31.7324 50.5159 31.7324 50.581C31.7976 50.581 31.7976 50.6462 31.8627 50.6462C31.9279 50.6462 31.9279 50.7113 31.993 50.7765C32.0582 50.8417 32.0582 50.8417 32.1233 50.9068C32.1233 50.972 32.1885 50.972 32.1885 51.0371C32.1885 51.1023 32.2537 51.1674 32.2537 51.1674C32.2537 51.2326 32.2537 51.2978 32.2537 51.2978C32.2537 51.3629 32.2537 51.4281 32.2537 51.4281C32.2537 51.4932 32.2537 51.5584 32.1885 51.5584C32.1885 51.6236 32.1233 51.6236 32.1233 51.6887C32.1233 51.7539 32.0582 51.7539 31.993 51.819C31.9279 51.8842 31.9279 51.8842 31.8627 51.9493C31.7976 51.9493 31.7976 52.0145 31.7324 52.0145C31.6672 52.0145 31.6021 52.0797 31.6021 52.0797C31.6021 52.0797 31.5369 52.0797 31.4718 52.0797ZM5.14778 10.6389C5.01747 10.6389 4.95231 10.6389 4.82199 10.5738C4.69167 10.5086 4.62652 10.5086 4.56136 10.3783L0.326063 6.14301C0.260905 6.07785 0.195746 6.07785 0.195746 6.01269C0.195746 5.94754 0.130588 5.94754 0.130588 5.88238C0.130588 5.81722 0.0654297 5.75206 0.0654297 5.75206C0.0654297 5.6869 0.0654297 5.62174 0.0654297 5.62174C0.0654297 5.55659 0.0654297 5.49143 0.0654297 5.49143C0.0654297 5.42627 0.0654296 5.36111 0.130588 5.36111C0.130588 5.29595 0.195746 5.29595 0.195746 5.23079C0.195746 5.16563 0.260905 5.16564 0.326063 5.10048C0.391221 5.03532 0.391222 5.03532 0.45638 4.97016C0.521538 4.97016 0.521538 4.905 0.586697 4.905C0.651855 4.905 0.717013 4.83984 0.717013 4.83984C0.782172 4.83984 0.84733 4.83984 0.84733 4.83984H0.977647C1.04281 4.83984 1.10796 4.83984 1.10796 4.905C1.17312 4.905 1.17312 4.97016 1.23828 4.97016C1.30344 4.97016 1.30344 5.03532 1.3686 5.10048L5.60389 9.33577C5.66905 9.40093 5.66905 9.40093 5.73421 9.46609C5.73421 9.53125 5.79937 9.53125 5.79937 9.5964C5.79937 9.66156 5.86452 9.72672 5.86452 9.72672C5.86452 9.79188 5.86452 9.85704 5.86452 9.85704C5.86452 9.9222 5.86452 9.98735 5.86452 9.98735C5.86452 10.0525 5.86452 10.1177 5.79937 10.1177C5.79937 10.1828 5.73421 10.1828 5.73421 10.248C5.73421 10.3131 5.66905 10.3131 5.60389 10.3783C5.53873 10.4435 5.40842 10.5086 5.34326 10.5086C5.34326 10.5738 5.21294 10.6389 5.14778 10.6389Z" fill="#668FFF"/>
<path d="M0.847059 10.6377C0.716742 10.6377 0.651584 10.6377 0.521267 10.5725C0.39095 10.5074 0.325792 10.5074 0.260634 10.3771C0.195475 10.3119 0.195475 10.3119 0.130317 10.2467C0.130317 10.1816 0.0651585 10.1816 0.0651585 10.1164C0.0651585 10.0513 0 9.98611 0 9.98611C0 9.92095 0 9.85579 0 9.85579C0 9.79063 0 9.72547 0 9.72547C0 9.66032 9.22389e-08 9.59516 0.0651585 9.59516C0.0651585 9.53 0.130317 9.53 0.130317 9.46484C0.195475 9.33452 0.260633 9.26936 0.325792 9.26936L4.56109 5.03407C4.62625 4.96891 4.62624 4.96891 4.6914 4.90375C4.75656 4.90375 4.75656 4.8386 4.82172 4.8386C4.88688 4.8386 4.95204 4.77344 4.95204 4.77344C5.01719 4.77344 5.08235 4.77344 5.08235 4.77344C5.14751 4.77344 5.21267 4.77344 5.21267 4.77344C5.27783 4.77344 5.34299 4.77344 5.34299 4.8386C5.40815 4.8386 5.40814 4.90375 5.4733 4.90375C5.53846 4.90375 5.53846 4.96891 5.60362 5.03407C5.66878 5.09923 5.66878 5.09923 5.73394 5.16439C5.73394 5.22955 5.7991 5.22955 5.7991 5.2947C5.7991 5.35986 5.86425 5.42502 5.86425 5.42502C5.86425 5.49018 5.86425 5.55534 5.86425 5.55534C5.86425 5.6205 5.86425 5.68565 5.86425 5.68565C5.86425 5.75081 5.86425 5.81597 5.7991 5.81597C5.7991 5.88113 5.73394 5.88113 5.73394 5.94629C5.73394 6.01145 5.66878 6.01145 5.60362 6.0766L1.36833 10.3119C1.30317 10.3771 1.23801 10.4422 1.10769 10.5074C1.10769 10.5725 0.977376 10.6377 0.847059 10.6377Z" fill="#668FFF"/>
<path d="M68.6109 2.03754C68.5457 2.03754 68.4806 2.03754 68.4154 2.03754C68.3503 2.03754 68.2851 2.03754 68.2199 2.03754C68.1548 2.03754 68.0896 2.03754 68.0245 2.1027C67.9593 2.1027 67.8941 2.16786 67.829 2.16786C67.7638 2.16786 67.6987 2.23302 67.6335 2.23302C67.5684 2.23302 67.5032 2.29818 67.438 2.36333C67.3729 2.42849 67.3077 2.42849 67.2426 2.49365C67.1774 2.55881 67.1123 2.55881 67.1123 2.62397C67.0471 2.68913 67.0471 2.75428 66.9819 2.75428C66.9168 2.81944 66.9168 2.8846 66.8516 2.94976C66.7865 3.01492 66.7865 3.08008 66.7213 3.14524C66.7213 3.21039 66.6561 3.27555 66.6561 3.34071C66.6561 3.40587 66.591 3.47103 66.591 3.53619C66.591 3.60134 66.5258 3.6665 66.5258 3.73166C66.5258 3.79682 66.5258 3.86198 66.5258 3.92713C66.5258 3.99229 66.5258 4.05745 66.5258 4.12261C66.5258 4.18777 66.5258 4.25293 66.5258 4.31809C66.5258 4.38324 66.5258 4.4484 66.5258 4.51356C66.5258 4.57872 66.5258 4.64388 66.591 4.70904C66.591 4.77419 66.6561 4.83935 66.6561 4.90451C66.6561 4.96967 66.7213 5.03483 66.7213 5.09999C66.7213 5.16514 66.7865 5.2303 66.8516 5.29546C66.9168 5.36062 66.9168 5.42578 66.9819 5.49094C67.0471 5.5561 67.0471 5.62125 67.1123 5.62125C67.1774 5.68641 67.2426 5.68641 67.2426 5.75157C67.3077 5.81673 67.3729 5.81673 67.438 5.88189C67.5032 5.94704 67.5684 5.94704 67.6335 6.0122C67.6987 6.07736 67.7638 6.07736 67.829 6.07736C67.8941 6.07736 67.9593 6.14252 68.0245 6.14252C68.0896 6.14252 68.1548 6.20768 68.2199 6.20768C68.2851 6.20768 68.3503 6.20768 68.4154 6.20768C68.4806 6.20768 68.5457 6.20768 68.6109 6.20768C68.6761 6.20768 68.7412 6.20768 68.8064 6.20768C68.8715 6.20768 68.9367 6.20768 69.0018 6.20768C69.067 6.20768 69.1322 6.20768 69.1973 6.14252C69.2625 6.14252 69.3276 6.07736 69.3928 6.07736C69.458 6.07736 69.5231 6.0122 69.5883 6.0122C69.6534 6.0122 69.7186 5.94704 69.7837 5.88189C69.8489 5.81673 69.9141 5.81673 69.9792 5.75157C70.0444 5.68641 70.1095 5.68641 70.1095 5.62125C70.1095 5.55609 70.1747 5.49094 70.2399 5.49094C70.305 5.42578 70.305 5.36062 70.3702 5.29546C70.4353 5.2303 70.4353 5.16514 70.5005 5.09999C70.5005 5.03483 70.5656 4.96967 70.5656 4.90451C70.5656 4.83935 70.6308 4.77419 70.6308 4.70904C70.6308 4.64388 70.696 4.57872 70.696 4.51356C70.696 4.4484 70.696 4.38324 70.696 4.31809C70.696 4.25293 70.696 4.18777 70.696 4.12261C70.696 4.05745 70.696 3.99229 70.696 3.92713C70.696 3.86198 70.696 3.79682 70.696 3.73166C70.696 3.6665 70.696 3.60134 70.6308 3.53619C70.6308 3.47103 70.5656 3.40587 70.5656 3.34071C70.5656 3.27555 70.5005 3.21039 70.5005 3.14524C70.5005 3.08008 70.4353 3.01492 70.3702 2.94976C70.305 2.8846 70.305 2.81944 70.2399 2.75428C70.1747 2.68913 70.1747 2.62397 70.1095 2.62397C70.0444 2.62397 69.9792 2.55881 69.9792 2.49365C69.9141 2.42849 69.8489 2.42849 69.7837 2.36333C69.7186 2.29818 69.6534 2.29818 69.5883 2.23302C69.5231 2.23302 69.458 2.16786 69.3928 2.16786C69.3276 2.16786 69.2625 2.1027 69.1973 2.1027C69.1322 2.1027 69.067 2.03754 69.0018 2.03754C68.9367 2.03754 68.8715 2.03754 68.8064 2.03754C68.7412 2.03754 68.6761 2.03754 68.6109 2.03754ZM68.6109 7.51084C68.4806 7.51084 68.4154 7.51084 68.2851 7.51084C68.1548 7.51084 68.0896 7.51085 67.9593 7.44569C67.829 7.44569 67.7638 7.38053 67.6335 7.38053C67.5032 7.38053 67.438 7.31537 67.3077 7.25021C67.1774 7.18505 67.1123 7.18505 66.9819 7.1199C66.8516 7.05474 66.7865 6.98958 66.7213 6.92442C66.6561 6.85926 66.5258 6.7941 66.4607 6.72895C66.3955 6.66379 66.2652 6.59863 66.2 6.53347C66.1349 6.46831 66.0697 6.40315 66.0046 6.27284C65.9394 6.20768 65.8742 6.07736 65.8091 6.0122C65.7439 5.94704 65.6788 5.81673 65.6136 5.75157C65.5485 5.62125 65.4833 5.55609 65.4833 5.42578C65.4181 5.29546 65.4181 5.2303 65.353 5.09999C65.353 4.96967 65.2878 4.90451 65.2878 4.77419C65.2878 4.64388 65.2227 4.57872 65.2227 4.4484C65.2227 4.31809 65.2227 4.25293 65.2227 4.12261C65.2227 3.99229 65.2227 3.92714 65.2227 3.79682C65.2227 3.6665 65.2227 3.60134 65.2878 3.47103C65.2878 3.34071 65.353 3.27555 65.353 3.14524C65.353 3.01492 65.4181 2.94976 65.4833 2.81944C65.5484 2.68913 65.5485 2.62397 65.6136 2.49365C65.6788 2.36333 65.7439 2.29818 65.8091 2.23302C65.8742 2.16786 65.9394 2.03754 66.0046 1.97238C66.0697 1.90723 66.1349 1.77691 66.2 1.71175C66.2652 1.64659 66.3303 1.58143 66.4607 1.51628C66.5258 1.45112 66.6561 1.38596 66.7213 1.3208C66.7865 1.25564 66.9168 1.19048 66.9819 1.12533C67.1123 1.06017 67.1774 0.995009 67.3077 0.995009C67.438 0.92985 67.5032 0.929851 67.6335 0.864692C67.7638 0.864692 67.829 0.799534 67.9593 0.799534C68.0896 0.799534 68.1548 0.734375 68.2851 0.734375C68.4154 0.734375 68.4806 0.734375 68.6109 0.734375C68.7412 0.734375 68.8064 0.734375 68.9367 0.734375C69.067 0.734375 69.1322 0.734375 69.2625 0.799534C69.3928 0.799534 69.458 0.864692 69.5883 0.864692C69.7186 0.864692 69.7837 0.92985 69.9141 0.995009C70.0444 1.06017 70.1095 1.06017 70.2399 1.12533C70.3702 1.19048 70.4353 1.25564 70.5005 1.3208C70.5656 1.38596 70.696 1.45112 70.7611 1.51628C70.8263 1.58143 70.9566 1.64659 71.0218 1.71175C71.0869 1.77691 71.1521 1.84207 71.2172 1.97238C71.2824 2.03754 71.3475 2.16786 71.4127 2.23302C71.4779 2.29818 71.543 2.42849 71.6082 2.49365C71.6733 2.62397 71.7385 2.68913 71.7385 2.81944C71.8037 2.94976 71.8037 3.01492 71.8688 3.14524C71.8688 3.27555 71.934 3.34071 71.934 3.47103C71.934 3.60134 71.9991 3.6665 71.9991 3.79682C71.9991 3.92714 71.9991 3.99229 71.9991 4.12261C71.9991 4.25293 71.9991 4.31809 71.9991 4.4484C71.9991 4.57872 71.9991 4.64388 71.934 4.77419C71.934 4.90451 71.8688 4.96967 71.8688 5.09999C71.8688 5.2303 71.8037 5.29546 71.7385 5.42578C71.6733 5.55609 71.6733 5.62125 71.6082 5.75157C71.543 5.88189 71.4779 5.94704 71.4127 6.0122C71.3475 6.07736 71.2824 6.20768 71.2172 6.27284C71.1521 6.33799 71.0869 6.46831 71.0218 6.53347C70.9566 6.59863 70.8914 6.66379 70.7611 6.72895C70.696 6.7941 70.5656 6.85926 70.5005 6.92442C70.4353 6.98958 70.305 7.05474 70.2399 7.1199C70.1095 7.18505 70.0444 7.25021 69.9141 7.25021C69.7837 7.31537 69.7186 7.31537 69.5883 7.38053C69.458 7.38053 69.3928 7.44569 69.2625 7.44569C69.1322 7.44569 69.067 7.51084 68.9367 7.51084C68.8715 7.51084 68.7412 7.51084 68.6109 7.51084Z" fill="#668FFF"/>
<path d="M36.6842 25.9491C36.5539 25.9491 36.4888 25.9491 36.3584 25.8839L18.6354 15.654C18.4399 15.5237 18.3096 15.3283 18.3096 15.0676C18.3096 14.807 18.4399 14.6115 18.6354 14.4812L36.2933 4.31649C36.4888 4.18617 36.7494 4.18617 36.9449 4.31649L54.6679 14.5464C54.8634 14.6767 54.9937 14.8721 54.9937 15.1328C54.9937 15.3934 54.8634 15.5889 54.6679 15.7192L37.0752 25.8839C36.9449 25.9491 36.8145 25.9491 36.6842 25.9491ZM20.2643 15.0676L36.6842 24.5156L53.039 15.1328L36.6191 5.68481L20.2643 15.0676Z" fill="#668FFF"/>
<path d="M36.6849 45.3693C36.5546 45.3693 36.4895 45.3693 36.3591 45.3041L18.6361 35.0743C18.4406 34.9439 18.3103 34.7485 18.3103 34.4878L18.2451 15.3313C18.2451 14.9403 18.5057 14.6797 18.8967 14.6797C19.2876 14.6797 19.5483 14.9403 19.5483 15.3313L19.6134 34.0969L36.0334 43.5448L35.9682 25.2353C35.9682 24.8444 36.2288 24.5838 36.6198 24.5838C37.0107 24.5838 37.2714 24.8444 37.2714 25.2353L37.3365 44.7177C37.3365 44.9783 37.2062 45.1738 37.0107 45.3041C36.9456 45.3041 36.8153 45.3693 36.6849 45.3693Z" fill="#668FFF"/>
<path d="M36.6845 45.3675C36.5542 45.3675 36.489 45.3675 36.3587 45.3023C36.1633 45.172 36.0329 44.9765 36.0329 44.7159L35.9678 32.5964C35.9678 32.2055 36.2284 31.9449 36.6194 31.9449C36.9451 31.9449 37.2709 32.2055 37.2709 32.5964L37.3361 43.6082L44.6338 39.2426C44.9596 39.0471 45.3506 39.1774 45.5461 39.5032C45.7415 39.829 45.6112 40.22 45.2854 40.4155L37.0103 45.3023C36.9452 45.3023 36.8148 45.3675 36.6845 45.3675ZM54.3424 24.2562C53.9515 24.2562 53.6909 23.9955 53.6909 23.6046V15.134C53.6909 14.7431 53.9515 14.4824 54.3424 14.4824C54.7334 14.4824 54.994 14.7431 54.994 15.134V23.6046C54.994 23.9304 54.7334 24.2562 54.3424 24.2562Z" fill="#668FFF"/>
<path d="M32.3192 42.3706C31.9282 42.3706 31.6024 42.0448 31.6024 41.6539V27.7751L23.3925 23.0186V36.1806C23.3925 36.5715 23.0667 36.8973 22.6757 36.8973C22.2848 36.8973 21.959 36.5715 21.959 36.1806V21.7806C21.959 21.5199 22.0893 21.2593 22.3499 21.129C22.5454 20.9987 22.8712 20.9987 23.0667 21.129L32.7101 26.6674C32.9056 26.7978 33.1011 27.0584 33.1011 27.319V41.5887C33.0359 42.0448 32.7101 42.3706 32.3192 42.3706Z" fill="#668FFF"/>
<path d="M32.3195 31.2928C32.1892 31.2928 32.0588 31.2928 31.9285 31.2277L22.2851 25.6892C21.9593 25.4938 21.829 25.0376 22.0245 24.7119C22.2199 24.3861 22.676 24.2557 23.0018 24.4512L32.6453 29.9897C32.9711 30.1852 33.1014 30.6413 32.9059 30.9671C32.7756 31.1625 32.5801 31.2928 32.3195 31.2928Z" fill="#668FFF"/>
<path d="M32.3195 34.0956C32.1892 34.0956 32.0588 34.0956 31.9285 34.0304L22.2851 28.492C21.9593 28.2965 21.829 27.8404 22.0245 27.5146C22.2199 27.1888 22.676 27.0585 23.0018 27.254L32.6453 32.7273C32.9711 32.9227 33.1014 33.3788 32.9059 33.7046C32.7756 33.9653 32.5801 34.0956 32.3195 34.0956Z" fill="#668FFF"/>
<path d="M57.4695 39.3714H50.1066C46.1319 39.3714 42.874 36.1135 42.874 32.1388C42.874 28.1642 46.1319 24.9062 50.1066 24.9062H50.8233C54.798 24.9062 58.0559 28.1642 58.0559 32.1388V38.785C58.0559 39.1108 57.7953 39.3714 57.4695 39.3714ZM50.1066 26.0791C46.7835 26.0791 44.0469 28.8158 44.0469 32.1388C44.0469 35.4619 46.7835 38.1986 50.1066 38.1986H56.8831V32.1388C56.8831 28.8158 54.1464 26.0791 50.8233 26.0791H50.1066Z" fill="#668FFF"/>
<path d="M50.4328 35.8538C48.4129 35.8538 46.7188 34.1597 46.7188 32.1398C46.7188 30.1199 48.4129 28.4258 50.4328 28.4258C52.4527 28.4258 54.1468 30.1199 54.1468 32.1398C54.1468 34.1597 52.5178 35.8538 50.4328 35.8538ZM50.4328 29.5986C49.0644 29.5986 47.8916 30.7063 47.8916 32.1398C47.8916 33.5081 48.9993 34.681 50.4328 34.681C51.8663 34.681 52.974 33.5733 52.974 32.1398C52.974 30.7063 51.8663 29.5986 50.4328 29.5986Z" fill="#1FD157"/>
<path d="M61.5087 41.1313C61.1829 41.1313 60.9223 40.8707 60.9223 40.5449V39.3721H55.5142C55.1884 39.3721 54.9277 39.1114 54.9277 38.7856C54.9277 38.4599 55.1884 38.1992 55.5142 38.1992H61.5087C61.8345 38.1992 62.0952 38.4599 62.0952 38.7856V40.5449C62.1603 40.8707 61.8345 41.1313 61.5087 41.1313Z" fill="#668FFF"/>
<path d="M15.7043 12.4643C15.5088 12.4643 15.3133 12.334 15.183 12.2037C14.9875 11.9431 15.1178 11.5521 15.3785 11.4218L33.1015 0.996461C33.3622 0.800986 33.7531 0.931303 33.8834 1.19194C34.0789 1.45257 33.9486 1.84352 33.688 1.97384L15.9649 12.3992C15.8997 12.3992 15.8346 12.4643 15.7043 12.4643Z" fill="#668FFF"/>
<path d="M15.0526 12.7873C14.8571 12.7873 14.6616 12.657 14.5313 12.5267C14.401 12.3312 14.401 12.0706 14.5313 11.8751L16.5512 8.87782C16.7467 8.61719 17.0725 8.55203 17.3983 8.68235C17.6589 8.87782 17.7241 9.20361 17.5938 9.5294L16.2906 11.4842L19.2227 11.1584C19.5485 11.0932 19.8092 11.3538 19.8743 11.6796C19.9395 12.0054 19.6788 12.2661 19.3531 12.3312L15.0526 12.7873C15.1178 12.7873 15.1178 12.7873 15.0526 12.7873Z" fill="#668FFF"/>
<path d="M31.8629 4.7099C31.7326 4.7099 31.6674 4.7099 31.5371 4.57959C31.2765 4.38411 31.2113 4.05832 31.3416 3.73253L32.6448 1.77778L29.7778 2.10357C29.4521 2.16873 29.1914 1.90809 29.1263 1.5823C29.0611 1.25651 29.3217 0.995876 29.6475 0.930718L33.8177 0.474609C34.0783 0.474609 34.2738 0.539767 34.4041 0.735243C34.5344 0.930718 34.5344 1.19135 34.4041 1.38683L32.3842 4.38411C32.2539 4.57959 32.0584 4.7099 31.8629 4.7099Z" fill="#668FFF"/>
<path d="M56.8834 11.9409C56.7531 11.9409 56.6879 11.9409 56.5576 11.8757L38.8345 1.4504C38.5739 1.25492 38.4436 0.929133 38.639 0.668499C38.8345 0.407866 39.1603 0.277549 39.4209 0.473024L57.144 10.8984C57.4047 11.0938 57.535 11.4196 57.3395 11.6803C57.2743 11.8106 57.0789 11.9409 56.8834 11.9409Z" fill="#668FFF"/>
<path d="M57.5352 12.3321C57.47 12.3321 57.47 12.3321 57.5352 12.3321L53.2999 11.876C52.9741 11.8109 52.7134 11.5502 52.7786 11.2244C52.8438 10.8986 53.1044 10.638 53.4302 10.7032L56.3623 11.029L55.0591 9.0742C54.8637 8.81357 54.9288 8.42262 55.2546 8.22714C55.5153 8.03167 55.9062 8.09683 56.1017 8.42262L58.1216 11.4199C58.2519 11.6154 58.2519 11.876 58.1216 12.0715C57.9261 12.2018 57.7306 12.3321 57.5352 12.3321Z" fill="#668FFF"/>
<path d="M40.7249 4.18709C40.5294 4.18709 40.3339 4.12193 40.2036 3.92645L38.1837 0.929167C38.0534 0.733691 38.0534 0.473058 38.1837 0.277583C38.314 0.0821077 38.5095 -0.0482087 38.7701 0.0169496L42.9402 0.473058C43.266 0.538216 43.5267 0.79885 43.4615 1.12464C43.3963 1.45043 43.1357 1.71107 42.8099 1.64591L39.8778 1.32012L41.181 3.27487C41.3764 3.5355 41.3113 3.92645 40.9855 4.12193C40.9203 4.18709 40.79 4.18709 40.7249 4.18709Z" fill="#668FFF"/>
<path d="M14.5308 35.9829C14.205 35.9829 13.9443 35.7223 13.9443 35.3965L14.0095 14.8716C14.0095 14.5458 14.2701 14.2852 14.5959 14.2852C14.9217 14.2852 15.1823 14.5458 15.1823 14.8716L15.1172 35.3965C15.1172 35.7223 14.8566 35.9829 14.5308 35.9829Z" fill="#668FFF"/>
<path d="M14.5309 36.6992C14.2703 36.6992 14.0748 36.5689 14.0097 36.3734L12.3156 32.5291C12.1852 32.2033 12.3156 31.8775 12.6414 31.7472C12.9671 31.6169 13.2929 31.7472 13.4233 32.073L14.5961 34.7445L15.6386 32.6594C15.769 32.3988 16.1599 32.2685 16.4205 32.3988C16.7463 32.5291 16.8115 32.9201 16.6812 33.1807L15.0522 36.4386C14.9219 36.5689 14.7264 36.6992 14.5309 36.6992Z" fill="#668FFF"/>
<path d="M16.3548 18.652C16.1593 18.652 15.8987 18.5216 15.8335 18.3262L14.6607 15.6547L13.6182 17.7397C13.4878 18.0004 13.0969 18.1307 12.8363 18.0004C12.5105 17.8701 12.4453 17.4791 12.5756 17.2185L14.2046 13.9606C14.3349 13.7651 14.5304 13.6348 14.7258 13.6348C14.9865 13.6348 15.182 13.7651 15.2471 13.9606L16.9412 17.8049C17.0715 18.1307 16.9412 18.4565 16.6154 18.5868C16.5503 18.652 16.42 18.652 16.3548 18.652Z" fill="#668FFF"/>
</svg>
