<svg width="72" height="55" viewBox="0 0 72 55" fill="none" xmlns="http://www.w3.org/2000/svg">
<path d="M58.4652 54.71H51.8746C51.8037 54.71 51.7328 54.71 51.7328 54.71C51.662 54.71 51.5911 54.71 51.5911 54.6391C51.5202 54.6391 51.5202 54.5682 51.4494 54.5682C51.3785 54.5682 51.3785 54.4974 51.3077 54.4265C51.2368 54.3556 51.2368 54.3556 51.1659 54.2848C51.1659 54.2139 51.095 54.2139 51.095 54.143C51.095 54.0722 51.0242 54.0013 51.0242 54.0013C51.0242 53.9304 51.0242 53.8596 51.0242 53.8596C51.0242 53.7887 51.0242 53.7178 51.0242 53.7178C51.0242 53.647 51.0242 53.5761 51.095 53.5761C51.095 53.5052 51.1659 53.5052 51.1659 53.4344C51.1659 53.3635 51.2368 53.3635 51.3077 53.2926C51.3785 53.2217 51.3785 53.2218 51.4494 53.1509C51.5202 53.1509 51.5202 53.08 51.5911 53.08C51.662 53.08 51.7328 53.0092 51.7328 53.0092C51.8037 53.0092 51.8746 53.0092 51.8746 53.0092H58.4652C58.5361 53.0092 58.6069 53.0092 58.6069 53.0092C58.6778 53.0092 58.7487 53.0092 58.7487 53.08C58.8195 53.08 58.8195 53.1509 58.8904 53.1509C58.9613 53.1509 58.9613 53.2217 59.0321 53.2926C59.103 53.3635 59.103 53.3635 59.1739 53.4344C59.1739 53.5052 59.2447 53.5052 59.2447 53.5761C59.2447 53.6469 59.3156 53.7178 59.3156 53.7178C59.3156 53.7887 59.3156 53.8596 59.3156 53.8596C59.3156 53.9304 59.3156 54.0013 59.3156 54.0013C59.3156 54.0722 59.3156 54.143 59.2447 54.143C59.2447 54.2139 59.1739 54.2139 59.1739 54.2848C59.1739 54.3556 59.103 54.3556 59.0321 54.4265C58.9613 54.4974 58.9613 54.4974 58.8904 54.5682C58.8195 54.5682 58.8195 54.6391 58.7487 54.6391C58.6778 54.6391 58.6069 54.71 58.6069 54.71C58.5361 54.71 58.5361 54.71 58.4652 54.71ZM5.59849 14.4575C5.45675 14.4575 5.38589 14.4575 5.24415 14.3867C5.10242 14.3158 5.03155 14.3158 4.96068 14.1741L0.283468 9.56773C0.212601 9.49686 0.212601 9.49686 0.141734 9.42599C0.141734 9.35513 0.0708669 9.35513 0.0708669 9.28426C0.0708669 9.21339 0 9.14253 0 9.14253C0 9.07166 0 9.00079 0 9.00079C0 8.92993 0 8.85906 0 8.85906C0 8.78819 -6.864e-08 8.71733 0.0708669 8.71733C0.0708669 8.64646 0.141734 8.64646 0.141734 8.57559C0.141734 8.50473 0.212601 8.50472 0.283468 8.43386C0.354335 8.36299 0.354335 8.36299 0.425201 8.29213C0.496068 8.29213 0.496068 8.22126 0.566935 8.22126C0.637802 8.15039 0.708669 8.15039 0.779536 8.15039C0.850403 8.15039 0.92127 8.15039 0.92127 8.15039C0.992137 8.15039 1.063 8.15039 1.063 8.15039C1.13387 8.15039 1.20474 8.15039 1.20474 8.22126C1.2756 8.22126 1.2756 8.29213 1.34647 8.29213C1.41734 8.29213 1.41734 8.36299 1.48821 8.43386L6.09456 13.0402C6.16542 13.1111 6.16542 13.1111 6.23629 13.1819C6.23629 13.2528 6.30716 13.2528 6.30716 13.3237C6.30716 13.3945 6.37802 13.4654 6.37802 13.4654C6.37802 13.5363 6.37802 13.6071 6.37802 13.6071C6.37802 13.678 6.37802 13.7489 6.37802 13.7489C6.37802 13.8197 6.37802 13.8906 6.30716 13.8906C6.30716 13.9615 6.23629 13.9615 6.23629 14.0323C6.23629 14.1032 6.16542 14.1032 6.09456 14.1741C6.02369 14.2449 5.88195 14.3158 5.81109 14.3158C5.81109 14.4575 5.66935 14.4575 5.59849 14.4575Z" fill="#668FFF"/>
<path d="M0.920715 14.4575C0.778982 14.4575 0.708115 14.4575 0.566381 14.3867C0.424647 14.3158 0.35378 14.3158 0.282913 14.1741C0.212046 14.1032 0.212046 14.1032 0.141179 14.0323C0.141179 13.9615 0.0703125 13.9615 0.0703125 13.8906C0.141179 13.8906 0.0703125 13.8197 0.0703125 13.7489C0.0703125 13.678 0.0703125 13.6071 0.0703125 13.6071C0.0703125 13.5363 0.0703125 13.4654 0.0703125 13.4654C0.0703125 13.3945 0.0703124 13.3237 0.141179 13.3237C0.141179 13.2528 0.212046 13.2528 0.212046 13.1819C0.212046 13.1111 0.282913 13.1111 0.35378 13.0402L4.96013 8.43386C5.031 8.36299 5.031 8.36299 5.10186 8.29213C5.17273 8.29213 5.17273 8.22126 5.2436 8.22126C5.31447 8.22126 5.38533 8.15039 5.38533 8.15039C5.4562 8.15039 5.52707 8.15039 5.52707 8.15039C5.59793 8.15039 5.6688 8.15039 5.6688 8.15039C5.73967 8.15039 5.81053 8.15039 5.81053 8.22126C5.8814 8.22126 5.8814 8.29213 5.95227 8.29213C6.02313 8.29213 6.02313 8.36299 6.094 8.43386C6.16487 8.50472 6.16487 8.50473 6.23573 8.57559C6.23573 8.64646 6.3066 8.64646 6.3066 8.71733C6.3066 8.78819 6.37747 8.85906 6.37747 8.85906C6.37747 8.92993 6.37747 9.00079 6.37747 9.00079C6.37747 9.07166 6.37747 9.14253 6.37747 9.14253C6.37747 9.21339 6.37747 9.28426 6.3066 9.28426C6.3066 9.35513 6.23573 9.35513 6.23573 9.42599C6.23573 9.49686 6.16487 9.49686 6.094 9.56773L1.48765 14.1741C1.41678 14.2449 1.34592 14.3158 1.20418 14.3867C1.13332 14.4575 1.06245 14.4575 0.920715 14.4575Z" fill="#668FFF"/>
<path d="M68.315 7.37016C68.1732 7.37016 68.1024 7.37016 67.9606 7.37016C67.8189 7.37016 67.748 7.37016 67.6063 7.29929C67.4646 7.29929 67.3937 7.22843 67.252 7.22843C67.1102 7.22843 67.0394 7.15756 66.8976 7.08669C66.7559 7.01582 66.685 7.01582 66.5433 6.94496C66.4016 6.87409 66.3307 6.80322 66.2598 6.73236C66.189 6.66149 66.0472 6.59062 65.9764 6.51976C65.9055 6.44889 65.7638 6.37802 65.6929 6.30716C65.622 6.23629 65.5512 6.16542 65.4803 6.02369C65.4094 5.95282 65.3386 5.81109 65.2677 5.74022C65.1968 5.66935 65.126 5.52762 65.0551 5.45675C64.9842 5.31502 64.9134 5.24415 64.9134 5.10242C64.8425 4.96068 64.8425 4.88982 64.7716 4.74808C64.7716 4.60635 64.7007 4.53548 64.7007 4.39375C64.7007 4.25202 64.6299 4.18115 64.6299 4.03941C64.6299 3.89768 64.6299 3.82681 64.6299 3.68508C64.6299 3.54335 64.6299 3.47248 64.6299 3.33075C64.6299 3.18901 64.6299 3.11814 64.7007 2.97641C64.7007 2.83468 64.7716 2.76381 64.7716 2.62208C64.7716 2.48034 64.8425 2.40948 64.9134 2.26774C64.9842 2.12601 64.9842 2.05514 65.0551 1.91341C65.126 1.77167 65.1968 1.70081 65.2677 1.62994C65.3386 1.55907 65.4094 1.41734 65.4803 1.34647C65.5512 1.2756 65.622 1.13387 65.6929 1.063C65.7638 0.992137 65.8346 0.92127 65.9764 0.850403C66.0472 0.779536 66.189 0.708669 66.2598 0.637802C66.3307 0.566935 66.4724 0.496069 66.5433 0.425202C66.685 0.354335 66.7559 0.283467 66.8976 0.283467C67.0394 0.2126 67.1102 0.212601 67.252 0.141734C67.3937 0.141734 67.4646 0.0708672 67.6063 0.0708672C67.748 0.0708672 67.8189 0 67.9606 0C68.1024 0 68.1732 0 68.315 0C68.4567 0 68.5276 0 68.6693 0C68.811 0 68.8819 2.6928e-07 69.0236 0.0708672C69.1654 0.0708672 69.2362 0.141734 69.378 0.141734C69.5197 0.141734 69.5906 0.2126 69.7323 0.283467C69.874 0.354334 69.9449 0.354335 70.0866 0.425202C70.2284 0.496069 70.2992 0.566935 70.3701 0.637802C70.441 0.708669 70.5827 0.779536 70.6536 0.850403C70.7244 0.92127 70.8662 0.992137 70.937 1.063C71.0079 1.13387 71.0788 1.20474 71.1496 1.34647C71.2205 1.41734 71.2914 1.55907 71.3622 1.62994C71.4331 1.70081 71.504 1.84254 71.5748 1.91341C71.6457 2.05514 71.7166 2.12601 71.7166 2.26774C71.7874 2.40948 71.7874 2.48034 71.8583 2.62208C71.8583 2.76381 71.9292 2.83468 71.9292 2.97641C71.9292 3.11814 72 3.18901 72 3.33075C72 3.47248 72 3.54335 72 3.68508C72 3.82681 72 3.89768 72 4.03941C72 4.18115 72 4.25202 71.9292 4.39375C71.9292 4.53548 71.8583 4.60635 71.8583 4.74808C71.8583 4.88982 71.7874 4.96068 71.7166 5.10242C71.6457 5.24415 71.6457 5.31502 71.5748 5.45675C71.504 5.59849 71.4331 5.66935 71.3622 5.74022C71.2914 5.81109 71.2205 5.95282 71.1496 6.02369C71.0788 6.09455 71.0079 6.23629 70.937 6.30716C70.8662 6.37802 70.7953 6.44889 70.6536 6.51976C70.5827 6.59062 70.441 6.66149 70.3701 6.73236C70.2992 6.80322 70.1575 6.87409 70.0866 6.94496C69.9449 7.01582 69.874 7.08669 69.7323 7.08669C69.5906 7.15756 69.5197 7.15756 69.378 7.22843C69.2362 7.22843 69.1654 7.29929 69.0236 7.29929C68.8819 7.29929 68.811 7.37016 68.6693 7.37016C68.5276 7.29929 68.4567 7.37016 68.315 7.37016Z" fill="#668FFF"/>
<path d="M68.3146 1.34766C68.2438 1.34766 68.1729 1.34766 68.102 1.34766C68.0311 1.34766 67.9603 1.34766 67.8894 1.34766C67.8185 1.34766 67.7477 1.34766 67.6768 1.41852C67.6059 1.41852 67.5351 1.48939 67.4642 1.48939C67.3933 1.48939 67.3225 1.56026 67.2516 1.56026C67.1807 1.56026 67.1099 1.63112 67.039 1.70199C66.9681 1.77286 66.8973 1.77286 66.8264 1.84373C66.7555 1.91459 66.6847 1.91459 66.6847 1.98546C66.6138 2.05633 66.6138 2.12719 66.5429 2.12719C66.4721 2.19806 66.4721 2.26893 66.4012 2.33979C66.3303 2.41066 66.3303 2.48153 66.2595 2.55239C66.2595 2.62326 66.1886 2.69413 66.1886 2.76499C66.1886 2.83586 66.1177 2.90673 66.1177 2.9776C66.1177 3.04846 66.0469 3.11933 66.0469 3.1902C66.0469 3.26106 66.0469 3.33193 66.0469 3.4028C66.0469 3.47366 66.0469 3.54453 66.0469 3.6154C66.0469 3.68627 66.0469 3.75713 66.0469 3.828C66.0469 3.89887 66.0469 3.96973 66.0469 4.0406C66.0469 4.11147 66.0469 4.18233 66.1177 4.2532C66.1177 4.32407 66.1886 4.39493 66.1886 4.4658C66.1886 4.53667 66.2595 4.60754 66.2595 4.6784C66.2595 4.74927 66.3303 4.82014 66.4012 4.891C66.4721 4.96187 66.4721 5.03274 66.5429 5.1036C66.6138 5.17447 66.6138 5.24534 66.6847 5.24534C66.7555 5.3162 66.8264 5.3162 66.8264 5.38707C66.8973 5.45794 66.9681 5.45794 67.039 5.5288C67.1099 5.59967 67.1807 5.59967 67.2516 5.67054C67.3225 5.74141 67.3933 5.74141 67.4642 5.74141C67.5351 5.74141 67.6059 5.81227 67.6768 5.81227C67.7477 5.81227 67.8185 5.88314 67.8894 5.88314C67.9603 5.88314 68.0311 5.88314 68.102 5.88314C68.1729 5.88314 68.2438 5.88314 68.3146 5.88314C68.3855 5.88314 68.4564 5.88314 68.5272 5.88314C68.5981 5.88314 68.669 5.88314 68.7398 5.88314C68.8107 5.88314 68.8816 5.88314 68.9524 5.81227C69.0233 5.81227 69.0942 5.74141 69.165 5.74141C69.2359 5.74141 69.3068 5.67054 69.3776 5.67054C69.4485 5.67054 69.5194 5.59967 69.5902 5.5288C69.6611 5.45794 69.732 5.45794 69.8028 5.38707C69.8737 5.3162 69.9446 5.3162 69.9446 5.24534C70.0154 5.17447 70.0154 5.1036 70.0863 5.1036C70.1572 5.03274 70.1572 4.96187 70.228 4.891C70.2989 4.82014 70.2989 4.74927 70.3698 4.6784C70.3698 4.60754 70.4406 4.53667 70.4406 4.4658C70.4406 4.39493 70.5115 4.32407 70.5115 4.2532C70.5115 4.18233 70.5824 4.11147 70.5824 4.0406C70.5824 3.96973 70.5824 3.89887 70.5824 3.828C70.5824 3.75713 70.5824 3.68627 70.5824 3.6154C70.5824 3.54453 70.5824 3.47366 70.5824 3.4028C70.5824 3.33193 70.5824 3.26106 70.5824 3.1902C70.5824 3.11933 70.5824 3.04846 70.5115 2.9776C70.5115 2.90673 70.4406 2.83586 70.4406 2.76499C70.4406 2.69413 70.3698 2.62326 70.3698 2.55239C70.3698 2.48153 70.2989 2.41066 70.228 2.33979C70.1572 2.26893 70.1572 2.19806 70.0863 2.12719C70.0154 2.05633 70.0154 1.98546 69.9446 1.98546C69.8737 1.91459 69.8028 1.91459 69.8028 1.84373C69.732 1.77286 69.6611 1.77286 69.5902 1.70199C69.5194 1.63112 69.4485 1.63112 69.3776 1.56026C69.3068 1.56026 69.2359 1.48939 69.165 1.48939C69.0942 1.48939 69.0233 1.41852 68.9524 1.41852C68.8816 1.41852 68.8107 1.34766 68.7398 1.34766C68.669 1.34766 68.5981 1.34766 68.5272 1.34766C68.4564 1.41852 68.3855 1.34766 68.3146 1.34766Z" fill="white"/>
<path d="M47.2685 49.1144H26.2211C24.0242 49.1144 22.1816 46.9884 22.1816 44.3663V5.03519C22.1816 2.41312 23.9533 0.287109 26.2211 0.287109H47.2685C49.4654 0.287109 51.3079 2.41312 51.3079 5.03519V44.3663C51.3079 46.9884 49.4654 49.1144 47.2685 49.1144ZM26.2211 1.70445C24.8037 1.70445 23.599 3.19265 23.599 5.03519V44.3663C23.599 46.2089 24.7329 47.6971 26.2211 47.6971H47.2685C48.6859 47.6971 49.8906 46.2089 49.8906 44.3663V5.03519C49.8906 3.19265 48.7567 1.70445 47.2685 1.70445H26.2211Z" fill="#668FFF"/>
<path d="M45.0718 41.8106H28.4181C26.859 41.8106 25.6543 40.3224 25.6543 38.5507V7.36925C25.6543 5.59758 26.9299 4.10938 28.4181 4.10938H45.1427C46.7018 4.10938 47.9065 5.59758 47.9065 7.36925V38.4798C47.9065 40.3224 46.6309 41.8106 45.0718 41.8106ZM28.4181 5.59758C27.7094 5.59758 27.0716 6.44798 27.0716 7.44012V38.5507C27.0716 39.5428 27.7094 40.3932 28.4181 40.3932H45.1427C45.8514 40.3932 46.4892 39.5428 46.4892 38.5507V7.44012C46.4892 6.44798 45.8514 5.59758 45.1427 5.59758H28.4181Z" fill="#668FFF"/>
<path d="M36.7795 47.057C35.5039 47.057 34.5117 46.0648 34.5117 44.7892C34.5117 43.5136 35.5039 42.5215 36.7795 42.5215C38.0551 42.5215 39.0472 43.5136 39.0472 44.7892C39.0472 46.0648 37.9842 47.057 36.7795 47.057ZM36.7795 43.9388C36.2834 43.9388 35.9291 44.2932 35.9291 44.7892C35.9291 45.2853 36.2834 45.6396 36.7795 45.6396C37.2755 45.6396 37.6299 45.2853 37.6299 44.7892C37.6299 44.2932 37.2047 43.9388 36.7795 43.9388Z" fill="#1FD157"/>
<path d="M58.891 33.2354H38.127C36.0719 33.2354 34.3711 31.5346 34.3711 29.4794V18.6368C34.3711 16.5817 36.0719 14.8809 38.127 14.8809H58.891C60.9462 14.8809 62.647 16.5817 62.647 18.6368V29.4086C62.647 31.5346 61.0171 33.2354 58.891 33.2354Z" fill="white"/>
<g opacity="0.2392">
<path opacity="0.2392" d="M38.197 19.5566H61.3704C63.1421 19.5566 64.4886 20.974 64.4886 22.6748V33.4466C64.4886 35.2182 63.0712 36.5647 61.3704 36.5647H40.6064C38.8348 36.5647 37.4883 35.1474 37.4883 33.4466V20.3362C37.4883 19.911 37.8426 19.5566 38.197 19.5566Z" fill="#9EBBFF"/>
</g>
<path d="M58.8907 33.9432H37.4889C35.3629 33.9432 33.6621 32.2424 33.6621 30.1164V18.069C33.6621 15.943 35.3629 14.2422 37.4889 14.2422H59.5285C61.6545 14.2422 63.3553 15.943 63.3553 18.069V29.4786C63.4262 30.6124 62.9301 31.7463 62.1506 32.5967C61.3002 33.4471 60.0955 33.9432 58.8907 33.9432ZM37.4889 15.6595C36.1424 15.6595 35.0794 16.7225 35.0794 18.069V30.1164C35.0794 31.4629 36.1424 32.5259 37.4889 32.5259H58.8907C59.7411 32.5259 60.5207 32.1715 61.0876 31.6046C61.6545 31.0376 61.938 30.329 61.8671 29.5494V17.9981C61.8671 16.6517 60.8041 15.5887 59.4577 15.5887H37.4889V15.6595Z" fill="#668FFF"/>
<path d="M55.3477 20.1244H34.5837C34.1585 20.1244 33.875 19.77 33.875 19.4157C33.875 19.0614 34.2293 18.707 34.5837 18.707H55.3477C55.7729 18.707 56.0563 19.0614 56.0563 19.4157C56.0563 19.77 55.7729 20.1244 55.3477 20.1244Z" fill="#668FFF"/>
<path d="M62.0081 24.0228H35.2204C34.7952 24.0228 34.5117 23.6685 34.5117 23.3141C34.5117 22.9598 34.8661 22.6055 35.2204 22.6055H61.9372C62.3624 22.6055 62.6459 22.9598 62.6459 23.3141C62.6459 23.6685 62.3624 24.0228 62.0081 24.0228Z" fill="#668FFF"/>
<path d="M59.3163 30.2591H49.1823C48.7571 30.2591 48.4736 29.9048 48.4736 29.5505C48.4736 29.1961 48.828 28.8418 49.1823 28.8418H59.3163C59.7415 28.8418 60.0249 29.1961 60.0249 29.5505C60.0249 29.9048 59.7415 30.2591 59.3163 30.2591Z" fill="#1FD157"/>
</svg>
