<svg width="22" height="22" viewBox="0 0 22 22" fill="none" xmlns="http://www.w3.org/2000/svg">
<path d="M11 22C17.0751 22 22 17.0751 22 11C22 4.92487 17.0751 0 11 0C4.92487 0 0 4.92487 0 11C0 17.0751 4.92487 22 11 22Z" fill="#039BE5"/>
<path d="M5.03341 10.7623L15.6392 6.6731C16.1315 6.49526 16.5614 6.79318 16.4019 7.53751L16.4028 7.53659L14.597 16.0442C14.4632 16.6473 14.1047 16.794 13.6033 16.5098L10.8533 14.4831L9.52691 15.7609C9.38025 15.9076 9.2565 16.0313 8.97233 16.0313L9.16758 13.2328L14.2642 8.62835C14.4861 8.43309 14.2147 8.3231 13.9223 8.51743L7.62391 12.4829L4.90875 11.6359C4.31933 11.4489 4.3065 11.0465 5.03341 10.7623Z" fill="white"/>
</svg>
