<svg width="35" height="28" viewBox="0 0 35 28" fill="none" xmlns="http://www.w3.org/2000/svg">
<rect width="35" height="28" fill="white"/>
<path d="M18.8241 20.9415C18.8241 20.9415 19.3114 20.8923 19.561 20.6486C19.7895 20.4254 19.7815 20.0041 19.7815 20.0041C19.7815 20.0041 19.7512 18.0369 20.7561 17.7464C21.7465 17.4608 23.0183 19.6488 24.3679 20.4902C25.3874 21.1263 26.1612 20.9871 26.1612 20.9871L29.7677 20.9415C29.7677 20.9415 31.6535 20.8359 30.7594 19.488C30.6855 19.3776 30.2378 18.4906 28.0787 16.6686C25.8165 14.7614 26.1203 15.0699 28.8433 11.7704C30.5019 9.76117 31.1649 8.53452 30.9575 8.01001C30.7608 7.50831 29.5406 7.64154 29.5406 7.64154L25.4811 7.66434C25.4811 7.66434 25.18 7.62713 24.9569 7.74836C24.739 7.86718 24.5977 8.14444 24.5977 8.14444C24.5977 8.14444 23.9559 9.69876 23.0988 11.0214C21.2909 13.8108 20.5686 13.9584 20.2728 13.7856C19.5848 13.3811 19.7564 12.1629 19.7564 11.2975C19.7564 8.59333 20.2081 7.4663 18.8783 7.17464C18.4372 7.07742 18.1123 7.01381 16.9832 7.003C15.5346 6.9898 14.3091 7.0078 13.6145 7.31627C13.1523 7.52151 12.7957 7.98 13.0136 8.00641C13.2817 8.03882 13.8891 8.15524 14.2114 8.55372C14.6273 9.06863 14.6128 10.2233 14.6128 10.2233C14.6128 10.2233 14.8518 13.4063 14.0542 13.8012C13.5075 14.0725 12.7574 13.5191 11.145 10.9878C10.3196 9.69156 9.69633 8.25846 9.69633 8.25846C9.69633 8.25846 9.57616 7.99081 9.36091 7.84678C9.10076 7.67274 8.7376 7.61873 8.7376 7.61873L4.88021 7.64154C4.88021 7.64154 4.30048 7.65594 4.08787 7.88519C3.89903 8.08803 4.07334 8.50931 4.07334 8.50931C4.07334 8.50931 7.09349 14.9318 10.5138 18.1689C13.6501 21.1359 17.2104 20.9415 17.2104 20.9415H18.8241Z" fill="#4A76A8"/>
</svg>
